<?xml version="1.0" standalone="no"?>
<!DOCTYPE svg PUBLIC "-//W3C//DTD SVG 1.1//EN" "http://www.w3.org/Graphics/SVG/1.1/DTD/svg11.dtd" >
<svg>
<metadata>
Created by FontForge 20120731 at Thu Dec 17 11:05:19 2015
 By ,,,
Copyright (c) 2014 by Rene' Bieder. All rights reserved.
</metadata>
<defs>
<font id="GalanoGrotesqueAlt-Thin" horiz-adv-x="610" >
  <font-face 
    font-family="Galano Grotesque Alt Thin"
    font-weight="400"
    font-stretch="normal"
    units-per-em="1000"
    panose-1="0 0 3 0 0 0 0 0 0 0"
    ascent="757"
    descent="-243"
    x-height="486"
    cap-height="670"
    bbox="-170 -250 1180 987"
    underline-thickness="50"
    underline-position="-50"
    unicode-range="U+0020-FB02"
  />
<missing-glyph horiz-adv-x="814" 
d="M407 683q145 0 246 -99.5t101 -250.5q0 -150 -101 -249t-246 -99t-246 99t-101 249q0 151 101 250.5t246 99.5zM407 665q-136 0 -231.5 -94t-95.5 -237q0 -141 95.5 -235.5t231.5 -94.5t231.5 94.5t95.5 235.5q0 143 -95.5 237t-231.5 94zM536 401q0 -49 -35 -81.5
t-87 -35.5v-56h-21v77h11q47 0 78.5 26.5t31.5 69.5t-28.5 69t-76.5 26q-50 0 -79.5 -31t-27.5 -81l-22 2q-1 58 35 94t94 36q56 0 91.5 -32t35.5 -83zM404 181q7 0 12.5 -5t5.5 -12t-5.5 -13t-12.5 -6q-8 0 -13.5 5.5t-5.5 13.5q0 7 5.5 12t13.5 5z" />
    <glyph glyph-name="fi" unicode="fi" horiz-adv-x="594" 
d="M479 486v-486h-21v466h-322v-466h-21v466h-95v20h95v141q0 70 37.5 111.5t103.5 41.5q54 0 94 -30l-11 -16q-37 26 -82 26q-57 0 -89 -36.5t-32 -96.5v-141h343zM468 659q10 0 17.5 -7t7.5 -17t-7 -17t-18 -7t-18 7t-7 17t7.5 17t17.5 7z" />
    <glyph glyph-name="fl" unicode="fl" horiz-adv-x="637" 
d="M136 486h207v-20h-207v-466h-21v466h-95v20h95v141q0 70 37.5 111.5t103.5 41.5q38 0 72 -16l-9 -18q-28 14 -62 14q-57 0 -89 -36.5t-32 -96.5v-141zM598 28l9 -17q-30 -21 -67 -21q-46 0 -74 28.5t-28 74.5v677h21v-677q0 -37 22.5 -60t60.5 -23q30 0 56 18z" />
    <glyph glyph-name=".notdef" horiz-adv-x="814" 
d="M407 683q145 0 246 -99.5t101 -250.5q0 -150 -101 -249t-246 -99t-246 99t-101 249q0 151 101 250.5t246 99.5zM407 665q-136 0 -231.5 -94t-95.5 -237q0 -141 95.5 -235.5t231.5 -94.5t231.5 94.5t95.5 235.5q0 143 -95.5 237t-231.5 94zM536 401q0 -49 -35 -81.5
t-87 -35.5v-56h-21v77h11q47 0 78.5 26.5t31.5 69.5t-28.5 69t-76.5 26q-50 0 -79.5 -31t-27.5 -81l-22 2q-1 58 35 94t94 36q56 0 91.5 -32t35.5 -83zM404 181q7 0 12.5 -5t5.5 -12t-5.5 -13t-12.5 -6q-8 0 -13.5 5.5t-5.5 13.5q0 7 5.5 12t13.5 5z" />
    <glyph glyph-name=".null" horiz-adv-x="0" 
 />
    <glyph glyph-name="nonmarkingreturn" horiz-adv-x="333" 
 />
    <glyph glyph-name="space" unicode=" " horiz-adv-x="260" 
 />
    <glyph glyph-name="exclam" unicode="!" horiz-adv-x="250" 
d="M136 670v-491h-21v491h21zM125 46q10 0 17.5 -7t7.5 -17t-7 -17t-18 -7t-18 7t-7 17t7.5 17t17.5 7z" />
    <glyph glyph-name="quotedbl" unicode="&#x22;" horiz-adv-x="251" 
d="M60 412v258h21v-258h-21zM170 412v258h21v-258h-21z" />
    <glyph glyph-name="numbersign" unicode="#" horiz-adv-x="665" 
d="M509 452l-63 -244h110l-5 -20h-110l-49 -188h-22l49 188h-247l-49 -188h-22l49 188h-110l5 20h110l63 244h-110l6 20h110l51 198h22l-51 -198h247l51 198h22l-51 -198h110l-6 -20h-110zM487 452h-247l-63 -244h247z" />
    <glyph glyph-name="dollar" unicode="$" horiz-adv-x="573" 
d="M301 348l67 -16q31 -7 52.5 -15t45.5 -24t36.5 -42.5t12.5 -62.5q0 -78 -58.5 -124t-154.5 -46h-1v-118h-21v119q-92 5 -153 54.5t-69 126.5l22 6q8 -71 62.5 -115.5t137.5 -50.5v292l-64 15q-135 31 -135 139q0 75 55.5 119.5t143.5 46.5v118h21v-118q83 -4 136.5 -49
t62.5 -111l-20 -6q-10 62 -58 101t-121 43v-282zM280 354v277q-79 -1 -127.5 -39.5t-48.5 -104.5q0 -53 32.5 -79.5t92.5 -41.5zM301 39h2q86 0 137.5 40.5t51.5 107.5q0 55 -33.5 82.5t-93.5 41.5l-64 15v-287z" />
    <glyph glyph-name="percent" unicode="%" horiz-adv-x="860" 
d="M221 680q67 0 114 -43t47 -114q0 -67 -47.5 -111t-113.5 -44q-64 0 -112.5 44t-48.5 111q0 71 48 114t113 43zM154 0l511 670h23l-511 -670h-23zM221 663q-57 0 -100.5 -39.5t-43.5 -100.5q0 -59 43.5 -97.5t100.5 -38.5t100 38.5t43 97.5q0 61 -43 100.5t-100 39.5z
M639 302q67 0 114 -43t47 -114q0 -67 -47.5 -111t-113.5 -44q-64 0 -112.5 44t-48.5 111q0 71 48 114t113 43zM639 285q-57 0 -100.5 -39.5t-43.5 -100.5q0 -59 43.5 -97.5t100.5 -38.5t100 38.5t43 97.5q0 61 -43 100.5t-100 39.5z" />
    <glyph glyph-name="ampersand" unicode="&#x26;" horiz-adv-x="722" 
d="M680 -10l-142 113q-39 -55 -100 -84t-132 -29q-103 0 -166 51t-63 136q0 67 40 118t100 78q-62 70 -62 141q0 74 48.5 120t125.5 46q72 0 120 -41.5t57 -119.5l-19 -6q-9 75 -51.5 111.5t-107.5 36.5q-67 0 -109.5 -40.5t-42.5 -105.5q0 -44 24 -85.5t64 -79.5t116 -98
l153 -121q42 71 42 164v36h20v-36q0 -103 -46 -176l143 -114zM306 9q66 0 123 27.5t93 78.5l-155 124q-88 69 -136 118q-134 -57 -134 -180q0 -76 57.5 -122t151.5 -46z" />
    <glyph glyph-name="quotesingle" unicode="'" horiz-adv-x="141" 
d="M60 412v258h21v-258h-21z" />
    <glyph glyph-name="parenleft" unicode="(" horiz-adv-x="339" 
d="M92 334q0 -237 177 -402l-14 -14q-185 170 -185 416t185 416l14 -15q-177 -164 -177 -401z" />
    <glyph glyph-name="parenright" unicode=")" horiz-adv-x="339" 
d="M70 735l14 15q185 -170 185 -416t-185 -416l-14 14q177 165 177 402t-177 401z" />
    <glyph glyph-name="asterisk" unicode="*" horiz-adv-x="406" 
d="M224 553l133 -76l-11 -17l-133 75v-151h-20v151l-133 -75l-11 17l133 76l-133 75l11 17l133 -75v150h20v-150l133 75l11 -17z" />
    <glyph glyph-name="plus" unicode="+" horiz-adv-x="580" 
d="M500 295h-200v-200h-20v200h-200v20h200v200h20v-200h200v-20z" />
    <glyph glyph-name="comma" unicode="," horiz-adv-x="168" 
d="M40 -132h-20l72 258h28v-2z" />
    <glyph glyph-name="hyphen" unicode="-" horiz-adv-x="438" 
d="M378 245h-318v20h318v-20z" />
    <glyph glyph-name="period" unicode="." horiz-adv-x="170" 
d="M85 46q10 0 17.5 -7t7.5 -17t-7 -17t-18 -7t-18 7t-7 17t7.5 17t17.5 7z" />
    <glyph glyph-name="slash" unicode="/" horiz-adv-x="318" 
d="M313 740l-288 -812h-20l288 812h20z" />
    <glyph glyph-name="zero" unicode="0" horiz-adv-x="664" 
d="M332 680q120 0 193.5 -95t73.5 -250t-73.5 -250t-193.5 -95t-193.5 95t-73.5 250t73.5 250t193.5 95zM332 11q110 0 177.5 89t67.5 235t-67.5 235.5t-177.5 89.5t-177.5 -89.5t-67.5 -235.5t67.5 -235t177.5 -89z" />
    <glyph glyph-name="one" unicode="1" horiz-adv-x="340" 
d="M240 670v-670h-22v641l-193 -117v25l202 121h13z" />
    <glyph glyph-name="two" unicode="2" horiz-adv-x="506" 
d="M476 20v-20h-446v13l252 223q93 81 127.5 129.5t34.5 114.5q0 81 -53 130.5t-139 49.5q-88 0 -141.5 -54t-54.5 -143l-22 3q2 96 62 155t156 59t154.5 -55t58.5 -145q0 -39 -9.5 -70.5t-35 -64t-50 -57.5t-73.5 -68l-227 -200h406z" />
    <glyph glyph-name="three" unicode="3" horiz-adv-x="600" 
d="M70 213l22 4q3 -94 62 -150.5t156 -56.5q89 0 144 47.5t55 125.5q0 73 -53 113.5t-144 40.5h-58v19h57q82 0 132 39t50 105q0 72 -52.5 116t-137.5 44q-89 0 -143 -51.5t-59 -138.5l-22 4q5 93 65.5 149.5t159.5 56.5q94 0 152 -49.5t58 -130.5q0 -58 -35 -98t-97 -54v-1
q70 -13 109 -55t39 -108q0 -87 -60.5 -140.5t-159.5 -53.5q-106 0 -170.5 61t-69.5 162z" />
    <glyph glyph-name="four" unicode="4" horiz-adv-x="623" 
d="M588 187h-126v-187h-22v187h-390v26l392 457h20v-463h126v-20zM440 207v427l-367 -427h367z" />
    <glyph glyph-name="five" unicode="5" horiz-adv-x="555" 
d="M116 376h177q100 0 156 -46t56 -139q0 -91 -61.5 -146t-162.5 -55q-105 0 -169 62t-66 164l22 4q0 -95 58.5 -152.5t154.5 -57.5q92 0 147.5 49.5t55.5 131.5q0 84 -50.5 124.5t-141.5 40.5h-198l19 314h371v-20h-350z" />
    <glyph glyph-name="six" unicode="6" horiz-adv-x="607" 
d="M521 545l-22 -4q-16 57 -63 88t-113 31q-93 0 -152 -64q-85 -93 -85 -288q0 -41 1 -57h3q10 78 74.5 129.5t153.5 51.5q101 0 162.5 -62.5t61.5 -157.5q0 -96 -61 -159t-163 -63q-124 0 -188.5 83.5t-64.5 235.5q0 208 92 303q66 68 167 68q73 0 126 -35.5t71 -99.5z
M318 11q92 0 147.5 58t55.5 143t-55.5 142t-147.5 57q-97 0 -155 -60.5t-58 -141.5q0 -86 61 -142t152 -56z" />
    <glyph glyph-name="seven" unicode="7" horiz-adv-x="486" 
d="M471 670v-12l-294 -658h-26l294 650h-415v20h441z" />
    <glyph glyph-name="eight" unicode="8" horiz-adv-x="589" 
d="M351 347q96 -12 139.5 -62t43.5 -113q0 -82 -65.5 -132t-172.5 -50q-109 0 -175 50t-66 132q0 64 43.5 113t137.5 62q-86 13 -125 58.5t-39 104.5q0 77 61 123.5t163 46.5q100 0 160.5 -46.5t60.5 -123.5q0 -59 -39 -105t-127 -58zM93 510q-1 -66 53.5 -108.5
t148.5 -42.5q95 0 148 43t53 108q0 67 -55 108.5t-145 41.5q-92 0 -147.5 -41.5t-55.5 -108.5zM295 12q97 0 156 44t59 116q0 69 -56.5 115t-157.5 46q-99 0 -158 -46t-59 -115q0 -72 59.5 -116t156.5 -44z" />
    <glyph glyph-name="nine" unicode="9" horiz-adv-x="607" 
d="M86 125l22 4q16 -57 63 -88t113 -31q93 0 152 64q85 93 85 288q0 41 -1 57h-3q-10 -78 -74.5 -129.5t-153.5 -51.5q-101 0 -162.5 62.5t-61.5 157.5q0 96 61 159t163 63q124 0 188.5 -83.5t64.5 -235.5q0 -208 -92 -303q-66 -68 -167 -68q-73 0 -126 35.5t-71 99.5z
M289 659q-92 0 -147.5 -58t-55.5 -143t55.5 -142t147.5 -57q97 0 155 60.5t58 141.5q0 86 -61 142t-152 56z" />
    <glyph glyph-name="colon" unicode=":" horiz-adv-x="170" 
d="M85 438q10 0 17.5 -7t7.5 -17t-7 -17t-18 -7t-18 7t-7 17t7.5 17t17.5 7zM85 46q10 0 17.5 -7t7.5 -17t-7 -17t-18 -7t-18 7t-7 17t7.5 17t17.5 7z" />
    <glyph glyph-name="semicolon" unicode=";" horiz-adv-x="192" 
d="M107 438q10 0 17.5 -7t7.5 -17t-7 -17t-18 -7t-18 7t-7 17t7.5 17t17.5 7zM40 -132h-20l72 258h28v-2z" />
    <glyph glyph-name="less" unicode="&#x3c;" horiz-adv-x="424" 
d="M384 122l-354 177v12l354 177v-23l-322 -160l322 -160v-23z" />
    <glyph glyph-name="equal" unicode="=" horiz-adv-x="580" 
d="M500 395h-420v20h420v-20zM500 215h-420v20h420v-20z" />
    <glyph glyph-name="greater" unicode="&#x3e;" horiz-adv-x="424" 
d="M362 305l-322 160v23l354 -177v-12l-354 -177v23z" />
    <glyph glyph-name="question" unicode="?" horiz-adv-x="510" 
d="M257 680q96 0 154.5 -55t58.5 -145q0 -86 -61 -142t-151 -60v-99h-22v119h11q84 0 143 51t59 131q0 81 -53 130.5t-139 49.5q-88 0 -141.5 -55.5t-53.5 -144.5l-22 3q0 97 60 157t157 60zM247 46q10 0 17.5 -7t7.5 -17t-7 -17t-18 -7t-18 7t-7 17t7.5 17t17.5 7z" />
    <glyph glyph-name="at" unicode="@" horiz-adv-x="975" 
d="M489 680q173 0 289.5 -109.5t116.5 -279.5q0 -93 -36.5 -157t-109.5 -64q-49 0 -78.5 26.5t-29.5 69.5v23q-23 -52 -69 -82t-104 -30q-82 0 -138.5 56.5t-56.5 145.5t56.5 146t138.5 57q58 0 104 -30t69 -82v102h20v-307q0 -35 24 -56.5t63 -21.5q62 0 94 59.5t32 145.5
q0 161 -110 265.5t-275 104.5q-167 0 -277.5 -107t-110.5 -270q0 -162 108.5 -270.5t263.5 -108.5q59 0 125 16t109 44l11 -18q-45 -29 -114 -45.5t-130 -16.5q-165 0 -279.5 113t-114.5 285t116.5 284t292.5 112zM469 95q73 0 122.5 51.5t49.5 133.5q0 81 -49.5 131.5
t-122.5 50.5q-74 0 -125 -50.5t-51 -131.5q0 -82 51 -133.5t125 -51.5z" />
    <glyph glyph-name="A" unicode="A" horiz-adv-x="678" 
d="M658 0h-23l-91 196h-410l-91 -196h-23l310 670h18zM535 216l-196 423l-196 -423h392z" />
    <glyph glyph-name="B" unicode="B" horiz-adv-x="677" 
d="M464 341v-2q71 -7 112 -50.5t41 -110.5q0 -78 -55.5 -128t-144.5 -50h-312v670h287q95 0 147.5 -46t52.5 -121q0 -63 -35.5 -109t-92.5 -53zM127 650v-301h287q71 0 115 42.5t44 111.5q0 67 -47.5 107t-133.5 40h-265zM127 20h290q80 0 129 44t49 114q0 69 -50.5 110
t-130.5 41h-287v-309z" />
    <glyph glyph-name="C" unicode="C" horiz-adv-x="792" 
d="M413 10q102 0 177.5 47t110.5 126l21 -8q-38 -84 -119.5 -134.5t-189.5 -50.5q-144 0 -243.5 100t-99.5 245t99.5 245t243.5 100q108 0 189.5 -50.5t119.5 -134.5l-20 -8q-34 78 -110.5 125.5t-178.5 47.5q-135 0 -228 -94t-93 -231t93 -231t228 -94z" />
    <glyph glyph-name="D" unicode="D" horiz-adv-x="746" 
d="M105 670h197q178 0 276 -96t98 -239t-98 -239t-276 -96h-197v670zM127 20h174q169 0 261 91t92 224t-92 224t-261 91h-174v-630z" />
    <glyph glyph-name="E" unicode="E" horiz-adv-x="640" 
d="M127 650v-303h418v-20h-418v-307h448v-20h-470v670h470v-20h-448z" />
    <glyph glyph-name="F" unicode="F" horiz-adv-x="585" 
d="M127 650v-303h408v-20h-408v-327h-22v670h460v-20h-438z" />
    <glyph glyph-name="G" unicode="G" horiz-adv-x="814" 
d="M744 345v-10q0 -145 -92.5 -245t-239.5 -100q-144 0 -243 100t-99 245t99 245t243 100q110 0 191 -50.5t118 -134.5l-20 -8q-34 78 -110 125.5t-179 47.5q-135 0 -227.5 -94t-92.5 -231t92.5 -231t227.5 -94q134 0 220 91t90 224h-353v20h375z" />
    <glyph glyph-name="H" unicode="H" horiz-adv-x="739" 
d="M634 670v-670h-22v328h-485v-328h-22v670h22v-322h485v322h22z" />
    <glyph glyph-name="I" unicode="I" horiz-adv-x="422" 
d="M222 650v-630h170v-20h-362v20h170v630h-170v20h362v-20h-170z" />
    <glyph glyph-name="J" unicode="J" horiz-adv-x="594" 
d="M499 670v-420q0 -116 -65 -188t-170 -72q-95 0 -158 58.5t-74 153.5l21 7q11 -91 68 -144.5t143 -53.5q96 0 154.5 66t58.5 173v400h-295v20h317z" />
    <glyph glyph-name="K" unicode="K" horiz-adv-x="698" 
d="M668 0h-31l-322 366l-188 -187v-179h-22v670h22v-463l465 463h29l-291 -289z" />
    <glyph glyph-name="L" unicode="L" horiz-adv-x="580" 
d="M550 20v-20h-445v670h22v-650h423z" />
    <glyph glyph-name="M" unicode="M" horiz-adv-x="909" 
d="M804 670v-670h-21v619l-318 -619h-21l-318 619v-619h-21v670h20l330 -641l329 641h20z" />
    <glyph glyph-name="N" unicode="N" horiz-adv-x="759" 
d="M654 670v-670h-22l-505 634v-634h-22v670h22l505 -634v634h22z" />
    <glyph glyph-name="O" unicode="O" horiz-adv-x="819" 
d="M410 680q142 0 240.5 -100t98.5 -245t-98 -245t-241 -100t-241.5 100t-98.5 245t98.5 245t241.5 100zM410 10q133 0 225 94t92 231q0 136 -92 230.5t-225 94.5q-134 0 -226 -94.5t-92 -230.5q0 -137 92 -231t226 -94z" />
    <glyph glyph-name="P" unicode="P" horiz-adv-x="636" 
d="M105 670h273q97 0 157.5 -53.5t60.5 -137.5t-60.5 -137.5t-157.5 -53.5h-251v-288h-22v670zM127 308h251q88 0 142 48t54 123t-54 123t-142 48h-251v-342z" />
    <glyph glyph-name="Q" unicode="Q" horiz-adv-x="819" 
d="M755 -170l-178 203q-78 -43 -167 -43q-143 0 -241.5 100t-98.5 245t98.5 245t241.5 100q142 0 240.5 -100t98.5 -245q0 -91 -41 -167t-112 -123l190 -215h-31zM92 335q0 -137 92 -231t226 -94q133 0 225 94t92 231q0 136 -92 230.5t-225 94.5q-134 0 -226 -94.5
t-92 -230.5z" />
    <glyph glyph-name="R" unicode="R" horiz-adv-x="666" 
d="M626 0h-32l-293 328h-174v-328h-22v670h299q89 0 143.5 -47t54.5 -124t-54.5 -124t-143.5 -47h-74zM127 348h277q80 0 128 41.5t48 109.5t-48 109.5t-128 41.5h-277v-302z" />
    <glyph glyph-name="S" unicode="S" horiz-adv-x="612" 
d="M305 680q97 0 159 -48.5t78 -126.5l-21 -7q-15 75 -72.5 118.5t-144.5 43.5q-85 0 -140 -43t-55 -116q0 -59 36 -88.5t100 -44.5l148 -37q34 -8 58 -17t50 -26t39.5 -45.5t13.5 -67.5q0 -85 -63 -135t-168 -50q-109 0 -181.5 54.5t-83.5 144.5l24 6q8 -84 75 -134.5
t167 -50.5q95 0 151 44.5t56 119.5q0 62 -33.5 91t-106.5 46l-160 39q-146 35 -146 151q0 81 61.5 130t158.5 49z" />
    <glyph glyph-name="T" unicode="T" horiz-adv-x="632" 
d="M602 650h-274v-650h-24v650h-274v20h572v-20z" />
    <glyph glyph-name="U" unicode="U" horiz-adv-x="730" 
d="M635 670v-385q0 -133 -74.5 -214t-195.5 -81t-195.5 81t-74.5 214v385h22v-385q0 -124 68 -199t180 -75t180 75t68 199v385h22z" />
    <glyph glyph-name="V" unicode="V" horiz-adv-x="662" 
d="M637 670l-296 -670h-20l-296 670h23l283 -637l283 637h23z" />
    <glyph glyph-name="W" unicode="W" horiz-adv-x="944" 
d="M919 670l-217 -670h-19l-211 636l-211 -636h-19l-217 670h23l205 -636l208 636h22l208 -636l205 636h23z" />
    <glyph glyph-name="X" unicode="X" horiz-adv-x="602" 
d="M549 0l-248 321l-248 -321h-28l261 337l-251 333h28l238 -317l238 317h28l-252 -333l262 -337h-28z" />
    <glyph glyph-name="Y" unicode="Y" horiz-adv-x="650" 
d="M336 254v-254h-22v254l-289 416h26l274 -398l274 398h26z" />
    <glyph glyph-name="Z" unicode="Z" horiz-adv-x="626" 
d="M566 658l-465 -638h465v-20h-496v13l464 637h-450v20h482v-12z" />
    <glyph glyph-name="bracketleft" unicode="[" horiz-adv-x="377" 
d="M127 720v-782h180v-20h-202v822h202v-20h-180z" />
    <glyph glyph-name="backslash" unicode="\" horiz-adv-x="318" 
d="M313 -72h-20l-288 812h20z" />
    <glyph glyph-name="bracketright" unicode="]" horiz-adv-x="377" 
d="M272 740v-822h-202v20h180v782h-180v20h202z" />
    <glyph glyph-name="asciicircum" unicode="^" horiz-adv-x="344" 
d="M55 481h-25l135 189h14l135 -189h-25l-117 163z" />
    <glyph glyph-name="underscore" unicode="_" horiz-adv-x="470" 
d="M450 -76h-430v20h430v-20z" />
    <glyph glyph-name="grave" unicode="`" horiz-adv-x="600" 
d="M218 703l93 -136h-21l-95 136h23z" />
    <glyph glyph-name="a" unicode="a" horiz-adv-x="544" 
d="M275 496q86 0 137 -48.5t51 -134.5v-313h-21v120q-27 -59 -85.5 -94.5t-132.5 -35.5q-76 0 -122.5 38.5t-46.5 98.5q0 66 51.5 107.5t147.5 41.5l188 -1v38q0 77 -45.5 120t-121.5 43q-67 0 -115 -34.5t-57 -90.5l-20 7q10 61 63 99.5t129 38.5zM224 10q92 0 155 57.5
t63 141.5v46h-188q-87 0 -132.5 -35.5t-45.5 -92.5q0 -52 40.5 -84.5t107.5 -32.5z" />
    <glyph glyph-name="b" unicode="b" horiz-adv-x="655" 
d="M352 496q105 0 176.5 -70t71.5 -183t-71.5 -183t-176.5 -70q-75 0 -136.5 39.5t-89.5 108.5v-138h-21v770h21v-422q28 69 89.5 108.5t136.5 39.5zM352 10q95 0 161 64.5t66 168.5t-66 168.5t-161 64.5q-91 0 -158.5 -65t-67.5 -168t67.5 -168t158.5 -65z" />
    <glyph glyph-name="c" unicode="c" horiz-adv-x="575" 
d="M302 10q67 0 121.5 34.5t76.5 89.5l19 -7q-23 -62 -82.5 -99.5t-134.5 -37.5q-102 0 -174.5 69.5t-72.5 183.5q0 111 73 182t174 71q76 0 135.5 -39t82.5 -105l-19 -8q-21 61 -76 96.5t-123 35.5q-92 0 -159 -65.5t-67 -167.5q0 -105 66.5 -169t159.5 -64z" />
    <glyph glyph-name="d" unicode="d" horiz-adv-x="655" 
d="M550 770v-770h-21v138q-28 -69 -89.5 -108.5t-136.5 -39.5q-105 0 -176.5 70t-71.5 183t71.5 183t176.5 70q75 0 136.5 -39.5t89.5 -108.5v422h21zM303 10q91 0 158.5 65t67.5 168t-67.5 168t-158.5 65q-95 0 -161 -64.5t-66 -168.5t66 -168.5t161 -64.5z" />
    <glyph glyph-name="e" unicode="e" horiz-adv-x="594" 
d="M76 248v-5v-2q0 -104 68 -167.5t155 -63.5q77 0 132 37t80 108l18 -6q-25 -76 -85 -117.5t-145 -41.5q-96 0 -170 69t-74 182q0 114 75 184.5t177 70.5q101 0 165 -66t67 -172v-10h-463zM307 476q-86 0 -153.5 -57t-76.5 -151h440q-6 95 -64.5 151.5t-145.5 56.5z" />
    <glyph glyph-name="f" unicode="f" horiz-adv-x="343" 
d="M343 466h-207v-466h-21v466h-95v20h95v141q0 70 37.5 111.5t103.5 41.5q38 0 72 -16l-9 -18q-28 14 -62 14q-57 0 -89 -36.5t-32 -96.5v-141h207v-20z" />
    <glyph glyph-name="g" unicode="g" horiz-adv-x="655" 
d="M550 486v-515q-1 -93 -71 -157t-167 -64q-186 0 -240 146l22 8q47 -134 218 -134q88 0 152 58t65 143v167q-28 -69 -89.5 -108.5t-136.5 -39.5q-105 0 -176.5 70t-71.5 183t71.5 183t176.5 70q75 0 136.5 -39.5t89.5 -108.5v138h21zM303 10q91 0 158.5 65t67.5 168
t-67.5 168t-158.5 65q-95 0 -161 -64.5t-66 -168.5t66 -168.5t161 -64.5z" />
    <glyph glyph-name="h" unicode="h" horiz-adv-x="632" 
d="M341 496q88 0 142 -57.5t54 -152.5v-286h-21v286q0 85 -47.5 137.5t-124.5 52.5q-98 0 -158 -61t-60 -162v-253h-21v770h21v-419q24 68 80.5 106.5t134.5 38.5z" />
    <glyph glyph-name="i" unicode="i" horiz-adv-x="251" 
d="M125 659q10 0 17.5 -7t7.5 -17t-7 -17t-18 -7t-18 7t-7 17t7.5 17t17.5 7zM136 0h-21v486h21v-486z" />
    <glyph glyph-name="j" unicode="j" horiz-adv-x="273" 
d="M147 659q10 0 17.5 -7t7.5 -17t-7 -17t-18 -7t-18 7t-7 17t7.5 17t17.5 7zM-5 -234l9 17q22 -13 49 -13q37 0 60 23t23 60v633h21v-633q0 -46 -28 -74.5t-74 -28.5q-34 0 -60 16z" />
    <glyph glyph-name="k" unicode="k" horiz-adv-x="581" 
d="M561 0h-28l-254 272l-153 -152v-120h-21v770h21v-621l340 337h29l-201 -199z" />
    <glyph glyph-name="l" unicode="l" horiz-adv-x="294" 
d="M116 770v-677q0 -37 23 -60t60 -23q30 0 56 18l9 -17q-30 -21 -67 -21q-46 0 -74 28.5t-28 74.5v677h21z" />
    <glyph glyph-name="m" unicode="m" horiz-adv-x="943" 
d="M675 496q77 0 125 -47t48 -123v-326h-21v326q0 68 -42.5 109t-112.5 41q-84 0 -135 -58.5t-51 -154.5v-263h-21v326q0 67 -42.5 108.5t-111.5 41.5q-83 0 -134 -58.5t-51 -154.5v-263h-21v486h21v-126q22 64 71 100t116 36q68 0 113.5 -36.5t56.5 -98.5q23 63 73.5 99
t118.5 36z" />
    <glyph glyph-name="n" unicode="n" horiz-adv-x="632" 
d="M341 496q88 0 142 -57.5t54 -152.5v-286h-21v286q0 85 -47.5 137.5t-124.5 52.5q-98 0 -158 -61t-60 -162v-253h-21v486h21v-135q24 68 80.5 106.5t134.5 38.5z" />
    <glyph glyph-name="o" unicode="o" horiz-adv-x="615" 
d="M307 496q109 0 181 -71.5t72 -180.5t-72 -181.5t-181 -72.5q-108 0 -180 72.5t-72 181.5t72 180.5t180 71.5zM307 10q100 0 166 66.5t66 167.5q0 100 -66 166t-166 66q-99 0 -165 -66t-66 -166t66 -167t165 -67z" />
    <glyph glyph-name="p" unicode="p" horiz-adv-x="655" 
d="M352 496q105 0 176.5 -70t71.5 -183t-71.5 -183t-176.5 -70q-75 0 -136.5 39.5t-89.5 108.5v-378h-21v726h21v-138q28 69 89.5 108.5t136.5 39.5zM352 10q95 0 161 64.5t66 168.5t-66 168.5t-161 64.5q-91 0 -158.5 -65t-67.5 -168t67.5 -168t158.5 -65z" />
    <glyph glyph-name="q" unicode="q" horiz-adv-x="655" 
d="M550 486v-726h-21v378q-28 -69 -89.5 -108.5t-136.5 -39.5q-105 0 -176.5 70t-71.5 183t71.5 183t176.5 70q75 0 136.5 -39.5t89.5 -108.5v138h21zM303 10q91 0 158.5 65t67.5 168t-67.5 168t-158.5 65q-95 0 -161 -64.5t-66 -168.5t66 -168.5t161 -64.5z" />
    <glyph glyph-name="r" unicode="r" horiz-adv-x="394" 
d="M345 489q19 0 34 -3l-5 -19q-10 2 -29 2q-99 0 -158.5 -75t-59.5 -176v-218h-21v486h21v-156q28 71 85.5 115t132.5 44z" />
    <glyph glyph-name="s" unicode="s" horiz-adv-x="508" 
d="M63 134l19 7q5 -60 57 -96t130 -36q71 0 114.5 31t43.5 86q0 44 -28 65t-78 33l-125 28q-58 12 -86.5 38.5t-28.5 72.5q0 60 47.5 96.5t123.5 36.5q74 0 121.5 -34.5t62.5 -91.5l-19 -8q-11 53 -54.5 83.5t-110.5 30.5t-108.5 -30.5t-41.5 -82.5q0 -42 27.5 -62.5
t77.5 -32.5l118 -26q26 -6 43.5 -12.5t38 -19t31 -34t10.5 -50.5q0 -62 -49.5 -99t-129.5 -37q-87 0 -142 39t-64 105z" />
    <glyph glyph-name="t" unicode="t" horiz-adv-x="353" 
d="M323 46l12 -16q-43 -40 -99 -40q-58 0 -93.5 36.5t-35.5 96.5v343h-107v20h107v184h21v-184h190v-20h-190v-343q0 -51 30 -82t79 -31q47 0 86 36z" />
    <glyph glyph-name="u" unicode="u" horiz-adv-x="632" 
d="M527 486v-486h-21v135q-24 -68 -80.5 -106.5t-134.5 -38.5q-88 0 -142 57.5t-54 152.5v286h21v-286q0 -85 47.5 -137.5t124.5 -52.5q98 0 158 61t60 162v253h21z" />
    <glyph glyph-name="v" unicode="v" horiz-adv-x="533" 
d="M508 486l-229 -486h-25l-229 486h25l217 -463l216 463h25z" />
    <glyph glyph-name="w" unicode="w" horiz-adv-x="750" 
d="M725 487l-166 -490h-24l-160 453l-160 -453h-24l-166 490h23l156 -455l162 454h18l162 -454l156 455h23z" />
    <glyph glyph-name="x" unicode="x" horiz-adv-x="564" 
d="M296 243l208 -243h-27l-195 228l-195 -228h-27l208 243l-208 243h27l195 -228l195 228h27z" />
    <glyph glyph-name="y" unicode="y" horiz-adv-x="541" 
d="M516 486l-349 -726h-23l116 241l-235 485h25l221 -462l222 462h23z" />
    <glyph glyph-name="z" unicode="z" horiz-adv-x="489" 
d="M449 20v-20h-409v17l370 449h-359v20h389v-17l-370 -449h379z" />
    <glyph glyph-name="braceleft" unicode="{" horiz-adv-x="435" 
d="M205 617v-175q0 -84 -68 -113q68 -29 68 -113v-175q0 -46 27.5 -74.5t71.5 -28.5h61v-20h-61q-55 0 -88 33.5t-33 89.5v175q0 46 -27.5 74.5t-71.5 28.5h-14v20h14q44 0 71.5 28.5t27.5 74.5v175q0 56 33 89.5t88 33.5h61v-20h-61q-44 0 -71.5 -28.5t-27.5 -74.5z" />
    <glyph glyph-name="bar" unicode="|" horiz-adv-x="232" 
d="M127 -72h-22v812h22v-812z" />
    <glyph glyph-name="braceright" unicode="}" horiz-adv-x="435" 
d="M365 339v-20h-14q-44 0 -71.5 -28.5t-27.5 -74.5v-175q0 -56 -33 -89.5t-88 -33.5h-61v20h61q44 0 71.5 28.5t27.5 74.5v175q0 84 68 113q-68 29 -68 113v175q0 46 -27.5 74.5t-71.5 28.5h-61v20h61q55 0 88 -33.5t33 -89.5v-175q0 -46 27.5 -74.5t71.5 -28.5h14z" />
    <glyph glyph-name="asciitilde" unicode="~" horiz-adv-x="452" 
d="M65 247h-26q0 47 26.5 75t69.5 28q41 0 95 -43t88 -43q33 0 52 22.5t18 61.5h25q0 -48 -26 -76.5t-69 -28.5q-33 0 -64 21.5t-60.5 43t-58.5 21.5q-34 0 -53.5 -22t-16.5 -60z" />
    <glyph glyph-name="exclamdown" unicode="&#xa1;" horiz-adv-x="250" 
d="M125 448q-10 0 -17.5 7t-7.5 17t7 17t18 7t18 -7t7 -17t-7.5 -17t-17.5 -7zM115 315h21v-491h-21v491z" />
    <glyph glyph-name="cent" unicode="&#xa2;" horiz-adv-x="575" 
d="M309 476v-466q65 2 117.5 36t73.5 88l19 -7q-22 -60 -79.5 -97.5t-130.5 -39.5v-120h-21v120q-98 5 -165.5 74.5t-67.5 178.5q0 107 68 177.5t165 75.5v134h21v-134q74 -2 131.5 -41t79.5 -103l-19 -8q-21 59 -73.5 94.5t-118.5 37.5zM76 243q0 -101 61.5 -164.5
t150.5 -68.5v466q-88 -5 -150 -70t-62 -163z" />
    <glyph glyph-name="sterling" unicode="&#xa3;" horiz-adv-x="648" 
d="M588 20v-20h-518v14l85 5v286h-85v20h85v148q0 93 58.5 150t153.5 57t154 -56.5t59 -148.5l-22 -5q0 86 -52.5 137.5t-138.5 51.5q-85 0 -137.5 -51t-52.5 -135v-148h297v-20h-297v-285h411z" />
    <glyph glyph-name="yen" unicode="&#xa5;" horiz-adv-x="640" 
d="M343 288h196v-20h-208v-100h208v-20h-208v-148h-22v148h-208v20h208v100h-208v20h196l-257 382h26l254 -382l254 382h26z" />
    <glyph glyph-name="section" unicode="&#xa7;" horiz-adv-x="527" 
d="M477 228q0 -52 -25 -85t-64 -47q49 -39 49 -96q0 -62 -48.5 -101t-127.5 -39q-95 0 -147.5 47t-51.5 124l20 6q0 -73 46 -115t132 -42q70 0 112.5 33.5t42.5 86.5q0 68 -83 105l-168 77q-63 29 -90.5 58.5t-27.5 71.5q0 52 25 85t64 47q-49 39 -49 96q0 62 48.5 101
t127.5 39q88 0 139 -47t51 -123l-21 -7q0 72 -44.5 114.5t-123.5 42.5q-70 0 -112.5 -33t-42.5 -87q0 -66 83 -105l168 -77q63 -29 90.5 -58.5t27.5 -71.5zM370 108q85 32 85 118q0 35 -23 61.5t-83 53.5l-168 76q-20 10 -28 15q-85 -31 -85 -118q0 -35 23 -61.5t83 -53.5
l168 -76q10 -5 28 -15z" />
    <glyph glyph-name="dieresis" unicode="&#xa8;" horiz-adv-x="600" 
d="M210 640q10 0 17.5 -7t7.5 -17t-7 -17t-18 -7t-18 7t-7 17t7.5 17t17.5 7zM390 640q10 0 17.5 -7t7.5 -17t-7 -17t-18 -7t-18 7t-7 17t7.5 17t17.5 7z" />
    <glyph glyph-name="copyright" unicode="&#xa9;" horiz-adv-x="794" 
d="M397 680q144 0 244 -98.5t100 -248.5q0 -148 -100 -245.5t-244 -97.5t-244 97.5t-100 245.5q0 150 100 248.5t244 98.5zM397 661q-135 0 -229 -93t-94 -234q0 -140 94 -232t229 -92t229 92t94 232q0 141 -94 234t-229 93zM405 523q62 0 111.5 -35.5t59.5 -90.5l-19 -5
q-13 49 -56.5 80t-95.5 31q-69 0 -117.5 -47t-48.5 -121q0 -75 48.5 -122.5t117.5 -47.5q52 0 95.5 31.5t56.5 80.5l18 -6q-13 -55 -61 -90.5t-109 -35.5q-79 0 -133.5 53t-54.5 137q0 83 54.5 135.5t133.5 52.5z" />
    <glyph glyph-name="ordfeminine" unicode="&#xaa;" horiz-adv-x="385" 
d="M201 673q57 0 90.5 -31.5t33.5 -88.5v-208h-20v63q-44 -70 -138 -70q-49 0 -78 25.5t-29 67.5q0 44 37.5 70.5t106.5 26.5h101v25q0 49 -28.5 76t-76.5 27q-42 0 -71 -22.5t-37 -67.5l-18 3q8 51 42 77.5t85 26.5zM169 355q59 0 97.5 34.5t38.5 86.5v36h-101
q-60 0 -92 -21.5t-32 -59.5q0 -35 24.5 -55.5t64.5 -20.5z" />
    <glyph glyph-name="guillemotleft" unicode="&#xab;" horiz-adv-x="357" 
d="M25 262l132 178h25l-132 -178l132 -178h-25zM175 262l132 178h25l-132 -178l132 -178h-25z" />
    <glyph glyph-name="registered" unicode="&#xae;" horiz-adv-x="500" 
d="M250 680q84 0 142 -57t58 -144q0 -86 -58 -143t-142 -57t-142 57t-58 143q0 87 58 144t142 57zM250 296q77 0 130 52t53 131q0 80 -53 132.5t-130 52.5t-130 -52.5t-53 -132.5q0 -79 53 -131t130 -52zM335 521q0 -26 -18 -43t-48 -19l77 -72h-23l-76 72h-50v-72h-16v195
h81q33 0 53 -16.5t20 -44.5zM197 474h63q26 0 42 13t16 34t-15 33.5t-41 12.5h-65v-93z" />
    <glyph glyph-name="macron" unicode="&#xaf;" horiz-adv-x="600" 
d="M425 595h-250v17h250v-17z" />
    <glyph glyph-name="degree" unicode="&#xb0;" horiz-adv-x="397" 
d="M199 680q49 0 84 -32.5t35 -84.5q0 -50 -35 -83t-84 -33t-84.5 33t-35.5 83q0 52 35.5 84.5t84.5 32.5zM199 466q40 0 69.5 27.5t29.5 69.5q0 43 -29.5 71t-69.5 28t-70 -28t-30 -71q0 -42 30 -69.5t70 -27.5z" />
    <glyph glyph-name="plusminus" unicode="&#xb1;" horiz-adv-x="580" 
d="M500 340v-20h-200v-190h-20v190h-200v20h200v190h20v-190h200zM80 20h420v-20h-420v20z" />
    <glyph glyph-name="acute" unicode="&#xb4;" horiz-adv-x="600" 
d="M290 567h-21l93 136h23z" />
    <glyph glyph-name="paragraph" unicode="&#xb6;" horiz-adv-x="525" 
d="M301 0h-22v299h-50q-91 0 -150 51.5t-59 137.5q0 88 52.5 135t142.5 47h86v-670zM420 0h-22v670h22v-670z" />
    <glyph glyph-name="periodcentered" unicode="&#xb7;" horiz-adv-x="170" 
d="M85 292q10 0 17.5 -7t7.5 -17t-7 -17t-18 -7t-18 7t-7 17t7.5 17t17.5 7z" />
    <glyph glyph-name="cedilla" unicode="&#xb8;" horiz-adv-x="600" 
d="M290 0h21l-100 -180h-26z" />
    <glyph glyph-name="ordmasculine" unicode="&#xba;" horiz-adv-x="452" 
d="M226 673q69 0 117.5 -47t48.5 -120q0 -74 -48.5 -121t-117.5 -47q-68 0 -117 47t-49 121q0 73 49.5 120t116.5 47zM226 356q60 0 103.5 42t43.5 108q0 65 -43.5 107t-103.5 42q-58 0 -102 -42t-44 -107t44 -107.5t102 -42.5z" />
    <glyph glyph-name="guillemotright" unicode="&#xbb;" horiz-adv-x="357" 
d="M25 84l132 178l-132 178h25l132 -178l-132 -178h-25zM175 84l132 178l-132 178h25l132 -178l-132 -178h-25z" />
    <glyph glyph-name="onequarter" unicode="&#xbc;" horiz-adv-x="664" 
d="M120 643l-94 -55v21l102 61h13v-359h-21v332zM585 670l-511 -670h-23l511 670h23zM644 96h-67v-96h-20v96h-212v21l211 241h21v-244h67v-18zM557 114v216l-191 -216h191z" />
    <glyph glyph-name="onehalf" unicode="&#xbd;" horiz-adv-x="714" 
d="M120 643l-94 -55v21l102 61h13v-359h-21v332zM575 670l-511 -670h-23l511 670h23zM684 18v-18h-249v13l138 118q48 41 66 66t18 58q0 40 -27.5 65t-71.5 25q-46 0 -73 -27.5t-27 -72.5l-20 3q0 49 33 82t87 33q53 0 86.5 -29.5t33.5 -78.5q0 -38 -21 -67t-68 -69
l-119 -101h214z" />
    <glyph glyph-name="threequarters" unicode="&#xbe;" horiz-adv-x="765" 
d="M297 416q0 -46 -34.5 -75.5t-90.5 -29.5q-57 0 -95.5 33t-39.5 90l18 2q1 -50 35 -78.5t82 -28.5q47 0 76 24.5t29 62.5q0 36 -28.5 57t-76.5 21h-33v16h33q44 0 70 19.5t26 52.5q0 35 -28 58t-72 23q-45 0 -76 -26.5t-32 -72.5l-18 3q1 51 36.5 82t89.5 31
q52 0 86 -27.5t34 -70.5q0 -29 -17 -50t-45 -29q71 -20 71 -87zM696 670l-511 -670h-23l511 670h23zM745 96h-67v-96h-20v96h-212v21l211 241h21v-244h67v-18zM658 114v216l-191 -216h191z" />
    <glyph glyph-name="questiondown" unicode="&#xbf;" horiz-adv-x="510" 
d="M263 448q-10 0 -17.5 7t-7.5 17t7 17t18 7t18 -7t7 -17t-7.5 -17t-17.5 -7zM448 34l22 -3q0 -97 -60 -157t-157 -60q-96 0 -154.5 55t-58.5 145q0 86 61 142t151 60v99h22v-119h-11q-84 0 -143 -51t-59 -131q0 -81 53 -130.5t139 -49.5q88 0 141.5 55.5t53.5 144.5z" />
    <glyph glyph-name="Agrave" unicode="&#xc0;" horiz-adv-x="678" 
d="M327 751l-95 136h23l93 -136h-21zM658 0h-23l-91 196h-410l-91 -196h-23l310 670h18zM535 216l-196 423l-196 -423h392z" />
    <glyph glyph-name="Aacute" unicode="&#xc1;" horiz-adv-x="678" 
d="M356 751h-21l93 136h23zM658 0h-23l-91 196h-410l-91 -196h-23l310 670h18zM535 216l-196 423l-196 -423h392z" />
    <glyph glyph-name="Acircumflex" unicode="&#xc2;" horiz-adv-x="678" 
d="M234 744h-25l120 135h20l120 -135h-25l-105 117zM658 0h-23l-91 196h-410l-91 -196h-23l310 670h18zM535 216l-196 423l-196 -423h392z" />
    <glyph glyph-name="Atilde" unicode="&#xc3;" horiz-adv-x="678" 
d="M276 837q-22 0 -34.5 -14.5t-12.5 -39.5h-21q0 34 18.5 53.5t48.5 19.5q28 0 64 -28.5t59 -28.5q21 0 33 15t12 41h21q0 -34 -18 -54.5t-48 -20.5q-27 0 -63.5 28.5t-58.5 28.5zM658 0h-23l-91 196h-410l-91 -196h-23l310 670h18zM535 216l-196 423l-196 -423h392z" />
    <glyph glyph-name="Adieresis" unicode="&#xc4;" horiz-adv-x="678" 
d="M249 776q-11 0 -18 7t-7 17t7.5 17t17.5 7t17.5 -7t7.5 -17t-7 -17t-18 -7zM429 776q-11 0 -18 7t-7 17t7.5 17t17.5 7t17.5 -7t7.5 -17t-7 -17t-18 -7zM658 0h-23l-91 196h-410l-91 -196h-23l310 670h18zM535 216l-196 423l-196 -423h392z" />
    <glyph glyph-name="Aring" unicode="&#xc5;" horiz-adv-x="678" 
d="M339 739q-37 0 -62.5 25.5t-25.5 60.5t25.5 60.5t62.5 25.5t62.5 -25.5t25.5 -60.5t-25.5 -60.5t-62.5 -25.5zM339 893q-29 0 -49.5 -20t-20.5 -48t20.5 -48t49.5 -20t49.5 20t20.5 48t-20.5 48t-49.5 20zM658 0h-23l-91 196h-410l-91 -196h-23l310 670h18zM535 216
l-196 423l-196 -423h392z" />
    <glyph glyph-name="AE" unicode="&#xc6;" horiz-adv-x="1039" 
d="M556 650v-303h418v-20h-418v-307h448v-20h-470v186h-347l-141 -186h-26l510 670h474v-20h-448zM534 206v436l-332 -436h332z" />
    <glyph glyph-name="Ccedilla" unicode="&#xc7;" horiz-adv-x="792" 
d="M413 10q102 0 177.5 47t110.5 126l21 -8q-38 -83 -118.5 -133.5t-187.5 -51.5l-94 -170h-26l99 170q-138 7 -231.5 106t-93.5 239q0 145 99.5 245t243.5 100q108 0 189.5 -50.5t119.5 -134.5l-20 -8q-34 78 -110.5 125.5t-178.5 47.5q-135 0 -228 -94t-93 -231t93 -231
t228 -94z" />
    <glyph glyph-name="Egrave" unicode="&#xc8;" horiz-adv-x="640" 
d="M328 751l-95 136h23l93 -136h-21zM127 650v-303h418v-20h-418v-307h448v-20h-470v670h470v-20h-448z" />
    <glyph glyph-name="Eacute" unicode="&#xc9;" horiz-adv-x="640" 
d="M357 751h-21l93 136h23zM127 650v-303h418v-20h-418v-307h448v-20h-470v670h470v-20h-448z" />
    <glyph glyph-name="Ecircumflex" unicode="&#xca;" horiz-adv-x="640" 
d="M235 744h-25l120 135h20l120 -135h-25l-105 117zM127 650v-303h418v-20h-418v-307h448v-20h-470v670h470v-20h-448z" />
    <glyph glyph-name="Edieresis" unicode="&#xcb;" horiz-adv-x="640" 
d="M250 776q-11 0 -18 7t-7 17t7.5 17t17.5 7t17.5 -7t7.5 -17t-7 -17t-18 -7zM430 776q-11 0 -18 7t-7 17t7.5 17t17.5 7t17.5 -7t7.5 -17t-7 -17t-18 -7zM127 650v-303h418v-20h-418v-307h448v-20h-470v670h470v-20h-448z" />
    <glyph glyph-name="Igrave" unicode="&#xcc;" horiz-adv-x="422" 
d="M199 751l-95 136h23l93 -136h-21zM222 650v-630h170v-20h-362v20h170v630h-170v20h362v-20h-170z" />
    <glyph glyph-name="Iacute" unicode="&#xcd;" horiz-adv-x="422" 
d="M228 751h-21l93 136h23zM222 650v-630h170v-20h-362v20h170v630h-170v20h362v-20h-170z" />
    <glyph glyph-name="Icircumflex" unicode="&#xce;" horiz-adv-x="422" 
d="M106 744h-25l120 135h20l120 -135h-25l-105 117zM222 650v-630h170v-20h-362v20h170v630h-170v20h362v-20h-170z" />
    <glyph glyph-name="Idieresis" unicode="&#xcf;" horiz-adv-x="422" 
d="M121 776q-11 0 -18 7t-7 17t7.5 17t17.5 7t17.5 -7t7.5 -17t-7 -17t-18 -7zM301 776q-11 0 -18 7t-7 17t7.5 17t17.5 7t17.5 -7t7.5 -17t-7 -17t-18 -7zM222 650v-630h170v-20h-362v20h170v630h-170v20h362v-20h-170z" />
    <glyph glyph-name="Eth" unicode="&#xd0;" horiz-adv-x="751" 
d="M120 670h197q178 0 276 -96t98 -239t-98 -239t-276 -96h-197v328h-90v20h90v322zM142 20h174q169 0 261 91t92 224t-92 224t-261 91h-174v-302h196v-20h-196v-308z" />
    <glyph glyph-name="Ntilde" unicode="&#xd1;" horiz-adv-x="759" 
d="M327 837q-22 0 -34.5 -14.5t-12.5 -39.5h-21q0 34 18.5 53.5t48.5 19.5q28 0 64 -28.5t59 -28.5q21 0 33 15t12 41h21q0 -34 -18 -54.5t-48 -20.5q-27 0 -63.5 28.5t-58.5 28.5zM654 670v-670h-22l-505 634v-634h-22v670h22l505 -634v634h22z" />
    <glyph glyph-name="Ograve" unicode="&#xd2;" horiz-adv-x="819" 
d="M398 751l-95 136h23l93 -136h-21zM410 680q142 0 240.5 -100t98.5 -245t-98 -245t-241 -100t-241.5 100t-98.5 245t98.5 245t241.5 100zM410 10q133 0 225 94t92 231q0 136 -92 230.5t-225 94.5q-134 0 -226 -94.5t-92 -230.5q0 -137 92 -231t226 -94z" />
    <glyph glyph-name="Oacute" unicode="&#xd3;" horiz-adv-x="819" 
d="M427 751h-21l93 136h23zM410 680q142 0 240.5 -100t98.5 -245t-98 -245t-241 -100t-241.5 100t-98.5 245t98.5 245t241.5 100zM410 10q133 0 225 94t92 231q0 136 -92 230.5t-225 94.5q-134 0 -226 -94.5t-92 -230.5q0 -137 92 -231t226 -94z" />
    <glyph glyph-name="Ocircumflex" unicode="&#xd4;" horiz-adv-x="819" 
d="M305 744h-25l120 135h20l120 -135h-25l-105 117zM410 680q142 0 240.5 -100t98.5 -245t-98 -245t-241 -100t-241.5 100t-98.5 245t98.5 245t241.5 100zM410 10q133 0 225 94t92 231q0 136 -92 230.5t-225 94.5q-134 0 -226 -94.5t-92 -230.5q0 -137 92 -231t226 -94z" />
    <glyph glyph-name="Otilde" unicode="&#xd5;" horiz-adv-x="819" 
d="M347 837q-22 0 -34.5 -14.5t-12.5 -39.5h-21q0 34 18.5 53.5t48.5 19.5q28 0 64 -28.5t59 -28.5q21 0 33 15t12 41h21q0 -34 -18 -54.5t-48 -20.5q-27 0 -63.5 28.5t-58.5 28.5zM410 680q142 0 240.5 -100t98.5 -245t-98 -245t-241 -100t-241.5 100t-98.5 245t98.5 245
t241.5 100zM410 10q133 0 225 94t92 231q0 136 -92 230.5t-225 94.5q-134 0 -226 -94.5t-92 -230.5q0 -137 92 -231t226 -94z" />
    <glyph glyph-name="Odieresis" unicode="&#xd6;" horiz-adv-x="819" 
d="M320 776q-11 0 -18 7t-7 17t7.5 17t17.5 7t17.5 -7t7.5 -17t-7 -17t-18 -7zM500 776q-11 0 -18 7t-7 17t7.5 17t17.5 7t17.5 -7t7.5 -17t-7 -17t-18 -7zM410 680q142 0 240.5 -100t98.5 -245t-98 -245t-241 -100t-241.5 100t-98.5 245t98.5 245t241.5 100zM410 10
q133 0 225 94t92 231q0 136 -92 230.5t-225 94.5q-134 0 -226 -94.5t-92 -230.5q0 -137 92 -231t226 -94z" />
    <glyph glyph-name="multiply" unicode="&#xd7;" horiz-adv-x="486" 
d="M258 305l148 -148l-15 -15l-148 148l-148 -148l-15 15l148 148l-148 148l15 15l148 -148l148 148l15 -15z" />
    <glyph glyph-name="Oslash" unicode="&#xd8;" horiz-adv-x="819" 
d="M725 636l-65 -65q89 -100 89 -236q0 -145 -98 -245t-241 -100q-139 0 -236 95l-65 -65l-14 14l65 65q-90 98 -90 236q0 145 98.5 245t241.5 100q138 0 236 -95l65 65zM92 335q0 -128 83 -221l456 456q-92 90 -221 90q-134 0 -226 -94.5t-92 -230.5zM410 10q133 0 225 94
t92 231q0 128 -82 220l-456 -455q92 -90 221 -90z" />
    <glyph glyph-name="Ugrave" unicode="&#xd9;" horiz-adv-x="730" 
d="M353 751l-95 136h23l93 -136h-21zM635 670v-385q0 -133 -74.5 -214t-195.5 -81t-195.5 81t-74.5 214v385h22v-385q0 -124 68 -199t180 -75t180 75t68 199v385h22z" />
    <glyph glyph-name="Uacute" unicode="&#xda;" horiz-adv-x="730" 
d="M382 751h-21l93 136h23zM635 670v-385q0 -133 -74.5 -214t-195.5 -81t-195.5 81t-74.5 214v385h22v-385q0 -124 68 -199t180 -75t180 75t68 199v385h22z" />
    <glyph glyph-name="Ucircumflex" unicode="&#xdb;" horiz-adv-x="730" 
d="M260 744h-25l120 135h20l120 -135h-25l-105 117zM635 670v-385q0 -133 -74.5 -214t-195.5 -81t-195.5 81t-74.5 214v385h22v-385q0 -124 68 -199t180 -75t180 75t68 199v385h22z" />
    <glyph glyph-name="Udieresis" unicode="&#xdc;" horiz-adv-x="730" 
d="M275 776q-11 0 -18 7t-7 17t7.5 17t17.5 7t17.5 -7t7.5 -17t-7 -17t-18 -7zM455 776q-11 0 -18 7t-7 17t7.5 17t17.5 7t17.5 -7t7.5 -17t-7 -17t-18 -7zM635 670v-385q0 -133 -74.5 -214t-195.5 -81t-195.5 81t-74.5 214v385h22v-385q0 -124 68 -199t180 -75t180 75
t68 199v385h22z" />
    <glyph glyph-name="Yacute" unicode="&#xdd;" horiz-adv-x="650" 
d="M342 751h-21l93 136h23zM336 254v-254h-22v254l-289 416h26l274 -398l274 398h26z" />
    <glyph glyph-name="Thorn" unicode="&#xde;" horiz-adv-x="606" 
d="M127 536h222q101 0 164 -56.5t63 -144.5t-63 -144.5t-164 -56.5h-222v-134h-22v670h22v-134zM127 154h222q91 0 148 51t57 130t-57 130t-148 51h-222v-362z" />
    <glyph glyph-name="germandbls" unicode="&#xdf;" horiz-adv-x="652" 
d="M410 384q85 -12 136.5 -61.5t51.5 -130.5q0 -85 -56.5 -143.5t-156.5 -58.5q-103 0 -186 49l12 18q79 -47 175 -47q89 0 140 52.5t51 129.5q0 86 -62.5 134t-164.5 48h-56v21h56q82 0 133 44.5t51 115.5q0 73 -53.5 117.5t-141.5 44.5q-96 0 -154.5 -62.5t-58.5 -167.5
v-487h-21v487q0 114 64.5 182t169.5 68q97 0 156.5 -49.5t59.5 -128.5q0 -63 -39 -111.5t-106 -63.5z" />
    <glyph glyph-name="agrave" unicode="&#xe0;" horiz-adv-x="544" 
d="M270 567l-95 136h23l93 -136h-21zM275 496q86 0 137 -48.5t51 -134.5v-313h-21v120q-27 -59 -85.5 -94.5t-132.5 -35.5q-76 0 -122.5 38.5t-46.5 98.5q0 66 51.5 107.5t147.5 41.5l188 -1v38q0 77 -45.5 120t-121.5 43q-67 0 -115 -34.5t-57 -90.5l-20 7q10 61 63 99.5
t129 38.5zM224 10q92 0 155 57.5t63 141.5v46h-188q-87 0 -132.5 -35.5t-45.5 -92.5q0 -52 40.5 -84.5t107.5 -32.5z" />
    <glyph glyph-name="aacute" unicode="&#xe1;" horiz-adv-x="544" 
d="M299 567h-21l93 136h23zM275 496q86 0 137 -48.5t51 -134.5v-313h-21v120q-27 -59 -85.5 -94.5t-132.5 -35.5q-76 0 -122.5 38.5t-46.5 98.5q0 66 51.5 107.5t147.5 41.5l188 -1v38q0 77 -45.5 120t-121.5 43q-67 0 -115 -34.5t-57 -90.5l-20 7q10 61 63 99.5t129 38.5z
M224 10q92 0 155 57.5t63 141.5v46h-188q-87 0 -132.5 -35.5t-45.5 -92.5q0 -52 40.5 -84.5t107.5 -32.5z" />
    <glyph glyph-name="acircumflex" unicode="&#xe2;" horiz-adv-x="544" 
d="M177 560h-25l120 135h20l120 -135h-25l-105 117zM275 496q86 0 137 -48.5t51 -134.5v-313h-21v120q-27 -59 -85.5 -94.5t-132.5 -35.5q-76 0 -122.5 38.5t-46.5 98.5q0 66 51.5 107.5t147.5 41.5l188 -1v38q0 77 -45.5 120t-121.5 43q-67 0 -115 -34.5t-57 -90.5l-20 7
q10 61 63 99.5t129 38.5zM224 10q92 0 155 57.5t63 141.5v46h-188q-87 0 -132.5 -35.5t-45.5 -92.5q0 -52 40.5 -84.5t107.5 -32.5z" />
    <glyph glyph-name="atilde" unicode="&#xe3;" horiz-adv-x="544" 
d="M219 653q-22 0 -34.5 -14.5t-12.5 -39.5h-21q0 34 18.5 53.5t48.5 19.5q28 0 64 -28.5t59 -28.5q21 0 33 15t12 41h21q0 -34 -18 -54.5t-48 -20.5q-27 0 -63.5 28.5t-58.5 28.5zM275 496q86 0 137 -48.5t51 -134.5v-313h-21v120q-27 -59 -85.5 -94.5t-132.5 -35.5
q-76 0 -122.5 38.5t-46.5 98.5q0 66 51.5 107.5t147.5 41.5l188 -1v38q0 77 -45.5 120t-121.5 43q-67 0 -115 -34.5t-57 -90.5l-20 7q10 61 63 99.5t129 38.5zM224 10q92 0 155 57.5t63 141.5v46h-188q-87 0 -132.5 -35.5t-45.5 -92.5q0 -52 40.5 -84.5t107.5 -32.5z" />
    <glyph glyph-name="adieresis" unicode="&#xe4;" horiz-adv-x="544" 
d="M192 592q-11 0 -18 7t-7 17t7.5 17t17.5 7t17.5 -7t7.5 -17t-7 -17t-18 -7zM372 592q-11 0 -18 7t-7 17t7.5 17t17.5 7t17.5 -7t7.5 -17t-7 -17t-18 -7zM275 496q86 0 137 -48.5t51 -134.5v-313h-21v120q-27 -59 -85.5 -94.5t-132.5 -35.5q-76 0 -122.5 38.5t-46.5 98.5
q0 66 51.5 107.5t147.5 41.5l188 -1v38q0 77 -45.5 120t-121.5 43q-67 0 -115 -34.5t-57 -90.5l-20 7q10 61 63 99.5t129 38.5zM224 10q92 0 155 57.5t63 141.5v46h-188q-87 0 -132.5 -35.5t-45.5 -92.5q0 -52 40.5 -84.5t107.5 -32.5z" />
    <glyph glyph-name="aring" unicode="&#xe5;" horiz-adv-x="544" 
d="M282 555q-37 0 -62.5 25.5t-25.5 60.5t25.5 60.5t62.5 25.5t62.5 -25.5t25.5 -60.5t-25.5 -60.5t-62.5 -25.5zM282 709q-29 0 -49.5 -20t-20.5 -48t20.5 -48t49.5 -20t49.5 20t20.5 48t-20.5 48t-49.5 20zM275 496q86 0 137 -48.5t51 -134.5v-313h-21v120
q-27 -59 -85.5 -94.5t-132.5 -35.5q-76 0 -122.5 38.5t-46.5 98.5q0 66 51.5 107.5t147.5 41.5l188 -1v38q0 77 -45.5 120t-121.5 43q-67 0 -115 -34.5t-57 -90.5l-20 7q10 61 63 99.5t129 38.5zM224 10q92 0 155 57.5t63 141.5v46h-188q-87 0 -132.5 -35.5t-45.5 -92.5
q0 -52 40.5 -84.5t107.5 -32.5z" />
    <glyph glyph-name="ae" unicode="&#xe6;" horiz-adv-x="953" 
d="M898 240h-432q1 -106 60.5 -168t152.5 -62q61 0 117.5 40t74.5 106l19 -6q-17 -70 -79.5 -115t-131.5 -45q-84 0 -142.5 45.5t-81.5 127.5q-18 -80 -77.5 -126.5t-140.5 -46.5q-87 0 -134.5 38t-47.5 99q0 63 48.5 98t131.5 35h210v63q0 69 -45 111t-119 42
q-79 0 -125.5 -34t-55.5 -93l-19 6q8 65 59.5 103t140.5 38q74 0 124 -40t59 -106q28 70 83.5 108t132.5 38q96 0 155.5 -69.5t62.5 -177.5v-9zM466 260h410q-6 96 -60 156t-135 60q-91 0 -150.5 -58.5t-64.5 -157.5zM445 240h-210q-73 0 -116 -29.5t-43 -83.5
q0 -53 41.5 -85t119.5 -32q89 0 148.5 61t59.5 161v8z" />
    <glyph glyph-name="ccedilla" unicode="&#xe7;" horiz-adv-x="575" 
d="M302 10q67 0 121.5 34.5t76.5 89.5l19 -7q-22 -59 -78.5 -96.5t-128.5 -40.5l-95 -170h-26l99 170q-98 5 -166.5 74t-68.5 179q0 111 73 182t174 71q76 0 135.5 -39t82.5 -105l-19 -8q-21 61 -76 96.5t-123 35.5q-92 0 -159 -65.5t-67 -167.5q0 -105 66.5 -169t159.5 -64
z" />
    <glyph glyph-name="egrave" unicode="&#xe8;" horiz-adv-x="594" 
d="M294 567l-95 136h23l93 -136h-21zM76 248v-5v-2q0 -104 68 -167.5t155 -63.5q77 0 132 37t80 108l18 -6q-25 -76 -85 -117.5t-145 -41.5q-96 0 -170 69t-74 182q0 114 75 184.5t177 70.5q101 0 165 -66t67 -172v-10h-463zM307 476q-86 0 -153.5 -57t-76.5 -151h440
q-6 95 -64.5 151.5t-145.5 56.5z" />
    <glyph glyph-name="eacute" unicode="&#xe9;" horiz-adv-x="594" 
d="M323 567h-21l93 136h23zM76 248v-5v-2q0 -104 68 -167.5t155 -63.5q77 0 132 37t80 108l18 -6q-25 -76 -85 -117.5t-145 -41.5q-96 0 -170 69t-74 182q0 114 75 184.5t177 70.5q101 0 165 -66t67 -172v-10h-463zM307 476q-86 0 -153.5 -57t-76.5 -151h440
q-6 95 -64.5 151.5t-145.5 56.5z" />
    <glyph glyph-name="ecircumflex" unicode="&#xea;" horiz-adv-x="594" 
d="M201 560h-25l120 135h20l120 -135h-25l-105 117zM76 248v-5v-2q0 -104 68 -167.5t155 -63.5q77 0 132 37t80 108l18 -6q-25 -76 -85 -117.5t-145 -41.5q-96 0 -170 69t-74 182q0 114 75 184.5t177 70.5q101 0 165 -66t67 -172v-10h-463zM307 476q-86 0 -153.5 -57
t-76.5 -151h440q-6 95 -64.5 151.5t-145.5 56.5z" />
    <glyph glyph-name="edieresis" unicode="&#xeb;" horiz-adv-x="594" 
d="M216 592q-11 0 -18 7t-7 17t7.5 17t17.5 7t17.5 -7t7.5 -17t-7 -17t-18 -7zM396 592q-11 0 -18 7t-7 17t7.5 17t17.5 7t17.5 -7t7.5 -17t-7 -17t-18 -7zM76 248v-5v-2q0 -104 68 -167.5t155 -63.5q77 0 132 37t80 108l18 -6q-25 -76 -85 -117.5t-145 -41.5q-96 0 -170 69
t-74 182q0 114 75 184.5t177 70.5q101 0 165 -66t67 -172v-10h-463zM307 476q-86 0 -153.5 -57t-76.5 -151h440q-6 95 -64.5 151.5t-145.5 56.5z" />
    <glyph glyph-name="igrave" unicode="&#xec;" horiz-adv-x="261" 
d="M47 703l93 -136h-21l-95 136h23zM141 0h-21v486h21v-486z" />
    <glyph glyph-name="iacute" unicode="&#xed;" horiz-adv-x="261" 
d="M148 567h-21l93 136h23zM141 0h-21v486h21v-486z" />
    <glyph glyph-name="icircumflex" unicode="&#xee;" horiz-adv-x="261" 
d="M261 560h-25l-105 117l-105 -117h-25l120 135h20zM120 486h21v-486h-21v486z" />
    <glyph glyph-name="idieresis" unicode="&#xef;" horiz-adv-x="261" 
d="M41 640q10 0 17.5 -7t7.5 -17t-7 -17t-18 -7t-18 7t-7 17t7.5 17t17.5 7zM221 640q10 0 17.5 -7t7.5 -17t-7 -17t-18 -7t-18 7t-7 17t7.5 17t17.5 7zM141 0h-21v486h21v-486z" />
    <glyph glyph-name="eth" unicode="&#xf0;" 
d="M442 672l-96 -49q100 -80 154.5 -181t54.5 -195q0 -114 -72.5 -185.5t-173.5 -71.5q-105 0 -179.5 71t-74.5 182t74.5 182t176.5 71q115 0 185 -83l2 1q-60 115 -168 199l-129 -65l-9 17l120 61q-73 54 -162 90v4h42q78 -35 141 -83l104 53zM309 10q107 0 166 74t59 163
q0 98 -68 163.5t-160 65.5q-93 0 -161.5 -65.5t-68.5 -167.5t68.5 -167.5t164.5 -65.5z" />
    <glyph glyph-name="ntilde" unicode="&#xf1;" horiz-adv-x="632" 
d="M266 653q-22 0 -34.5 -14.5t-12.5 -39.5h-21q0 34 18.5 53.5t48.5 19.5q28 0 64 -28.5t59 -28.5q21 0 33 15t12 41h21q0 -34 -18 -54.5t-48 -20.5q-27 0 -63.5 28.5t-58.5 28.5zM341 496q88 0 142 -57.5t54 -152.5v-286h-21v286q0 85 -47.5 137.5t-124.5 52.5
q-98 0 -158 -61t-60 -162v-253h-21v486h21v-135q24 68 80.5 106.5t134.5 38.5z" />
    <glyph glyph-name="ograve" unicode="&#xf2;" horiz-adv-x="615" 
d="M295 577l-95 136h23l93 -136h-21zM307 496q109 0 181 -71.5t72 -180.5t-72 -181.5t-181 -72.5q-108 0 -180 72.5t-72 181.5t72 180.5t180 71.5zM307 10q100 0 166 66.5t66 167.5q0 100 -66 166t-166 66q-99 0 -165 -66t-66 -166t66 -167t165 -67z" />
    <glyph glyph-name="oacute" unicode="&#xf3;" horiz-adv-x="615" 
d="M324 577h-21l93 136h23zM307 496q109 0 181 -71.5t72 -180.5t-72 -181.5t-181 -72.5q-108 0 -180 72.5t-72 181.5t72 180.5t180 71.5zM307 10q100 0 166 66.5t66 167.5q0 100 -66 166t-166 66q-99 0 -165 -66t-66 -166t66 -167t165 -67z" />
    <glyph glyph-name="ocircumflex" unicode="&#xf4;" horiz-adv-x="615" 
d="M202 570h-25l120 135h20l120 -135h-25l-105 117zM307 496q109 0 181 -71.5t72 -180.5t-72 -181.5t-181 -72.5q-108 0 -180 72.5t-72 181.5t72 180.5t180 71.5zM307 10q100 0 166 66.5t66 167.5q0 100 -66 166t-166 66q-99 0 -165 -66t-66 -166t66 -167t165 -67z" />
    <glyph glyph-name="otilde" unicode="&#xf5;" horiz-adv-x="615" 
d="M244 663q-22 0 -34.5 -14.5t-12.5 -39.5h-21q0 34 18.5 53.5t48.5 19.5q28 0 64 -28.5t59 -28.5q21 0 33 15t12 41h21q0 -34 -18 -54.5t-48 -20.5q-27 0 -63.5 28.5t-58.5 28.5zM307 496q109 0 181 -71.5t72 -180.5t-72 -181.5t-181 -72.5q-108 0 -180 72.5t-72 181.5
t72 180.5t180 71.5zM307 10q100 0 166 66.5t66 167.5q0 100 -66 166t-166 66q-99 0 -165 -66t-66 -166t66 -167t165 -67z" />
    <glyph glyph-name="odieresis" unicode="&#xf6;" horiz-adv-x="615" 
d="M217 602q-11 0 -18 7t-7 17t7.5 17t17.5 7t17.5 -7t7.5 -17t-7 -17t-18 -7zM397 602q-11 0 -18 7t-7 17t7.5 17t17.5 7t17.5 -7t7.5 -17t-7 -17t-18 -7zM307 496q109 0 181 -71.5t72 -180.5t-72 -181.5t-181 -72.5q-108 0 -180 72.5t-72 181.5t72 180.5t180 71.5zM307 10
q100 0 166 66.5t66 167.5q0 100 -66 166t-166 66q-99 0 -165 -66t-66 -166t66 -167t165 -67z" />
    <glyph glyph-name="divide" unicode="&#xf7;" horiz-adv-x="580" 
d="M290 513q10 0 17.5 -7t7.5 -17t-7 -17t-18 -7t-18 7t-7 17t7.5 17t17.5 7zM500 295h-420v20h420v-20zM290 145q10 0 17.5 -7t7.5 -17t-7 -17t-18 -7t-18 7t-7 17t7.5 17t17.5 7z" />
    <glyph glyph-name="oslash" unicode="&#xf8;" 
d="M555 478l-61 -60q66 -71 66 -174q0 -109 -72 -181.5t-181 -72.5q-104 0 -174 67l-64 -64l-14 14l64 64q-64 72 -64 173q0 109 72 180.5t180 71.5q103 0 173 -64l61 60zM76 244q0 -94 58 -158l332 331q-65 59 -159 59q-99 0 -165 -66t-66 -166zM307 10q100 0 166 66.5
t66 167.5q0 94 -59 159l-332 -332q66 -61 159 -61z" />
    <glyph glyph-name="ugrave" unicode="&#xf9;" horiz-adv-x="632" 
d="M297 567l-95 136h23l93 -136h-21zM527 486v-486h-21v135q-24 -68 -80.5 -106.5t-134.5 -38.5q-88 0 -142 57.5t-54 152.5v286h21v-286q0 -85 47.5 -137.5t124.5 -52.5q98 0 158 61t60 162v253h21z" />
    <glyph glyph-name="uacute" unicode="&#xfa;" horiz-adv-x="632" 
d="M326 567h-21l93 136h23zM527 486v-486h-21v135q-24 -68 -80.5 -106.5t-134.5 -38.5q-88 0 -142 57.5t-54 152.5v286h21v-286q0 -85 47.5 -137.5t124.5 -52.5q98 0 158 61t60 162v253h21z" />
    <glyph glyph-name="ucircumflex" unicode="&#xfb;" horiz-adv-x="632" 
d="M204 560h-25l120 135h20l120 -135h-25l-105 117zM527 486v-486h-21v135q-24 -68 -80.5 -106.5t-134.5 -38.5q-88 0 -142 57.5t-54 152.5v286h21v-286q0 -85 47.5 -137.5t124.5 -52.5q98 0 158 61t60 162v253h21z" />
    <glyph glyph-name="udieresis" unicode="&#xfc;" horiz-adv-x="632" 
d="M219 592q-11 0 -18 7t-7 17t7.5 17t17.5 7t17.5 -7t7.5 -17t-7 -17t-18 -7zM399 592q-11 0 -18 7t-7 17t7.5 17t17.5 7t17.5 -7t7.5 -17t-7 -17t-18 -7zM527 486v-486h-21v135q-24 -68 -80.5 -106.5t-134.5 -38.5q-88 0 -142 57.5t-54 152.5v286h21v-286
q0 -85 47.5 -137.5t124.5 -52.5q98 0 158 61t60 162v253h21z" />
    <glyph glyph-name="yacute" unicode="&#xfd;" horiz-adv-x="541" 
d="M298 567h-21l93 136h23zM516 486l-349 -726h-23l116 241l-235 485h25l221 -462l222 462h23z" />
    <glyph glyph-name="thorn" unicode="&#xfe;" horiz-adv-x="655" 
d="M352 496q105 0 176.5 -70t71.5 -183t-71.5 -183t-176.5 -70q-75 0 -136.5 39.5t-89.5 108.5v-378h-21v960h21v-372q28 69 89.5 108.5t136.5 39.5zM352 10q95 0 161 64.5t66 168.5t-66 168.5t-161 64.5q-91 0 -158.5 -65t-67.5 -168t67.5 -168t158.5 -65z" />
    <glyph glyph-name="ydieresis" unicode="&#xff;" horiz-adv-x="541" 
d="M191 592q-11 0 -18 7t-7 17t7.5 17t17.5 7t17.5 -7t7.5 -17t-7 -17t-18 -7zM371 592q-11 0 -18 7t-7 17t7.5 17t17.5 7t17.5 -7t7.5 -17t-7 -17t-18 -7zM516 486l-349 -726h-23l116 241l-235 485h25l221 -462l222 462h23z" />
    <glyph glyph-name="Amacron" unicode="&#x100;" horiz-adv-x="678" 
d="M464 779h-250v17h250v-17zM658 0h-23l-91 196h-410l-91 -196h-23l310 670h18zM535 216l-196 423l-196 -423h392z" />
    <glyph glyph-name="amacron" unicode="&#x101;" horiz-adv-x="544" 
d="M407 595h-250v17h250v-17zM275 496q86 0 137 -48.5t51 -134.5v-313h-21v120q-27 -59 -85.5 -94.5t-132.5 -35.5q-76 0 -122.5 38.5t-46.5 98.5q0 66 51.5 107.5t147.5 41.5l188 -1v38q0 77 -45.5 120t-121.5 43q-67 0 -115 -34.5t-57 -90.5l-20 7q10 61 63 99.5t129 38.5
zM224 10q92 0 155 57.5t63 141.5v46h-188q-87 0 -132.5 -35.5t-45.5 -92.5q0 -52 40.5 -84.5t107.5 -32.5z" />
    <glyph glyph-name="Abreve" unicode="&#x102;" horiz-adv-x="678" 
d="M339 745q-53 0 -88 33t-35 86h19q0 -45 30 -73t74 -28t74 28t30 73h19q0 -53 -35 -86t-88 -33zM658 0h-23l-91 196h-410l-91 -196h-23l310 670h18zM535 216l-196 423l-196 -423h392z" />
    <glyph glyph-name="abreve" unicode="&#x103;" horiz-adv-x="544" 
d="M282 561q-53 0 -88 33t-35 86h19q0 -45 30 -73t74 -28t74 28t30 73h19q0 -53 -35 -86t-88 -33zM275 496q86 0 137 -48.5t51 -134.5v-313h-21v120q-27 -59 -85.5 -94.5t-132.5 -35.5q-76 0 -122.5 38.5t-46.5 98.5q0 66 51.5 107.5t147.5 41.5l188 -1v38q0 77 -45.5 120
t-121.5 43q-67 0 -115 -34.5t-57 -90.5l-20 7q10 61 63 99.5t129 38.5zM224 10q92 0 155 57.5t63 141.5v46h-188q-87 0 -132.5 -35.5t-45.5 -92.5q0 -52 40.5 -84.5t107.5 -32.5z" />
    <glyph glyph-name="Aogonek" unicode="&#x104;" horiz-adv-x="678" 
d="M684 -160l6 -19q-34 -11 -50 -11q-30 0 -53 17.5t-23 58.5q0 29 15.5 53t55.5 62l-91 195h-410l-91 -196h-23l310 670h18l310 -670q-42 -40 -58 -63.5t-16 -50.5q0 -56 55 -56q13 0 45 10zM535 216l-196 423l-196 -423h392z" />
    <glyph glyph-name="aogonek" unicode="&#x105;" horiz-adv-x="544" 
d="M494 -160l6 -19q-34 -11 -50 -11q-30 0 -53 17.5t-23 58.5q0 28 15 52t55 62h-2v120q-27 -59 -85.5 -94.5t-132.5 -35.5q-76 0 -122.5 38.5t-46.5 98.5q0 66 51.5 107.5t147.5 41.5l188 -1v38q0 77 -45.5 120t-121.5 43q-67 0 -115 -34.5t-57 -90.5l-20 7q10 61 63 99.5
t129 38.5q86 0 137 -48.5t51 -134.5v-312l5 -1q-42 -40 -58 -63.5t-16 -50.5q0 -56 55 -56q13 0 45 10zM224 10q92 0 155 57.5t63 141.5v46h-188q-87 0 -132.5 -35.5t-45.5 -92.5q0 -52 40.5 -84.5t107.5 -32.5z" />
    <glyph glyph-name="Cacute" unicode="&#x106;" horiz-adv-x="792" 
d="M427 751h-21l93 136h23zM413 10q102 0 177.5 47t110.5 126l21 -8q-38 -84 -119.5 -134.5t-189.5 -50.5q-144 0 -243.5 100t-99.5 245t99.5 245t243.5 100q108 0 189.5 -50.5t119.5 -134.5l-20 -8q-34 78 -110.5 125.5t-178.5 47.5q-135 0 -228 -94t-93 -231t93 -231
t228 -94z" />
    <glyph glyph-name="cacute" unicode="&#x107;" horiz-adv-x="575" 
d="M322 567h-21l93 136h23zM302 10q67 0 121.5 34.5t76.5 89.5l19 -7q-23 -62 -82.5 -99.5t-134.5 -37.5q-102 0 -174.5 69.5t-72.5 183.5q0 111 73 182t174 71q76 0 135.5 -39t82.5 -105l-19 -8q-21 61 -76 96.5t-123 35.5q-92 0 -159 -65.5t-67 -167.5q0 -105 66.5 -169
t159.5 -64z" />
    <glyph glyph-name="Cdotaccent" unicode="&#x10a;" horiz-adv-x="792" 
d="M410 781q-11 0 -18 7t-7 17t7.5 17t17.5 7t17.5 -7t7.5 -17t-7 -17t-18 -7zM413 10q102 0 177.5 47t110.5 126l21 -8q-38 -84 -119.5 -134.5t-189.5 -50.5q-144 0 -243.5 100t-99.5 245t99.5 245t243.5 100q108 0 189.5 -50.5t119.5 -134.5l-20 -8q-34 78 -110.5 125.5
t-178.5 47.5q-135 0 -228 -94t-93 -231t93 -231t228 -94z" />
    <glyph glyph-name="cdotaccent" unicode="&#x10b;" horiz-adv-x="575" 
d="M305 597q-11 0 -18 7t-7 17t7.5 17t17.5 7t17.5 -7t7.5 -17t-7 -17t-18 -7zM302 10q67 0 121.5 34.5t76.5 89.5l19 -7q-23 -62 -82.5 -99.5t-134.5 -37.5q-102 0 -174.5 69.5t-72.5 183.5q0 111 73 182t174 71q76 0 135.5 -39t82.5 -105l-19 -8q-21 61 -76 96.5
t-123 35.5q-92 0 -159 -65.5t-67 -167.5q0 -105 66.5 -169t159.5 -64z" />
    <glyph glyph-name="Ccaron" unicode="&#x10c;" horiz-adv-x="792" 
d="M400 746l-120 135h25l105 -117l105 117h25l-120 -135h-20zM413 10q102 0 177.5 47t110.5 126l21 -8q-38 -84 -119.5 -134.5t-189.5 -50.5q-144 0 -243.5 100t-99.5 245t99.5 245t243.5 100q108 0 189.5 -50.5t119.5 -134.5l-20 -8q-34 78 -110.5 125.5t-178.5 47.5
q-135 0 -228 -94t-93 -231t93 -231t228 -94z" />
    <glyph glyph-name="ccaron" unicode="&#x10d;" horiz-adv-x="575" 
d="M295 562l-120 135h25l105 -117l105 117h25l-120 -135h-20zM302 10q67 0 121.5 34.5t76.5 89.5l19 -7q-23 -62 -82.5 -99.5t-134.5 -37.5q-102 0 -174.5 69.5t-72.5 183.5q0 111 73 182t174 71q76 0 135.5 -39t82.5 -105l-19 -8q-21 61 -76 96.5t-123 35.5
q-92 0 -159 -65.5t-67 -167.5q0 -105 66.5 -169t159.5 -64z" />
    <glyph glyph-name="Dcaron" unicode="&#x10e;" horiz-adv-x="746" 
d="M335 746l-120 135h25l105 -117l105 117h25l-120 -135h-20zM105 670h197q178 0 276 -96t98 -239t-98 -239t-276 -96h-197v670zM127 20h174q169 0 261 91t92 224t-92 224t-261 91h-174v-630z" />
    <glyph glyph-name="dcaron" unicode="&#x10f;" horiz-adv-x="655" 
d="M529 770h21v-770h-21v138q-28 -69 -89.5 -108.5t-136.5 -39.5q-105 0 -176.5 70t-71.5 183t71.5 183t176.5 70q75 0 136.5 -39.5t89.5 -108.5v422zM678 770l-4 -146h-18v146h22zM303 10q91 0 158.5 65t67.5 168t-67.5 168t-158.5 65q-95 0 -161 -64.5t-66 -168.5
t66 -168.5t161 -64.5z" />
    <glyph glyph-name="Dcroat" unicode="&#x110;" horiz-adv-x="751" 
d="M120 670h197q178 0 276 -96t98 -239t-98 -239t-276 -96h-197v328h-90v20h90v322zM142 20h174q169 0 261 91t92 224t-92 224t-261 91h-174v-302h196v-20h-196v-308z" />
    <glyph glyph-name="dcroat" unicode="&#x111;" horiz-adv-x="670" 
d="M640 595h-90v-595h-21v138q-28 -69 -89.5 -108.5t-136.5 -39.5q-105 0 -176.5 70t-71.5 183t71.5 183t176.5 70q75 0 136.5 -39.5t89.5 -108.5v247h-199v17h199v158h21v-158h90v-17zM303 10q91 0 158.5 65t67.5 168t-67.5 168t-158.5 65q-95 0 -161 -64.5t-66 -168.5
t66 -168.5t161 -64.5z" />
    <glyph glyph-name="Emacron" unicode="&#x112;" horiz-adv-x="640" 
d="M465 779h-250v17h250v-17zM127 650v-303h418v-20h-418v-307h448v-20h-470v670h470v-20h-448z" />
    <glyph glyph-name="emacron" unicode="&#x113;" horiz-adv-x="594" 
d="M431 595h-250v17h250v-17zM76 248v-5v-2q0 -104 68 -167.5t155 -63.5q77 0 132 37t80 108l18 -6q-25 -76 -85 -117.5t-145 -41.5q-96 0 -170 69t-74 182q0 114 75 184.5t177 70.5q101 0 165 -66t67 -172v-10h-463zM307 476q-86 0 -153.5 -57t-76.5 -151h440
q-6 95 -64.5 151.5t-145.5 56.5z" />
    <glyph glyph-name="Edotaccent" unicode="&#x116;" horiz-adv-x="640" 
d="M340 781q-11 0 -18 7t-7 17t7.5 17t17.5 7t17.5 -7t7.5 -17t-7 -17t-18 -7zM127 650v-303h418v-20h-418v-307h448v-20h-470v670h470v-20h-448z" />
    <glyph glyph-name="edotaccent" unicode="&#x117;" horiz-adv-x="594" 
d="M306 597q-11 0 -18 7t-7 17t7.5 17t17.5 7t17.5 -7t7.5 -17t-7 -17t-18 -7zM76 248v-5v-2q0 -104 68 -167.5t155 -63.5q77 0 132 37t80 108l18 -6q-25 -76 -85 -117.5t-145 -41.5q-96 0 -170 69t-74 182q0 114 75 184.5t177 70.5q101 0 165 -66t67 -172v-10h-463z
M307 476q-86 0 -153.5 -57t-76.5 -151h440q-6 95 -64.5 151.5t-145.5 56.5z" />
    <glyph glyph-name="Eogonek" unicode="&#x118;" horiz-adv-x="640" 
d="M127 650v-303h418v-20h-418v-307h448v-20h-41q-42 -40 -58 -63.5t-16 -50.5q0 -56 55 -56q13 0 45 10l6 -19q-34 -11 -50 -11q-30 0 -53 17.5t-23 58.5q0 28 15 52t55 62h-405v670h470v-20h-448z" />
    <glyph glyph-name="eogonek" unicode="&#x119;" horiz-adv-x="595" 
d="M76 248v-3v-2q0 -104 66 -168.5t154 -64.5q73 0 133.5 43t82.5 106l15 -6q-11 -35 -38 -71q-71 -92 -91.5 -125t-20.5 -62t17 -44t47 -15q22 0 46 12l6 -20q-27 -13 -52 -13q-39 0 -62 21t-23 58q0 25 14 53t53 81q-59 -38 -127 -38q-98 0 -169.5 70t-71.5 183
t76.5 183.5t175.5 70.5q100 0 165 -66t68 -172v-11h-464zM307 477q-83 0 -152 -58t-78 -151h441q-7 96 -66.5 152.5t-144.5 56.5z" />
    <glyph glyph-name="Ecaron" unicode="&#x11a;" horiz-adv-x="640" 
d="M330 746l-120 135h25l105 -117l105 117h25l-120 -135h-20zM127 650v-303h418v-20h-418v-307h448v-20h-470v670h470v-20h-448z" />
    <glyph glyph-name="ecaron" unicode="&#x11b;" horiz-adv-x="594" 
d="M296 562l-120 135h25l105 -117l105 117h25l-120 -135h-20zM76 248v-5v-2q0 -104 68 -167.5t155 -63.5q77 0 132 37t80 108l18 -6q-25 -76 -85 -117.5t-145 -41.5q-96 0 -170 69t-74 182q0 114 75 184.5t177 70.5q101 0 165 -66t67 -172v-10h-463zM307 476
q-86 0 -153.5 -57t-76.5 -151h440q-6 95 -64.5 151.5t-145.5 56.5z" />
    <glyph glyph-name="Gbreve" unicode="&#x11e;" horiz-adv-x="814" 
d="M412 745q-53 0 -88 33t-35 86h19q0 -45 30 -73t74 -28t74 28t30 73h19q0 -53 -35 -86t-88 -33zM744 345v-10q0 -145 -92.5 -245t-239.5 -100q-144 0 -243 100t-99 245t99 245t243 100q110 0 191 -50.5t118 -134.5l-20 -8q-34 78 -110 125.5t-179 47.5q-135 0 -227.5 -94
t-92.5 -231t92.5 -231t227.5 -94q134 0 220 91t90 224h-353v20h375z" />
    <glyph glyph-name="gbreve" unicode="&#x11f;" horiz-adv-x="655" 
d="M315 561q-53 0 -88 33t-35 86h19q0 -45 30 -73t74 -28t74 28t30 73h19q0 -53 -35 -86t-88 -33zM550 486v-515q-1 -93 -71 -157t-167 -64q-186 0 -240 146l22 8q47 -134 218 -134q88 0 152 58t65 143v167q-28 -69 -89.5 -108.5t-136.5 -39.5q-105 0 -176.5 70t-71.5 183
t71.5 183t176.5 70q75 0 136.5 -39.5t89.5 -108.5v138h21zM303 10q91 0 158.5 65t67.5 168t-67.5 168t-158.5 65q-95 0 -161 -64.5t-66 -168.5t66 -168.5t161 -64.5z" />
    <glyph glyph-name="Gdotaccent" unicode="&#x120;" horiz-adv-x="814" 
d="M412 781q-11 0 -18 7t-7 17t7.5 17t17.5 7t17.5 -7t7.5 -17t-7 -17t-18 -7zM744 345v-10q0 -145 -92.5 -245t-239.5 -100q-144 0 -243 100t-99 245t99 245t243 100q110 0 191 -50.5t118 -134.5l-20 -8q-34 78 -110 125.5t-179 47.5q-135 0 -227.5 -94t-92.5 -231
t92.5 -231t227.5 -94q134 0 220 91t90 224h-353v20h375z" />
    <glyph glyph-name="gdotaccent" unicode="&#x121;" horiz-adv-x="655" 
d="M315 597q-11 0 -18 7t-7 17t7.5 17t17.5 7t17.5 -7t7.5 -17t-7 -17t-18 -7zM550 486v-515q-1 -93 -71 -157t-167 -64q-186 0 -240 146l22 8q47 -134 218 -134q88 0 152 58t65 143v167q-28 -69 -89.5 -108.5t-136.5 -39.5q-105 0 -176.5 70t-71.5 183t71.5 183t176.5 70
q75 0 136.5 -39.5t89.5 -108.5v138h21zM303 10q91 0 158.5 65t67.5 168t-67.5 168t-158.5 65q-95 0 -161 -64.5t-66 -168.5t66 -168.5t161 -64.5z" />
    <glyph glyph-name="Gcommaaccent" unicode="&#x122;" horiz-adv-x="814" 
d="M744 345v-10q0 -145 -92.5 -245t-239.5 -100q-144 0 -243 100t-99 245t99 245t243 100q110 0 191 -50.5t118 -134.5l-20 -8q-34 78 -110 125.5t-179 47.5q-135 0 -227.5 -94t-92.5 -231t92.5 -231t227.5 -94q134 0 220 91t90 224h-353v20h375zM386 -45h23l-46 -135h-20z
" />
    <glyph glyph-name="gcommaaccent" unicode="&#x123;" horiz-adv-x="645" 
d="M336 574h-23l46 135h20zM550 486v-515q-1 -93 -71 -157t-167 -64q-186 0 -240 146l22 8q47 -134 218 -134q88 0 152 58t65 143v167q-28 -69 -89.5 -108.5t-136.5 -39.5q-105 0 -176.5 70t-71.5 183t71.5 183t176.5 70q75 0 136.5 -39.5t89.5 -108.5v138h21zM303 10
q91 0 158.5 65t67.5 168t-67.5 168t-158.5 65q-95 0 -161 -64.5t-66 -168.5t66 -168.5t161 -64.5z" />
    <glyph glyph-name="Hbar" unicode="&#x126;" horiz-adv-x="743" 
d="M713 486h-77v-486h-22v328h-485v-328h-22v486h-77v20h77v164h22v-164h485v164h22v-164h77v-20zM614 486h-485v-138h485v138z" />
    <glyph glyph-name="hbar" unicode="&#x127;" horiz-adv-x="617" 
d="M356 496q88 0 142 -57.5t54 -152.5v-286h-21v286q0 85 -47.5 137.5t-124.5 52.5q-98 0 -158 -61t-60 -162v-253h-21v595h-90v17h90v158h21v-158h199v-17h-199v-244q24 68 80.5 106.5t134.5 38.5z" />
    <glyph glyph-name="Imacron" unicode="&#x12a;" horiz-adv-x="422" 
d="M336 779h-250v17h250v-17zM222 650v-630h170v-20h-362v20h170v630h-170v20h362v-20h-170z" />
    <glyph glyph-name="imacron" unicode="&#x12b;" horiz-adv-x="261" 
d="M256 595h-250v17h250v-17zM141 0h-21v486h21v-486z" />
    <glyph glyph-name="Iogonek" unicode="&#x12e;" horiz-adv-x="422" 
d="M222 650v-630h170v-20h-170q-42 -40 -58 -63.5t-16 -50.5q0 -56 55 -56q13 0 45 10l6 -19q-34 -11 -50 -11q-30 0 -53 17.5t-23 58.5q0 28 15 52t55 62h-168v20h170v630h-170v20h362v-20h-170z" />
    <glyph glyph-name="iogonek" unicode="&#x12f;" horiz-adv-x="261" 
d="M131 597q-11 0 -18 7t-7 17t7.5 17t17.5 7t17.5 -7t7.5 -17t-7 -17t-18 -7zM167 -160l6 -19q-34 -11 -50 -11q-30 0 -53 17.5t-23 58.5q0 29 15.5 53t57.5 64v483h21v-486q-42 -40 -58 -63.5t-16 -50.5q0 -56 55 -56q13 0 45 10z" />
    <glyph glyph-name="Idotaccent" unicode="&#x130;" horiz-adv-x="422" 
d="M211 781q-11 0 -18 7t-7 17t7.5 17t17.5 7t17.5 -7t7.5 -17t-7 -17t-18 -7zM222 650v-630h170v-20h-362v20h170v630h-170v20h362v-20h-170z" />
    <glyph glyph-name="dotlessi" unicode="&#x131;" horiz-adv-x="261" 
d="M141 0h-21v486h21v-486z" />
    <glyph glyph-name="IJ" unicode="&#x132;" horiz-adv-x="1016" 
d="M392 670v-20h-170v-630h170v-20h-362v20h170v630h-170v20h362zM921 670v-420q0 -116 -65 -188t-170 -72q-95 0 -158 58.5t-74 153.5l21 7q11 -91 68 -144.5t143 -53.5q96 0 154.5 66t58.5 173v400h-295v20h317z" />
    <glyph glyph-name="ij" unicode="&#x133;" horiz-adv-x="524" 
d="M125 659q10 0 17.5 -7t7.5 -17t-7 -17t-18 -7t-18 7t-7 17t7.5 17t17.5 7zM398 659q10 0 17.5 -7t7.5 -17t-7 -17t-18 -7t-18 7t-7 17t7.5 17t17.5 7zM136 0h-21v486h21v-486zM246 -234l9 17q22 -13 49 -13q38 0 60.5 23t22.5 60v633h21v-633q0 -46 -28 -74.5t-74 -28.5
q-34 0 -60 16z" />
    <glyph glyph-name="Kcommaaccent" unicode="&#x136;" horiz-adv-x="698" 
d="M668 0h-31l-322 366l-188 -187v-179h-22v670h22v-463l465 463h29l-291 -289zM342 -45h23l-46 -135h-20z" />
    <glyph glyph-name="kcommaaccent" unicode="&#x137;" horiz-adv-x="581" 
d="M561 0h-28l-254 272l-153 -152v-120h-21v770h21v-621l340 337h29l-201 -199zM290 -45h23l-46 -135h-20z" />
    <glyph glyph-name="Lacute" unicode="&#x139;" horiz-adv-x="580" 
d="M133 751h-21l93 136h23zM550 20v-20h-445v670h22v-650h423z" />
    <glyph glyph-name="lacute" unicode="&#x13a;" horiz-adv-x="294" 
d="M123 851h-21l93 136h23zM116 770v-677q0 -37 23 -60t60 -23q30 0 56 18l9 -17q-30 -21 -67 -21q-46 0 -74 28.5t-28 74.5v677h21z" />
    <glyph glyph-name="Lcommaaccent" unicode="&#x13b;" horiz-adv-x="580" 
d="M550 20v-20h-445v670h22v-650h423zM335 -45h23l-46 -135h-20z" />
    <glyph glyph-name="lcommaaccent" unicode="&#x13c;" horiz-adv-x="294" 
d="M116 770v-677q0 -37 23 -60t60 -23q30 0 56 18l9 -17q-30 -21 -67 -21q-46 0 -74 28.5t-28 74.5v677h21zM118 -180l43 135h23l-46 -135h-20z" />
    <glyph glyph-name="Lcaron" unicode="&#x13d;" horiz-adv-x="580" 
d="M550 20v-20h-445v670h22v-650h423zM335 524h-18v146h22z" />
    <glyph glyph-name="lcaron" unicode="&#x13e;" horiz-adv-x="294" 
d="M116 770v-677q0 -37 23 -60t60 -23q30 0 56 18l9 -17q-30 -21 -67 -21q-46 0 -74 28.5t-28 74.5v677h21zM232 624h-18v146h22z" />
    <glyph glyph-name="Ldot" unicode="&#x13f;" horiz-adv-x="580" 
d="M550 20v-20h-445v670h22v-650h423zM368 311q-11 0 -18 7t-7 17t7.5 17t17.5 7t17.5 -7t7.5 -17t-7 -17t-18 -7z" />
    <glyph glyph-name="ldot" unicode="&#x140;" horiz-adv-x="304" 
d="M126 770v-677q0 -37 23 -60t60 -23q31 0 56 18l9 -17q-30 -21 -67 -21q-46 0 -74 28.5t-28 74.5v677h21zM268 349q10 0 17.5 -7t7.5 -17t-7 -17t-18 -7t-18 7t-7 17t7.5 17t17.5 7z" />
    <glyph glyph-name="Lslash" unicode="&#x141;" horiz-adv-x="590" 
d="M560 20v-20h-445v284l-85 -43v22l85 43v364h22v-353l193 96v-22l-193 -96v-275h423z" />
    <glyph glyph-name="lslash" unicode="&#x142;" horiz-adv-x="319" 
d="M280 28l9 -17q-30 -21 -67 -21q-46 0 -74 28.5t-28 74.5v238l-90 -61v23l90 61v416h21v-401l109 74v-23l-109 -74v-253q0 -37 22.5 -60t60.5 -23q30 0 56 18z" />
    <glyph glyph-name="Nacute" unicode="&#x143;" horiz-adv-x="759" 
d="M407 751h-21l93 136h23zM654 670v-670h-22l-505 634v-634h-22v670h22l505 -634v634h22z" />
    <glyph glyph-name="nacute" unicode="&#x144;" horiz-adv-x="632" 
d="M346 567h-21l93 136h23zM341 496q88 0 142 -57.5t54 -152.5v-286h-21v286q0 85 -47.5 137.5t-124.5 52.5q-98 0 -158 -61t-60 -162v-253h-21v486h21v-135q24 68 80.5 106.5t134.5 38.5z" />
    <glyph glyph-name="Ncommaaccent" unicode="&#x145;" horiz-adv-x="759" 
d="M654 670v-670h-22l-505 634v-634h-22v670h22l505 -634v634h22zM385 -45h23l-46 -135h-20z" />
    <glyph glyph-name="ncommaaccent" unicode="&#x146;" horiz-adv-x="632" 
d="M341 496q88 0 142 -57.5t54 -152.5v-286h-21v286q0 85 -47.5 137.5t-124.5 52.5q-98 0 -158 -61t-60 -162v-253h-21v486h21v-135q24 68 80.5 106.5t134.5 38.5zM313 -45h23l-46 -135h-20z" />
    <glyph glyph-name="Ncaron" unicode="&#x147;" horiz-adv-x="759" 
d="M380 746l-120 135h25l105 -117l105 117h25l-120 -135h-20zM654 670v-670h-22l-505 634v-634h-22v670h22l505 -634v634h22z" />
    <glyph glyph-name="ncaron" unicode="&#x148;" horiz-adv-x="632" 
d="M319 562l-120 135h25l105 -117l105 117h25l-120 -135h-20zM341 496q88 0 142 -57.5t54 -152.5v-286h-21v286q0 85 -47.5 137.5t-124.5 52.5q-98 0 -158 -61t-60 -162v-253h-21v486h21v-135q24 68 80.5 106.5t134.5 38.5z" />
    <glyph glyph-name="Eng" unicode="&#x14a;" horiz-adv-x="759" 
d="M654 670v-817q0 -46 -28 -74.5t-74 -28.5q-37 0 -67 21l9 19q26 -18 56 -18q38 0 60 22t22 59v147l-505 634v-634h-22v670h22l505 -634v634h22z" />
    <glyph glyph-name="eng" unicode="&#x14b;" horiz-adv-x="602" 
d="M341 496q88 0 142 -57.5t54 -152.5v-433q0 -46 -28 -74.5t-74 -28.5q-37 0 -67 21l9 17q25 -18 56 -18q37 0 60 23t23 60v433q0 85 -47.5 137.5t-124.5 52.5q-98 0 -158 -61t-60 -162v-253h-21v486h21v-135q24 68 80.5 106.5t134.5 38.5z" />
    <glyph glyph-name="Omacron" unicode="&#x14c;" horiz-adv-x="819" 
d="M535 779h-250v17h250v-17zM410 680q142 0 240.5 -100t98.5 -245t-98 -245t-241 -100t-241.5 100t-98.5 245t98.5 245t241.5 100zM410 10q133 0 225 94t92 231q0 136 -92 230.5t-225 94.5q-134 0 -226 -94.5t-92 -230.5q0 -137 92 -231t226 -94z" />
    <glyph glyph-name="omacron" unicode="&#x14d;" horiz-adv-x="615" 
d="M432 605h-250v17h250v-17zM307 496q109 0 181 -71.5t72 -180.5t-72 -181.5t-181 -72.5q-108 0 -180 72.5t-72 181.5t72 180.5t180 71.5zM307 10q100 0 166 66.5t66 167.5q0 100 -66 166t-166 66q-99 0 -165 -66t-66 -166t66 -167t165 -67z" />
    <glyph glyph-name="Ohungarumlaut" unicode="&#x150;" horiz-adv-x="819" 
d="M356 751h-21l92 135h27zM478 751h-21l91 135h27zM410 680q142 0 240.5 -100t98.5 -245t-98 -245t-241 -100t-241.5 100t-98.5 245t98.5 245t241.5 100zM410 10q133 0 225 94t92 231q0 136 -92 230.5t-225 94.5q-134 0 -226 -94.5t-92 -230.5q0 -137 92 -231t226 -94z" />
    <glyph glyph-name="ohungarumlaut" unicode="&#x151;" horiz-adv-x="615" 
d="M253 577h-21l92 135h27zM375 577h-21l91 135h27zM307 496q109 0 181 -71.5t72 -180.5t-72 -181.5t-181 -72.5q-108 0 -180 72.5t-72 181.5t72 180.5t180 71.5zM307 10q100 0 166 66.5t66 167.5q0 100 -66 166t-166 66q-99 0 -165 -66t-66 -166t66 -167t165 -67z" />
    <glyph glyph-name="OE" unicode="&#x152;" horiz-adv-x="1062" 
d="M549 650v-303h418v-20h-418v-307h448v-20h-516q-194 0 -302.5 92.5t-108.5 242.5q0 148 108.5 241.5t302.5 93.5h516v-20h-448zM527 20v630h-46q-185 0 -287 -87.5t-102 -227.5q0 -141 102 -228t287 -87h46z" />
    <glyph glyph-name="oe" unicode="&#x153;" horiz-adv-x="1079" 
d="M561 248v-5v-2q0 -104 68 -167.5t155 -63.5q77 0 132 37t80 108l18 -6q-25 -76 -85 -117.5t-145 -41.5q-78 0 -145 48t-89 130q-24 -80 -90 -129t-153 -49q-108 0 -180 72.5t-72 181.5t72 180.5t180 71.5q89 0 155 -49t88 -130q23 83 91 131t151 48q101 0 165 -66
t67 -172v-10h-463zM307 10q100 0 166 66.5t66 167.5q0 100 -66 166t-166 66q-99 0 -165 -66t-66 -166t66 -167t165 -67zM792 476q-86 0 -153.5 -57t-76.5 -151h440q-6 95 -64.5 151.5t-145.5 56.5z" />
    <glyph glyph-name="Racute" unicode="&#x154;" horiz-adv-x="666" 
d="M336 751h-21l93 136h23zM626 0h-32l-293 328h-174v-328h-22v670h299q89 0 143.5 -47t54.5 -124t-54.5 -124t-143.5 -47h-74zM127 348h277q80 0 128 41.5t48 109.5t-48 109.5t-128 41.5h-277v-302z" />
    <glyph glyph-name="racute" unicode="&#x155;" horiz-adv-x="394" 
d="M227 567h-21l93 136h23zM345 489q19 0 34 -3l-5 -19q-10 2 -29 2q-99 0 -158.5 -75t-59.5 -176v-218h-21v486h21v-156q28 71 85.5 115t132.5 44z" />
    <glyph glyph-name="Rcommaaccent" unicode="&#x156;" horiz-adv-x="666" 
d="M626 0h-32l-293 328h-174v-328h-22v670h299q89 0 143.5 -47t54.5 -124t-54.5 -124t-143.5 -47h-74zM127 348h277q80 0 128 41.5t48 109.5t-48 109.5t-128 41.5h-277v-302zM313 -45h23l-46 -135h-20z" />
    <glyph glyph-name="rcommaaccent" unicode="&#x157;" horiz-adv-x="394" 
d="M345 489q19 0 34 -3l-5 -19q-10 2 -29 2q-99 0 -158.5 -75t-59.5 -176v-218h-21v486h21v-156q28 71 85.5 115t132.5 44zM105 -45h23l-46 -135h-20z" />
    <glyph glyph-name="Rcaron" unicode="&#x158;" horiz-adv-x="666" 
d="M309 746l-120 135h25l105 -117l105 117h25l-120 -135h-20zM626 0h-32l-293 328h-174v-328h-22v670h299q89 0 143.5 -47t54.5 -124t-54.5 -124t-143.5 -47h-74zM127 348h277q80 0 128 41.5t48 109.5t-48 109.5t-128 41.5h-277v-302z" />
    <glyph glyph-name="rcaron" unicode="&#x159;" horiz-adv-x="394" 
d="M200 562l-120 135h25l105 -117l105 117h25l-120 -135h-20zM345 489q19 0 34 -3l-5 -19q-10 2 -29 2q-99 0 -158.5 -75t-59.5 -176v-218h-21v486h21v-156q28 71 85.5 115t132.5 44z" />
    <glyph glyph-name="Sacute" unicode="&#x15a;" horiz-adv-x="612" 
d="M327 751h-21l93 136h23zM305 680q97 0 159 -48.5t78 -126.5l-21 -7q-15 75 -72.5 118.5t-144.5 43.5q-85 0 -140 -43t-55 -116q0 -59 36 -88.5t100 -44.5l148 -37q34 -8 58 -17t50 -26t39.5 -45.5t13.5 -67.5q0 -85 -63 -135t-168 -50q-109 0 -181.5 54.5t-83.5 144.5
l24 6q8 -84 75 -134.5t167 -50.5q95 0 151 44.5t56 119.5q0 62 -33.5 91t-106.5 46l-160 39q-146 35 -146 151q0 81 61.5 130t158.5 49z" />
    <glyph glyph-name="sacute" unicode="&#x15b;" horiz-adv-x="508" 
d="M278 567h-21l93 136h23zM63 134l19 7q5 -60 57 -96t130 -36q71 0 114.5 31t43.5 86q0 44 -28 65t-78 33l-125 28q-58 12 -86.5 38.5t-28.5 72.5q0 60 47.5 96.5t123.5 36.5q74 0 121.5 -34.5t62.5 -91.5l-19 -8q-11 53 -54.5 83.5t-110.5 30.5t-108.5 -30.5t-41.5 -82.5
q0 -42 27.5 -62.5t77.5 -32.5l118 -26q26 -6 43.5 -12.5t38 -19t31 -34t10.5 -50.5q0 -62 -49.5 -99t-129.5 -37q-87 0 -142 39t-64 105z" />
    <glyph glyph-name="Scedilla" unicode="&#x15e;" horiz-adv-x="612" 
d="M554 175q0 -83 -61 -133t-163 -52l-94 -170h-26l99 170q-103 4 -171.5 58t-79.5 141l24 6q8 -84 75 -134.5t167 -50.5q95 0 151 44.5t56 119.5q0 62 -33.5 91t-106.5 46l-160 39q-146 35 -146 151q0 81 61.5 130t158.5 49t159 -48.5t78 -126.5l-21 -7q-15 75 -72.5 118.5
t-144.5 43.5q-85 0 -140 -43t-55 -116q0 -59 36 -88.5t100 -44.5l148 -37q34 -8 58 -17t50 -26t39.5 -45.5t13.5 -67.5z" />
    <glyph glyph-name="scedilla" unicode="&#x15f;" horiz-adv-x="508" 
d="M448 126q0 -60 -46 -96.5t-122 -39.5l-95 -170h-26l99 170q-82 3 -134 41.5t-61 102.5l19 7q5 -60 57 -96t130 -36q71 0 114.5 31t43.5 86q0 44 -28 65t-78 33l-125 28q-58 12 -86.5 38.5t-28.5 72.5q0 60 47.5 96.5t123.5 36.5q74 0 121.5 -34.5t62.5 -91.5l-19 -8
q-11 53 -54.5 83.5t-110.5 30.5t-108.5 -30.5t-41.5 -82.5q0 -42 27.5 -62.5t77.5 -32.5l118 -26q26 -6 43.5 -12.5t38 -19t31 -34t10.5 -50.5z" />
    <glyph glyph-name="Scaron" unicode="&#x160;" horiz-adv-x="612" 
d="M300 746l-120 135h25l105 -117l105 117h25l-120 -135h-20zM245 368l148 -37q34 -8 58 -17t50 -26t39.5 -45.5t13.5 -67.5q0 -85 -63 -135t-168 -50q-109 0 -181.5 54.5t-83.5 144.5l24 6q8 -84 75 -134.5t167 -50.5q95 0 151 44.5t56 119.5q0 62 -33.5 91t-106.5 46
l-160 39q-146 35 -146 151q0 81 61.5 130t158.5 49t159 -48.5t78 -126.5l-21 -7q-15 75 -72.5 118.5t-144.5 43.5q-85 0 -140 -43t-55 -116q0 -59 36 -88.5t100 -44.5z" />
    <glyph glyph-name="scaron" unicode="&#x161;" horiz-adv-x="508" 
d="M251 562l-120 135h25l105 -117l105 117h25l-120 -135h-20zM207 268l118 -26q26 -6 43.5 -12.5t38 -19t31 -34t10.5 -50.5q0 -62 -49.5 -99t-129.5 -37q-87 0 -142 39t-64 105l19 7q5 -60 57 -96t130 -36q71 0 114.5 31t43.5 86q0 44 -28 65t-78 33l-125 28
q-58 12 -86.5 38.5t-28.5 72.5q0 60 47.5 96.5t123.5 36.5q74 0 121.5 -34.5t62.5 -91.5l-19 -8q-11 53 -54.5 83.5t-110.5 30.5t-108.5 -30.5t-41.5 -82.5q0 -42 27.5 -62.5t77.5 -32.5z" />
    <glyph glyph-name="tcedilla" unicode="&#x163;" horiz-adv-x="353" 
d="M323 46l12 -16q-43 -40 -99 -40h-7l-95 -170h-26l101 172q-47 9 -74.5 44t-27.5 87v343h-107v20h107v184h21v-184h190v-20h-190v-343q0 -51 30 -82t79 -31q47 0 86 36z" />
    <glyph glyph-name="Tcaron" unicode="&#x164;" horiz-adv-x="632" 
d="M307 746l-120 135h25l105 -117l105 117h25l-120 -135h-20zM602 650h-274v-650h-24v650h-274v20h572v-20z" />
    <glyph glyph-name="tcaron" unicode="&#x165;" horiz-adv-x="353" 
d="M229 570h-18v146h22zM323 46l12 -16q-43 -40 -99 -40q-58 0 -93.5 36.5t-35.5 96.5v343h-107v20h107v184h21v-184h190v-20h-190v-343q0 -51 30 -82t79 -31q47 0 86 36z" />
    <glyph glyph-name="Tbar" unicode="&#x166;" horiz-adv-x="652" 
d="M328 650v-304h143v-19h-143v-327h-24v327h-143v19h143v304h-274v20h572v-20h-274z" />
    <glyph glyph-name="tbar" unicode="&#x167;" horiz-adv-x="353" 
d="M323 46l12 -16q-43 -40 -99 -40q-58 0 -93.5 36.5t-35.5 96.5v177h-106v20h106v146h-107v20h107v184h21v-184h190v-20h-190v-146h163v-20h-163v-177q0 -51 30 -82t79 -31q47 0 86 36z" />
    <glyph glyph-name="Umacron" unicode="&#x16a;" horiz-adv-x="730" 
d="M490 779h-250v17h250v-17zM635 670v-385q0 -133 -74.5 -214t-195.5 -81t-195.5 81t-74.5 214v385h22v-385q0 -124 68 -199t180 -75t180 75t68 199v385h22z" />
    <glyph glyph-name="umacron" unicode="&#x16b;" horiz-adv-x="632" 
d="M434 595h-250v17h250v-17zM527 486v-486h-21v135q-24 -68 -80.5 -106.5t-134.5 -38.5q-88 0 -142 57.5t-54 152.5v286h21v-286q0 -85 47.5 -137.5t124.5 -52.5q98 0 158 61t60 162v253h21z" />
    <glyph glyph-name="Uring" unicode="&#x16e;" horiz-adv-x="730" 
d="M365 739q-37 0 -62.5 25.5t-25.5 60.5t25.5 60.5t62.5 25.5t62.5 -25.5t25.5 -60.5t-25.5 -60.5t-62.5 -25.5zM365 893q-29 0 -49.5 -20t-20.5 -48t20.5 -48t49.5 -20t49.5 20t20.5 48t-20.5 48t-49.5 20zM635 670v-385q0 -133 -74.5 -214t-195.5 -81t-195.5 81
t-74.5 214v385h22v-385q0 -124 68 -199t180 -75t180 75t68 199v385h22z" />
    <glyph glyph-name="uring" unicode="&#x16f;" horiz-adv-x="632" 
d="M309 555q-37 0 -62.5 25.5t-25.5 60.5t25.5 60.5t62.5 25.5t62.5 -25.5t25.5 -60.5t-25.5 -60.5t-62.5 -25.5zM309 709q-29 0 -49.5 -20t-20.5 -48t20.5 -48t49.5 -20t49.5 20t20.5 48t-20.5 48t-49.5 20zM527 486v-486h-21v135q-24 -68 -80.5 -106.5t-134.5 -38.5
q-88 0 -142 57.5t-54 152.5v286h21v-286q0 -85 47.5 -137.5t124.5 -52.5q98 0 158 61t60 162v253h21z" />
    <glyph glyph-name="Uhungarumlaut" unicode="&#x170;" horiz-adv-x="730" 
d="M311 751h-21l92 135h27zM433 751h-21l91 135h27zM635 670v-385q0 -133 -74.5 -214t-195.5 -81t-195.5 81t-74.5 214v385h22v-385q0 -124 68 -199t180 -75t180 75t68 199v385h22z" />
    <glyph glyph-name="uhungarumlaut" unicode="&#x171;" horiz-adv-x="632" 
d="M255 567h-21l92 135h27zM377 567h-21l91 135h27zM527 486v-486h-21v135q-24 -68 -80.5 -106.5t-134.5 -38.5q-88 0 -142 57.5t-54 152.5v286h21v-286q0 -85 47.5 -137.5t124.5 -52.5q98 0 158 61t60 162v253h21z" />
    <glyph glyph-name="Uogonek" unicode="&#x172;" horiz-adv-x="730" 
d="M635 670v-393q0 -75 -27 -132.5t-68 -91.5q-101 -84 -124.5 -109t-23.5 -58q0 -26 17 -41t45 -15q16 0 44 12l6 -19q-32 -13 -50 -13q-38 0 -61 21t-23 55q0 30 16.5 53.5t62.5 63.5q-42 -13 -84 -13q-120 0 -195 79t-75 208v393h22v-393q0 -120 68.5 -193t179.5 -73
t179.5 73t68.5 193v393h22z" />
    <glyph glyph-name="uogonek" unicode="&#x173;" horiz-adv-x="632" 
d="M553 -160l6 -19q-34 -11 -50 -11q-30 0 -53 17.5t-23 58.5q0 29 15.5 53t57.5 64v132q-24 -68 -80.5 -106.5t-134.5 -38.5q-88 0 -142 57.5t-54 152.5v286h21v-286q0 -85 47.5 -137.5t124.5 -52.5q98 0 158 61t60 162v253h21v-486q-42 -40 -58 -63.5t-16 -50.5
q0 -56 55 -56q13 0 45 10z" />
    <glyph glyph-name="Wcircumflex" unicode="&#x174;" horiz-adv-x="944" 
d="M367 744h-25l120 135h20l120 -135h-25l-105 117zM919 670l-217 -670h-19l-211 636l-211 -636h-19l-217 670h23l205 -636l208 636h22l208 -636l205 636h23z" />
    <glyph glyph-name="wcircumflex" unicode="&#x175;" horiz-adv-x="750" 
d="M270 560h-25l120 135h20l120 -135h-25l-105 117zM725 487l-166 -490h-24l-160 453l-160 -453h-24l-166 490h23l156 -455l162 454h18l162 -454l156 455h23z" />
    <glyph glyph-name="Ycircumflex" unicode="&#x176;" horiz-adv-x="650" 
d="M220 744h-25l120 135h20l120 -135h-25l-105 117zM336 254v-254h-22v254l-289 416h26l274 -398l274 398h26z" />
    <glyph glyph-name="ycircumflex" unicode="&#x177;" horiz-adv-x="541" 
d="M176 560h-25l120 135h20l120 -135h-25l-105 117zM516 486l-349 -726h-23l116 241l-235 485h25l221 -462l222 462h23z" />
    <glyph glyph-name="Ydieresis" unicode="&#x178;" horiz-adv-x="650" 
d="M235 776q-11 0 -18 7t-7 17t7.5 17t17.5 7t17.5 -7t7.5 -17t-7 -17t-18 -7zM415 776q-11 0 -18 7t-7 17t7.5 17t17.5 7t17.5 -7t7.5 -17t-7 -17t-18 -7zM336 254v-254h-22v254l-289 416h26l274 -398l274 398h26z" />
    <glyph glyph-name="Zacute" unicode="&#x179;" horiz-adv-x="626" 
d="M340 751h-21l93 136h23zM566 658l-465 -638h465v-20h-496v13l464 637h-450v20h482v-12z" />
    <glyph glyph-name="zacute" unicode="&#x17a;" horiz-adv-x="489" 
d="M272 567h-21l93 136h23zM449 20v-20h-409v17l370 449h-359v20h389v-17l-370 -449h379z" />
    <glyph glyph-name="Zdotaccent" unicode="&#x17b;" horiz-adv-x="626" 
d="M323 781q-11 0 -18 7t-7 17t7.5 17t17.5 7t17.5 -7t7.5 -17t-7 -17t-18 -7zM566 658l-465 -638h465v-20h-496v13l464 637h-450v20h482v-12z" />
    <glyph glyph-name="zdotaccent" unicode="&#x17c;" horiz-adv-x="489" 
d="M255 597q-11 0 -18 7t-7 17t7.5 17t17.5 7t17.5 -7t7.5 -17t-7 -17t-18 -7zM449 20v-20h-409v17l370 449h-359v20h389v-17l-370 -449h379z" />
    <glyph glyph-name="Zcaron" unicode="&#x17d;" horiz-adv-x="626" 
d="M313 746l-120 135h25l105 -117l105 117h25l-120 -135h-20zM566 658l-465 -638h465v-20h-496v13l464 637h-450v20h482v-12z" />
    <glyph glyph-name="zcaron" unicode="&#x17e;" horiz-adv-x="489" 
d="M245 562l-120 135h25l105 -117l105 117h25l-120 -135h-20zM449 20v-20h-409v17l370 449h-359v20h389v-17l-370 -449h379z" />
    <glyph glyph-name="florin" unicode="&#x192;" horiz-adv-x="517" 
d="M389 660q-60 0 -99.5 -37.5t-51.5 -99.5l-32 -178h222v-20h-226l-69 -384q-9 -48 -41.5 -77t-78.5 -29q-38 0 -63 22l12 17q20 -19 52 -19q38 0 64.5 23.5t33.5 62.5l69 384h-136v20h140l32 178q13 72 59.5 114.5t115.5 42.5q64 0 105 -42l-14 -15q-37 37 -94 37z" />
    <glyph glyph-name="AEacute" unicode="&#x1fc;" horiz-adv-x="1039" 
d="M721 751h-21l93 136h23zM556 650v-303h418v-20h-418v-307h448v-20h-470v186h-347l-141 -186h-26l510 670h474v-20h-448zM534 206v436l-332 -436h332z" />
    <glyph glyph-name="aeacute" unicode="&#x1fd;" horiz-adv-x="953" 
d="M489 567h-21l93 136h23zM898 240h-432q1 -106 60.5 -168t152.5 -62q61 0 117.5 40t74.5 106l19 -6q-17 -70 -79.5 -115t-131.5 -45q-84 0 -142.5 45.5t-81.5 127.5q-18 -80 -77.5 -126.5t-140.5 -46.5q-87 0 -134.5 38t-47.5 99q0 63 48.5 98t131.5 35h210v63
q0 69 -45 111t-119 42q-79 0 -125.5 -34t-55.5 -93l-19 6q8 65 59.5 103t140.5 38q74 0 124 -40t59 -106q28 70 83.5 108t132.5 38q96 0 155.5 -69.5t62.5 -177.5v-9zM466 260h410q-6 96 -60 156t-135 60q-91 0 -150.5 -58.5t-64.5 -157.5zM445 240h-210q-73 0 -116 -29.5
t-43 -83.5q0 -53 41.5 -85t119.5 -32q89 0 148.5 61t59.5 161v8z" />
    <glyph glyph-name="Scommaaccent" unicode="&#x218;" horiz-adv-x="612" 
d="M305 680q97 0 159 -48.5t78 -126.5l-21 -7q-15 75 -72.5 118.5t-144.5 43.5q-85 0 -140 -43t-55 -116q0 -59 36 -88.5t100 -44.5l148 -37q34 -8 58 -17t50 -26t39.5 -45.5t13.5 -67.5q0 -85 -63 -135t-168 -50q-109 0 -181.5 54.5t-83.5 144.5l24 6q8 -84 75 -134.5
t167 -50.5q95 0 151 44.5t56 119.5q0 62 -33.5 91t-106.5 46l-160 39q-146 35 -146 151q0 81 61.5 130t158.5 49zM255 -180l43 135h23l-46 -135h-20z" />
    <glyph glyph-name="scommaaccent" unicode="&#x219;" horiz-adv-x="508" 
d="M63 134l19 7q5 -60 57 -96t130 -36q71 0 114.5 31t43.5 86q0 44 -28 65t-78 33l-125 28q-58 12 -86.5 38.5t-28.5 72.5q0 60 47.5 96.5t123.5 36.5q74 0 121.5 -34.5t62.5 -91.5l-19 -8q-11 53 -54.5 83.5t-110.5 30.5t-108.5 -30.5t-41.5 -82.5q0 -42 27.5 -62.5
t77.5 -32.5l118 -26q26 -6 43.5 -12.5t38 -19t31 -34t10.5 -50.5q0 -62 -49.5 -99t-129.5 -37q-87 0 -142 39t-64 105zM204 -180l43 135h23l-46 -135h-20z" />
    <glyph glyph-name="uni021A" unicode="&#x21a;" horiz-adv-x="632" 
d="M602 650h-274v-650h-24v650h-274v20h572v-20zM302 -45h23l-46 -135h-20z" />
    <glyph glyph-name="uni021B" unicode="&#x21b;" horiz-adv-x="353" 
d="M323 46l12 -16q-43 -40 -99 -40q-58 0 -93.5 36.5t-35.5 96.5v343h-107v20h107v184h21v-184h190v-20h-190v-343q0 -51 30 -82t79 -31q47 0 86 36zM196 -45h23l-46 -135h-20z" />
    <glyph glyph-name="circumflex" unicode="&#x2c6;" horiz-adv-x="600" 
d="M405 560l-105 117l-105 -117h-25l120 135h20l120 -135h-25z" />
    <glyph glyph-name="caron" unicode="&#x2c7;" horiz-adv-x="600" 
d="M430 697l-120 -135h-20l-120 135h25l105 -117l105 117h25z" />
    <glyph glyph-name="breve" unicode="&#x2d8;" horiz-adv-x="600" 
d="M300 561q-53 0 -88 33t-35 86h19q0 -45 30 -73t74 -28t74 28t30 73h19q0 -53 -35 -86t-88 -33z" />
    <glyph glyph-name="dotaccent" unicode="&#x2d9;" horiz-adv-x="600" 
d="M300 645q10 0 17.5 -7t7.5 -17t-7 -17t-18 -7t-18 7t-7 17t7.5 17t17.5 7z" />
    <glyph glyph-name="ring" unicode="&#x2da;" horiz-adv-x="600" 
d="M388 640q0 -35 -25.5 -60.5t-62.5 -25.5t-62.5 25.5t-25.5 60.5t25.5 60.5t62.5 25.5t62.5 -25.5t25.5 -60.5zM370 640q0 28 -20.5 48t-49.5 20t-49.5 -20t-20.5 -48t20.5 -48t49.5 -20t49.5 20t20.5 48z" />
    <glyph glyph-name="ogonek" unicode="&#x2db;" horiz-adv-x="600" 
d="M293 5l19 -5q-42 -40 -58 -63.5t-16 -50.5q0 -56 55 -56q13 0 45 10l6 -19q-34 -11 -50 -11q-30 0 -53 17.5t-23 58.5q0 29 16 54t59 65z" />
    <glyph glyph-name="tilde" unicode="&#x2dc;" horiz-adv-x="600" 
d="M190 600h-21q0 34 18.5 53.5t48.5 19.5q28 0 64 -28.5t59 -28.5q21 0 33 15t12 41h21q0 -34 -18 -54.5t-48 -20.5q-27 0 -63.5 28.5t-58.5 28.5t-34.5 -14.5t-12.5 -39.5z" />
    <glyph glyph-name="hungarumlaut" unicode="&#x2dd;" horiz-adv-x="600" 
d="M214 567h-21l92 135h27zM336 567h-21l91 135h27z" />
    <glyph glyph-name="uni0326" unicode="&#x326;" horiz-adv-x="0" 
d="M235 -180l43 135h23l-46 -135h-20z" />
    <glyph glyph-name="Wgrave" unicode="&#x1e80;" horiz-adv-x="944" 
d="M460 751l-95 136h23l93 -136h-21zM919 670l-217 -670h-19l-211 636l-211 -636h-19l-217 670h23l205 -636l208 636h22l208 -636l205 636h23z" />
    <glyph glyph-name="wgrave" unicode="&#x1e81;" horiz-adv-x="750" 
d="M363 567l-95 136h23l93 -136h-21zM725 487l-166 -490h-24l-160 453l-160 -453h-24l-166 490h23l156 -455l162 454h18l162 -454l156 455h23z" />
    <glyph glyph-name="Wacute" unicode="&#x1e82;" horiz-adv-x="944" 
d="M489 751h-21l93 136h23zM919 670l-217 -670h-19l-211 636l-211 -636h-19l-217 670h23l205 -636l208 636h22l208 -636l205 636h23z" />
    <glyph glyph-name="wacute" unicode="&#x1e83;" horiz-adv-x="750" 
d="M392 567h-21l93 136h23zM725 487l-166 -490h-24l-160 453l-160 -453h-24l-166 490h23l156 -455l162 454h18l162 -454l156 455h23z" />
    <glyph glyph-name="Wdieresis" unicode="&#x1e84;" horiz-adv-x="944" 
d="M382 776q-11 0 -18 7t-7 17t7.5 17t17.5 7t17.5 -7t7.5 -17t-7 -17t-18 -7zM562 776q-11 0 -18 7t-7 17t7.5 17t17.5 7t17.5 -7t7.5 -17t-7 -17t-18 -7zM919 670l-217 -670h-19l-211 636l-211 -636h-19l-217 670h23l205 -636l208 636h22l208 -636l205 636h23z" />
    <glyph glyph-name="wdieresis" unicode="&#x1e85;" horiz-adv-x="750" 
d="M285 592q-11 0 -18 7t-7 17t7.5 17t17.5 7t17.5 -7t7.5 -17t-7 -17t-18 -7zM465 592q-11 0 -18 7t-7 17t7.5 17t17.5 7t17.5 -7t7.5 -17t-7 -17t-18 -7zM725 487l-166 -490h-24l-160 453l-160 -453h-24l-166 490h23l156 -455l162 454h18l162 -454l156 455h23z" />
    <glyph glyph-name="Ygrave" unicode="&#x1ef2;" horiz-adv-x="650" 
d="M313 751l-95 136h23l93 -136h-21zM336 254v-254h-22v254l-289 416h26l274 -398l274 398h26z" />
    <glyph glyph-name="ygrave" unicode="&#x1ef3;" horiz-adv-x="541" 
d="M269 567l-95 136h23l93 -136h-21zM516 486l-349 -726h-23l116 241l-235 485h25l221 -462l222 462h23z" />
    <glyph glyph-name="endash" unicode="&#x2013;" horiz-adv-x="620" 
d="M560 245h-500v20h500v-20z" />
    <glyph glyph-name="emdash" unicode="&#x2014;" horiz-adv-x="1040" 
d="M980 245h-920v20h920v-20z" />
    <glyph glyph-name="quoteleft" unicode="&#x2018;" horiz-adv-x="218" 
d="M138 670h20l-72 -258h-28v2z" />
    <glyph glyph-name="quoteright" unicode="&#x2019;" horiz-adv-x="218" 
d="M80 412h-20l72 258h28v-2z" />
    <glyph glyph-name="quotesinglbase" unicode="&#x201a;" horiz-adv-x="218" 
d="M80 -132h-20l72 258h28v-2z" />
    <glyph glyph-name="quotedblleft" unicode="&#x201c;" horiz-adv-x="358" 
d="M138 670h20l-72 -258h-28v2zM278 670h20l-72 -258h-28v2z" />
    <glyph glyph-name="quotedblright" unicode="&#x201d;" horiz-adv-x="358" 
d="M80 412h-20l72 258h28v-2zM220 412h-20l72 258h28v-2z" />
    <glyph glyph-name="quotedblbase" unicode="&#x201e;" horiz-adv-x="358" 
d="M80 -132h-20l72 258h28v-2zM220 -132h-20l72 258h28v-2z" />
    <glyph glyph-name="dagger" unicode="&#x2020;" horiz-adv-x="310" 
d="M275 650v-21h-110v-235h-20v235h-110v21h110v90h20v-90h110z" />
    <glyph glyph-name="daggerdbl" unicode="&#x2021;" horiz-adv-x="310" 
d="M165 629v-124h110v-21h-110v-90h-20v90h-110v21h110v124h-110v21h110v90h20v-90h110v-21h-110z" />
    <glyph glyph-name="bullet" unicode="&#x2022;" horiz-adv-x="373" 
d="M186 390q53 0 90 -36t37 -86q0 -53 -36.5 -87t-90.5 -34t-90 34t-36 87q0 50 36.5 86t89.5 36z" />
    <glyph glyph-name="ellipsis" unicode="&#x2026;" horiz-adv-x="510" 
d="M85 46q10 0 17.5 -7t7.5 -17t-7 -17t-18 -7t-18 7t-7 17t7.5 17t17.5 7zM255 46q10 0 17.5 -7t7.5 -17t-7 -17t-18 -7t-18 7t-7 17t7.5 17t17.5 7zM425 46q10 0 17.5 -7t7.5 -17t-7 -17t-18 -7t-18 7t-7 17t7.5 17t17.5 7z" />
    <glyph glyph-name="perthousand" unicode="&#x2030;" horiz-adv-x="1240" 
d="M221 680q67 0 114 -43t47 -114q0 -67 -47.5 -111t-113.5 -44q-64 0 -112.5 44t-48.5 111q0 71 48 114t113 43zM156 0l511 670h23l-511 -670h-23zM221 663q-57 0 -100.5 -39.5t-43.5 -100.5q0 -59 43.5 -97.5t100.5 -38.5t100 38.5t43 97.5q0 61 -43 100.5t-100 39.5z
M639 302q67 0 114 -43t47 -114q0 -67 -47.5 -111t-113.5 -44q-64 0 -112.5 44t-48.5 111q0 71 48 114t113 43zM1019 302q67 0 114 -43t47 -114q0 -67 -47.5 -111t-113.5 -44q-64 0 -112.5 44t-48.5 111q0 71 48 114t113 43zM639 285q-57 0 -100.5 -39.5t-43.5 -100.5
q0 -59 43.5 -97.5t100.5 -38.5t100 38.5t43 97.5q0 61 -43 100.5t-100 39.5zM1019 285q-57 0 -100.5 -39.5t-43.5 -100.5q0 -59 43.5 -97.5t100.5 -38.5t100 38.5t43 97.5q0 61 -43 100.5t-100 39.5z" />
    <glyph glyph-name="guilsinglleft" unicode="&#x2039;" horiz-adv-x="207" 
d="M25 262l132 178h25l-132 -178l132 -178h-25z" />
    <glyph glyph-name="guilsinglright" unicode="&#x203a;" horiz-adv-x="207" 
d="M25 84l132 178l-132 178h25l132 -178l-132 -178h-25z" />
    <glyph glyph-name="fraction" unicode="&#x2044;" horiz-adv-x="194" 
d="M-170 0l511 670h23l-511 -670h-23z" />
    <glyph glyph-name="Euro" unicode="&#x20ac;" horiz-adv-x="804" 
d="M714 220l20 -6q-23 -102 -89 -162.5t-160 -60.5q-99 0 -167 67.5t-88 183.5h-125v20h122q-5 38 -5 73q0 32 3 62h-120v20h123q18 121 87 192t170 71q93 0 159.5 -61.5t88.5 -164.5l-19 -7q-23 99 -83.5 156t-145.5 57q-92 0 -154.5 -65.5t-80.5 -177.5h299l-6 -20h-296
q-3 -30 -3 -62q0 -35 5 -73h258l-5 -20h-250q20 -107 82 -169t151 -62q85 0 145.5 55.5t83.5 153.5z" />
    <glyph glyph-name="uni2116" unicode="&#x2116;" horiz-adv-x="1246" 
d="M975 345q-68 0 -117 47t-49 121q0 73 49.5 120t116.5 47q69 0 117.5 -47t48.5 -120q0 -74 -48.5 -121t-117.5 -47zM632 670h22v-670h-22l-505 634v-634h-22v670h22l505 -634v634zM975 660q-58 0 -101 -41.5t-43 -105.5q0 -65 43 -106.5t101 -41.5q60 0 102.5 41.5
t42.5 106.5q0 64 -43 105.5t-102 41.5zM819 242h312v-20h-312v20z" />
    <glyph glyph-name="uni2117" unicode="&#x2117;" horiz-adv-x="794" 
d="M397 680q144 0 244 -98.5t100 -248.5q0 -148 -100 -245.5t-244 -97.5t-244 97.5t-100 245.5q0 150 100 248.5t244 98.5zM397 10q135 0 229 92t94 232q0 141 -94 234t-229 93t-229 -93t-94 -234q0 -140 94 -232t229 -92zM277 517h152q62 0 99.5 -33t37.5 -87t-37.5 -87
t-99.5 -33h-132v-138h-20v378zM297 294h132q53 0 85 28.5t32 74.5t-32 74.5t-85 28.5h-132v-206z" />
    <glyph glyph-name="trademark" unicode="&#x2122;" horiz-adv-x="633" 
d="M258 653h-99v-243h-20v243h-99v17h218v-17zM583 410h-19v219l-111 -217h-15l-111 217v-219h-19v260h19l119 -229l119 229h18v-260z" />
    <glyph glyph-name="oneeighth" unicode="&#x215b;" horiz-adv-x="707" 
d="M120 643l-94 -55v21l102 61h13v-359h-21v332zM575 670l-511 -670h-23l511 670h23zM595 184q46 -8 71.5 -34.5t25.5 -60.5q0 -44 -38 -71.5t-99 -27.5q-63 0 -101.5 27.5t-38.5 71.5q0 36 26 62t75 33q-40 9 -64 31t-24 53q0 40 36 65.5t91 25.5q53 0 88.5 -25.5
t35.5 -65.5q0 -31 -23.5 -53t-60.5 -31zM447 267q0 -31 30.5 -51t77.5 -20q46 0 74 19.5t30 51.5q1 34 -28.5 55t-75.5 21q-47 0 -77.5 -21t-30.5 -55zM554 9q52 0 84 22t32 59q0 34 -30.5 57.5t-84.5 23.5q-55 0 -87 -23t-32 -58q0 -37 32.5 -59t85.5 -22z" />
    <glyph glyph-name="threeeighths" unicode="&#x215c;" horiz-adv-x="823" 
d="M297 416q0 -46 -34.5 -75.5t-90.5 -29.5q-57 0 -95.5 33t-39.5 90l18 2q1 -50 35 -78.5t82 -28.5q47 0 76 24.5t29 62.5q0 36 -28.5 57t-76.5 21h-33v16h33q44 0 70 19.5t26 52.5q0 35 -28 58t-72 23q-45 0 -76 -26.5t-32 -72.5l-18 3q1 51 36.5 82t89.5 31
q52 0 86 -27.5t34 -70.5q0 -29 -17 -50t-45 -29q71 -20 71 -87zM676 670l-511 -670h-23l511 670h23zM696 184q46 -8 71.5 -34.5t25.5 -60.5q0 -44 -38 -71.5t-99 -27.5q-63 0 -101.5 27.5t-38.5 71.5q0 36 26 62t75 33q-40 9 -64 31t-24 53q0 40 36 65.5t91 25.5
q53 0 88.5 -25.5t35.5 -65.5q0 -31 -23.5 -53t-60.5 -31zM548 267q0 -31 30.5 -51t77.5 -20q46 0 74 19.5t30 51.5q1 34 -28.5 55t-75.5 21q-47 0 -77.5 -21t-30.5 -55zM655 9q52 0 84 22t32 59q0 34 -30.5 57.5t-84.5 23.5q-55 0 -87 -23t-32 -58q0 -37 32.5 -59t85.5 -22z
" />
    <glyph glyph-name="fiveeighths" unicode="&#x215d;" horiz-adv-x="818" 
d="M302 420q0 -51 -36.5 -82.5t-96.5 -31.5q-51 0 -89 29t-44 75l20 2q6 -40 38.5 -64t74.5 -24q51 0 82.5 26.5t31.5 69.5q0 40 -29 64t-77 24h-118l6 162h220v-19h-202l-4 -125h98q56 0 90.5 -29t34.5 -77zM686 670l-511 -670h-23l511 670h23zM706 184q46 -8 71.5 -34.5
t25.5 -60.5q0 -44 -38 -71.5t-99 -27.5q-63 0 -101.5 27.5t-38.5 71.5q0 36 26 62t75 33q-40 9 -64 31t-24 53q0 40 36 65.5t91 25.5q53 0 88.5 -25.5t35.5 -65.5q0 -31 -23.5 -53t-60.5 -31zM558 267q0 -31 30.5 -51t77.5 -20q46 0 74 19.5t30 51.5q1 34 -28.5 55t-75.5 21
q-47 0 -77.5 -21t-30.5 -55zM665 9q52 0 84 22t32 59q0 34 -30.5 57.5t-84.5 23.5q-55 0 -87 -23t-32 -58q0 -37 32.5 -59t85.5 -22z" />
    <glyph glyph-name="seveneighths" unicode="&#x215e;" horiz-adv-x="696" 
d="M227 651h-220v19h245v-14l-178 -344h-24zM564 670l-511 -670h-23l511 670h23zM584 184q46 -8 71.5 -34.5t25.5 -60.5q0 -44 -38 -71.5t-99 -27.5q-63 0 -101.5 27.5t-38.5 71.5q0 36 26 62t75 33q-40 9 -64 31t-24 53q0 40 36 65.5t91 25.5q53 0 88.5 -25.5t35.5 -65.5
q0 -31 -23.5 -53t-60.5 -31zM436 267q0 -31 30.5 -51t77.5 -20q46 0 74 19.5t30 51.5q1 34 -28.5 55t-75.5 21q-47 0 -77.5 -21t-30.5 -55zM543 9q52 0 84 22t32 59q0 34 -30.5 57.5t-84.5 23.5q-55 0 -87 -23t-32 -58q0 -37 32.5 -59t85.5 -22z" />
    <glyph glyph-name="arrowleft" unicode="&#x2190;" horiz-adv-x="727" 
d="M687 313h-635l308 -307l-16 -16l-334 334l334 334l16 -16l-308 -307h635v-22z" />
    <glyph glyph-name="arrowup" unicode="&#x2191;" horiz-adv-x="748" 
d="M692 327l-307 308v-635h-22v635l-307 -308l-16 16l334 334l334 -334z" />
    <glyph glyph-name="arrowright" unicode="&#x2192;" horiz-adv-x="727" 
d="M717 324l-334 -334l-16 16l308 307h-635v22h635l-308 307l16 16z" />
    <glyph glyph-name="arrowdown" unicode="&#x2193;" horiz-adv-x="748" 
d="M708 327l-334 -334l-334 334l16 16l307 -308v635h22v-635l307 308z" />
    <glyph glyph-name="uni2196" unicode="&#x2196;" horiz-adv-x="745" 
d="M690 -6l-638 638v-455h-22v493h492l1 -22h-456l638 -638z" />
    <glyph glyph-name="uni2197" unicode="&#x2197;" horiz-adv-x="745" 
d="M715 670v-493h-22v455l-638 -638l-15 16l638 638h-456l1 22h492z" />
    <glyph glyph-name="uni2198" unicode="&#x2198;" horiz-adv-x="745" 
d="M715 493v-493h-492l-1 22h456l-638 638l15 16l638 -638v455h22z" />
    <glyph glyph-name="uni2199" unicode="&#x2199;" horiz-adv-x="745" 
d="M67 22h456l-1 -22h-492v493h22v-455l638 638l15 -16z" />
    <glyph glyph-name="minus" unicode="&#x2212;" horiz-adv-x="580" 
d="M500 295h-420v20h420v-20z" />
    <glyph glyph-name="approxequal" unicode="&#x2248;" horiz-adv-x="580" 
d="M500 409v-26q-42 -24 -95 -24q-49 0 -111 32.5t-107 32.5q-28 0 -58.5 -10t-48.5 -28v24q39 34 107 34q46 0 110 -32.5t108 -32.5q57 0 95 30zM500 239v-26q-42 -24 -95 -24q-49 0 -111 32.5t-107 32.5q-28 0 -58.5 -10t-48.5 -28v24q39 34 107 34q46 0 110 -32.5
t108 -32.5q57 0 95 30z" />
    <glyph glyph-name="notequal" unicode="&#x2260;" horiz-adv-x="580" 
d="M357 395l-107 -160h250v-20h-263l-74 -110h-26l74 110h-131v20h144l107 160h-251v20h264l74 110h26l-74 -110h130v-20h-143z" />
    <glyph glyph-name="lessequal" unicode="&#x2264;" horiz-adv-x="414" 
d="M374 172l-344 147v12l344 147v-23l-307 -130l307 -130v-23zM374 115v-20h-340v20h340z" />
    <glyph glyph-name="greaterequal" unicode="&#x2265;" horiz-adv-x="414" 
d="M347 325l-307 130v23l344 -147v-12l-344 -147v23zM380 95h-340v20h340v-20z" />
    <glyph glyph-name="K.ss03" horiz-adv-x="668" 
d="M618 0h-32l-429 325h-30v-325h-22v670h22v-325h32l405 325h30l-415 -336z" />
    <glyph glyph-name="Kcommaaccent.ss03" horiz-adv-x="668" 
d="M618 0h-32l-429 325h-30v-325h-22v670h22v-325h32l405 325h30l-415 -336zM309 -45h23l-46 -135h-20z" />
    <glyph glyph-name="Q.ss04" horiz-adv-x="819" 
d="M742 -157l-162 192q-76 -45 -170 -45q-143 0 -241.5 100t-98.5 245t98.5 245t241.5 100q142 0 240.5 -100t98.5 -245q0 -90 -40.5 -165.5t-109.5 -122.5l160 -190zM92 335q0 -137 92 -231t226 -94q133 0 225 94t92 231q0 136 -92 230.5t-225 94.5q-134 0 -226 -94.5
t-92 -230.5z" />
    <glyph glyph-name="I.ss05" horiz-adv-x="232" 
d="M127 0h-22v670h22v-670z" />
    <glyph glyph-name="IJ.ss05" horiz-adv-x="826" 
d="M105 670h22v-670h-22v670zM731 670v-420q0 -116 -65 -188t-170 -72q-95 0 -158 58.5t-74 153.5l21 7q11 -91 68 -144.5t143 -53.5q96 0 154.5 66t58.5 173v420h22z" />
    <glyph glyph-name="Iacute.ss05" horiz-adv-x="232" 
d="M133 751h-21l93 136h23zM127 0h-22v670h22v-670z" />
    <glyph glyph-name="Icircumflex.ss05" horiz-adv-x="232" 
d="M246 744h-25l-105 117l-105 -117h-25l120 135h20zM105 670h22v-670h-22v670z" />
    <glyph glyph-name="Idieresis.ss05" horiz-adv-x="232" 
d="M26 824q10 0 17.5 -7t7.5 -17t-7 -17t-18 -7t-18 7t-7 17t7.5 17t17.5 7zM206 824q10 0 17.5 -7t7.5 -17t-7 -17t-18 -7t-18 7t-7 17t7.5 17t17.5 7zM127 0h-22v670h22v-670z" />
    <glyph glyph-name="Idotaccent.ss05" horiz-adv-x="232" 
d="M116 829q10 0 17.5 -7t7.5 -17t-7 -17t-18 -7t-18 7t-7 17t7.5 17t17.5 7zM127 0h-22v670h22v-670z" />
    <glyph glyph-name="Igrave.ss05" horiz-adv-x="232" 
d="M32 887l93 -136h-21l-95 136h23zM127 0h-22v670h22v-670z" />
    <glyph glyph-name="Imacron.ss05" horiz-adv-x="232" 
d="M241 779h-250v17h250v-17zM127 0h-22v670h22v-670z" />
    <glyph glyph-name="Iogonek.ss05" horiz-adv-x="232" 
d="M153 -160l6 -19q-34 -11 -50 -11q-30 0 -53 17.5t-23 58.5q0 29 15.5 53t56.5 63v668h22v-670q-42 -40 -58 -63.5t-16 -50.5q0 -56 55 -56q13 0 45 10z" />
    <glyph glyph-name="J.ss05" horiz-adv-x="594" 
d="M499 670v-420q0 -116 -65 -188t-170 -72q-95 0 -158 58.5t-74 153.5l21 7q11 -91 68 -144.5t143 -53.5q96 0 154.5 66t58.5 173v420h22z" />
    <glyph glyph-name="i.loclTRK" horiz-adv-x="261" 
d="M131 645q10 0 17.5 -7t7.5 -17t-7 -17t-18 -7t-18 7t-7 17t7.5 17t17.5 7zM141 0h-21v486h21v-486z" />
    <glyph glyph-name="germandbls.case" horiz-adv-x="1204" 
d="M305 680q97 0 159 -48.5t78 -126.5l-21 -7q-15 75 -72.5 118.5t-144.5 43.5q-85 0 -140 -43t-55 -116q0 -59 36 -88.5t100 -44.5l148 -37q34 -8 58 -17t50 -26t39.5 -45.5t13.5 -67.5q0 -85 -63 -135t-168 -50q-109 0 -181.5 54.5t-83.5 144.5l24 6q8 -84 75 -134.5
t167 -50.5q95 0 151 44.5t56 119.5q0 62 -33.5 91t-106.5 46l-160 39q-146 35 -146 151q0 81 61.5 130t158.5 49zM897 680q97 0 159 -48.5t78 -126.5l-21 -7q-15 75 -72.5 118.5t-144.5 43.5q-85 0 -140 -43t-55 -116q0 -59 36 -88.5t100 -44.5l148 -37q34 -8 58 -17t50 -26
t39.5 -45.5t13.5 -67.5q0 -85 -63 -135t-168 -50q-109 0 -181.5 54.5t-83.5 144.5l24 6q8 -84 75 -134.5t167 -50.5q95 0 151 44.5t56 119.5q0 62 -33.5 91t-106.5 46l-160 39q-146 35 -146 151q0 81 61.5 130t158.5 49z" />
    <glyph glyph-name="a.ss01" horiz-adv-x="645" 
d="M540 486v-486h-21v138q-28 -69 -89.5 -108.5t-136.5 -39.5q-105 0 -176.5 70t-71.5 183t71.5 183t176.5 70q75 0 136.5 -39.5t89.5 -108.5v138h21zM293 10q91 0 158.5 65t67.5 168t-67.5 168t-158.5 65q-95 0 -161 -64.5t-66 -168.5t66 -168.5t161 -64.5z" />
    <glyph glyph-name="aacute.ss01" horiz-adv-x="645" 
d="M325 567h-21l93 136h23zM540 486v-486h-21v138q-28 -69 -89.5 -108.5t-136.5 -39.5q-105 0 -176.5 70t-71.5 183t71.5 183t176.5 70q75 0 136.5 -39.5t89.5 -108.5v138h21zM293 10q91 0 158.5 65t67.5 168t-67.5 168t-158.5 65q-95 0 -161 -64.5t-66 -168.5t66 -168.5
t161 -64.5z" />
    <glyph glyph-name="abreve.ss01" horiz-adv-x="645" 
d="M308 561q-53 0 -88 33t-35 86h19q0 -45 30 -73t74 -28t74 28t30 73h19q0 -53 -35 -86t-88 -33zM540 486v-486h-21v138q-28 -69 -89.5 -108.5t-136.5 -39.5q-105 0 -176.5 70t-71.5 183t71.5 183t176.5 70q75 0 136.5 -39.5t89.5 -108.5v138h21zM293 10q91 0 158.5 65
t67.5 168t-67.5 168t-158.5 65q-95 0 -161 -64.5t-66 -168.5t66 -168.5t161 -64.5z" />
    <glyph glyph-name="acircumflex.ss01" horiz-adv-x="645" 
d="M203 560h-25l120 135h20l120 -135h-25l-105 117zM540 486v-486h-21v138q-28 -69 -89.5 -108.5t-136.5 -39.5q-105 0 -176.5 70t-71.5 183t71.5 183t176.5 70q75 0 136.5 -39.5t89.5 -108.5v138h21zM293 10q91 0 158.5 65t67.5 168t-67.5 168t-158.5 65q-95 0 -161 -64.5
t-66 -168.5t66 -168.5t161 -64.5z" />
    <glyph glyph-name="adieresis.ss01" horiz-adv-x="645" 
d="M218 592q-11 0 -18 7t-7 17t7.5 17t17.5 7t17.5 -7t7.5 -17t-7 -17t-18 -7zM398 592q-11 0 -18 7t-7 17t7.5 17t17.5 7t17.5 -7t7.5 -17t-7 -17t-18 -7zM540 486v-486h-21v138q-28 -69 -89.5 -108.5t-136.5 -39.5q-105 0 -176.5 70t-71.5 183t71.5 183t176.5 70
q75 0 136.5 -39.5t89.5 -108.5v138h21zM293 10q91 0 158.5 65t67.5 168t-67.5 168t-158.5 65q-95 0 -161 -64.5t-66 -168.5t66 -168.5t161 -64.5z" />
    <glyph glyph-name="agrave.ss01" horiz-adv-x="645" 
d="M296 567l-95 136h23l93 -136h-21zM540 486v-486h-21v138q-28 -69 -89.5 -108.5t-136.5 -39.5q-105 0 -176.5 70t-71.5 183t71.5 183t176.5 70q75 0 136.5 -39.5t89.5 -108.5v138h21zM293 10q91 0 158.5 65t67.5 168t-67.5 168t-158.5 65q-95 0 -161 -64.5t-66 -168.5
t66 -168.5t161 -64.5z" />
    <glyph glyph-name="amacron.ss01" horiz-adv-x="645" 
d="M433 595h-250v17h250v-17zM540 486v-486h-21v138q-28 -69 -89.5 -108.5t-136.5 -39.5q-105 0 -176.5 70t-71.5 183t71.5 183t176.5 70q75 0 136.5 -39.5t89.5 -108.5v138h21zM293 10q91 0 158.5 65t67.5 168t-67.5 168t-158.5 65q-95 0 -161 -64.5t-66 -168.5t66 -168.5
t161 -64.5z" />
    <glyph glyph-name="aogonek.ss01" horiz-adv-x="645" 
d="M566 -160l6 -19q-34 -11 -50 -11q-30 0 -53 17.5t-23 58.5q0 29 15.5 53t57.5 64v135q-28 -69 -89.5 -108.5t-136.5 -39.5q-105 0 -176.5 70t-71.5 183t71.5 183t176.5 70q75 0 136.5 -39.5t89.5 -108.5v138h21v-486q-42 -40 -58 -63.5t-16 -50.5q0 -56 55 -56
q13 0 45 10zM293 10q91 0 158.5 65t67.5 168t-67.5 168t-158.5 65q-95 0 -161 -64.5t-66 -168.5t66 -168.5t161 -64.5z" />
    <glyph glyph-name="aring.ss01" horiz-adv-x="645" 
d="M308 555q-37 0 -62.5 25.5t-25.5 60.5t25.5 60.5t62.5 25.5t62.5 -25.5t25.5 -60.5t-25.5 -60.5t-62.5 -25.5zM308 709q-29 0 -49.5 -20t-20.5 -48t20.5 -48t49.5 -20t49.5 20t20.5 48t-20.5 48t-49.5 20zM540 486v-486h-21v138q-28 -69 -89.5 -108.5t-136.5 -39.5
q-105 0 -176.5 70t-71.5 183t71.5 183t176.5 70q75 0 136.5 -39.5t89.5 -108.5v138h21zM293 10q91 0 158.5 65t67.5 168t-67.5 168t-158.5 65q-95 0 -161 -64.5t-66 -168.5t66 -168.5t161 -64.5z" />
    <glyph glyph-name="atilde.ss01" horiz-adv-x="645" 
d="M245 653q-22 0 -34.5 -14.5t-12.5 -39.5h-21q0 34 18.5 53.5t48.5 19.5q28 0 64 -28.5t59 -28.5q21 0 33 15t12 41h21q0 -34 -18 -54.5t-48 -20.5q-27 0 -63.5 28.5t-58.5 28.5zM540 486v-486h-21v138q-28 -69 -89.5 -108.5t-136.5 -39.5q-105 0 -176.5 70t-71.5 183
t71.5 183t176.5 70q75 0 136.5 -39.5t89.5 -108.5v138h21zM293 10q91 0 158.5 65t67.5 168t-67.5 168t-158.5 65q-95 0 -161 -64.5t-66 -168.5t66 -168.5t161 -64.5z" />
    <glyph glyph-name="l.ss02" horiz-adv-x="231" 
d="M126 0h-21v770h21v-770z" />
    <glyph glyph-name="lacute.ss02" horiz-adv-x="231" 
d="M133 851h-21l93 136h23zM126 0h-21v770h21v-770z" />
    <glyph glyph-name="lcaron.ss02" horiz-adv-x="231" 
d="M126 0h-21v770h21v-770zM237 624h-18v146h22z" />
    <glyph glyph-name="lcommaaccent.ss02" horiz-adv-x="231" 
d="M126 0h-21v770h21v-770zM60 -180l43 135h23l-46 -135h-20z" />
    <glyph glyph-name="ldot.ss02" horiz-adv-x="264" 
d="M126 0h-21v770h21v-770zM228 349q10 0 17.5 -7t7.5 -17t-7 -17t-18 -7t-18 7t-7 17t7.5 17t17.5 7z" />
    <glyph glyph-name="lslash.ss02" horiz-adv-x="280" 
d="M250 420l-99 -67v-353h-21v338l-100 -68v23l100 68v409h21v-394l99 67v-23z" />
    <glyph glyph-name="k.ss03" horiz-adv-x="551" 
d="M541 0h-37l-348 240h-30v-240h-21v770h21v-510h39l305 226h33l-321 -238z" />
    <glyph glyph-name="kcommaaccent.ss03" horiz-adv-x="551" 
d="M541 0h-37l-348 240h-30v-240h-21v770h21v-510h39l305 226h33l-321 -238zM247 -45h23l-46 -135h-20z" />
    <glyph glyph-name="f_j" horiz-adv-x="616" 
d="M500 486v-633q0 -46 -28 -74.5t-74 -28.5q-34 0 -60 16l9 17q22 -13 49 -13q38 0 60.5 23t22.5 60v613h-343v-466h-21v466h-95v20h95v141q0 70 37.5 111.5t103.5 41.5q54 0 94 -30l-11 -16q-37 26 -82 26q-57 0 -89 -36.5t-32 -96.5v-141h364zM490 659q10 0 17.5 -7
t7.5 -17t-7 -17t-18 -7t-18 7t-7 17t7.5 17t17.5 7z" />
    <glyph glyph-name="f_t" horiz-adv-x="706" 
d="M676 46l12 -16q-43 -40 -99 -40q-58 0 -93.5 36.5t-35.5 96.5v343h-324v-466h-21v466h-95v20h95v141q0 70 37.5 111.5t103.5 41.5q54 0 94 -30l-11 -16q-37 26 -82 26q-57 0 -89 -36.5t-32 -96.5v-141h324v184h21v-184h190v-20h-190v-343q0 -51 30 -82t79 -31q47 0 86 36
z" />
    <glyph glyph-name="fl.ss02" horiz-adv-x="574" 
d="M136 486h207v-20h-207v-466h-21v466h-95v20h95v141q0 70 37.5 111.5t103.5 41.5q38 0 72 -16l-9 -18q-28 14 -62 14q-57 0 -89 -36.5t-32 -96.5v-141zM469 770v-770h-21v770h21z" />
    <glyph glyph-name="zero.tf" 
d="M305 680q120 0 193.5 -95t73.5 -250t-73.5 -250t-193.5 -95t-193.5 95t-73.5 250t73.5 250t193.5 95zM305 11q110 0 177.5 89t67.5 235t-67.5 235.5t-177.5 89.5t-177.5 -89.5t-67.5 -235.5t67.5 -235t177.5 -89z" />
    <glyph glyph-name="one.tf" 
d="M550 20v-20h-464v20h230v621l-210 -115v23l219 121h13v-650h212z" />
    <glyph glyph-name="two.tf" 
d="M546 20v-20h-446v13l252 223q93 81 127.5 129.5t34.5 114.5q0 81 -53 130.5t-139 49.5q-88 0 -141.5 -54t-54.5 -143l-22 3q2 96 62 155t156 59t154.5 -55t58.5 -145q0 -39 -9.5 -70.5t-35 -64t-50 -57.5t-73.5 -68l-227 -200h406z" />
    <glyph glyph-name="three.tf" 
d="M95 213l22 4q3 -94 62 -150.5t156 -56.5q89 0 144 47.5t55 125.5q0 73 -53 113.5t-144 40.5h-58v19h57q82 0 132 39t50 105q0 72 -52 116t-138 44q-89 0 -143 -51.5t-59 -138.5l-22 4q5 93 65.5 149.5t159.5 56.5q95 0 152.5 -49.5t57.5 -130.5q0 -58 -35 -98t-97 -54v-1
q70 -13 109 -55t39 -108q0 -87 -60.5 -140.5t-159.5 -53.5q-106 0 -170.5 61t-69.5 162z" />
    <glyph glyph-name="four.tf" 
d="M578 187h-126v-187h-22v187h-390v26l392 457h20v-463h126v-20zM430 207v427l-367 -427h367z" />
    <glyph glyph-name="five.tf" 
d="M137 376h177q100 0 156 -46t56 -139q0 -91 -61.5 -146t-162.5 -55q-105 0 -169 62t-66 164l22 4q0 -95 58.5 -152.5t154.5 -57.5q92 0 147.5 49.5t55.5 131.5q0 84 -50.5 124.5t-141.5 40.5h-198l19 314h371v-20h-350z" />
    <glyph glyph-name="six.tf" 
d="M530 545l-22 -4q-16 57 -63 88t-113 31q-93 0 -152 -64q-85 -93 -85 -288q0 -41 1 -57h3q10 78 74.5 129.5t153.5 51.5q101 0 162.5 -62.5t61.5 -157.5q0 -96 -61 -159t-163 -63q-124 0 -188.5 83.5t-64.5 235.5q0 208 92 303q66 68 167 68q73 0 126 -35.5t71 -99.5z
M327 11q92 0 147.5 58t55.5 143t-55.5 142t-147.5 57q-97 0 -155 -60.5t-58 -141.5q0 -86 61 -142t152 -56z" />
    <glyph glyph-name="seven.tf" 
d="M545 670v-12l-358 -658h-26l356 650h-463v20h491z" />
    <glyph glyph-name="eight.tf" 
d="M372 347q96 -12 139.5 -62t43.5 -113q0 -82 -65.5 -132t-172.5 -50q-109 0 -175 50t-66 132q0 64 43.5 113t137.5 62q-86 13 -125 58.5t-39 104.5q0 77 61 123.5t163 46.5q100 0 160.5 -46.5t60.5 -123.5q0 -59 -39 -105t-127 -58zM114 510q-1 -66 53.5 -108.5
t148.5 -42.5q95 0 148 43t53 108q0 67 -55 108.5t-145 41.5q-92 0 -147.5 -41.5t-55.5 -108.5zM316 12q97 0 156 44t59 116q0 69 -56.5 115t-157.5 46q-99 0 -158 -46t-59 -115q0 -72 59.5 -116t156.5 -44z" />
    <glyph glyph-name="nine.tf" 
d="M80 124l22 4q16 -57 63 -88t113 -31q93 0 152 64q85 93 85 288q0 41 -1 57h-3q-10 -78 -74.5 -129.5t-153.5 -51.5q-101 0 -162.5 62.5t-61.5 157.5q0 96 61 159t163 63q124 0 188.5 -83.5t64.5 -235.5q0 -208 -92 -303q-66 -68 -167 -68q-73 0 -126 35.5t-71 99.5z
M283 658q-92 0 -147.5 -58t-55.5 -143t55.5 -142t147.5 -57q97 0 155 60.5t58 141.5q0 86 -61 142t-152 56z" />
    <glyph glyph-name="zero.zero.tf" 
d="M305 680q120 0 193.5 -95t73.5 -250t-73.5 -250t-193.5 -95q-136 0 -210 118q-57 93 -57 227q0 155 73.5 250t193.5 95zM60 335q0 -124 50 -208l361 457q-65 76 -166 76q-110 0 -177.5 -89.5t-67.5 -235.5zM305 11q110 0 177.5 89t67.5 235q0 143 -66 233l-363 -460
q68 -97 184 -97z" />
    <glyph glyph-name="zero.zero" horiz-adv-x="650" 
d="M332 680q120 0 193.5 -95t73.5 -250t-73.5 -250t-193.5 -95q-135 0 -208 116l-9 2l4 5q-54 89 -54 222q0 155 73.5 250t193.5 95zM87 335q0 -120 47 -203l360 456h1q-66 72 -163 72q-110 0 -177.5 -89.5t-67.5 -235.5zM332 11q110 0 177.5 89t67.5 235q0 147 -68 237
l-363 -459q67 -102 186 -102z" />
    <glyph glyph-name="zero.dnom" horiz-adv-x="377" 
d="M189 359q67 0 107.5 -50.5t40.5 -133.5t-40.5 -134t-107.5 -51t-108 51t-41 134q0 82 41 133t108 51zM189 9q58 0 93 45.5t35 120.5q0 74 -35 120t-93 46t-93 -46t-35 -120q0 -75 35 -120.5t93 -45.5z" />
    <glyph glyph-name="one.dnom" horiz-adv-x="211" 
d="M141 0h-21v332l-94 -55v21l102 61h13v-359z" />
    <glyph glyph-name="two.dnom" horiz-adv-x="309" 
d="M279 18v-18h-249v13l138 118q48 41 66 66t18 58q0 40 -27.5 65t-71.5 25q-46 0 -73 -27.5t-27 -72.5l-20 3q0 49 33 82t87 33q53 0 86.5 -29.5t33.5 -78.5q0 -38 -21 -67t-68 -69l-119 -101h214z" />
    <glyph glyph-name="three.dnom" horiz-adv-x="327" 
d="M226 182q71 -20 71 -87q0 -46 -34.5 -75.5t-90.5 -29.5q-57 0 -95.5 33t-39.5 90l18 2q1 -50 35 -78.5t82 -28.5q47 0 76 24.5t29 62.5q0 36 -28.5 57t-76.5 21h-33v16h33q44 0 70 19.5t26 52.5q0 35 -28 58t-72 23q-45 0 -76 -26.5t-32 -72.5l-18 3q1 51 36.5 82
t89.5 31q52 0 86 -27.5t34 -70.5q0 -29 -17 -50t-45 -29z" />
    <glyph glyph-name="four.dnom" horiz-adv-x="349" 
d="M329 96h-67v-96h-20v96h-212v21l211 241h21v-244h67v-18zM242 114v216l-191 -216h191z" />
    <glyph glyph-name="five.dnom" horiz-adv-x="332" 
d="M79 210h98q56 0 90.5 -29t34.5 -77q0 -51 -36.5 -82.5t-96.5 -31.5q-51 0 -89 29t-44 75l20 2q6 -40 38.5 -64t74.5 -24q51 0 82.5 26.5t31.5 69.5q0 40 -29 64t-77 24h-118l6 162h220v-19h-202z" />
    <glyph glyph-name="six.dnom" horiz-adv-x="361" 
d="M193 227q55 0 89 -33.5t34 -84.5q0 -52 -34 -85.5t-91 -33.5q-69 0 -105 45t-36 126q0 110 51 161q37 37 93 37q43 0 73 -20t38 -56l-20 -3q-17 61 -92 61q-49 0 -79 -32q-46 -49 -44 -148q0 -17 1 -25q6 39 41 65t81 26zM191 8q48 0 77 29.5t29 72.5q0 42 -29 71t-77 29
q-51 0 -81 -30.5t-30 -71.5q0 -43 32 -71.5t79 -28.5z" />
    <glyph glyph-name="seven.dnom" horiz-adv-x="262" 
d="M252 358v-14l-178 -344h-24l177 339h-220v19h245z" />
    <glyph glyph-name="eight.dnom" horiz-adv-x="337" 
d="M210 184q46 -8 71.5 -34.5t25.5 -60.5q0 -44 -38 -71.5t-99 -27.5q-63 0 -101.5 27.5t-38.5 71.5q0 36 26 62t75 33q-40 9 -64 31t-24 53q0 40 36 65.5t91 25.5q53 0 88.5 -25.5t35.5 -65.5q0 -31 -23.5 -53t-60.5 -31zM62 267q0 -31 30.5 -51t77.5 -20q46 0 74 19.5
t30 51.5q1 34 -28.5 55t-75.5 21q-47 0 -77.5 -21t-30.5 -55zM169 9q52 0 84 22t32 59q0 34 -30.5 57.5t-84.5 23.5q-55 0 -87 -23t-32 -58q0 -37 32.5 -59t85.5 -22z" />
    <glyph glyph-name="nine.dnom" horiz-adv-x="361" 
d="M170 359q69 0 105 -45t36 -126q0 -110 -51 -161q-37 -37 -93 -37q-43 0 -73 20t-38 56l20 3q17 -61 92 -61q49 0 79 32q46 49 44 148q0 17 -1 25q-6 -39 -41 -65t-81 -26q-55 0 -89 33.5t-34 84.5q0 52 34 85.5t91 33.5zM170 139q51 0 81 30.5t30 71.5q0 43 -32 71.5
t-79 28.5q-48 0 -77 -29.5t-29 -72.5q0 -42 29 -71t77 -29z" />
    <glyph glyph-name="zero.numr" horiz-adv-x="377" 
d="M189 680q67 0 107.5 -50.5t40.5 -133.5t-40.5 -134t-107.5 -51t-108 51t-41 134q0 82 41 133t108 51zM189 330q58 0 93 45.5t35 120.5q0 74 -35 120t-93 46t-93 -46t-35 -120q0 -75 35 -120.5t93 -45.5z" />
    <glyph glyph-name="one.numr" horiz-adv-x="211" 
d="M141 311h-21v332l-94 -55v21l102 61h13v-359z" />
    <glyph glyph-name="two.numr" horiz-adv-x="309" 
d="M279 335v-18h-249v13l138 118q48 41 66 66t18 58q0 40 -27.5 65t-71.5 25q-46 0 -73 -27.5t-27 -72.5l-20 3q0 49 33 82t87 33q53 0 86.5 -29.5t33.5 -78.5q0 -38 -21 -67t-68 -69l-119 -101h214z" />
    <glyph glyph-name="three.numr" horiz-adv-x="327" 
d="M226 503q71 -20 71 -87q0 -46 -34.5 -75.5t-90.5 -29.5q-57 0 -95.5 33t-39.5 90l18 2q1 -50 35 -78.5t82 -28.5q47 0 76 24.5t29 62.5q0 36 -28.5 57t-76.5 21h-33v16h33q44 0 70 19.5t26 52.5q0 35 -28 58t-72 23q-45 0 -76 -26.5t-32 -72.5l-18 3q1 51 36.5 82
t89.5 31q52 0 86 -27.5t34 -70.5q0 -29 -17 -50t-45 -29z" />
    <glyph glyph-name="four.numr" horiz-adv-x="349" 
d="M329 408h-67v-96h-20v96h-212v21l211 241h21v-244h67v-18zM242 426v216l-191 -216h191z" />
    <glyph glyph-name="five.numr" horiz-adv-x="332" 
d="M79 526h98q56 0 90.5 -29t34.5 -77q0 -51 -36.5 -82.5t-96.5 -31.5q-51 0 -89 29t-44 75l20 2q6 -40 38.5 -64t74.5 -24q51 0 82.5 26.5t31.5 69.5q0 40 -29 64t-77 24h-118l6 162h220v-19h-202z" />
    <glyph glyph-name="six.numr" horiz-adv-x="361" 
d="M193 548q55 0 89 -33.5t34 -84.5q0 -52 -34 -85.5t-91 -33.5q-69 0 -105 45t-36 126q0 110 51 161q37 37 93 37q43 0 73 -20t38 -56l-20 -3q-17 61 -92 61q-49 0 -79 -32q-46 -49 -44 -148q0 -17 1 -25q6 39 41 65t81 26zM191 329q48 0 77 29.5t29 72.5q0 42 -29 71
t-77 29q-51 0 -81 -30.5t-30 -71.5q0 -43 32 -71.5t79 -28.5z" />
    <glyph glyph-name="seven.numr" horiz-adv-x="262" 
d="M252 670v-14l-178 -344h-24l177 339h-220v19h245z" />
    <glyph glyph-name="eight.numr" horiz-adv-x="337" 
d="M210 505q46 -8 71.5 -34.5t25.5 -60.5q0 -44 -38 -71.5t-99 -27.5q-63 0 -101.5 27.5t-38.5 71.5q0 36 26 62t75 33q-40 9 -64 31t-24 53q0 40 36 65.5t91 25.5q53 0 88.5 -25.5t35.5 -65.5q0 -31 -23.5 -53t-60.5 -31zM62 588q0 -31 30.5 -51t77.5 -20q46 0 74 19.5
t30 51.5q1 34 -28.5 55t-75.5 21q-47 0 -77.5 -21t-30.5 -55zM169 330q52 0 84 22t32 59q0 34 -30.5 57.5t-84.5 23.5q-55 0 -87 -23t-32 -58q0 -37 32.5 -59t85.5 -22z" />
    <glyph glyph-name="nine.numr" horiz-adv-x="361" 
d="M170 680q69 0 105 -45t36 -126q0 -110 -51 -161q-37 -37 -93 -37q-43 0 -73 20t-38 56l20 3q17 -61 92 -61q49 0 79 32q46 49 44 148q0 17 -1 25q-6 -39 -41 -65t-81 -26q-55 0 -89 33.5t-34 84.5q0 52 34 85.5t91 33.5zM170 460q51 0 81 30.5t30 71.5q0 43 -32 71.5
t-79 28.5q-48 0 -77 -29.5t-29 -72.5q0 -42 29 -71t77 -29z" />
    <glyph glyph-name="backslash.case" horiz-adv-x="318" 
d="M287 0h-20l-236 670h20z" />
    <glyph glyph-name="periodcentered.case" horiz-adv-x="170" 
d="M85 357q10 0 17.5 -7t7.5 -17t-7 -17t-18 -7t-18 7t-7 17t7.5 17t17.5 7z" />
    <glyph glyph-name="bullet.case" horiz-adv-x="373" 
d="M186 455q53 0 90 -36t37 -86q0 -53 -36.5 -87t-90.5 -34t-90 34t-36 87q0 50 36.5 86t89.5 36z" />
    <glyph glyph-name="colon.case" horiz-adv-x="170" 
d="M85 528q10 0 17.5 -7t7.5 -17t-7 -17t-18 -7t-18 7t-7 17t7.5 17t17.5 7zM85 166q10 0 17.5 -7t7.5 -17t-7 -17t-18 -7t-18 7t-7 17t7.5 17t17.5 7z" />
    <glyph glyph-name="exclamdown.case" horiz-adv-x="250" 
d="M125 624q-10 0 -17.5 7t-7.5 17t7 17t18 7t18 -7t7 -17t-7.5 -17t-17.5 -7zM115 491h21v-491h-21v491z" />
    <glyph glyph-name="questiondown.case" horiz-adv-x="510" 
d="M263 626q-10 0 -17.5 7t-7.5 17t7 17t18 7t18 -7t7 -17t-7.5 -17t-17.5 -7zM448 212l22 -3q0 -97 -60 -157t-157 -60q-96 0 -154.5 55t-58.5 145q0 86 61 142t151 60v99h22v-119h-11q-84 0 -143 -51t-59 -131q0 -81 53 -130.5t139 -49.5q88 0 141.5 55.5t53.5 144.5z" />
    <glyph glyph-name="semicolon.case" horiz-adv-x="192" 
d="M107 528q10 0 17.5 -7t7.5 -17t-7 -17t-18 -7t-18 7t-7 17t7.5 17t17.5 7zM40 -132h-20l72 258h28v-2z" />
    <glyph glyph-name="slash.case" horiz-adv-x="338" 
d="M48 0h-24l265 670h24z" />
    <glyph glyph-name="braceleft.case" horiz-adv-x="435" 
d="M205 546v-103q0 -84 -68 -113q68 -29 68 -114v-92q0 -47 27.5 -75.5t71.5 -28.5h61v-20h-61q-55 0 -88 34t-33 90v92q0 46 -27.5 75t-71.5 29h-14v20h14q44 0 71.5 28.5t27.5 74.5v103q0 56 33 90t88 34h61v-20h-61q-44 0 -71.5 -28.5t-27.5 -75.5z" />
    <glyph glyph-name="braceright.case" horiz-adv-x="435" 
d="M365 340v-20h-14q-44 0 -71.5 -29t-27.5 -75v-92q0 -56 -33 -90t-88 -34h-61v20h61q44 0 71.5 28.5t27.5 75.5v92q0 85 68 114q-68 29 -68 113v103q0 47 -27.5 75.5t-71.5 28.5h-61v20h61q55 0 88 -34t33 -90v-103q0 -46 27.5 -74.5t71.5 -28.5h14z" />
    <glyph glyph-name="bracketleft.case" horiz-adv-x="377" 
d="M127 650v-630h180v-20h-202v670h202v-20h-180z" />
    <glyph glyph-name="bracketright.case" horiz-adv-x="377" 
d="M272 670v-670h-202v20h180v630h-180v20h202z" />
    <glyph glyph-name="parenleft.case" horiz-adv-x="316" 
d="M92 335q0 -195 154 -332l-11 -12q-165 141 -165 344t165 344l11 -12q-154 -137 -154 -332z" />
    <glyph glyph-name="parenright.case" horiz-adv-x="316" 
d="M70 667l11 12q165 -141 165 -344t-165 -344l-11 12q154 137 154 332t-154 332z" />
    <glyph glyph-name="emdash.case" horiz-adv-x="1040" 
d="M980 325h-920v20h920v-20z" />
    <glyph glyph-name="endash.case" horiz-adv-x="620" 
d="M560 325h-500v20h500v-20z" />
    <glyph glyph-name="hyphen.case" horiz-adv-x="438" 
d="M378 325h-318v20h318v-20z" />
    <glyph glyph-name="guillemotleft.case" horiz-adv-x="357" 
d="M25 322l132 178h25l-132 -178l132 -178h-25zM175 322l132 178h25l-132 -178l132 -178h-25z" />
    <glyph glyph-name="guillemotright.case" horiz-adv-x="357" 
d="M25 144l132 178l-132 178h25l132 -178l-132 -178h-25zM175 144l132 178l-132 178h25l132 -178l-132 -178h-25z" />
    <glyph glyph-name="guilsinglleft.case" horiz-adv-x="207" 
d="M25 322l132 178h25l-132 -178l132 -178h-25z" />
    <glyph glyph-name="guilsinglright.case" horiz-adv-x="207" 
d="M25 144l132 178l-132 178h25l132 -178l-132 -178h-25z" />
    <glyph glyph-name="cent.tf" 
d="M309 476v-466q65 2 117.5 36t73.5 88l19 -7q-22 -60 -79.5 -97.5t-130.5 -39.5v-120h-21v120q-98 5 -165.5 74.5t-67.5 178.5q0 107 68 177.5t165 75.5v134h21v-134q74 -2 131.5 -41t79.5 -103l-19 -8q-21 59 -73.5 94.5t-118.5 37.5zM76 243q0 -101 61.5 -164.5
t150.5 -68.5v466q-88 -5 -150 -70t-62 -163z" />
    <glyph glyph-name="dollar.tf" 
d="M311 348l67 -16q31 -7 52.5 -15t45.5 -24t36.5 -42.5t12.5 -62.5q0 -78 -58.5 -124t-154.5 -46h-1v-118h-21v119q-92 5 -153 54.5t-69 126.5l22 6q8 -71 62.5 -115.5t137.5 -50.5v292l-64 15q-135 31 -135 139q0 75 55.5 119.5t143.5 46.5v118h21v-118q83 -4 136.5 -49
t62.5 -111l-20 -6q-10 62 -58 101t-121 43v-282zM290 354v277q-79 -1 -127.5 -39.5t-48.5 -104.5q0 -53 32.5 -79.5t92.5 -41.5zM311 39h2q86 0 137.5 40.5t51.5 107.5q0 55 -33.5 82.5t-93.5 41.5l-64 15v-287z" />
    <glyph glyph-name="Euro.tf" 
d="M333 10q81 0 139 56t81 154l20 -6q-22 -102 -86 -163t-154 -61q-96 0 -161.5 68t-85.5 184h-62v20h60q-5 38 -5 73q0 32 3 62h-58v20h61q17 121 83.5 192t164.5 71q90 0 154 -61t86 -164l-20 -6q-23 98 -81 154.5t-139 56.5q-89 0 -149 -65.5t-77 -177.5h288l-6 -20h-285
q-3 -30 -3 -62q0 -35 5 -73h248l-5 -20h-240q19 -107 78.5 -169.5t145.5 -62.5z" />
    <glyph glyph-name="florin.tf" 
d="M469 660q-60 0 -99.5 -37.5t-51.5 -99.5l-32 -178h222v-20h-226l-69 -384q-9 -48 -41.5 -77t-78.5 -29q-38 0 -63 22l12 17q20 -19 52 -19q38 0 64.5 23.5t33.5 62.5l69 384h-136v20h140l32 178q13 72 59.5 114.5t115.5 42.5q64 0 105 -42l-14 -15q-37 37 -94 37z" />
    <glyph glyph-name="sterling.tf" 
d="M558 20v-20h-518v14l85 5v286h-85v20h85v148q0 93 58.5 150t153.5 57t154 -56.5t59 -146.5l-22 -5q0 85 -52.5 136t-138.5 51q-85 0 -137.5 -51t-52.5 -135v-148h297v-20h-297v-285h411z" />
    <glyph glyph-name="yen.tf" 
d="M328 288h196v-20h-208v-100h208v-20h-208v-148h-22v148h-208v20h208v100h-208v20h196l-257 382h26l254 -382l254 382h26z" />
    <glyph glyph-name="approxequal.tf" 
d="M515 409v-26q-42 -24 -95 -24q-49 0 -111 32.5t-107 32.5q-28 0 -58.5 -10t-48.5 -28v24q39 34 107 34q46 0 110 -32.5t108 -32.5q57 0 95 30zM515 239v-26q-42 -24 -95 -24q-49 0 -111 32.5t-107 32.5q-28 0 -58.5 -10t-48.5 -28v24q39 34 107 34q46 0 110 -32.5
t108 -32.5q57 0 95 30z" />
    <glyph glyph-name="divide.tf" 
d="M305 513q10 0 17.5 -7t7.5 -17t-7 -17t-18 -7t-18 7t-7 17t7.5 17t17.5 7zM515 295h-420v20h420v-20zM305 145q10 0 17.5 -7t7.5 -17t-7 -17t-18 -7t-18 7t-7 17t7.5 17t17.5 7z" />
    <glyph glyph-name="equal.tf" 
d="M515 395h-420v20h420v-20zM515 215h-420v20h420v-20z" />
    <glyph glyph-name="greater.tf" 
d="M462 305l-322 160v23l354 -177v-12l-354 -177v23z" />
    <glyph glyph-name="greaterequal.tf" 
d="M447 325l-307 130v23l344 -147v-12l-344 -147v23zM480 95h-340v20h340v-20z" />
    <glyph glyph-name="less.tf" 
d="M470 122l-354 177v12l354 177v-23l-322 -160l322 -160v-23z" />
    <glyph glyph-name="lessequal.tf" 
d="M470 172l-344 147v12l344 147v-23l-307 -130l307 -130v-23zM470 115v-20h-340v20h340z" />
    <glyph glyph-name="minus.tf" 
d="M515 295h-420v20h420v-20z" />
    <glyph glyph-name="multiply.tf" 
d="M320 305l148 -148l-15 -15l-148 148l-148 -148l-15 15l148 148l-148 148l15 15l148 -148l148 148l15 -15z" />
    <glyph glyph-name="notequal.tf" 
d="M372 395l-107 -160h250v-20h-263l-74 -110h-26l74 110h-131v20h144l107 160h-251v20h264l74 110h26l-74 -110h130v-20h-143z" />
    <glyph glyph-name="plus.tf" 
d="M515 295h-200v-200h-20v200h-200v20h200v200h20v-200h200v-20z" />
    <glyph glyph-name="plusminus.tf" 
d="M515 340v-20h-200v-190h-20v190h-200v20h200v190h20v-190h200zM95 20h420v-20h-420v20z" />
    <glyph glyph-name="bar.case" horiz-adv-x="232" 
d="M127 -41h-22v751h22v-751z" />
    <glyph glyph-name="at.case" horiz-adv-x="975" 
d="M489 720q173 0 289.5 -109.5t116.5 -279.5q0 -93 -36.5 -157t-109.5 -64q-49 0 -78.5 26.5t-29.5 69.5v23q-23 -52 -69 -82t-104 -30q-82 0 -138.5 56.5t-56.5 145.5t56.5 146t138.5 57q58 0 104 -30t69 -82v102h20v-307q0 -35 24 -56.5t63 -21.5q62 0 94 59.5t32 145.5
q0 161 -110 265.5t-275 104.5q-167 0 -277.5 -107t-110.5 -270q0 -162 108.5 -270.5t263.5 -108.5q59 0 125 16t109 44l11 -18q-45 -29 -114 -45.5t-130 -16.5q-165 0 -279.5 113t-114.5 285t116.5 284t292.5 112zM469 135q73 0 122.5 51.5t49.5 133.5q0 81 -49.5 131.5
t-122.5 50.5q-74 0 -125 -50.5t-51 -131.5q0 -82 51 -133.5t125 -51.5z" />
    <glyph glyph-name="caron.alt" horiz-adv-x="600" 
d="M298 504h-18v146h22z" />
    </font>
</defs>
</svg>
