<?xml version="1.0" encoding="UTF-8" standalone="no"?>
<svg width="52px" height="22px" viewBox="0 0 52 22" version="1.1" xmlns="http://www.w3.org/2000/svg" xmlns:xlink="http://www.w3.org/1999/xlink" xmlns:sketch="http://www.bohemiancoding.com/sketch/ns">
    <!-- Generator: Sketch 3.4.4 (17249) - http://www.bohemiancoding.com/sketch -->
    <title>ANNI + Line</title>
    <desc>Created with Sketch.</desc>
    <defs></defs>
    <g id="Page-1" stroke="none" stroke-width="1" fill="none" fill-rule="evenodd" sketch:type="MSPage">
        <g id="Desktop-HD" sketch:type="MSArtboardGroup" transform="translate(-212.000000, -94.000000)">
            <g id="ANNI-+-Line" sketch:type="MSLayerGroup" transform="translate(212.000000, 95.000000)">
                <path d="M12.393,21 L7.633,9.61 L4.76,9.61 L0,21 L3.009,21 L3.808,18.926 L8.602,18.926 L9.401,21 L12.393,21 Z M7.667,16.512 L4.76,16.512 L6.205,12.772 L7.667,16.512 Z M25.759,9.61 L22.971,9.61 L22.971,16.41 L17.208,9.61 L14.879,9.61 L14.879,21 L17.684,21 L17.684,14.404 L23.447,21 L25.759,21 L25.759,9.61 Z M40.128,9.61 L37.34,9.61 L37.34,16.41 L31.577,9.61 L29.248,9.61 L29.248,21 L32.053,21 L32.053,14.404 L37.816,21 L40.128,21 L40.128,9.61 Z M47.918,12.058 L50.077,12.058 L50.077,9.61 L42.971,9.61 L42.971,12.058 L45.13,12.058 L45.13,18.552 L42.971,18.552 L42.971,21 L50.077,21 L50.077,18.552 L47.918,18.552 L47.918,12.058 Z" id="ANNI" fill="#000000" sketch:type="MSShapeGroup"></path>
                <path d="M2,1 L50,1" id="Line" stroke="#000000" stroke-width="3" stroke-linecap="square" sketch:type="MSShapeGroup"></path>
            </g>
        </g>
    </g>
</svg>