<?xml version="1.0" encoding="UTF-8" standalone="no"?>
<svg width="82px" height="37px" viewBox="0 0 82 37" version="1.1" xmlns="http://www.w3.org/2000/svg" xmlns:xlink="http://www.w3.org/1999/xlink">
    <!-- Generator: Sketch 3.6.1 (26313) - http://www.bohemiancoding.com/sketch -->
    <title>Group</title>
    <desc>Created with Sketch.</desc>
    <defs>
        <linearGradient x1="50%" y1="0%" x2="50%" y2="100%" id="linearGradient-1">
            <stop stop-color="#EBC3A2" offset="0%"></stop>
            <stop stop-color="#D29069" offset="100%"></stop>
        </linearGradient>
    </defs>
    <g id="Landing-Page" stroke="none" stroke-width="1" fill="none" fill-rule="evenodd">
        <g id="Desktop-HD" transform="translate(-1154.000000, -59.000000)">
            <g id="Group" transform="translate(1155.000000, 60.000000)">
                <path d="M6.68699187,21.7595443 L9.31300813,21.7595443 C9.69207317,21.7595443 10,21.4316269 10,21.027953 L10,8.73159131 C10,8.32791741 9.69207317,8 9.31300813,8 L6.68699187,8 C6.30792683,8 6,8.32791741 6,8.73159131 L6,21.027953 C6,21.4316269 6.30792683,21.7595443 6.68699187,21.7595443 L6.68699187,21.7595443 Z" id="Stroke-7" stroke="url(#linearGradient-1)" stroke-width="2"></path>
                <path d="M6.43891892,14 L0,14" id="Fill-9" fill="#FFFFFF"></path>
                <path d="M6,15 L5.55111512e-17,15" id="Stroke-11" stroke="#DEA985" stroke-width="2" stroke-linecap="round"></path>
                <path d="M73.3130081,21.7595443 L70.6869919,21.7595443 C70.3079268,21.7595443 70,21.4327091 70,21.027953 L70,8.73159131 C70,8.32791741 70.3079268,8 70.6869919,8 L73.3130081,8 C73.6920732,8 74,8.32791741 74,8.73159131 L74,21.027953 C74,21.4327091 73.6920732,21.7595443 73.3130081,21.7595443 L73.3130081,21.7595443 Z" id="Stroke-15" stroke="url(#linearGradient-1)" stroke-width="2"></path>
                <path d="M74,15 L80,15" id="Stroke-19" stroke="#E2B08E" stroke-width="2" stroke-linecap="round"></path>
                <path d="M39.9995663,35 C23.4893669,35 10,27.054992 10,25.8903211 L10,2.11082297 C10,0.945008009 10.9719795,0 12.1725215,0 L67.8274785,0 C69.0280205,0 70,0.945008009 70,2.11082297 L70,25.8903211 C70,27.054992 56.5097656,35 39.9995663,35 Z" id="Stroke-29" stroke="url(#linearGradient-1)" stroke-width="2"></path>
                <circle id="Oval-1" fill="#E2B08C" cx="20.5" cy="15.5" r="1.5"></circle>
                <circle id="Oval-1-Copy" fill="#E2B08C" cx="59.5" cy="15.5" r="1.5"></circle>
            </g>
        </g>
    </g>
</svg>