<?xml version="1.0" standalone="no"?>
<!DOCTYPE svg PUBLIC "-//W3C//DTD SVG 1.1//EN" "http://www.w3.org/Graphics/SVG/1.1/DTD/svg11.dtd" >
<svg>
<metadata>
Created by FontForge 20120731 at Thu Dec 17 11:05:16 2015
 By ,,,
Copyright (c) 2014 by Rene' Bieder. All rights reserved.
</metadata>
<defs>
<font id="GalanoGrotesqueAlt-SemiBoldItalic" horiz-adv-x="610" >
  <font-face 
    font-family="Galano Grotesque Alt SemiBold"
    font-weight="400"
    font-style="italic"
    font-stretch="normal"
    units-per-em="1000"
    panose-1="0 0 7 0 0 0 0 0 0 0"
    ascent="757"
    descent="-243"
    x-height="499"
    cap-height="670"
    bbox="-257 -251 1244 982"
    underline-thickness="50"
    underline-position="-50"
    slope="-13"
    unicode-range="U+0020-FB02"
  />
<missing-glyph horiz-adv-x="769" 
d="M385 684q144 0 246 -100t102 -251q0 -149 -102 -248.5t-246 -99.5q-145 0 -247 99.5t-102 248.5q0 151 102 251t247 100zM385 629q-120 0 -204.5 -84t-84.5 -211q0 -126 84.5 -210t204.5 -84q119 0 203.5 84t84.5 210t-84.5 210.5t-203.5 84.5zM518 399q0 -42 -29 -69.5
t-78 -33.5v-31h-67v86h42q27 0 44 13.5t17 34.5q0 25 -17 40.5t-44 15.5q-29 0 -47.5 -17t-23.5 -46l-70 13q3 47 43 81t98 34q59 0 95.5 -33.5t36.5 -87.5zM376 223q19 0 31.5 -12.5t12.5 -29.5q0 -19 -12.5 -31.5t-31.5 -12.5t-31 12.5t-12 31.5q0 17 12.5 29.5t30.5 12.5
z" />
    <glyph glyph-name="fi" unicode="fi" horiz-adv-x="645" 
d="M627 499l-115 -499h-132l90 391h-209l-91 -391h-132l91 391h-76l25 108h76l21 92q20 87 86.5 138t157.5 51q47 0 84 -18l-53 -107q-27 8 -49 8q-35 0 -60.5 -18.5t-33.5 -53.5l-21 -92h341zM596 727q34 0 57 -23.5t23 -55.5q0 -33 -23 -55t-57 -22q-35 0 -57.5 22
t-22.5 55q0 32 23 55.5t57 23.5z" />
    <glyph glyph-name="fl" unicode="fl" horiz-adv-x="699" 
d="M261 391l-90 -391h-132l90 391h-76l25 108h76l21 92q21 91 81.5 140t148.5 49q53 0 84 -18l-24 -105q-33 6 -68 6q-33 0 -57.5 -19t-32.5 -53l-21 -92h151l-25 -108h-151zM576 109q26 0 66 14l17 -115q-54 -23 -112 -23q-74 0 -114.5 49.5t-21.5 134.5l140 601h132
l-142 -612q-12 -49 35 -49z" />
    <glyph glyph-name=".notdef" horiz-adv-x="769" 
d="M385 684q144 0 246 -100t102 -251q0 -149 -102 -248.5t-246 -99.5q-145 0 -247 99.5t-102 248.5q0 151 102 251t247 100zM385 629q-120 0 -204.5 -84t-84.5 -211q0 -126 84.5 -210t204.5 -84q119 0 203.5 84t84.5 210t-84.5 210.5t-203.5 84.5zM518 399q0 -42 -29 -69.5
t-78 -33.5v-31h-67v86h42q27 0 44 13.5t17 34.5q0 25 -17 40.5t-44 15.5q-29 0 -47.5 -17t-23.5 -46l-70 13q3 47 43 81t98 34q59 0 95.5 -33.5t36.5 -87.5zM376 223q19 0 31.5 -12.5t12.5 -29.5q0 -19 -12.5 -31.5t-31.5 -12.5t-31 12.5t-12 31.5q0 17 12.5 29.5t30.5 12.5
z" />
    <glyph glyph-name=".null" horiz-adv-x="0" 
 />
    <glyph glyph-name="nonmarkingreturn" horiz-adv-x="333" 
 />
    <glyph glyph-name="space" unicode=" " horiz-adv-x="243" 
 />
    <glyph glyph-name="exclam" unicode="!" horiz-adv-x="292" 
d="M311 670l-7 -31l-102 -420h-135l92 420l7 31h145zM105 149q34 0 56.5 -23t22.5 -54q0 -32 -22.5 -54t-56.5 -22t-56.5 22t-22.5 54q0 31 22.5 54t56.5 23z" />
    <glyph glyph-name="quotedbl" unicode="&#x22;" horiz-adv-x="425" 
d="M79 372l68 298h134l-68 -298h-134zM269 372l68 298h134l-68 -298h-134z" />
    <glyph glyph-name="numbersign" unicode="#" horiz-adv-x="693" 
d="M571 390l-61 -127h101l-56 -110h-97l-73 -153h-123l73 153h-121l-73 -153h-123l73 153h-104l55 110h101l61 127h-103l54 110h101l81 170h123l-81 -170h121l81 170h123l-81 -170h101l-56 -110h-97zM447 390h-121l-60 -127h121z" />
    <glyph glyph-name="dollar" unicode="$" horiz-adv-x="587" 
d="M380 386l3 -1q74 -26 111.5 -63t37.5 -101q0 -86 -65 -141t-169 -62l-27 -118h-110l30 126q-68 15 -112 58t-51 114l134 26q9 -61 61 -82l36 152q-29 10 -49.5 20t-43.5 27.5t-35 45t-12 62.5q0 80 61 135t156 66l28 120h110l-29 -123q136 -27 155 -169l-128 -27
q-3 60 -57 82zM252 464q0 -30 36 -45l28 116q-29 -9 -46.5 -28t-17.5 -43zM351 264l-31 -131q42 5 64 25t22 51q0 20 -12 31.5t-43 23.5z" />
    <glyph glyph-name="percent" unicode="%" horiz-adv-x="892" 
d="M287 685q67 0 110.5 -41t43.5 -108q0 -76 -54 -125.5t-128 -49.5q-66 0 -110 41t-44 109q0 76 54 125t128 49zM97 0l645 670h87l-645 -670h-87zM279 595q-29 0 -52 -21.5t-23 -55.5q0 -31 18.5 -49t44.5 -18q29 0 52 21.5t23 56.5q0 31 -18.5 48.5t-44.5 17.5zM672 309
q67 0 110.5 -41t43.5 -108q0 -76 -54 -125.5t-128 -49.5q-66 0 -110 41t-44 109q0 76 54 125t128 49zM664 219q-29 0 -52 -21.5t-23 -55.5q0 -31 18.5 -49t44.5 -18q29 0 52 21.5t23 56.5q0 31 -18.5 48.5t-44.5 17.5z" />
    <glyph glyph-name="ampersand" unicode="&#x26;" horiz-adv-x="702" 
d="M640 349l-13 -51q-21 -88 -64 -155l75 -83l-99 -89l-69 76q-88 -63 -205 -63q-101 0 -166 47.5t-65 129.5q0 66 43 119t116 87q-24 45 -24 98q0 95 66.5 157.5t181.5 62.5q172 0 185 -143l-129 -22q-8 55 -73 55q-45 0 -73 -26.5t-28 -68.5q0 -49 61 -113l125 -138
q16 28 25 69l13 51h117zM279 95q62 0 117 34l-144 160q-85 -42 -85 -109q0 -38 31 -61.5t81 -23.5z" />
    <glyph glyph-name="quotesingle" unicode="'" horiz-adv-x="235" 
d="M79 372l68 298h134l-68 -298h-134z" />
    <glyph glyph-name="parenleft" unicode="(" horiz-adv-x="391" 
d="M350 754l90 -92q-122 -90 -171.5 -160.5t-65.5 -166.5q-16 -94 3.5 -172.5t86.5 -163.5l-106 -81q-164 175 -126 417q20 125 88.5 228t200.5 191z" />
    <glyph glyph-name="parenright" unicode=")" horiz-adv-x="391" 
d="M80 -82l-90 92q122 90 171.5 160.5t65.5 166.5q16 94 -3.5 172.5t-86.5 163.5l106 81q164 -175 126 -417q-20 -125 -88.5 -228t-200.5 -191z" />
    <glyph glyph-name="asterisk" unicode="*" horiz-adv-x="469" 
d="M376 507l80 -96l-61 -52l-77 91l-38 -105l-86 31l39 106l-117 -21l-14 79l123 22l-80 96l62 53l76 -91l38 104l86 -31l-38 -105l117 21l13 -80z" />
    <glyph glyph-name="plus" unicode="+" horiz-adv-x="581" 
d="M520 247h-172l-41 -176h-116l41 176h-172l27 116h171l41 176h116l-41 -176h173z" />
    <glyph glyph-name="comma" unicode="," horiz-adv-x="252" 
d="M41 -132h-105l122 268h158l-1 -3z" />
    <glyph glyph-name="hyphen" unicode="-" horiz-adv-x="449" 
d="M376 198h-328l27 114h328z" />
    <glyph glyph-name="period" unicode="." horiz-adv-x="242" 
d="M80 149q34 0 56.5 -23t22.5 -54q0 -32 -22.5 -54t-56.5 -22t-56.5 22t-22.5 54q0 31 22.5 54t56.5 23z" />
    <glyph glyph-name="slash" unicode="/" horiz-adv-x="418" 
d="M509 720l-470 -790h-130l470 790h130z" />
    <glyph glyph-name="zero" unicode="0" horiz-adv-x="666" 
d="M396 685q131 0 201.5 -98t43.5 -252q-28 -159 -116 -254.5t-215 -95.5q-131 0 -201.5 97.5t-43.5 252.5q28 159 116 254.5t215 95.5zM313 110q68 0 120 62t70 163t-12 163t-98 62t-120 -62t-70 -163t12 -163t98 -62z" />
    <glyph glyph-name="one" unicode="1" horiz-adv-x="371" 
d="M392 670l-154 -670h-132l115 500l-183 -96l33 143l237 123h84z" />
    <glyph glyph-name="two" unicode="2" horiz-adv-x="523" 
d="M235 123h241l-30 -123h-462l27 88l273 224q3 2 21 16.5t24 20.5t21.5 20t22.5 24.5t16.5 25t13 30t3.5 31.5q0 39 -24.5 63.5t-67.5 24.5q-96 0 -116 -123l-127 26q14 98 83.5 156t169.5 58q95 0 152.5 -53t57.5 -142q0 -70 -40.5 -130t-134.5 -136z" />
    <glyph glyph-name="three" unicode="3" horiz-adv-x="571" 
d="M578 505q0 -61 -33 -108t-89 -70q62 -47 62 -128q0 -87 -70.5 -150.5t-186.5 -63.5q-108 0 -174 57.5t-64 154.5l121 27q2 -57 32 -89.5t86 -32.5t90 30.5t34 73.5q0 36 -26.5 58t-68.5 22h-89l31 108h82q62 0 101.5 26.5t39.5 70.5q0 36 -26.5 58.5t-70.5 22.5
q-46 0 -80.5 -27t-44.5 -86l-122 23q18 94 87 148.5t168 54.5q96 0 153.5 -49.5t57.5 -130.5z" />
    <glyph glyph-name="four" unicode="4" horiz-adv-x="617" 
d="M497 245h91l-25 -110h-91l-31 -135h-132l31 135h-347l28 125l395 410h179zM366 245l69 298l-274 -298h205z" />
    <glyph glyph-name="five" unicode="5" horiz-adv-x="571" 
d="M248 547l-31 -117h79q103 0 164 -49t61 -143q0 -107 -74 -180t-195 -73q-113 0 -182 65t-64 171l126 24q0 -66 33.5 -105.5t93.5 -39.5q57 0 92 34.5t35 84.5q0 46 -32 70.5t-85 24.5h-210l93 356h444l-29 -123h-319z" />
    <glyph glyph-name="six" unicode="6" horiz-adv-x="613" 
d="M357 434q93 0 151.5 -57t58.5 -147q0 -104 -76.5 -174.5t-189.5 -70.5q-114 0 -182.5 76.5t-68.5 198.5q0 189 102.5 307t250.5 118q86 0 148 -41.5t74 -117.5l-126 -25q-7 32 -34 48.5t-68 16.5q-75 0 -133 -55t-75 -138q64 61 168 61zM307 106q48 0 85 33.5t37 82.5
q0 45 -30 73t-72 28q-48 0 -85 -33t-37 -84q0 -44 30 -72t72 -28z" />
    <glyph glyph-name="seven" unicode="7" horiz-adv-x="524" 
d="M598 670l-22 -97l-376 -573h-167l369 547h-320l28 123h488z" />
    <glyph glyph-name="eight" unicode="8" horiz-adv-x="582" 
d="M437 329q95 -48 95 -144q0 -87 -74 -143.5t-191 -56.5q-113 0 -181 51.5t-68 135.5q0 62 45.5 110.5t123.5 66.5q-82 46 -82 144q0 85 68.5 138.5t178.5 53.5q103 0 165 -49t62 -129q0 -64 -37 -111t-105 -67zM345 576q-44 0 -75 -24t-31 -67q0 -39 27.5 -60t69.5 -21
q45 0 77 23.5t32 66.5q0 39 -29 60.5t-71 21.5zM270 98q48 0 81.5 25t33.5 71q0 41 -30.5 63.5t-75.5 22.5q-47 0 -79.5 -25t-32.5 -71q0 -41 29.5 -63.5t73.5 -22.5z" />
    <glyph glyph-name="nine" unicode="9" horiz-adv-x="622" 
d="M349 685q114 0 182.5 -76.5t68.5 -198.5q0 -189 -102.5 -307t-250.5 -118q-86 0 -148 41.5t-74 117.5l126 25q7 -32 34 -48.5t68 -16.5q75 0 133 55t75 138q-64 -61 -168 -61q-93 0 -151.5 57t-58.5 147q0 104 76.5 174.5t189.5 70.5zM323 347q48 0 85 33t37 84
q0 44 -30 72t-72 28q-48 0 -85 -33.5t-37 -82.5q0 -45 30 -73t72 -28z" />
    <glyph glyph-name="colon" unicode=":" horiz-adv-x="242" 
d="M158 485q34 0 56.5 -23t22.5 -54q0 -32 -22.5 -54t-56.5 -22t-56.5 22t-22.5 54q0 31 22.5 54t56.5 23zM80 149q34 0 56.5 -23t22.5 -54q0 -32 -22.5 -54t-56.5 -22t-56.5 22t-22.5 54q0 31 22.5 54t56.5 23z" />
    <glyph glyph-name="semicolon" unicode=";" horiz-adv-x="279" 
d="M182 485q34 0 56.5 -23t22.5 -54q0 -32 -22.5 -54t-56.5 -22t-56.5 22t-22.5 54q0 31 22.5 54t56.5 23zM41 -132h-105l122 268h158l-1 -3z" />
    <glyph glyph-name="less" unicode="&#x3c;" horiz-adv-x="451" 
d="M201 322l210 -72l-32 -133l-346 143l32 140l412 141l-32 -144z" />
    <glyph glyph-name="equal" unicode="=" horiz-adv-x="581" 
d="M547 363h-460l27 115h460zM501 165h-460l27 115h460z" />
    <glyph glyph-name="greater" unicode="&#x3e;" horiz-adv-x="451" 
d="M287 336l-210 72l32 133l346 -143l-32 -140l-412 -141l32 144z" />
    <glyph glyph-name="question" unicode="?" horiz-adv-x="535" 
d="M562 496q0 -90 -68.5 -149t-170.5 -68l-13 -54h-121l36 156h76q46 0 89.5 28t43.5 75q0 39 -28 61.5t-72 22.5q-52 0 -88.5 -32t-49.5 -83l-123 25q15 87 89 147t179 60q97 0 159 -52t62 -137zM222 149q34 0 56.5 -23t22.5 -54q0 -32 -22.5 -54t-56.5 -22t-56.5 22
t-22.5 54q0 31 22.5 54t56.5 23z" />
    <glyph glyph-name="at" unicode="@" horiz-adv-x="949" 
d="M725 475l-65 -283q-6 -24 9 -38.5t39 -14.5q53 0 87.5 69.5t34.5 141.5q0 115 -80 186.5t-204 71.5q-166 0 -286.5 -112t-120.5 -272q0 -123 79 -202.5t202 -79.5q136 0 258 81l31 -68q-61 -43 -142 -67.5t-159 -24.5q-155 0 -255 98t-100 251q0 98 41.5 186.5t110.5 151
t162 99t193 36.5q154 0 255 -90.5t101 -231.5q0 -47 -14 -97t-41 -96.5t-74.5 -76.5t-106.5 -30q-85 0 -106 59q-61 -58 -154 -58q-77 0 -124 47t-47 125q0 108 73 177t171 69q91 0 131 -70l15 63h86zM448 151q53 0 95.5 39.5t42.5 102.5q0 46 -27.5 73t-68.5 27
q-53 0 -95 -39t-42 -102q0 -46 27.5 -73.5t67.5 -27.5z" />
    <glyph glyph-name="A" unicode="A" horiz-adv-x="717" 
d="M659 0h-139l-25 143h-296l-92 -143h-155l445 670h127zM473 266l-42 239l-153 -239h195z" />
    <glyph glyph-name="B" unicode="B" horiz-adv-x="649" 
d="M522 346l-1 -4q36 -5 61.5 -37t25.5 -83q0 -95 -73.5 -158.5t-201.5 -63.5h-321l128 554l27 116h320q78 0 124 -40.5t46 -108.5q0 -74 -44.5 -121t-90.5 -54zM238 390h170q48 0 80 29t32 72q0 28 -18 45.5t-47 17.5h-179zM175 116h180q54 0 84 28.5t30 72.5
q0 30 -19 47.5t-52 17.5h-185z" />
    <glyph glyph-name="C" unicode="C" horiz-adv-x="766" 
d="M460 685q125 0 207 -65t91 -173l-140 -27q-9 64 -49 101.5t-111 37.5q-105 0 -183.5 -75t-78.5 -182q0 -83 50 -137t134 -54q73 0 128.5 37.5t78.5 97.5l125 -39q-36 -102 -122 -162t-214 -60q-144 0 -231 85.5t-87 222.5q0 161 116 276.5t286 115.5z" />
    <glyph glyph-name="D" unicode="D" horiz-adv-x="733" 
d="M168 670h247q140 0 220.5 -76t80.5 -203q0 -166 -128.5 -278.5t-315.5 -112.5h-259zM177 123h79q128 0 223.5 74.5t95.5 191.5q0 77 -45.5 117.5t-130.5 40.5h-124z" />
    <glyph glyph-name="E" unicode="E" horiz-adv-x="635" 
d="M275 547l-35 -151h342l-28 -121h-342l-35 -152h373l-28 -123h-509l154 670h507l-28 -123h-371z" />
    <glyph glyph-name="F" unicode="F" horiz-adv-x="595" 
d="M275 547l-38 -164h325l-28 -123h-325l-60 -260h-136l154 670h500l-28 -123h-364z" />
    <glyph glyph-name="G" unicode="G" horiz-adv-x="780" 
d="M407 391h357q-2 -38 -6 -58q-30 -163 -134 -255.5t-257 -92.5q-140 0 -224.5 83.5t-84.5 220.5q0 163 121 279.5t294 116.5q105 0 187 -53t100 -149l-136 -29q-34 103 -160 103q-110 0 -188.5 -74t-78.5 -181q0 -84 51 -137t134 -53q75 0 134 43t83 112h-221z" />
    <glyph glyph-name="H" unicode="H" horiz-adv-x="733" 
d="M759 670l-154 -670h-136l63 275h-320l-63 -275h-136l154 670h136l-63 -272h320l63 272h136z" />
    <glyph glyph-name="I" unicode="I" horiz-adv-x="456" 
d="M365 547l-98 -424h140l-28 -123h-416l28 123h140l98 424h-140l28 123h416l-28 -123h-140z" />
    <glyph glyph-name="J" unicode="J" horiz-adv-x="594" 
d="M627 670l-102 -433q-28 -121 -102 -186.5t-182 -65.5q-105 0 -169.5 59.5t-67.5 159.5l129 26q0 -55 28 -89t82 -34q55 0 93 36t53 94l73 310h-243l28 123h380z" />
    <glyph glyph-name="K" unicode="K" horiz-adv-x="689" 
d="M452 386l175 -386h-155l-125 286l-176 -167l-27 -119h-136l154 670h136l-77 -336l365 336h165z" />
    <glyph glyph-name="L" unicode="L" horiz-adv-x="583" 
d="M523 123l-28 -123h-482l154 670h136l-126 -547h346z" />
    <glyph glyph-name="M" unicode="M" horiz-adv-x="887" 
d="M913 670l-154 -670h-132l84 363l-274 -363h-101l-107 364l-84 -364h-132l154 670h108l141 -493l368 493h129z" />
    <glyph glyph-name="N" unicode="N" horiz-adv-x="762" 
d="M786 670l-154 -670h-114l-264 444l-103 -444h-136l154 670h114l262 -453l105 453h136z" />
    <glyph glyph-name="O" unicode="O" horiz-adv-x="788" 
d="M453 687q154 0 243.5 -103.5t68.5 -249.5q-22 -159 -130.5 -254.5t-260.5 -95.5q-154 -1 -243 100.5t-69 250.5q21 147 135.5 249.5t255.5 102.5zM376 112q98 0 168 62t84 160q13 95 -39 159.5t-138 64.5q-97 0 -168 -63.5t-85 -160.5q-13 -95 40.5 -158.5t137.5 -63.5z
" />
    <glyph glyph-name="P" unicode="P" horiz-adv-x="670" 
d="M167 670h289q102 0 164.5 -55t62.5 -146q0 -112 -82 -181t-215 -69h-187l-50 -219h-136zM228 342h166q67 0 108.5 34t41.5 88q0 83 -98 83h-171z" />
    <glyph glyph-name="Q" unicode="Q" horiz-adv-x="786" 
d="M592 -170l-124 164q-50 -10 -94 -10q-154 -1 -243 100.5t-69 250.5q21 147 135.5 249.5t255.5 102.5q154 0 243.5 -103.5t68.5 -249.5q-24 -182 -160 -278l175 -226h-188zM198 334q-13 -95 40.5 -158.5t137.5 -63.5q98 0 168 62t84 160q13 95 -39 159.5t-138 64.5
q-97 0 -168 -63.5t-85 -160.5z" />
    <glyph glyph-name="R" unicode="R" horiz-adv-x="685" 
d="M685 486q0 -85 -56.5 -147.5t-152.5 -83.5l141 -255h-153l-127 246h-131l-57 -246h-136l154 670h301q99 0 158 -48.5t59 -135.5zM234 369h165q67 0 107.5 30t40.5 76q0 35 -23.5 53.5t-63.5 18.5h-185z" />
    <glyph glyph-name="S" unicode="S" horiz-adv-x="629" 
d="M389 685q107 0 172.5 -51t73.5 -142l-137 -28q-1 47 -35 76.5t-87 29.5q-52 0 -86.5 -27.5t-34.5 -66.5q0 -21 14 -35t47 -25l97 -29q154 -46 154 -173q0 -103 -76.5 -166t-201.5 -63q-109 0 -186 50.5t-84 148.5l144 29q12 -111 138 -111q63 0 97.5 27t34.5 69
q0 24 -15.5 38.5t-55.5 26.5l-95 27q-31 9 -54.5 20t-48 30t-38 49t-13.5 69q0 100 77.5 163.5t198.5 63.5z" />
    <glyph glyph-name="T" unicode="T" horiz-adv-x="622" 
d="M671 547h-223l-126 -547h-136l126 547h-223l28 123h582z" />
    <glyph glyph-name="U" unicode="U" horiz-adv-x="711" 
d="M744 670l-85 -370q-34 -147 -122 -231t-228 -84q-122 0 -193 89t-40 226l85 370h136l-85 -370q-19 -84 12.5 -134.5t103.5 -50.5q68 0 122 50.5t73 134.5l85 370h136z" />
    <glyph glyph-name="V" unicode="V" horiz-adv-x="724" 
d="M806 670l-439 -670h-131l-129 670h140l86 -488l313 488h160z" />
    <glyph glyph-name="W" unicode="W" horiz-adv-x="967" 
d="M1049 670l-350 -670h-147l-25 452l-236 -452h-144l-40 670h136l21 -462l242 462h133l28 -462l235 462h147z" />
    <glyph glyph-name="X" unicode="X" horiz-adv-x="663" 
d="M439 335l156 -335h-156l-102 229l-208 -229h-176l308 336l-154 334h155l103 -226l209 226h175l-309 -334z" />
    <glyph glyph-name="Y" unicode="Y" horiz-adv-x="691" 
d="M402 214l-49 -214h-136l49 212l-159 458h141l110 -316l255 316h165z" />
    <glyph glyph-name="Z" unicode="Z" horiz-adv-x="626" 
d="M650 567l-441 -451h343l-26 -116h-536l20 87l463 467h-345l26 116h519z" />
    <glyph glyph-name="bracketleft" unicode="[" horiz-adv-x="405" 
d="M284 628l-138 -597h168l-26 -113h-295l190 823h295l-26 -113h-168z" />
    <glyph glyph-name="backslash" unicode="\" horiz-adv-x="418" 
d="M314 -72h-110l-100 813h110z" />
    <glyph glyph-name="bracketright" unicode="]" horiz-adv-x="406" 
d="M449 741l-190 -823h-295l26 113h168l138 597h-168l26 113h295z" />
    <glyph glyph-name="asciicircum" unicode="^" horiz-adv-x="444" 
d="M183 431h-121l210 239h94l100 -239h-109l-56 133z" />
    <glyph glyph-name="underscore" unicode="_" horiz-adv-x="541" 
d="M425 -165h-500l25 109h500z" />
    <glyph glyph-name="grave" unicode="`" horiz-adv-x="600" 
d="M306 711l100 -144h-120l-143 144h163z" />
    <glyph glyph-name="a" unicode="a" horiz-adv-x="558" 
d="M330 514q108 0 160 -56t29 -159l-69 -299h-126l9 40q-72 -55 -166 -55q-76 0 -119 36t-43 100q0 79 66 131t183 52h140l3 12q9 39 -11.5 63t-67.5 24q-41 0 -74.5 -19.5t-50.5 -56.5l-118 31q30 70 100.5 113t154.5 43zM368 192l3 12h-147q-43 0 -66 -16.5t-23 -45.5
q0 -24 20.5 -38t55.5 -14q54 0 101 30.5t56 71.5z" />
    <glyph glyph-name="b" unicode="b" horiz-adv-x="637" 
d="M411 514q98 0 159.5 -75.5t43.5 -189.5q-19 -117 -99.5 -190.5t-187.5 -73.5q-120 0 -168 81l-15 -66h-132l179 770h132l-71 -305q66 49 159 49zM322 100q63 0 108 41t56 108q11 68 -22 109t-94 41q-56 0 -105.5 -42t-60.5 -108t25.5 -107.5t92.5 -41.5z" />
    <glyph glyph-name="c" unicode="c" horiz-adv-x="568" 
d="M268 106q93 0 134 87l126 -21q-35 -86 -108 -136.5t-162 -50.5q-119 0 -186.5 74t-48.5 190q18 116 107.5 190.5t201.5 74.5q88 0 149 -50.5t72 -133.5l-136 -25q-3 43 -31 65.5t-73 22.5q-62 0 -106.5 -40t-55.5 -104q-10 -64 22.5 -103.5t94.5 -39.5z" />
    <glyph glyph-name="d" unicode="d" horiz-adv-x="637" 
d="M687 770l-178 -770h-132l8 34q-66 -49 -159 -49q-98 0 -159.5 75.5t-43.5 189.5q19 117 99.5 190.5t187.5 73.5q122 0 167 -80l78 336h132zM267 100q56 0 105.5 42t60.5 108t-25.5 107.5t-92.5 41.5q-63 0 -108 -41t-56 -108q-11 -68 22 -109t94 -41z" />
    <glyph glyph-name="e" unicode="e" horiz-adv-x="575" 
d="M325 514q111 0 173.5 -82.5t39.5 -217.5h-388q2 -116 118 -116q81 0 127 71l118 -30q-36 -76 -103.5 -115t-149.5 -39q-106 0 -168.5 62.5t-62.5 165.5q0 128 89.5 214.5t206.5 86.5zM169 307h257q-13 97 -111 97q-50 0 -88 -26.5t-58 -70.5z" />
    <glyph glyph-name="f" unicode="f" horiz-adv-x="370" 
d="M397 663q-33 0 -57.5 -19t-32.5 -53l-21 -92h151l-25 -108h-151l-90 -391h-132l90 391h-76l25 108h76l21 92q21 91 81.5 140t148.5 49q53 0 84 -18l-24 -105q-33 6 -68 6z" />
    <glyph glyph-name="g" unicode="g" horiz-adv-x="640" 
d="M627 499l-118 -512q-25 -112 -112 -175t-202 -63q-175 0 -233 149l123 56q34 -76 118 -76q63 0 116 33.5t67 95.5l6 28q-66 -50 -159 -50q-98 0 -159.5 75.5t-43.5 189.5q19 117 99.5 190.5t187.5 73.5q120 0 168 -81l15 66h127zM274 100q56 0 105.5 42t60.5 108
t-25.5 107.5t-92.5 41.5q-63 0 -108 -41t-56 -108q-11 -68 22 -109t94 -41z" />
    <glyph glyph-name="h" unicode="h" horiz-adv-x="619" 
d="M395 514q102 0 147 -69.5t23 -168.5l-64 -276h-132l65 282q12 54 -11.5 85.5t-73.5 31.5q-109 0 -150 -167l-54 -232h-132l178 770h132l-73 -316q57 60 145 60z" />
    <glyph glyph-name="i" unicode="i" horiz-adv-x="290" 
d="M237 727q34 0 57 -23.5t23 -55.5q0 -33 -23 -55t-57 -22q-35 0 -57.5 22t-22.5 55q0 32 23 55.5t57 23.5zM153 0h-132l115 499h132z" />
    <glyph glyph-name="j" unicode="j" horiz-adv-x="295" 
d="M242 727q34 0 57 -23.5t23 -55.5q0 -33 -23 -55t-57 -22q-35 0 -57.5 22t-22.5 55q0 32 23 55.5t57 23.5zM280 499l-139 -604q-15 -65 -64.5 -105t-115.5 -40q-51 0 -98 19l51 115q27 -10 43 -10q21 0 36.5 11t19.5 28l135 586h132z" />
    <glyph glyph-name="k" unicode="k" horiz-adv-x="618" 
d="M406 307l154 -307h-152l-105 216l-136 -119l-22 -97h-132l178 770h132l-111 -479l241 208h171z" />
    <glyph glyph-name="l" unicode="l" horiz-adv-x="329" 
d="M313 770l-142 -612q-12 -49 35 -49q26 0 66 14l17 -115q-54 -23 -112 -23q-74 0 -114.5 49.5t-21.5 134.5l140 601h132z" />
    <glyph glyph-name="m" unicode="m" horiz-adv-x="949" 
d="M753 514q90 0 135.5 -56t24.5 -146l-72 -312h-131l66 285q11 49 -9 78.5t-64 29.5q-53 0 -92 -36.5t-58 -108.5l-57 -248h-132l66 285q11 49 -9 78.5t-64 29.5q-109 0 -147 -140l-58 -253h-132l115 499h132l-11 -46q58 61 151 61q59 0 100.5 -24t58.5 -67q70 91 187 91z
" />
    <glyph glyph-name="n" unicode="n" horiz-adv-x="618" 
d="M395 514q102 0 147 -69.5t23 -168.5l-64 -276h-132l65 282q12 54 -11.5 85.5t-73.5 31.5q-113 0 -154 -178l-51 -221h-132l115 499h132l-11 -47q57 62 147 62z" />
    <glyph glyph-name="o" unicode="o" horiz-adv-x="601" 
d="M333 511q113 0 184.5 -74t53.5 -188q-19 -116 -104 -189t-196 -73q-115 0 -187 73.5t-54 188.5q19 116 104.5 189t198.5 73zM278 100q55 0 104.5 41.5t60.5 107.5t-25.5 107.5t-91.5 41.5q-57 0 -107 -41t-61 -108t26 -108t94 -41z" />
    <glyph glyph-name="p" unicode="p" horiz-adv-x="644" 
d="M411 514q98 0 159.5 -75.5t43.5 -189.5q-19 -117 -99.5 -190.5t-187.5 -73.5q-120 0 -168 81l-70 -296h-132l172 729h132l-8 -34q64 49 158 49zM322 100q63 0 108 41t56 108q11 68 -22 109t-94 41q-56 0 -105.5 -42t-60.5 -108t25.5 -107.5t92.5 -41.5z" />
    <glyph glyph-name="q" unicode="q" horiz-adv-x="644" 
d="M631 499l-171 -729h-132l62 263q-65 -48 -157 -48q-98 0 -159.5 75.5t-43.5 189.5q19 117 99.5 190.5t187.5 73.5q120 0 167 -79l15 64h132zM274 100q56 0 105.5 42t60.5 108t-25.5 107.5t-92.5 41.5q-63 0 -108 -41t-56 -108q-11 -68 22 -109t94 -41z" />
    <glyph glyph-name="r" unicode="r" horiz-adv-x="429" 
d="M440 506q23 0 34 -4l-36 -127h-29q-173 0 -225 -204l-39 -171h-132l115 499h132l-17 -74q89 81 197 81z" />
    <glyph glyph-name="s" unicode="s" horiz-adv-x="504" 
d="M2 122l131 37q6 -35 37.5 -53t69.5 -18q36 0 58.5 15.5t22.5 36.5q0 28 -40 40l-98 31q-115 35 -115 139q0 72 55.5 118t149.5 46q87 0 146.5 -39t72.5 -99l-113 -34q-5 31 -33.5 50t-72.5 19q-40 0 -57 -14.5t-17 -35.5q0 -31 56 -49l61 -19q133 -42 133 -146
q0 -75 -62 -118.5t-156 -43.5q-84 0 -148.5 35t-80.5 102z" />
    <glyph glyph-name="t" unicode="t" horiz-adv-x="419" 
d="M257 391l-46 -197q-20 -86 41 -86q41 0 91 24l7 -115q-64 -32 -130 -32q-87 0 -126.5 49.5t-16.5 149.5l48 207h-93l25 108h93l39 171h132l-40 -171h164l-25 -108h-163z" />
    <glyph glyph-name="u" unicode="u" horiz-adv-x="618" 
d="M606 499l-115 -499h-132l11 47q-57 -62 -147 -62q-102 0 -147 69.5t-23 168.5l64 276h132l-65 -282q-12 -54 11.5 -85.5t73.5 -31.5q113 0 154 178l51 221h132z" />
    <glyph glyph-name="v" unicode="v" horiz-adv-x="582" 
d="M625 499l-326 -499h-139l-92 499h135l59 -336l214 336h149z" />
    <glyph glyph-name="w" unicode="w" horiz-adv-x="802" 
d="M845 499l-284 -500h-122l-32 294l-169 -294h-118l-52 500h126l30 -307l176 307h103l33 -308l173 308h136z" />
    <glyph glyph-name="x" unicode="x" horiz-adv-x="607" 
d="M385 242l132 -242h-150l-74 150l-145 -150h-175l244 243l-120 256h149l67 -156l145 156h177z" />
    <glyph glyph-name="y" unicode="y" horiz-adv-x="576" 
d="M623 499l-473 -729h-149l159 243l-92 486h137l59 -328l215 328h144z" />
    <glyph glyph-name="z" unicode="z" horiz-adv-x="524" 
d="M509 411l-324 -303h266l-25 -108h-443l20 86l321 305h-244l25 108h424z" />
    <glyph glyph-name="braceleft" unicode="{" horiz-adv-x="425" 
d="M498 741l-26 -111h-105q-30 0 -37 -32l-37 -161q-20 -79 -92 -108q59 -27 42 -108l-37 -161q-4 -14 2.5 -22.5t20.5 -8.5h105l-26 -111h-122q-63 0 -93.5 35t-17.5 93l37 159q6 27 -8 40t-48 25l-29 10l23 98l33 10q39 12 59.5 25t26.5 40l37 159q14 58 60.5 93.5
t109.5 35.5h122z" />
    <glyph glyph-name="bar" unicode="|" horiz-adv-x="268" 
d="M123 -72h-127l188 813h127z" />
    <glyph glyph-name="braceright" unicode="}" horiz-adv-x="444" 
d="M435 379l-23 -98l-33 -10q-39 -12 -59.5 -25t-26.5 -40l-37 -159q-14 -58 -60.5 -93.5t-109.5 -35.5h-122l26 111h105q30 0 37 32l37 161q20 79 92 108q-59 27 -42 108l37 161q4 14 -2.5 22.5t-20.5 8.5h-105l26 111h122q63 0 93.5 -35t17.5 -93l-37 -159q-6 -27 8 -40
t48 -25z" />
    <glyph glyph-name="asciitilde" unicode="~" horiz-adv-x="500" 
d="M146 229h-100q10 44 30 75.5t43.5 47t45 22.5t42.5 7q41 0 74 -20.5t49 -20.5q17 0 29 12t16 30h109q-13 -58 -46 -95t-63.5 -48.5t-60.5 -11.5q-42 0 -74 20.5t-46 20.5q-19 0 -32 -11t-16 -28z" />
    <glyph glyph-name="exclamdown" unicode="&#xa1;" horiz-adv-x="292" 
d="M189 359q-34 0 -56.5 23t-22.5 54q0 32 22.5 54t56.5 22t56.5 -22t22.5 -54q0 -31 -22.5 -54t-56.5 -23zM-17 -162l7 31l102 420h135l-92 -420l-7 -31h-145z" />
    <glyph glyph-name="cent" unicode="&#xa2;" horiz-adv-x="577" 
d="M370 384l-65 -275q70 12 104 84l126 -21q-33 -81 -100.5 -131t-150.5 -55l-27 -116h-111l30 128q-80 25 -120.5 92t-25.5 159q16 103 90.5 175t173.5 87l28 119h111l-29 -124q63 -17 105 -63.5t51 -112.5l-136 -25q-4 60 -54 79zM158 249q-14 -90 49 -127l62 263
q-44 -14 -73.5 -50t-37.5 -86z" />
    <glyph glyph-name="sterling" unicode="&#xa3;" horiz-adv-x="637" 
d="M648 448l-123 -14q8 59 -14 95.5t-66 36.5q-52 0 -89 -33.5t-49 -84.5l-20 -87h170l-28 -123h-170l-27 -115h340l-28 -123h-561l19 83l91 24l30 131h-85l28 123h85l20 87q25 108 100.5 172.5t181.5 64.5q103 0 157.5 -65.5t37.5 -171.5z" />
    <glyph glyph-name="yen" unicode="&#xa5;" horiz-adv-x="691" 
d="M484 338h127l-23 -100h-180l-11 -50h179l-23 -100h-179l-20 -88h-136l20 88h-173l23 100h173l12 50h-173l23 100h120l-126 332h139l105 -294l240 294h167z" />
    <glyph glyph-name="section" unicode="&#xa7;" horiz-adv-x="538" 
d="M544 515l-127 -20q5 38 -11.5 60.5t-51.5 22.5t-57 -20.5t-22 -49.5q0 -32 39 -51l114 -53q90 -40 90 -133q0 -111 -119 -170q9 -24 9 -53q0 -84 -59.5 -137t-157.5 -53q-87 0 -139.5 42.5t-50.5 118.5l125 28q-2 -39 16.5 -61.5t54.5 -22.5q35 0 55.5 21t20.5 49
q0 32 -38 52l-114 53q-41 18 -65.5 57.5t-24.5 85.5q0 104 121 153q-11 25 -11 58q0 85 64 139t162 54q90 0 135 -47t42 -123zM233 361l-5 2q-69 -22 -69 -70q0 -30 42 -53l115 -58l7 -4q67 34 67 77q0 35 -39 54z" />
    <glyph glyph-name="dieresis" unicode="&#xa8;" horiz-adv-x="600" 
d="M249 718q34 0 57 -23.5t23 -54.5q0 -34 -22.5 -56t-57.5 -22q-34 0 -56.5 22t-22.5 56q0 32 22.5 55t56.5 23zM465 718q34 0 57 -23.5t23 -54.5q0 -34 -22.5 -56t-57.5 -22q-34 0 -56.5 22t-22.5 56q0 32 22.5 55t56.5 23z" />
    <glyph glyph-name="copyright" unicode="&#xa9;" horiz-adv-x="756" 
d="M405 685q146 0 248 -100t102 -252q0 -150 -102 -249t-248 -99t-248.5 99t-102.5 249q0 152 102.5 252t248.5 100zM405 629q-120 0 -204.5 -84t-84.5 -211q0 -126 84.5 -209t204.5 -83t204 83t84 209t-84.5 210.5t-203.5 84.5zM409 522q76 0 125 -39.5t58 -99.5l-87 -18
q-8 34 -34 53.5t-62 19.5q-44 0 -71.5 -29.5t-27.5 -74.5t27.5 -74.5t71.5 -29.5q37 0 64 21t31 58l88 -14q-6 -66 -55.5 -107.5t-127.5 -41.5t-134.5 53t-56.5 135t56.5 135t134.5 53z" />
    <glyph glyph-name="ordfeminine" unicode="&#xaa;" horiz-adv-x="391" 
d="M305 673q65 0 100 -32.5t19 -98.5l-46 -202h-96l3 12q-36 -21 -86 -21q-53 0 -84 24t-31 65q0 51 46 84.5t116 33.5h82l2 10q10 49 -42 49q-42 0 -67 -45l-82 20q51 101 166 101zM223 402q31 0 57 20.5t32 47.5l1 5h-71q-25 0 -42 -12t-17 -31q0 -30 40 -30z" />
    <glyph glyph-name="guillemotleft" unicode="&#xab;" horiz-adv-x="472" 
d="M28 262l153 178h130l-162 -184l71 -172h-121zM208 262l153 178h130l-162 -184l71 -172h-121z" />
    <glyph glyph-name="registered" unicode="&#xae;" horiz-adv-x="460" 
d="M287 685q84 0 142 -57t58 -144q0 -86 -58 -143t-142 -57t-142 57t-58 143q0 87 58 144t142 57zM287 323q67 0 113.5 46.5t46.5 114.5q0 70 -46.5 116.5t-113.5 46.5q-66 0 -112.5 -46.5t-46.5 -116.5q0 -68 46.5 -114.5t112.5 -46.5zM374 521q0 -45 -47 -60l57 -63h-48
l-52 59h-30v-59h-40v184h85q34 0 54.5 -16.5t20.5 -44.5zM254 493h45q16 0 25.5 7.5t9.5 19.5q0 26 -35 26h-45v-53z" />
    <glyph glyph-name="macron" unicode="&#xaf;" horiz-adv-x="600" 
d="M501 572h-318l24 108h318z" />
    <glyph glyph-name="degree" unicode="&#xb0;" horiz-adv-x="417" 
d="M282 685q59 0 99.5 -37.5t40.5 -98.5q0 -70 -49 -114.5t-117 -44.5q-60 0 -100.5 37.5t-40.5 97.5q0 71 49.5 115.5t117.5 44.5zM263 472q27 0 47.5 19.5t20.5 52.5q0 27 -16.5 43t-39.5 16q-27 0 -48 -19.5t-21 -51.5q0 -27 16.5 -43.5t40.5 -16.5z" />
    <glyph glyph-name="plusminus" unicode="&#xb1;" horiz-adv-x="582" 
d="M567 447l-27 -115h-172l-34 -146h-116l34 146h-172l27 115h172l38 166h116l-38 -166h172zM30 115h460l-27 -115h-460z" />
    <glyph glyph-name="acute" unicode="&#xb4;" horiz-adv-x="600" 
d="M404 567h-120l100 144h163z" />
    <glyph glyph-name="paragraph" unicode="&#xb6;" horiz-adv-x="600" 
d="M325 0h-100l69 299h-50q-77 0 -124 41t-47 110q0 102 68 161t175 59h164zM472 0h-100l155 670h100z" />
    <glyph glyph-name="periodcentered" unicode="&#xb7;" horiz-adv-x="242" 
d="M123 335q34 0 56.5 -23t22.5 -54q0 -32 -22.5 -54t-56.5 -22t-56.5 22t-22.5 54q0 31 22.5 54t56.5 23z" />
    <glyph glyph-name="cedilla" unicode="&#xb8;" horiz-adv-x="600" 
d="M223 0h97l-89 -160h-150z" />
    <glyph glyph-name="ordmasculine" unicode="&#xba;" horiz-adv-x="430" 
d="M284 673q72 0 120 -45t48 -115q0 -79 -56.5 -130.5t-135.5 -51.5q-70 0 -118 45t-48 115q0 79 56.5 130.5t133.5 51.5zM266 419q36 0 62.5 25.5t26.5 62.5q0 33 -22 55.5t-55 22.5q-34 0 -60 -25.5t-26 -62.5q0 -33 22 -55.5t52 -22.5z" />
    <glyph glyph-name="guillemotright" unicode="&#xbb;" horiz-adv-x="472" 
d="M270 262l-153 -178h-130l162 184l-71 172h121zM450 262l-153 -178h-130l162 184l-71 172h121z" />
    <glyph glyph-name="onequarter" unicode="&#xbc;" horiz-adv-x="759" 
d="M754 670l-645 -670h-87l645 670h87zM167 550l-93 -43l22 98l132 65h63l-87 -380h-96zM673 148h55l-17 -78h-55l-16 -70h-90l16 70h-208l19 86l237 224h112zM584 148l32 135l-146 -135h114z" />
    <glyph glyph-name="onehalf" unicode="&#xbd;" horiz-adv-x="814" 
d="M754 670l-645 -670h-87l645 670h87zM167 550l-93 -43l22 98l132 65h63l-87 -380h-96zM612 84h131l-17 -84h-288l16 64l160 118q38 29 55.5 48t17.5 40q0 19 -12 30t-32 11q-27 0 -44 -19t-21 -52l-85 14q4 62 48.5 99t108.5 37q59 0 91.5 -32.5t32.5 -83.5
q0 -43 -24.5 -73.5t-85.5 -77.5z" />
    <glyph glyph-name="threequarters" unicode="&#xbe;" horiz-adv-x="861" 
d="M364 411q-2 -58 -47.5 -94t-115.5 -36q-63 0 -102 35t-38 92l82 19q1 -31 19.5 -50t47.5 -19t47.5 14t18.5 37q0 43 -51 43h-45l18 69h49q26 0 43 12.5t18 33.5t-12 33t-39 12t-45.5 -20t-25.5 -52l-79 18q8 56 51.5 92.5t106.5 36.5q60 0 96.5 -31t34.5 -79
q-1 -67 -68 -94q38 -23 36 -72zM846 670l-645 -670h-87l645 670h87zM775 148h55l-17 -78h-55l-16 -70h-90l16 70h-208l19 86l237 224h112zM686 148l32 135l-146 -135h114z" />
    <glyph glyph-name="questiondown" unicode="&#xbf;" horiz-adv-x="535" 
d="M312 359q-34 0 -56.5 23t-22.5 54q0 32 22.5 54t56.5 22t56.5 -22t22.5 -54q0 -31 -22.5 -54t-56.5 -23zM338 55l123 -25q-15 -87 -89 -147t-179 -60q-97 0 -159 52t-62 137q0 90 68.5 149t170.5 68l13 54h121l-36 -156h-76q-46 0 -89.5 -28t-43.5 -75q0 -39 28 -61.5
t72 -22.5q52 0 88.5 32t49.5 83z" />
    <glyph glyph-name="Agrave" unicode="&#xc0;" horiz-adv-x="717" 
d="M422 738l-143 144h163l100 -144h-120zM659 0h-139l-25 143h-296l-92 -143h-155l445 670h127zM473 266l-42 239l-153 -239h195z" />
    <glyph glyph-name="Aacute" unicode="&#xc1;" horiz-adv-x="717" 
d="M540 738h-120l100 144h163zM524 670l135 -670h-139l-25 143h-296l-92 -143h-155l445 670h127zM473 266l-42 239l-153 -239h195z" />
    <glyph glyph-name="Acircumflex" unicode="&#xc2;" horiz-adv-x="717" 
d="M462 729h-138l149 149h125l79 -149h-124l-31 62zM524 670l135 -670h-139l-25 143h-296l-92 -143h-155l445 670h127zM473 266l-42 239l-153 -239h195z" />
    <glyph glyph-name="Atilde" unicode="&#xc3;" horiz-adv-x="717" 
d="M439 792q-13 0 -23 -10.5t-13 -25.5h-87q16 71 55 101t82 30q36 0 65 -19.5t48 -19.5q13 0 23 11t14 28h87q-17 -72 -56 -102.5t-82 -30.5q-37 0 -65.5 19t-47.5 19zM524 670l135 -670h-139l-25 143h-296l-92 -143h-155l445 670h127zM473 266l-42 239l-153 -239h195z" />
    <glyph glyph-name="Adieresis" unicode="&#xc4;" horiz-adv-x="717" 
d="M385 733q-34 0 -56.5 22t-22.5 56q0 32 22.5 55t56.5 23t57 -23.5t23 -54.5q0 -34 -22.5 -56t-57.5 -22zM601 733q-34 0 -56.5 22t-22.5 56q0 32 22.5 55t56.5 23t57 -23.5t23 -54.5q0 -34 -22.5 -56t-57.5 -22zM524 670l135 -670h-139l-25 143h-296l-92 -143h-155
l445 670h127zM473 266l-42 239l-153 -239h195z" />
    <glyph glyph-name="Aring" unicode="&#xc5;" horiz-adv-x="717" 
d="M486 715q-48 0 -79 31t-31 76q0 51 37.5 87t90.5 36q48 0 79 -31t31 -76q0 -51 -37.5 -87t-90.5 -36zM498 870q-18 0 -30 -12.5t-12 -30.5q0 -16 9.5 -26.5t26.5 -10.5q18 0 31.5 13t13.5 31q0 15 -11 25.5t-28 10.5zM659 0h-139l-25 143h-296l-92 -143h-155l445 670h127
zM473 266l-42 239l-153 -239h195z" />
    <glyph glyph-name="AE" unicode="&#xc6;" horiz-adv-x="1151" 
d="M791 547l-35 -151h342l-28 -121h-342l-35 -152h373l-28 -123h-509l28 123h-297l-127 -123h-181l714 670h524l-28 -123h-371zM643 494l-256 -248h199z" />
    <glyph glyph-name="Ccedilla" unicode="&#xc7;" horiz-adv-x="766" 
d="M380 111q73 0 128.5 37.5t78.5 97.5l125 -39q-35 -99 -116.5 -158.5t-202.5 -63.5l-81 -145h-150l135 153q-110 22 -174.5 103t-64.5 197q0 161 116 276.5t286 115.5q125 0 207 -65t91 -173l-140 -27q-9 64 -49 101.5t-111 37.5q-105 0 -183.5 -75t-78.5 -182
q0 -83 50 -137t134 -54z" />
    <glyph glyph-name="Egrave" unicode="&#xc8;" horiz-adv-x="635" 
d="M398 738l-143 144h163l100 -144h-120zM275 547l-35 -151h342l-28 -121h-342l-35 -152h373l-28 -123h-509l154 670h507l-28 -123h-371z" />
    <glyph glyph-name="Eacute" unicode="&#xc9;" horiz-adv-x="635" 
d="M516 738h-120l100 144h163zM275 547l-35 -151h342l-28 -121h-342l-35 -152h373l-28 -123h-509l154 670h507l-28 -123h-371z" />
    <glyph glyph-name="Ecircumflex" unicode="&#xca;" horiz-adv-x="635" 
d="M438 729h-138l149 149h125l79 -149h-124l-31 62zM275 547l-35 -151h342l-28 -121h-342l-35 -152h373l-28 -123h-509l154 670h507l-28 -123h-371z" />
    <glyph glyph-name="Edieresis" unicode="&#xcb;" horiz-adv-x="635" 
d="M361 733q-34 0 -56.5 22t-22.5 56q0 32 22.5 55t56.5 23t57 -23.5t23 -54.5q0 -34 -22.5 -56t-57.5 -22zM577 733q-34 0 -56.5 22t-22.5 56q0 32 22.5 55t56.5 23t57 -23.5t23 -54.5q0 -34 -22.5 -56t-57.5 -22zM275 547l-35 -151h342l-28 -121h-342l-35 -152h373
l-28 -123h-509l154 670h507l-28 -123h-371z" />
    <glyph glyph-name="Igrave" unicode="&#xcc;" horiz-adv-x="456" 
d="M286 738l-143 144h163l100 -144h-120zM365 547l-98 -424h140l-28 -123h-416l28 123h140l98 424h-140l28 123h416l-28 -123h-140z" />
    <glyph glyph-name="Iacute" unicode="&#xcd;" horiz-adv-x="456" 
d="M404 738h-120l100 144h163zM533 670l-28 -123h-140l-98 -424h140l-28 -123h-416l28 123h140l98 424h-140l28 123h416z" />
    <glyph glyph-name="Icircumflex" unicode="&#xce;" horiz-adv-x="456" 
d="M326 729h-138l149 149h125l79 -149h-124l-31 62zM533 670l-28 -123h-140l-98 -424h140l-28 -123h-416l28 123h140l98 424h-140l28 123h416z" />
    <glyph glyph-name="Idieresis" unicode="&#xcf;" horiz-adv-x="456" 
d="M249 733q-34 0 -56.5 22t-22.5 56q0 32 22.5 55t56.5 23t57 -23.5t23 -54.5q0 -34 -22.5 -56t-57.5 -22zM465 733q-34 0 -56.5 22t-22.5 56q0 32 22.5 55t56.5 23t57 -23.5t23 -54.5q0 -34 -22.5 -56t-57.5 -22zM533 670l-28 -123h-140l-98 -424h140l-28 -123h-416
l28 123h140l98 424h-140l28 123h416z" />
    <glyph glyph-name="Eth" unicode="&#xd0;" horiz-adv-x="777" 
d="M212 670h247q140 0 220.5 -76t80.5 -203q0 -166 -128.5 -278.5t-315.5 -112.5h-259l64 275h-93l28 123h93zM221 123h79q128 0 223.5 74.5t95.5 191.5q0 77 -45.5 117.5t-130.5 40.5h-124l-34 -149h119l-28 -123h-120z" />
    <glyph glyph-name="Ntilde" unicode="&#xd1;" horiz-adv-x="762" 
d="M461 792q-13 0 -23 -10.5t-13 -25.5h-87q16 71 55 101t82 30q36 0 65 -19.5t48 -19.5q13 0 23 11t14 28h87q-17 -72 -56 -102.5t-82 -30.5q-37 0 -65.5 19t-47.5 19zM786 670l-154 -670h-114l-264 444l-103 -444h-136l154 670h114l262 -453l105 453h136z" />
    <glyph glyph-name="Ograve" unicode="&#xd2;" horiz-adv-x="788" 
d="M462 882l100 -144h-120l-143 144h163zM453 687q154 0 243.5 -103.5t68.5 -249.5q-22 -159 -130.5 -254.5t-260.5 -95.5q-154 -1 -243 100.5t-69 250.5q21 147 135.5 249.5t255.5 102.5zM376 112q98 0 168 62t84 160q13 95 -39 159.5t-138 64.5q-97 0 -168 -63.5
t-85 -160.5q-13 -95 40.5 -158.5t137.5 -63.5z" />
    <glyph glyph-name="Oacute" unicode="&#xd3;" horiz-adv-x="788" 
d="M560 738h-120l100 144h163zM453 687q154 0 243.5 -103.5t68.5 -249.5q-22 -159 -130.5 -254.5t-260.5 -95.5q-154 -1 -243 100.5t-69 250.5q21 147 135.5 249.5t255.5 102.5zM376 112q98 0 168 62t84 160q13 95 -39 159.5t-138 64.5q-97 0 -168 -63.5t-85 -160.5
q-13 -95 40.5 -158.5t137.5 -63.5z" />
    <glyph glyph-name="Ocircumflex" unicode="&#xd4;" horiz-adv-x="788" 
d="M482 729h-138l149 149h125l79 -149h-124l-31 62zM453 687q154 0 243.5 -103.5t68.5 -249.5q-22 -159 -130.5 -254.5t-260.5 -95.5q-154 -1 -243 100.5t-69 250.5q21 147 135.5 249.5t255.5 102.5zM628 334q13 95 -39 159.5t-138 64.5q-97 0 -168 -63.5t-85 -160.5
q-13 -95 40.5 -158.5t137.5 -63.5q98 0 168 62t84 160z" />
    <glyph glyph-name="Otilde" unicode="&#xd5;" horiz-adv-x="788" 
d="M423 756h-87q16 71 55 101t82 30q36 0 65 -19.5t48 -19.5q13 0 23 11t14 28h87q-17 -72 -56 -102.5t-82 -30.5q-37 0 -65.5 19t-47.5 19q-13 0 -23 -10.5t-13 -25.5zM453 687q154 0 243.5 -103.5t68.5 -249.5q-22 -159 -130.5 -254.5t-260.5 -95.5q-154 -1 -243 100.5
t-69 250.5q21 147 135.5 249.5t255.5 102.5zM376 112q98 0 168 62t84 160q13 95 -39 159.5t-138 64.5q-97 0 -168 -63.5t-85 -160.5q-13 -95 40.5 -158.5t137.5 -63.5z" />
    <glyph glyph-name="Odieresis" unicode="&#xd6;" horiz-adv-x="788" 
d="M405 889q34 0 57 -23.5t23 -54.5q0 -34 -22.5 -56t-57.5 -22q-34 0 -56.5 22t-22.5 56q0 32 22.5 55t56.5 23zM621 889q34 0 57 -23.5t23 -54.5q0 -34 -22.5 -56t-57.5 -22q-34 0 -56.5 22t-22.5 56q0 32 22.5 55t56.5 23zM453 687q154 0 243.5 -103.5t68.5 -249.5
q-22 -159 -130.5 -254.5t-260.5 -95.5q-154 -1 -243 100.5t-69 250.5q21 147 135.5 249.5t255.5 102.5zM376 112q98 0 168 62t84 160q13 95 -39 159.5t-138 64.5q-97 0 -168 -63.5t-85 -160.5q-13 -95 40.5 -158.5t137.5 -63.5z" />
    <glyph glyph-name="multiply" unicode="&#xd7;" horiz-adv-x="562" 
d="M372 301l106 -134l-90 -74l-107 135l-173 -139l-64 85l171 137l-104 132l91 74l105 -133l174 140l64 -85z" />
    <glyph glyph-name="Oslash" unicode="&#xd8;" horiz-adv-x="788" 
d="M816 594l-82 -66q46 -89 31 -194q-22 -159 -130.5 -254.5t-260.5 -95.5q-131 0 -217 75l-100 -81l-70 88l102 83q-40 83 -27 186q21 147 135.5 249.5t255.5 102.5q125 0 211 -72l82 67zM198 334q-7 -50 5 -92l351 284q-44 32 -103 32q-97 0 -168 -63.5t-85 -160.5z
M628 334q7 54 -7 101l-354 -287q47 -36 109 -36q98 0 168 62t84 160z" />
    <glyph glyph-name="Ugrave" unicode="&#xd9;" horiz-adv-x="711" 
d="M409 738l-143 144h163l100 -144h-120zM744 670l-85 -370q-34 -147 -122 -231t-228 -84q-122 0 -193 89t-40 226l85 370h136l-85 -370q-19 -84 12.5 -134.5t103.5 -50.5q68 0 122 50.5t73 134.5l85 370h136z" />
    <glyph glyph-name="Uacute" unicode="&#xda;" horiz-adv-x="711" 
d="M527 738h-120l100 144h163zM744 670l-85 -370q-34 -147 -122 -231t-228 -84q-122 0 -193 89t-40 226l85 370h136l-85 -370q-19 -84 12.5 -134.5t103.5 -50.5q68 0 122 50.5t73 134.5l85 370h136z" />
    <glyph glyph-name="Ucircumflex" unicode="&#xdb;" horiz-adv-x="711" 
d="M449 729h-138l149 149h125l79 -149h-124l-31 62zM744 670l-85 -370q-34 -147 -122 -231t-228 -84q-122 0 -193 89t-40 226l85 370h136l-85 -370q-19 -84 12.5 -134.5t103.5 -50.5q68 0 122 50.5t73 134.5l85 370h136z" />
    <glyph glyph-name="Udieresis" unicode="&#xdc;" horiz-adv-x="711" 
d="M372 733q-34 0 -56.5 22t-22.5 56q0 32 22.5 55t56.5 23t57 -23.5t23 -54.5q0 -34 -22.5 -56t-57.5 -22zM588 733q-34 0 -56.5 22t-22.5 56q0 32 22.5 55t56.5 23t57 -23.5t23 -54.5q0 -34 -22.5 -56t-57.5 -22zM744 670l-85 -370q-34 -147 -122 -231t-228 -84
q-122 0 -193 89t-40 226l85 370h136l-85 -370q-19 -84 12.5 -134.5t103.5 -50.5q68 0 122 50.5t73 134.5l85 370h136z" />
    <glyph glyph-name="Yacute" unicode="&#xdd;" horiz-adv-x="691" 
d="M492 738h-120l100 144h163zM402 214l-49 -214h-136l49 212l-159 458h141l110 -316l255 316h165z" />
    <glyph glyph-name="Thorn" unicode="&#xde;" horiz-adv-x="654" 
d="M278 561h134q101 0 163 -51t62 -135q0 -115 -78 -190.5t-191 -75.5h-194l-25 -109h-136l154 670h136zM202 232h157q60 0 99.5 36t39.5 88q0 38 -24 60t-67 22h-158z" />
    <glyph glyph-name="germandbls" unicode="&#xdf;" horiz-adv-x="662" 
d="M523 376q99 -40 99 -150q0 -96 -69.5 -164t-197.5 -68q-60 0 -128 13l32 109q67 -12 99 -12q64 0 106 34.5t42 83.5q0 43 -35.5 70t-91.5 27h-47l25 108h19q56 0 96.5 29.5t40.5 76.5q0 40 -26.5 64.5t-71.5 24.5q-60 0 -101 -37.5t-57 -105.5l-110 -479h-132l108 479
q26 117 103.5 187.5t206.5 70.5q95 0 151.5 -51.5t56.5 -128.5q0 -58 -32 -106.5t-86 -74.5z" />
    <glyph glyph-name="agrave" unicode="&#xe0;" horiz-adv-x="558" 
d="M322 567l-143 144h163l100 -144h-120zM330 514q108 0 160 -56t29 -159l-69 -299h-126l9 40q-72 -55 -166 -55q-76 0 -119 36t-43 100q0 79 66 131t183 52h140l3 12q9 39 -11.5 63t-67.5 24q-41 0 -74.5 -19.5t-50.5 -56.5l-118 31q30 70 100.5 113t154.5 43zM368 192
l3 12h-147q-43 0 -66 -16.5t-23 -45.5q0 -24 20.5 -38t55.5 -14q54 0 101 30.5t56 71.5z" />
    <glyph glyph-name="aacute" unicode="&#xe1;" horiz-adv-x="558" 
d="M440 567h-120l100 144h163zM330 514q108 0 160 -56t29 -159l-69 -299h-126l9 40q-72 -55 -166 -55q-76 0 -119 36t-43 100q0 79 66 131t183 52h140l3 12q9 39 -11.5 63t-67.5 24q-41 0 -74.5 -19.5t-50.5 -56.5l-118 31q30 70 100.5 113t154.5 43zM368 192l3 12h-147
q-43 0 -66 -16.5t-23 -45.5q0 -24 20.5 -38t55.5 -14q54 0 101 30.5t56 71.5z" />
    <glyph glyph-name="acircumflex" unicode="&#xe2;" horiz-adv-x="558" 
d="M362 558h-138l149 149h125l79 -149h-124l-31 62zM330 514q108 0 160 -56t29 -159l-69 -299h-126l9 40q-72 -55 -166 -55q-76 0 -119 36t-43 100q0 79 66 131t183 52h140l3 12q9 39 -11.5 63t-67.5 24q-41 0 -74.5 -19.5t-50.5 -56.5l-118 31q30 70 100.5 113t154.5 43z
M368 192l3 12h-147q-43 0 -66 -16.5t-23 -45.5q0 -24 20.5 -38t55.5 -14q54 0 101 30.5t56 71.5z" />
    <glyph glyph-name="atilde" unicode="&#xe3;" horiz-adv-x="558" 
d="M503 716h87q-17 -72 -56 -102.5t-82 -30.5q-37 0 -65.5 19t-47.5 19q-13 0 -23 -10.5t-13 -25.5h-87q16 71 55 101t82 30q36 0 65 -19.5t48 -19.5q13 0 23 11t14 28zM330 514q108 0 160 -56t29 -159l-69 -299h-126l9 40q-72 -55 -166 -55q-76 0 -119 36t-43 100
q0 79 66 131t183 52h140l3 12q9 39 -11.5 63t-67.5 24q-41 0 -74.5 -19.5t-50.5 -56.5l-118 31q30 70 100.5 113t154.5 43zM368 192l3 12h-147q-43 0 -66 -16.5t-23 -45.5q0 -24 20.5 -38t55.5 -14q54 0 101 30.5t56 71.5z" />
    <glyph glyph-name="adieresis" unicode="&#xe4;" horiz-adv-x="558" 
d="M285 562q-34 0 -56.5 22t-22.5 56q0 32 22.5 55t56.5 23t57 -23.5t23 -54.5q0 -34 -22.5 -56t-57.5 -22zM501 718q34 0 57 -23.5t23 -54.5q0 -34 -22.5 -56t-57.5 -22q-34 0 -56.5 22t-22.5 56q0 32 22.5 55t56.5 23zM330 514q108 0 160 -56t29 -159l-69 -299h-126l9 40
q-72 -55 -166 -55q-76 0 -119 36t-43 100q0 79 66 131t183 52h140l3 12q9 39 -11.5 63t-67.5 24q-41 0 -74.5 -19.5t-50.5 -56.5l-118 31q30 70 100.5 113t154.5 43zM368 192l3 12h-147q-43 0 -66 -16.5t-23 -45.5q0 -24 20.5 -38t55.5 -14q54 0 101 30.5t56 71.5z" />
    <glyph glyph-name="aring" unicode="&#xe5;" horiz-adv-x="558" 
d="M386 544q-48 0 -79 31t-31 76q0 51 37.5 87t90.5 36q48 0 79 -31t31 -76q0 -51 -37.5 -87t-90.5 -36zM398 699q-18 0 -30 -12.5t-12 -30.5q0 -16 9.5 -26.5t26.5 -10.5q18 0 31.5 13.5t13.5 30.5q0 15 -11 25.5t-28 10.5zM330 514q108 0 160 -56t29 -159l-69 -299h-126
l9 40q-72 -55 -166 -55q-76 0 -119 36t-43 100q0 79 66 131t183 52h140l3 12q9 39 -11.5 63t-67.5 24q-41 0 -74.5 -19.5t-50.5 -56.5l-118 31q30 70 100.5 113t154.5 43zM368 192l3 12h-147q-43 0 -66 -16.5t-23 -45.5q0 -24 20.5 -38t55.5 -14q54 0 101 30.5t56 71.5z" />
    <glyph glyph-name="ae" unicode="&#xe6;" horiz-adv-x="898" 
d="M653 514q105 0 167.5 -74t44.5 -191l-7 -45h-378q5 -51 33.5 -78.5t79.5 -27.5q80 0 126 65l114 -25q-32 -69 -101.5 -111t-155.5 -42q-112 0 -168 82q-42 -36 -101.5 -59t-123.5 -23q-84 0 -131 39t-47 105q0 74 57.5 121t153.5 47h157l3 19q7 40 -16 64t-66 24
q-39 0 -68 -20t-40 -56l-117 25q21 71 87.5 116t157.5 45q109 0 160 -62q83 62 179 62zM493 297h246q-2 53 -30 79.5t-70 26.5q-45 0 -86.5 -28t-59.5 -78zM359 204h-147q-41 0 -63.5 -17t-22.5 -43q0 -25 20 -39.5t53 -14.5q52 0 101.5 31t56.5 71z" />
    <glyph glyph-name="ccedilla" unicode="&#xe7;" horiz-adv-x="568" 
d="M268 106q93 0 134 87l126 -21q-31 -76 -93.5 -125t-139.5 -60l-82 -147h-150l133 151q-92 18 -140.5 88t-32.5 170q18 116 107.5 190.5t201.5 74.5q88 0 149 -50.5t72 -133.5l-136 -25q-3 43 -31 65.5t-73 22.5q-62 0 -106.5 -40t-55.5 -104q-10 -64 22.5 -103.5
t94.5 -39.5z" />
    <glyph glyph-name="egrave" unicode="&#xe8;" horiz-adv-x="575" 
d="M293 567l-143 144h163l100 -144h-120zM325 514q111 0 173.5 -82.5t39.5 -217.5h-388q2 -116 118 -116q81 0 127 71l118 -30q-36 -76 -103.5 -115t-149.5 -39q-106 0 -168.5 62.5t-62.5 165.5q0 128 89.5 214.5t206.5 86.5zM169 307h257q-13 97 -111 97q-50 0 -88 -26.5
t-58 -70.5z" />
    <glyph glyph-name="eacute" unicode="&#xe9;" horiz-adv-x="575" 
d="M411 567h-120l100 144h163zM325 514q111 0 173.5 -82.5t39.5 -217.5h-388q2 -116 118 -116q81 0 127 71l118 -30q-36 -76 -103.5 -115t-149.5 -39q-106 0 -168.5 62.5t-62.5 165.5q0 128 89.5 214.5t206.5 86.5zM169 307h257q-13 97 -111 97q-50 0 -88 -26.5t-58 -70.5z
" />
    <glyph glyph-name="ecircumflex" unicode="&#xea;" horiz-adv-x="575" 
d="M333 558h-138l149 149h125l79 -149h-124l-31 62zM325 514q111 0 173.5 -82.5t39.5 -217.5h-388q2 -116 118 -116q81 0 127 71l118 -30q-36 -76 -103.5 -115t-149.5 -39q-106 0 -168.5 62.5t-62.5 165.5q0 128 89.5 214.5t206.5 86.5zM169 307h257q-13 97 -111 97
q-50 0 -88 -26.5t-58 -70.5z" />
    <glyph glyph-name="edieresis" unicode="&#xeb;" horiz-adv-x="575" 
d="M256 562q-34 0 -56.5 22t-22.5 56q0 32 22.5 55t56.5 23t57 -23.5t23 -54.5q0 -34 -22.5 -56t-57.5 -22zM472 562q-34 0 -56.5 22t-22.5 56q0 32 22.5 55t56.5 23t57 -23.5t23 -54.5q0 -34 -22.5 -56t-57.5 -22zM325 514q111 0 173.5 -82.5t39.5 -217.5h-388
q2 -116 118 -116q81 0 127 71l118 -30q-36 -76 -103.5 -115t-149.5 -39q-106 0 -168.5 62.5t-62.5 165.5q0 128 89.5 214.5t206.5 86.5zM169 307h257q-13 97 -111 97q-50 0 -88 -26.5t-58 -70.5z" />
    <glyph glyph-name="igrave" unicode="&#xec;" horiz-adv-x="296" 
d="M187 711l100 -144h-120l-143 144h163zM156 0h-132l116 499h132z" />
    <glyph glyph-name="iacute" unicode="&#xed;" horiz-adv-x="296" 
d="M285 567h-120l100 144h163zM156 0h-132l116 499h132z" />
    <glyph glyph-name="icircumflex" unicode="&#xee;" horiz-adv-x="296" 
d="M422 558h-124l-31 62l-60 -62h-138l149 149h125zM140 499h132l-116 -499h-132z" />
    <glyph glyph-name="idieresis" unicode="&#xef;" horiz-adv-x="296" 
d="M130 718q34 0 57 -23.5t23 -54.5q0 -34 -22.5 -56t-57.5 -22q-34 0 -56.5 22t-22.5 56q0 32 22.5 55t56.5 23zM346 718q34 0 57 -23.5t23 -54.5q0 -34 -22.5 -56t-57.5 -22q-34 0 -56.5 22t-22.5 56q0 32 22.5 55t56.5 23zM156 0h-132l116 499h132z" />
    <glyph glyph-name="eth" unicode="&#xf0;" horiz-adv-x="609" 
d="M531 639l-67 -25q118 -150 118 -316q0 -76 -27 -137.5t-71 -99t-97.5 -57t-110.5 -19.5q-105 0 -176 62.5t-71 170.5q0 123 87.5 209.5t201.5 86.5q38 0 71 -12q-21 36 -48 66l-146 -55l-23 91l84 32q-50 31 -118 57l4 27h207q22 -13 44 -33l116 44zM285 105
q71 0 117 52.5t46 116.5q0 54 -34 89t-90 35q-66 0 -115.5 -49t-49.5 -119q0 -58 35.5 -91.5t90.5 -33.5z" />
    <glyph glyph-name="ntilde" unicode="&#xf1;" horiz-adv-x="618" 
d="M349 621q-13 0 -23 -10.5t-13 -25.5h-87q16 71 55 101t82 30q36 0 65 -19.5t48 -19.5q13 0 23 11t14 28h87q-17 -72 -56 -102.5t-82 -30.5q-37 0 -65.5 19t-47.5 19zM395 514q102 0 147 -69.5t23 -168.5l-64 -276h-132l65 282q12 54 -11.5 85.5t-73.5 31.5
q-113 0 -154 -178l-51 -221h-132l115 499h132l-11 -47q57 62 147 62z" />
    <glyph glyph-name="ograve" unicode="&#xf2;" horiz-adv-x="601" 
d="M313 567l-143 144h163l100 -144h-120zM333 511q113 0 184.5 -74t53.5 -188q-19 -116 -104 -189t-196 -73q-115 0 -187 73.5t-54 188.5q19 116 104.5 189t198.5 73zM278 100q55 0 104.5 41.5t60.5 107.5t-25.5 107.5t-91.5 41.5q-57 0 -107 -41t-61 -108t26 -108t94 -41z
" />
    <glyph glyph-name="oacute" unicode="&#xf3;" horiz-adv-x="601" 
d="M431 567h-120l100 144h163zM333 511q113 0 184.5 -74t53.5 -188q-19 -116 -104 -189t-196 -73q-115 0 -187 73.5t-54 188.5q19 116 104.5 189t198.5 73zM278 100q55 0 104.5 41.5t60.5 107.5t-25.5 107.5t-91.5 41.5q-57 0 -107 -41t-61 -108t26 -108t94 -41z" />
    <glyph glyph-name="ocircumflex" unicode="&#xf4;" horiz-adv-x="601" 
d="M353 558h-138l149 149h125l79 -149h-124l-31 62zM333 511q113 0 184.5 -74t53.5 -188q-19 -116 -104 -189t-196 -73q-115 0 -187 73.5t-54 188.5q19 116 104.5 189t198.5 73zM278 100q55 0 104.5 41.5t60.5 107.5t-25.5 107.5t-91.5 41.5q-57 0 -107 -41t-61 -108
t26 -108t94 -41z" />
    <glyph glyph-name="otilde" unicode="&#xf5;" horiz-adv-x="601" 
d="M330 621q-13 0 -23 -10.5t-13 -25.5h-87q16 71 55 101t82 30q36 0 65 -19.5t48 -19.5q13 0 23 11t14 28h87q-17 -72 -56 -102.5t-82 -30.5q-37 0 -65.5 19t-47.5 19zM333 511q113 0 184.5 -74t53.5 -188q-19 -116 -104 -189t-196 -73q-115 0 -187 73.5t-54 188.5
q19 116 104.5 189t198.5 73zM278 100q55 0 104.5 41.5t60.5 107.5t-25.5 107.5t-91.5 41.5q-57 0 -107 -41t-61 -108t26 -108t94 -41z" />
    <glyph glyph-name="odieresis" unicode="&#xf6;" horiz-adv-x="601" 
d="M276 562q-34 0 -56.5 22t-22.5 56q0 32 22.5 55t56.5 23t57 -23.5t23 -54.5q0 -34 -22.5 -56t-57.5 -22zM492 562q-34 0 -56.5 22t-22.5 56q0 32 22.5 55t56.5 23t57 -23.5t23 -54.5q0 -34 -22.5 -56t-57.5 -22zM333 511q113 0 184.5 -74t53.5 -188q-19 -116 -104 -189
t-196 -73q-115 0 -187 73.5t-54 188.5q19 116 104.5 189t198.5 73zM278 100q55 0 104.5 41.5t60.5 107.5t-25.5 107.5t-91.5 41.5q-57 0 -107 -41t-61 -108t26 -108t94 -41z" />
    <glyph glyph-name="divide" unicode="&#xf7;" horiz-adv-x="581" 
d="M331 557q34 0 56.5 -23t22.5 -54q0 -32 -22.5 -54t-56.5 -22t-56.5 22t-22.5 54q0 31 22.5 54t56.5 23zM520 247h-460l27 116h460zM250 207q34 0 56.5 -23t22.5 -54q0 -32 -22.5 -54t-56.5 -22t-56.5 22t-22.5 54q0 31 22.5 54t56.5 23z" />
    <glyph glyph-name="oslash" unicode="&#xf8;" horiz-adv-x="601" 
d="M620 453l-67 -55q37 -66 24 -149q-19 -116 -104 -189t-196 -73q-96 0 -165 53l-70 -57l-49 64l67 54q-37 66 -24 148q19 116 104.5 189t198.5 73q93 0 161 -52l71 58zM164 249q-6 -33 2 -61l233 190q-29 20 -67 20q-57 0 -107 -41t-61 -108zM449 249q6 32 -3 63
l-234 -191q31 -21 72 -21q55 0 104.5 41.5t60.5 107.5z" />
    <glyph glyph-name="ugrave" unicode="&#xf9;" horiz-adv-x="618" 
d="M306 567l-143 144h163l100 -144h-120zM606 499l-115 -499h-132l11 47q-57 -62 -147 -62q-102 0 -147 69.5t-23 168.5l64 276h132l-65 -282q-12 -54 11.5 -85.5t73.5 -31.5q113 0 154 178l51 221h132z" />
    <glyph glyph-name="uacute" unicode="&#xfa;" horiz-adv-x="618" 
d="M424 567h-120l100 144h163zM606 499l-115 -499h-132l11 47q-57 -62 -147 -62q-102 0 -147 69.5t-23 168.5l64 276h132l-65 -282q-12 -54 11.5 -85.5t73.5 -31.5q113 0 154 178l51 221h132z" />
    <glyph glyph-name="ucircumflex" unicode="&#xfb;" horiz-adv-x="618" 
d="M346 558h-138l149 149h125l79 -149h-124l-31 62zM606 499l-115 -499h-132l11 47q-57 -62 -147 -62q-102 0 -147 69.5t-23 168.5l64 276h132l-65 -282q-12 -54 11.5 -85.5t73.5 -31.5q113 0 154 178l51 221h132z" />
    <glyph glyph-name="udieresis" unicode="&#xfc;" horiz-adv-x="618" 
d="M269 562q-34 0 -56.5 22t-22.5 56q0 32 22.5 55t56.5 23t57 -23.5t23 -54.5q0 -34 -22.5 -56t-57.5 -22zM485 562q-34 0 -56.5 22t-22.5 56q0 32 22.5 55t56.5 23t57 -23.5t23 -54.5q0 -34 -22.5 -56t-57.5 -22zM606 499l-115 -499h-132l11 47q-57 -62 -147 -62
q-102 0 -147 69.5t-23 168.5l64 276h132l-65 -282q-12 -54 11.5 -85.5t73.5 -31.5q113 0 154 178l51 221h132z" />
    <glyph glyph-name="yacute" unicode="&#xfd;" horiz-adv-x="576" 
d="M431 567h-120l100 144h163zM623 499l-473 -729h-149l159 243l-92 486h137l59 -328l215 328h144z" />
    <glyph glyph-name="thorn" unicode="&#xfe;" horiz-adv-x="644" 
d="M411 514q98 0 159.5 -75.5t43.5 -189.5q-19 -117 -99.5 -190.5t-187.5 -73.5q-120 0 -167 79l-68 -294h-132l219 950h132l-59 -255q66 49 159 49zM322 100q63 0 108 41t56 108q11 68 -22 109t-94 41q-56 0 -105.5 -42t-60.5 -108t25.5 -107.5t92.5 -41.5z" />
    <glyph glyph-name="ydieresis" unicode="&#xff;" horiz-adv-x="576" 
d="M276 562q-34 0 -56.5 22t-22.5 56q0 32 22.5 55t56.5 23t57 -23.5t23 -54.5q0 -34 -22.5 -56t-57.5 -22zM492 562q-34 0 -56.5 22t-22.5 56q0 32 22.5 55t56.5 23t57 -23.5t23 -54.5q0 -34 -22.5 -56t-57.5 -22zM623 499l-473 -729h-149l159 243l-92 486h137l59 -328
l215 328h144z" />
    <glyph glyph-name="Amacron" unicode="&#x100;" horiz-adv-x="717" 
d="M637 743h-318l24 108h318zM524 670l135 -670h-139l-25 143h-296l-92 -143h-155l445 670h127zM473 266l-42 239l-153 -239h195z" />
    <glyph glyph-name="amacron" unicode="&#x101;" horiz-adv-x="558" 
d="M561 680l-24 -108h-318l24 108h318zM330 514q108 0 160 -56t29 -159l-69 -299h-126l9 40q-72 -55 -166 -55q-76 0 -119 36t-43 100q0 79 66 131t183 52h140l3 12q9 39 -11.5 63t-67.5 24q-41 0 -74.5 -19.5t-50.5 -56.5l-118 31q30 70 100.5 113t154.5 43zM368 192l3 12
h-147q-43 0 -66 -16.5t-23 -45.5q0 -24 20.5 -38t55.5 -14q54 0 101 30.5t56 71.5z" />
    <glyph glyph-name="Abreve" unicode="&#x102;" horiz-adv-x="717" 
d="M472 718q-77 0 -113 40.5t-19 109.5h102q-7 -26 6 -42.5t38 -16.5t45 16.5t27 42.5h116q-17 -69 -71 -109.5t-131 -40.5zM524 670l135 -670h-139l-25 143h-296l-92 -143h-155l445 670h127zM473 266l-42 239l-153 -239h195z" />
    <glyph glyph-name="abreve" unicode="&#x103;" horiz-adv-x="558" 
d="M372 547q-77 0 -113 40.5t-19 109.5h102q-7 -26 6 -42.5t38 -16.5t45 16.5t27 42.5h116q-17 -69 -71 -109.5t-131 -40.5zM330 514q108 0 160 -56t29 -159l-69 -299h-126l9 40q-72 -55 -166 -55q-76 0 -119 36t-43 100q0 79 66 131t183 52h140l3 12q9 39 -11.5 63
t-67.5 24q-41 0 -74.5 -19.5t-50.5 -56.5l-118 31q30 70 100.5 113t154.5 43zM368 192l3 12h-147q-43 0 -66 -16.5t-23 -45.5q0 -24 20.5 -38t55.5 -14q54 0 101 30.5t56 71.5z" />
    <glyph glyph-name="Aogonek" unicode="&#x104;" horiz-adv-x="717" 
d="M572 -100q0 -20 24 -20q14 0 50 11l-21 -82q-32 -19 -73 -19q-38 0 -61 21t-23 55q0 67 101 134h-49l-25 143h-296l-92 -143h-155l445 670h127l135 -670q-9 -8 -20 -18t-17 -15.5t-14 -13t-12 -11.5l-9 -9q-5 -5 -7 -8.5t-4.5 -8t-3 -8.5t-0.5 -8zM473 266l-42 239
l-153 -239h195z" />
    <glyph glyph-name="aogonek" unicode="&#x105;" horiz-adv-x="558" 
d="M330 514q108 0 160 -56t29 -159l-69 -299q-9 -8 -20 -18t-17 -15.5t-14 -13t-12 -11.5l-9 -9q-5 -5 -7 -8.5t-4.5 -8t-3 -8.5t-0.5 -8q0 -20 24 -20q14 0 50 11l-21 -82q-32 -19 -73 -19q-38 0 -61 21t-23 55q0 67 101 134h-36l9 40q-72 -55 -166 -55q-76 0 -119 36
t-43 100q0 79 66 131t183 52h140l3 12q9 39 -11.5 63t-67.5 24q-41 0 -74.5 -19.5t-50.5 -56.5l-118 31q30 70 100.5 113t154.5 43zM368 192l3 12h-147q-43 0 -66 -16.5t-23 -45.5q0 -24 20.5 -38t55.5 -14q54 0 101 30.5t56 71.5z" />
    <glyph glyph-name="Cacute" unicode="&#x106;" horiz-adv-x="766" 
d="M546 738h-120l100 144h163zM460 685q125 0 207 -65t91 -173l-140 -27q-9 64 -49 101.5t-111 37.5q-105 0 -183.5 -75t-78.5 -182q0 -83 50 -137t134 -54q73 0 128.5 37.5t78.5 97.5l125 -39q-36 -102 -122 -162t-214 -60q-144 0 -231 85.5t-87 222.5q0 161 116 276.5
t286 115.5z" />
    <glyph glyph-name="cacute" unicode="&#x107;" horiz-adv-x="568" 
d="M409 567h-120l100 144h163zM268 106q93 0 134 87l126 -21q-35 -86 -108 -136.5t-162 -50.5q-119 0 -186.5 74t-48.5 190q18 116 107.5 190.5t201.5 74.5q88 0 149 -50.5t72 -133.5l-136 -25q-3 43 -31 65.5t-73 22.5q-62 0 -106.5 -40t-55.5 -104q-10 -64 22.5 -103.5
t94.5 -39.5z" />
    <glyph glyph-name="Cdotaccent" unicode="&#x10a;" horiz-adv-x="766" 
d="M500 894q33 0 55.5 -22t22.5 -53q0 -33 -22 -54.5t-56 -21.5t-55.5 21.5t-21.5 54.5q0 31 22 53t55 22zM460 685q125 0 207 -65t91 -173l-140 -27q-9 64 -49 101.5t-111 37.5q-105 0 -183.5 -75t-78.5 -182q0 -83 50 -137t134 -54q73 0 128.5 37.5t78.5 97.5l125 -39
q-36 -102 -122 -162t-214 -60q-144 0 -231 85.5t-87 222.5q0 161 116 276.5t286 115.5z" />
    <glyph glyph-name="cdotaccent" unicode="&#x10b;" horiz-adv-x="568" 
d="M363 572q-34 0 -55.5 21.5t-21.5 54.5q0 31 22 53t55 22t55.5 -22t22.5 -53q0 -33 -22 -54.5t-56 -21.5zM268 106q93 0 134 87l126 -21q-35 -86 -108 -136.5t-162 -50.5q-119 0 -186.5 74t-48.5 190q18 116 107.5 190.5t201.5 74.5q88 0 149 -50.5t72 -133.5l-136 -25
q-3 43 -31 65.5t-73 22.5q-62 0 -106.5 -40t-55.5 -104q-10 -64 22.5 -103.5t94.5 -39.5z" />
    <glyph glyph-name="Ccaron" unicode="&#x10c;" horiz-adv-x="766" 
d="M419 729l-79 149h124l31 -62l60 62h138l-149 -149h-125zM380 111q73 0 128.5 37.5t78.5 97.5l125 -39q-36 -102 -122 -162t-214 -60q-144 0 -231 85.5t-87 222.5q0 161 116 276.5t286 115.5q125 0 207 -65t91 -173l-140 -27q-9 64 -49 101.5t-111 37.5q-105 0 -183.5 -75
t-78.5 -182q0 -83 50 -137t134 -54z" />
    <glyph glyph-name="ccaron" unicode="&#x10d;" horiz-adv-x="568" 
d="M282 558l-79 149h124l31 -62l60 62h138l-149 -149h-125zM313 393q-62 0 -106.5 -40t-55.5 -104q-10 -64 22.5 -103.5t94.5 -39.5q93 0 134 87l126 -21q-35 -86 -108 -136.5t-162 -50.5q-119 0 -186.5 74t-48.5 190q18 116 107.5 190.5t201.5 74.5q88 0 149 -50.5
t72 -133.5l-136 -25q-3 43 -31 65.5t-73 22.5z" />
    <glyph glyph-name="Dcaron" unicode="&#x10e;" horiz-adv-x="733" 
d="M403 729l-79 149h124l31 -62l60 62h138l-149 -149h-125zM168 670h247q140 0 220.5 -76t80.5 -203q0 -166 -128.5 -278.5t-315.5 -112.5h-259zM177 123h79q128 0 223.5 74.5t95.5 191.5q0 77 -45.5 117.5t-130.5 40.5h-124z" />
    <glyph glyph-name="dcaron" unicode="&#x10f;" horiz-adv-x="642" 
d="M687 770l-178 -770h-132l8 34q-66 -49 -159 -49q-98 0 -159.5 75.5t-43.5 189.5q19 117 99.5 190.5t187.5 73.5q122 0 167 -80l78 336h132zM865 770l-75 -199h-104l46 199h133zM267 100q56 0 105.5 42t60.5 108t-25.5 107.5t-92.5 41.5q-63 0 -108 -41t-56 -108
q-11 -68 22 -109t94 -41z" />
    <glyph glyph-name="Dcroat" unicode="&#x110;" horiz-adv-x="777" 
d="M212 670h247q140 0 220.5 -76t80.5 -203q0 -166 -128.5 -278.5t-315.5 -112.5h-259l64 275h-93l28 123h93zM221 123h79q128 0 223.5 74.5t95.5 191.5q0 77 -45.5 117.5t-130.5 40.5h-124l-34 -149h119l-28 -123h-120z" />
    <glyph glyph-name="dcroat" unicode="&#x111;" horiz-adv-x="698" 
d="M729 564h-83l-130 -564h-132l8 34q-66 -49 -159 -49q-98 0 -159.5 75.5t-43.5 189.5q19 117 99.5 190.5t187.5 73.5q122 0 167 -80l30 130h-123l25 106h123l23 100h132l-23 -100h83zM274 100q56 0 105.5 42t60.5 108t-25.5 107.5t-92.5 41.5q-63 0 -108 -41t-56 -108
q-11 -68 22 -109t94 -41z" />
    <glyph glyph-name="Emacron" unicode="&#x112;" horiz-adv-x="635" 
d="M613 743h-318l24 108h318zM275 547l-35 -151h342l-28 -121h-342l-35 -152h373l-28 -123h-509l154 670h507l-28 -123h-371z" />
    <glyph glyph-name="emacron" unicode="&#x113;" horiz-adv-x="575" 
d="M508 572h-318l24 108h318zM325 514q111 0 173.5 -82.5t39.5 -217.5h-388q2 -116 118 -116q81 0 127 71l118 -30q-36 -76 -103.5 -115t-149.5 -39q-106 0 -168.5 62.5t-62.5 165.5q0 128 89.5 214.5t206.5 86.5zM169 307h257q-13 97 -111 97q-50 0 -88 -26.5t-58 -70.5z
" />
    <glyph glyph-name="Edotaccent" unicode="&#x116;" horiz-adv-x="635" 
d="M470 743q-34 0 -55.5 21.5t-21.5 54.5q0 31 22 53t55 22t55.5 -22t22.5 -53q0 -33 -22 -54.5t-56 -21.5zM275 547l-35 -151h342l-28 -121h-342l-35 -152h373l-28 -123h-509l154 670h507l-28 -123h-371z" />
    <glyph glyph-name="edotaccent" unicode="&#x117;" horiz-adv-x="575" 
d="M365 572q-34 0 -55.5 21.5t-21.5 54.5q0 31 22 53t55 22t55.5 -22t22.5 -53q0 -33 -22 -54.5t-56 -21.5zM325 514q111 0 173.5 -82.5t39.5 -217.5h-388q2 -116 118 -116q81 0 127 71l118 -30q-36 -76 -103.5 -115t-149.5 -39q-106 0 -168.5 62.5t-62.5 165.5
q0 128 89.5 214.5t206.5 86.5zM169 307h257q-13 97 -111 97q-50 0 -88 -26.5t-58 -70.5z" />
    <glyph glyph-name="Eogonek" unicode="&#x118;" horiz-adv-x="635" 
d="M275 547l-35 -151h342l-28 -121h-342l-35 -152h373l-28 -123h-41q-9 -8 -20 -18t-17 -15.5t-14 -13t-12 -11.5l-9 -9q-5 -5 -7 -8.5t-4.5 -8t-3 -8.5t-0.5 -8q0 -20 24 -20q14 0 50 11l-21 -82q-32 -19 -73 -19q-38 0 -61 21t-23 55q0 67 101 134h-378l154 670h507
l-28 -123h-371z" />
    <glyph glyph-name="eogonek" unicode="&#x119;" horiz-adv-x="573" 
d="M325 514q115 0 178.5 -85.5t32.5 -214.5h-386q2 -116 118 -116q81 0 127 71l118 -30q-24 -49 -65 -87q-82 -74 -105.5 -103t-23.5 -49t24 -20q14 0 50 11l-21 -82q-32 -19 -73 -19q-38 0 -61 21t-23 55q0 62 82 121q-24 -2 -37 -2q-106 0 -168.5 62.5t-62.5 165.5
q0 128 89.5 214.5t206.5 86.5zM315 404q-50 0 -88 -26.5t-58 -70.5h257q-13 97 -111 97z" />
    <glyph glyph-name="Ecaron" unicode="&#x11a;" horiz-adv-x="635" 
d="M389 729l-79 149h124l31 -62l60 62h138l-149 -149h-125zM275 547l-35 -151h342l-28 -121h-342l-35 -152h373l-28 -123h-509l154 670h507l-28 -123h-371z" />
    <glyph glyph-name="ecaron" unicode="&#x11b;" horiz-adv-x="575" 
d="M284 558l-79 149h124l31 -62l60 62h138l-149 -149h-125zM325 514q111 0 173.5 -82.5t39.5 -217.5h-388q2 -116 118 -116q81 0 127 71l118 -30q-36 -76 -103.5 -115t-149.5 -39q-106 0 -168.5 62.5t-62.5 165.5q0 128 89.5 214.5t206.5 86.5zM169 307h257q-13 97 -111 97
q-50 0 -88 -26.5t-58 -70.5z" />
    <glyph glyph-name="Gbreve" unicode="&#x11e;" horiz-adv-x="780" 
d="M486 718q-77 0 -113 40.5t-19 109.5h102q-7 -26 6 -42.5t38 -16.5t45 16.5t27 42.5h116q-17 -69 -71 -109.5t-131 -40.5zM407 391h357q-2 -38 -6 -58q-30 -163 -134 -255.5t-257 -92.5q-140 0 -224.5 83.5t-84.5 220.5q0 163 121 279.5t294 116.5q105 0 187 -53t100 -149
l-136 -29q-34 103 -160 103q-110 0 -188.5 -74t-78.5 -181q0 -84 51 -137t134 -53q75 0 134 43t83 112h-221z" />
    <glyph glyph-name="gbreve" unicode="&#x11f;" horiz-adv-x="640" 
d="M385 547q-77 0 -113 40.5t-19 109.5h102q-7 -26 6 -42.5t38 -16.5t45 16.5t27 42.5h116q-17 -69 -71 -109.5t-131 -40.5zM627 499l-118 -512q-25 -112 -112 -175t-202 -63q-175 0 -233 149l123 56q34 -76 118 -76q63 0 116 33.5t67 95.5l6 28q-66 -50 -159 -50
q-98 0 -159.5 75.5t-43.5 189.5q19 117 99.5 190.5t187.5 73.5q120 0 168 -81l15 66h127zM274 100q56 0 105.5 42t60.5 108t-25.5 107.5t-92.5 41.5q-63 0 -108 -41t-56 -108q-11 -68 22 -109t94 -41z" />
    <glyph glyph-name="Gdotaccent" unicode="&#x120;" horiz-adv-x="780" 
d="M508 894q33 0 55.5 -22t22.5 -53q0 -33 -22 -54.5t-56 -21.5t-55.5 21.5t-21.5 54.5q0 31 22 53t55 22zM407 391h357q-2 -38 -6 -58q-30 -163 -134 -255.5t-257 -92.5q-140 0 -224.5 83.5t-84.5 220.5q0 163 121 279.5t294 116.5q105 0 187 -53t100 -149l-136 -29
q-34 103 -160 103q-110 0 -188.5 -74t-78.5 -181q0 -84 51 -137t134 -53q75 0 134 43t83 112h-221z" />
    <glyph glyph-name="gdotaccent" unicode="&#x121;" horiz-adv-x="640" 
d="M407 572q-34 0 -55.5 21.5t-21.5 54.5q0 31 22 53t55 22t55.5 -22t22.5 -53q0 -33 -22 -54.5t-56 -21.5zM627 499l-118 -512q-25 -112 -112 -175t-202 -63q-175 0 -233 149l123 56q34 -76 118 -76q63 0 116 33.5t67 95.5l6 28q-66 -50 -159 -50q-98 0 -159.5 75.5
t-43.5 189.5q19 117 99.5 190.5t187.5 73.5q120 0 168 -81l15 66h127zM274 100q56 0 105.5 42t60.5 108t-25.5 107.5t-92.5 41.5q-63 0 -108 -41t-56 -108q-11 -68 22 -109t94 -41z" />
    <glyph glyph-name="Gcommaaccent" unicode="&#x122;" horiz-adv-x="780" 
d="M407 391h357q-2 -38 -6 -58q-30 -163 -134 -255.5t-257 -92.5q-140 0 -224.5 83.5t-84.5 220.5q0 163 121 279.5t294 116.5q105 0 187 -53t100 -149l-136 -29q-34 103 -160 103q-110 0 -188.5 -74t-78.5 -181q0 -84 51 -137t134 -53q75 0 134 43t83 112h-221zM191 -195
l87 150h143l-131 -150h-99z" />
    <glyph glyph-name="gcommaaccent" unicode="&#x123;" horiz-adv-x="639" 
d="M444 564h-143l131 150h99zM625 499l-118 -512q-25 -112 -112 -175t-202 -63q-175 0 -233 149l123 56q34 -76 118 -76q63 0 116 33.5t67 95.5l6 28q-66 -50 -159 -50q-98 0 -159.5 75.5t-43.5 189.5q19 117 99.5 190.5t187.5 73.5q120 0 168 -81l15 66h127zM272 100
q56 0 105.5 42t60.5 108t-25.5 107.5t-92.5 41.5q-63 0 -108 -41t-56 -108q-11 -68 22 -109t94 -41z" />
    <glyph glyph-name="Hbar" unicode="&#x126;" horiz-adv-x="791" 
d="M795 445h-62l-102 -445h-136l54 235h-312l-54 -235h-136l102 445h-62l26 113h62l26 112h136l-26 -112h312l26 112h136l-26 -112h62zM597 445h-312l-20 -87h312z" />
    <glyph glyph-name="hbar" unicode="&#x127;" horiz-adv-x="662" 
d="M439 514q102 0 147 -69.5t23 -168.5l-64 -276h-132l65 282q12 54 -11.5 85.5t-73.5 31.5q-109 0 -150 -167l-54 -232h-132l130 562h-73l22 96h73l26 112h132l-26 -112h133l-22 -96h-133l-25 -108q57 60 145 60z" />
    <glyph glyph-name="Imacron" unicode="&#x12a;" horiz-adv-x="456" 
d="M501 743h-318l24 108h318zM365 547l-98 -424h140l-28 -123h-416l28 123h140l98 424h-140l28 123h416l-28 -123h-140z" />
    <glyph glyph-name="imacron" unicode="&#x12b;" horiz-adv-x="296" 
d="M382 572h-318l24 108h318zM156 0h-132l116 499h132z" />
    <glyph glyph-name="Iogonek" unicode="&#x12e;" horiz-adv-x="456" 
d="M365 547l-98 -424h140l-28 -123h-140q-9 -8 -20 -18t-17 -15.5t-14 -13t-12 -11.5l-9 -9q-5 -5 -7 -8.5t-4.5 -8t-3 -8.5t-0.5 -8q0 -20 24 -20q14 0 50 11l-21 -82q-32 -19 -73 -19q-38 0 -61 21t-23 55q0 67 101 134h-186l28 123h140l98 424h-140l28 123h416l-28 -123
h-140z" />
    <glyph glyph-name="iogonek" unicode="&#x12f;" horiz-adv-x="296" 
d="M239 723q33 0 55.5 -22t22.5 -53q0 -33 -22 -54.5t-56 -21.5t-55.5 21.5t-21.5 54.5q0 31 22 53t55 22zM140 499h132l-116 -499q-9 -8 -20 -18t-17 -15.5t-14 -13t-12 -11.5l-9 -9q-5 -5 -7 -8.5t-4.5 -8t-3 -8.5t-0.5 -8q0 -20 24 -20q14 0 50 11l-21 -82
q-32 -19 -73 -19q-38 0 -61 21t-23 55q0 67 101 134h-42z" />
    <glyph glyph-name="Idotaccent" unicode="&#x130;" horiz-adv-x="456" 
d="M358 743q-34 0 -55.5 21.5t-21.5 54.5q0 31 22 53t55 22t55.5 -22t22.5 -53q0 -33 -22 -54.5t-56 -21.5zM365 547l-98 -424h140l-28 -123h-416l28 123h140l98 424h-140l28 123h416l-28 -123h-140z" />
    <glyph glyph-name="dotlessi" unicode="&#x131;" horiz-adv-x="296" 
d="M156 0h-132l116 499h132z" />
    <glyph glyph-name="IJ" unicode="&#x132;" horiz-adv-x="1050" 
d="M267 123h140l-28 -123h-416l28 123h140l98 424h-140l28 123h416l-28 -123h-140zM1083 670l-102 -433q-28 -121 -102 -186.5t-182 -65.5q-105 0 -169.5 59.5t-67.5 159.5l129 26q0 -55 28 -89t82 -34q55 0 93 36t53 94l73 310h-243l28 123h380z" />
    <glyph glyph-name="ij" unicode="&#x133;" horiz-adv-x="585" 
d="M237 727q34 0 57 -23.5t23 -55.5q0 -33 -23 -55t-57 -22q-35 0 -57.5 22t-22.5 55q0 32 23 55.5t57 23.5zM532 727q34 0 57 -23.5t23 -55.5q0 -33 -23 -55t-57 -22q-35 0 -57.5 22t-22.5 55q0 32 23 55.5t57 23.5zM153 0h-132l115 499h132zM570 499l-139 -604
q-15 -65 -64.5 -105t-115.5 -40q-51 0 -98 19l51 115q27 -10 43 -10q21 0 36.5 11t19.5 28l135 586h132z" />
    <glyph glyph-name="Kcommaaccent" unicode="&#x136;" horiz-adv-x="689" 
d="M452 386l175 -386h-155l-125 286l-176 -167l-27 -119h-136l154 670h136l-77 -336l365 336h165zM221 -45h143l-131 -150h-99z" />
    <glyph glyph-name="kcommaaccent" unicode="&#x137;" horiz-adv-x="618" 
d="M406 307l154 -307h-152l-105 216l-136 -119l-22 -97h-132l178 770h132l-111 -479l241 208h171zM201 -45h143l-131 -150h-99z" />
    <glyph glyph-name="Lacute" unicode="&#x139;" horiz-adv-x="583" 
d="M312 738h-120l100 144h163zM523 123l-28 -123h-482l154 670h136l-126 -547h346z" />
    <glyph glyph-name="lacute" unicode="&#x13a;" horiz-adv-x="329" 
d="M323 838h-120l100 144h163zM313 770l-142 -612q-12 -49 35 -49q26 0 66 14l17 -115q-54 -23 -112 -23q-74 0 -114.5 49.5t-21.5 134.5l140 601h132z" />
    <glyph glyph-name="Lcommaaccent" unicode="&#x13b;" horiz-adv-x="583" 
d="M523 123l-28 -123h-482l154 670h136l-126 -547h346zM158 -45h143l-131 -150h-99z" />
    <glyph glyph-name="lcommaaccent" unicode="&#x13c;" horiz-adv-x="329" 
d="M313 770l-142 -612q-12 -49 35 -49q26 0 66 14l17 -115q-54 -23 -112 -23q-74 0 -114.5 49.5t-21.5 134.5l140 601h132zM-26 -195l87 150h143l-131 -150h-99z" />
    <glyph glyph-name="Lcaron" unicode="&#x13d;" horiz-adv-x="583" 
d="M177 123h346l-28 -123h-482l154 670h136zM453 471h-104l46 199h133z" />
    <glyph glyph-name="lcaron" unicode="&#x13e;" horiz-adv-x="329" 
d="M313 770l-142 -612q-12 -49 35 -49q26 0 66 14l17 -115q-54 -23 -112 -23q-74 0 -114.5 49.5t-21.5 134.5l140 601h132zM415 571h-104l46 199h133z" />
    <glyph glyph-name="Ldot" unicode="&#x13f;" horiz-adv-x="582" 
d="M523 123l-28 -123h-482l154 670h136l-126 -547h346zM396 276q-34 0 -55.5 21.5t-21.5 54.5q0 31 22 53t55 22t55.5 -22t22.5 -53q0 -33 -22 -54.5t-56 -21.5z" />
    <glyph glyph-name="ldot" unicode="&#x140;" horiz-adv-x="411" 
d="M323 770l-142 -612q-12 -49 35 -49q26 0 66 14l17 -115q-54 -23 -112 -23q-74 0 -114.5 49.5t-21.5 134.5l140 601h132zM366 427q33 0 55.5 -22t22.5 -53q0 -33 -22 -54.5t-56 -21.5t-55.5 21.5t-21.5 54.5q0 31 22 53t55 22z" />
    <glyph glyph-name="Lslash" unicode="&#x141;" horiz-adv-x="627" 
d="M567 123l-28 -123h-482l51 220l-81 -34l29 127l81 34l74 323h136l-60 -259l124 52l-29 -127l-124 -52l-37 -161h346z" />
    <glyph glyph-name="lslash" unicode="&#x142;" horiz-adv-x="371" 
d="M248 109q26 0 66 14l17 -115q-54 -23 -112 -23q-74 0 -114.5 49.5t-21.5 134.5l17 71l-68 -34l29 127l68 35l94 402h132l-76 -326l78 39l-30 -127l-77 -39l-37 -159q-12 -49 35 -49z" />
    <glyph glyph-name="Nacute" unicode="&#x143;" horiz-adv-x="762" 
d="M562 738h-120l100 144h163zM786 670l-154 -670h-114l-264 444l-103 -444h-136l154 670h114l262 -453l105 453h136z" />
    <glyph glyph-name="nacute" unicode="&#x144;" horiz-adv-x="618" 
d="M450 567h-120l100 144h163zM395 514q102 0 147 -69.5t23 -168.5l-64 -276h-132l65 282q12 54 -11.5 85.5t-73.5 31.5q-113 0 -154 -178l-51 -221h-132l115 499h132l-11 -47q57 62 147 62z" />
    <glyph glyph-name="Ncommaaccent" unicode="&#x145;" horiz-adv-x="762" 
d="M786 670l-154 -670h-114l-264 444l-103 -444h-136l154 670h114l262 -453l105 453h136zM263 -45h143l-131 -150h-99z" />
    <glyph glyph-name="ncommaaccent" unicode="&#x146;" horiz-adv-x="618" 
d="M395 514q102 0 147 -69.5t23 -168.5l-64 -276h-132l65 282q12 54 -11.5 85.5t-73.5 31.5q-113 0 -154 -178l-51 -221h-132l115 499h132l-11 -47q57 62 147 62zM179 -45h143l-131 -150h-99z" />
    <glyph glyph-name="Ncaron" unicode="&#x147;" horiz-adv-x="762" 
d="M435 729l-79 149h124l31 -62l60 62h138l-149 -149h-125zM786 670l-154 -670h-114l-264 444l-103 -444h-136l154 670h114l262 -453l105 453h136z" />
    <glyph glyph-name="ncaron" unicode="&#x148;" horiz-adv-x="618" 
d="M323 558l-79 149h124l31 -62l60 62h138l-149 -149h-125zM395 514q102 0 147 -69.5t23 -168.5l-64 -276h-132l65 282q12 54 -11.5 85.5t-73.5 31.5q-113 0 -154 -178l-51 -221h-132l115 499h132l-11 -47q57 62 147 62z" />
    <glyph glyph-name="Eng" unicode="&#x14a;" horiz-adv-x="742" 
d="M786 670l-175 -766q-15 -65 -66 -109.5t-116 -44.5q-57 0 -112 24l40 101q37 -11 59 -11q21 0 37 11t20 29l29 124l-248 416l-103 -444h-136l154 670h114l262 -453l105 453h136z" />
    <glyph glyph-name="eng" unicode="&#x14b;" horiz-adv-x="618" 
d="M395 514q102 0 147 -69.5t23 -168.5l-64 -276l-27 -96q-19 -66 -68.5 -110t-113.5 -44q-57 0 -112 24l46 101q37 -11 59 -11q21 0 36.5 11.5t20.5 28.5l27 96l65 282q12 54 -11.5 85.5t-73.5 31.5q-113 0 -154 -178l-51 -221h-132l115 499h132l-11 -47q57 62 147 62z" />
    <glyph glyph-name="Omacron" unicode="&#x14c;" horiz-adv-x="788" 
d="M657 743h-318l24 108h318zM453 687q154 0 243.5 -103.5t68.5 -249.5q-22 -159 -130.5 -254.5t-260.5 -95.5q-154 -1 -243 100.5t-69 250.5q21 147 135.5 249.5t255.5 102.5zM376 112q98 0 168 62t84 160q13 95 -39 159.5t-138 64.5q-97 0 -168 -63.5t-85 -160.5
q-13 -95 40.5 -158.5t137.5 -63.5z" />
    <glyph glyph-name="omacron" unicode="&#x14d;" horiz-adv-x="601" 
d="M528 572h-318l24 108h318zM333 511q113 0 184.5 -74t53.5 -188q-19 -116 -104 -189t-196 -73q-115 0 -187 73.5t-54 188.5q19 116 104.5 189t198.5 73zM278 100q55 0 104.5 41.5t60.5 107.5t-25.5 107.5t-91.5 41.5q-57 0 -107 -41t-61 -108t26 -108t94 -41z" />
    <glyph glyph-name="Ohungarumlaut" unicode="&#x150;" horiz-adv-x="788" 
d="M459 738h-118l100 144h163zM645 738h-118l100 144h163zM453 687q154 0 243.5 -103.5t68.5 -249.5q-22 -159 -130.5 -254.5t-260.5 -95.5q-154 -1 -243 100.5t-69 250.5q21 147 135.5 249.5t255.5 102.5zM376 112q98 0 168 62t84 160q13 95 -39 159.5t-138 64.5
q-97 0 -168 -63.5t-85 -160.5q-13 -95 40.5 -158.5t137.5 -63.5z" />
    <glyph glyph-name="ohungarumlaut" unicode="&#x151;" horiz-adv-x="601" 
d="M330 567h-118l100 144h163zM398 567l100 144h163l-145 -144h-118zM333 511q113 0 184.5 -74t53.5 -188q-19 -116 -104 -189t-196 -73q-115 0 -187 73.5t-54 188.5q19 116 104.5 189t198.5 73zM278 100q55 0 104.5 41.5t60.5 107.5t-25.5 107.5t-91.5 41.5q-57 0 -107 -41
t-61 -108t26 -108t94 -41z" />
    <glyph glyph-name="OE" unicode="&#x152;" horiz-adv-x="1038" 
d="M678 547l-35 -151h342l-28 -121h-342l-35 -152h373l-28 -123h-577q-150 0 -231 87t-57 227q23 158 159 257t314 99h544l-28 -123h-371zM444 123l98 424h-27q-125 0 -214 -64.5t-104 -168.5q-16 -87 23.5 -139t126.5 -52h97z" />
    <glyph glyph-name="oe" unicode="&#x153;" horiz-adv-x="990" 
d="M740 514q111 0 173.5 -82.5t39.5 -217.5h-388q2 -116 118 -116q81 0 127 71l118 -30q-36 -76 -103.5 -115t-149.5 -39q-129 0 -192 90q-86 -88 -212 -88q-115 0 -187 73.5t-54 188.5q19 116 104.5 189t198.5 73q128 0 197 -88q88 91 210 91zM584 307h257q-13 97 -111 97
q-50 0 -88 -26.5t-58 -70.5zM278 100q55 0 104.5 41.5t60.5 107.5t-25.5 107.5t-91.5 41.5q-57 0 -107 -41t-61 -108t26 -108t94 -41z" />
    <glyph glyph-name="Racute" unicode="&#x154;" horiz-adv-x="685" 
d="M491 738h-120l100 144h163zM685 486q0 -85 -56.5 -147.5t-152.5 -83.5l141 -255h-153l-127 246h-131l-57 -246h-136l154 670h301q99 0 158 -48.5t59 -135.5zM234 369h165q67 0 107.5 30t40.5 76q0 35 -23.5 53.5t-63.5 18.5h-185z" />
    <glyph glyph-name="racute" unicode="&#x155;" horiz-adv-x="429" 
d="M364 567h-120l100 144h163zM260 499l-17 -74q89 81 197 81q23 0 34 -4l-36 -127h-29q-173 0 -225 -204l-39 -171h-132l115 499h132z" />
    <glyph glyph-name="Rcommaaccent" unicode="&#x156;" horiz-adv-x="685" 
d="M685 486q0 -85 -56.5 -147.5t-152.5 -83.5l141 -255h-153l-127 246h-131l-57 -246h-136l154 670h301q99 0 158 -48.5t59 -135.5zM234 369h165q67 0 107.5 30t40.5 76q0 35 -23.5 53.5t-63.5 18.5h-185zM213 -45h143l-131 -150h-99z" />
    <glyph glyph-name="rcommaaccent" unicode="&#x157;" horiz-adv-x="429" 
d="M440 506q23 0 34 -4l-36 -127h-29q-173 0 -225 -204l-39 -171h-132l115 499h132l-17 -74q89 81 197 81zM-2 -45h143l-131 -150h-99z" />
    <glyph glyph-name="Rcaron" unicode="&#x158;" horiz-adv-x="685" 
d="M364 729l-79 149h124l31 -62l60 62h138l-149 -149h-125zM685 486q0 -85 -56.5 -147.5t-152.5 -83.5l141 -255h-153l-127 246h-131l-57 -246h-136l154 670h301q99 0 158 -48.5t59 -135.5zM234 369h165q67 0 107.5 30t40.5 76q0 35 -23.5 53.5t-63.5 18.5h-185z" />
    <glyph glyph-name="rcaron" unicode="&#x159;" horiz-adv-x="429" 
d="M237 558l-79 149h124l31 -62l60 62h138l-149 -149h-125zM260 499l-17 -74q89 81 197 81q23 0 34 -4l-36 -127h-29q-173 0 -225 -204l-39 -171h-132l115 499h132z" />
    <glyph glyph-name="Sacute" unicode="&#x15a;" horiz-adv-x="629" 
d="M471 738h-120l100 144h163zM389 685q107 0 172.5 -51t73.5 -142l-137 -28q-1 47 -35 76.5t-87 29.5q-52 0 -86.5 -27.5t-34.5 -66.5q0 -21 14 -35t47 -25l97 -29q154 -46 154 -173q0 -103 -76.5 -166t-201.5 -63q-109 0 -186 50.5t-84 148.5l144 29q12 -111 138 -111
q63 0 97.5 27t34.5 69q0 24 -15.5 38.5t-55.5 26.5l-95 27q-31 9 -54.5 20t-48 30t-38 49t-13.5 69q0 100 77.5 163.5t198.5 63.5z" />
    <glyph glyph-name="sacute" unicode="&#x15b;" horiz-adv-x="504" 
d="M379 567h-120l100 144h163zM2 122l131 37q6 -35 37.5 -53t69.5 -18q36 0 58.5 15.5t22.5 36.5q0 28 -40 40l-98 31q-115 35 -115 139q0 72 55.5 118t149.5 46q87 0 146.5 -39t72.5 -99l-113 -34q-5 31 -33.5 50t-72.5 19q-40 0 -57 -14.5t-17 -35.5q0 -31 56 -49l61 -19
q133 -42 133 -146q0 -75 -62 -118.5t-156 -43.5q-84 0 -148.5 35t-80.5 102z" />
    <glyph glyph-name="Scedilla" unicode="&#x15e;" horiz-adv-x="629" 
d="M316 416l97 -29q154 -46 154 -173q0 -95 -65.5 -156.5t-174.5 -70.5l-82 -147h-150l133 149q-88 14 -145.5 63t-63.5 132l144 29q12 -111 138 -111q63 0 97.5 27t34.5 69q0 24 -15.5 38.5t-55.5 26.5l-95 27q-31 9 -54.5 20t-48 30t-38 49t-13.5 69q0 100 77.5 163.5
t198.5 63.5q107 0 172.5 -51t73.5 -142l-137 -28q-1 47 -35 76.5t-87 29.5q-52 0 -86.5 -27.5t-34.5 -66.5q0 -21 14 -35t47 -25z" />
    <glyph glyph-name="scedilla" unicode="&#x15f;" horiz-adv-x="504" 
d="M255 312l61 -19q133 -42 133 -146q0 -68 -52 -110.5t-135 -50.5l-81 -146h-150l134 151q-62 12 -106 45t-57 86l131 37q6 -35 37.5 -53t69.5 -18q36 0 58.5 15.5t22.5 36.5q0 28 -40 40l-98 31q-115 35 -115 139q0 72 55.5 118t149.5 46q87 0 146.5 -39t72.5 -99
l-113 -34q-5 31 -33.5 50t-72.5 19q-40 0 -57 -14.5t-17 -35.5q0 -31 56 -49z" />
    <glyph glyph-name="Scaron" unicode="&#x160;" horiz-adv-x="629" 
d="M344 729l-79 149h124l31 -62l60 62h138l-149 -149h-125zM316 416l97 -29q154 -46 154 -173q0 -103 -76.5 -166t-201.5 -63q-109 0 -186 50.5t-84 148.5l144 29q12 -111 138 -111q63 0 97.5 27t34.5 69q0 24 -15.5 38.5t-55.5 26.5l-95 27q-31 9 -54.5 20t-48 30t-38 49
t-13.5 69q0 100 77.5 163.5t198.5 63.5q107 0 172.5 -51t73.5 -142l-137 -28q-1 47 -35 76.5t-87 29.5q-52 0 -86.5 -27.5t-34.5 -66.5q0 -21 14 -35t47 -25z" />
    <glyph glyph-name="scaron" unicode="&#x161;" horiz-adv-x="504" 
d="M252 558l-79 149h124l31 -62l60 62h138l-149 -149h-125zM273 411q-40 0 -57 -14.5t-17 -35.5q0 -31 56 -49l61 -19q133 -42 133 -146q0 -75 -62 -118.5t-156 -43.5q-84 0 -148.5 35t-80.5 102l131 37q6 -35 37.5 -53t69.5 -18q36 0 58.5 15.5t22.5 36.5q0 28 -40 40
l-98 31q-115 35 -115 139q0 72 55.5 118t149.5 46q87 0 146.5 -39t72.5 -99l-113 -34q-5 31 -33.5 50t-72.5 19z" />
    <glyph glyph-name="tcedilla" unicode="&#x163;" horiz-adv-x="419" 
d="M257 391l-46 -197q-20 -86 41 -86q41 0 91 24l7 -115q-61 -31 -123 -32l-81 -145h-150l142 160q-94 41 -61 184l48 207h-93l25 108h93l39 171h132l-40 -171h164l-25 -108h-163z" />
    <glyph glyph-name="Tcaron" unicode="&#x164;" horiz-adv-x="622" 
d="M360 729l-79 149h124l31 -62l60 62h138l-149 -149h-125zM671 547h-223l-126 -547h-136l126 547h-223l28 123h582z" />
    <glyph glyph-name="tcaron" unicode="&#x165;" horiz-adv-x="419" 
d="M541 759l-75 -199h-104l46 199h133zM281 499h164l-25 -108h-163l-46 -197q-20 -86 41 -86q41 0 91 24l7 -115q-64 -32 -130 -32q-87 0 -126.5 49.5t-16.5 149.5l48 207h-93l25 108h93l39 171h132z" />
    <glyph glyph-name="Tbar" unicode="&#x166;" horiz-adv-x="622" 
d="M448 547l-36 -156h125l-26 -113h-125l-64 -278h-136l64 278h-117l26 113h117l36 156h-223l28 123h582l-28 -123h-223z" />
    <glyph glyph-name="tbar" unicode="&#x167;" horiz-adv-x="438" 
d="M276 391l-11 -46h120l-24 -106h-121l-10 -45q-20 -86 41 -86q41 0 91 24l7 -115q-64 -32 -130 -32q-87 0 -126.5 49.5t-16.5 149.5l13 55h-86l24 106h86l11 46h-111l25 108h111l39 171h132l-40 -171h170l-25 -108h-169z" />
    <glyph glyph-name="Umacron" unicode="&#x16a;" horiz-adv-x="711" 
d="M624 743h-318l24 108h318zM744 670l-85 -370q-34 -147 -122 -231t-228 -84q-122 0 -193 89t-40 226l85 370h136l-85 -370q-19 -84 12.5 -134.5t103.5 -50.5q68 0 122 50.5t73 134.5l85 370h136z" />
    <glyph glyph-name="umacron" unicode="&#x16b;" horiz-adv-x="618" 
d="M521 572h-318l24 108h318zM606 499l-115 -499h-132l11 47q-57 -62 -147 -62q-102 0 -147 69.5t-23 168.5l64 276h132l-65 -282q-12 -54 11.5 -85.5t73.5 -31.5q113 0 154 178l51 221h132z" />
    <glyph glyph-name="Uring" unicode="&#x16e;" horiz-adv-x="711" 
d="M473 715q-48 0 -79 31t-31 76q0 51 37.5 87t90.5 36q48 0 79 -31t31 -76q0 -51 -37.5 -87t-90.5 -36zM485 870q-18 0 -30 -12.5t-12 -30.5q0 -16 9.5 -26.5t26.5 -10.5q19 0 32 13t13 31q0 15 -11 25.5t-28 10.5zM744 670l-85 -370q-34 -147 -122 -231t-228 -84
q-122 0 -193 89t-40 226l85 370h136l-85 -370q-19 -84 12.5 -134.5t103.5 -50.5q68 0 122 50.5t73 134.5l85 370h136z" />
    <glyph glyph-name="uring" unicode="&#x16f;" horiz-adv-x="618" 
d="M370 544q-48 0 -79 31t-31 76q0 51 37.5 87t90.5 36q48 0 79 -31t31 -76q0 -51 -37.5 -87t-90.5 -36zM382 699q-18 0 -30 -12.5t-12 -30.5q0 -16 9.5 -26.5t26.5 -10.5q18 0 31.5 13.5t13.5 30.5q0 15 -11 25.5t-28 10.5zM606 499l-115 -499h-132l11 47q-57 -62 -147 -62
q-102 0 -147 69.5t-23 168.5l64 276h132l-65 -282q-12 -54 11.5 -85.5t73.5 -31.5q113 0 154 178l51 221h132z" />
    <glyph glyph-name="Uhungarumlaut" unicode="&#x170;" horiz-adv-x="711" 
d="M426 738h-118l100 144h163zM494 738l100 144h163l-145 -144h-118zM608 670h136l-85 -370q-34 -147 -122 -231t-228 -84q-122 0 -193 89t-40 226l85 370h136l-85 -370q-19 -84 12.5 -134.5t103.5 -50.5q68 0 122 50.5t73 134.5z" />
    <glyph glyph-name="uhungarumlaut" unicode="&#x171;" horiz-adv-x="618" 
d="M323 567h-118l100 144h163zM391 567l100 144h163l-145 -144h-118zM474 499h132l-115 -499h-132l11 47q-57 -62 -147 -62q-102 0 -147 69.5t-23 168.5l64 276h132l-65 -282q-12 -54 11.5 -85.5t73.5 -31.5q113 0 154 178z" />
    <glyph glyph-name="Uogonek" unicode="&#x172;" horiz-adv-x="711" 
d="M744 670l-85 -370q-37 -158 -129 -237q-24 -25 -61 -62q-54 -54 -67 -70.5t-13 -30.5q0 -20 24 -20q14 0 50 11l-21 -82q-32 -19 -73 -19q-38 0 -61 21t-23 55q0 62 85 123q-25 -4 -61 -4q-122 0 -193 89t-40 226l85 370h136l-85 -370q-19 -84 12.5 -134.5t103.5 -50.5
q68 0 122 50.5t73 134.5l85 370h136z" />
    <glyph glyph-name="uogonek" unicode="&#x173;" horiz-adv-x="618" 
d="M606 499l-115 -499q-9 -8 -20 -18t-17 -15.5t-14 -13t-12 -11.5l-9 -9q-5 -5 -7 -8.5t-4.5 -8t-3 -8.5t-0.5 -8q0 -20 24 -20q14 0 50 11l-21 -82q-32 -19 -73 -19q-38 0 -61 21t-23 55q0 67 101 134h-42l11 47q-57 -62 -147 -62q-102 0 -147 69.5t-23 168.5l64 276h132
l-65 -282q-12 -54 11.5 -85.5t73.5 -31.5q113 0 154 178l51 221h132z" />
    <glyph glyph-name="Wcircumflex" unicode="&#x174;" horiz-adv-x="967" 
d="M579 729h-138l149 149h125l79 -149h-124l-31 62zM1049 670l-350 -670h-147l-25 452l-236 -452h-144l-40 670h136l21 -462l242 462h133l28 -462l235 462h147z" />
    <glyph glyph-name="wcircumflex" unicode="&#x175;" horiz-adv-x="802" 
d="M458 558h-138l149 149h125l79 -149h-124l-31 62zM845 499l-284 -500h-122l-32 294l-169 -294h-118l-52 500h126l30 -307l176 307h103l33 -308l173 308h136z" />
    <glyph glyph-name="Ycircumflex" unicode="&#x176;" horiz-adv-x="691" 
d="M414 729h-138l149 149h125l79 -149h-124l-31 62zM402 214l-49 -214h-136l49 212l-159 458h141l110 -316l255 316h165z" />
    <glyph glyph-name="ycircumflex" unicode="&#x177;" horiz-adv-x="576" 
d="M353 558h-138l149 149h125l79 -149h-124l-31 62zM623 499l-473 -729h-149l159 243l-92 486h137l59 -328l215 328h144z" />
    <glyph glyph-name="Ydieresis" unicode="&#x178;" horiz-adv-x="691" 
d="M337 733q-34 0 -56.5 22t-22.5 56q0 32 22.5 55t56.5 23t57 -23.5t23 -54.5q0 -34 -22.5 -56t-57.5 -22zM553 733q-34 0 -56.5 22t-22.5 56q0 32 22.5 55t56.5 23t57 -23.5t23 -54.5q0 -34 -22.5 -56t-57.5 -22zM402 214l-49 -214h-136l49 212l-159 458h141l110 -316
l255 316h165z" />
    <glyph glyph-name="Zacute" unicode="&#x179;" horiz-adv-x="626" 
d="M494 738h-120l100 144h163zM650 567l-441 -451h343l-26 -116h-536l20 87l463 467h-345l26 116h519z" />
    <glyph glyph-name="zacute" unicode="&#x17a;" horiz-adv-x="524" 
d="M404 567h-120l100 144h163zM529 499l-20 -88l-324 -303h266l-25 -108h-443l20 86l321 305h-244l25 108h424z" />
    <glyph glyph-name="Zdotaccent" unicode="&#x17b;" horiz-adv-x="626" 
d="M448 743q-34 0 -55.5 21.5t-21.5 54.5q0 31 22 53t55 22t55.5 -22t22.5 -53q0 -33 -22 -54.5t-56 -21.5zM650 567l-441 -451h343l-26 -116h-536l20 87l463 467h-345l26 116h519z" />
    <glyph glyph-name="zdotaccent" unicode="&#x17c;" horiz-adv-x="524" 
d="M358 572q-34 0 -55.5 21.5t-21.5 54.5q0 31 22 53t55 22t55.5 -22t22.5 -53q0 -33 -22 -54.5t-56 -21.5zM509 411l-324 -303h266l-25 -108h-443l20 86l321 305h-244l25 108h424z" />
    <glyph glyph-name="Zcaron" unicode="&#x17d;" horiz-adv-x="626" 
d="M367 729l-79 149h124l31 -62l60 62h138l-149 -149h-125zM650 567l-441 -451h343l-26 -116h-536l20 87l463 467h-345l26 116h519z" />
    <glyph glyph-name="zcaron" unicode="&#x17e;" horiz-adv-x="524" 
d="M277 558l-79 149h124l31 -62l60 62h138l-149 -149h-125zM529 499l-20 -88l-324 -303h266l-25 -108h-443l20 86l321 305h-244l25 108h424z" />
    <glyph glyph-name="florin" unicode="&#x192;" horiz-adv-x="586" 
d="M517 567q-71 0 -105 -82l-42 -101h150l-24 -108h-171l-111 -269q-70 -172 -229 -172q-61 0 -106 28l67 106q30 -10 56 -10t48 13.5t30 34.5l112 269h-105l24 108h125l51 122q37 89 100 133.5t143 44.5q85 0 132 -34l-69 -108q-30 25 -76 25z" />
    <glyph glyph-name="AEacute" unicode="&#x1fc;" horiz-adv-x="1151" 
d="M938 738h-120l100 144h163zM791 547l-35 -151h342l-28 -121h-342l-35 -152h373l-28 -123h-509l28 123h-297l-127 -123h-181l714 670h524l-28 -123h-371zM643 494l-256 -248h199z" />
    <glyph glyph-name="aeacute" unicode="&#x1fd;" horiz-adv-x="898" 
d="M610 567h-120l100 144h163zM653 514q105 0 167.5 -74t44.5 -191l-7 -45h-378q5 -51 33.5 -78.5t79.5 -27.5q80 0 126 65l114 -25q-32 -69 -101.5 -111t-155.5 -42q-112 0 -168 82q-42 -36 -101.5 -59t-123.5 -23q-84 0 -131 39t-47 105q0 74 57.5 121t153.5 47h157l3 19
q7 40 -16 64t-66 24q-39 0 -68 -20t-40 -56l-117 25q21 71 87.5 116t157.5 45q109 0 160 -62q83 62 179 62zM493 297h246q-2 53 -30 79.5t-70 26.5q-45 0 -86.5 -28t-59.5 -78zM359 204h-147q-41 0 -63.5 -17t-22.5 -43q0 -25 20 -39.5t53 -14.5q52 0 101.5 31t56.5 71z" />
    <glyph glyph-name="Scommaaccent" unicode="&#x218;" horiz-adv-x="629" 
d="M389 685q107 0 172.5 -51t73.5 -142l-137 -28q-1 47 -35 76.5t-87 29.5q-52 0 -86.5 -27.5t-34.5 -66.5q0 -21 14 -35t47 -25l97 -29q154 -46 154 -173q0 -103 -76.5 -166t-201.5 -63q-109 0 -186 50.5t-84 148.5l144 29q12 -111 138 -111q63 0 97.5 27t34.5 69
q0 24 -15.5 38.5t-55.5 26.5l-95 27q-31 9 -54.5 20t-48 30t-38 49t-13.5 69q0 100 77.5 163.5t198.5 63.5zM109 -195l87 150h143l-131 -150h-99z" />
    <glyph glyph-name="scommaaccent" unicode="&#x219;" horiz-adv-x="504" 
d="M2 122l131 37q6 -35 37.5 -53t69.5 -18q36 0 58.5 15.5t22.5 36.5q0 28 -40 40l-98 31q-115 35 -115 139q0 72 55.5 118t149.5 46q87 0 146.5 -39t72.5 -99l-113 -34q-5 31 -33.5 50t-72.5 19q-40 0 -57 -14.5t-17 -35.5q0 -31 56 -49l61 -19q133 -42 133 -146
q0 -75 -62 -118.5t-156 -43.5q-84 0 -148.5 35t-80.5 102zM45 -195l87 150h143l-131 -150h-99z" />
    <glyph glyph-name="uni021A" unicode="&#x21a;" horiz-adv-x="622" 
d="M671 547h-223l-126 -547h-136l126 547h-223l28 123h582zM177 -45h143l-131 -150h-99z" />
    <glyph glyph-name="uni021B" unicode="&#x21b;" horiz-adv-x="419" 
d="M257 391l-46 -197q-20 -86 41 -86q41 0 91 24l7 -115q-64 -32 -130 -32q-87 0 -126.5 49.5t-16.5 149.5l48 207h-93l25 108h93l39 171h132l-40 -171h164l-25 -108h-163zM97 -45h143l-131 -150h-99z" />
    <glyph glyph-name="circumflex" unicode="&#x2c6;" horiz-adv-x="600" 
d="M417 558l-31 62l-60 -62h-138l149 149h125l79 -149h-124z" />
    <glyph glyph-name="caron" unicode="&#x2c7;" horiz-adv-x="600" 
d="M551 707l-149 -149h-125l-79 149h124l31 -62l60 62h138z" />
    <glyph glyph-name="breve" unicode="&#x2d8;" horiz-adv-x="600" 
d="M336 547q-77 0 -113 40.5t-19 109.5h102q-7 -26 6 -42.5t38 -16.5t45 16.5t27 42.5h116q-17 -69 -71 -109.5t-131 -40.5z" />
    <glyph glyph-name="dotaccent" unicode="&#x2d9;" horiz-adv-x="600" 
d="M358 723q33 0 55.5 -22t22.5 -53q0 -33 -22 -54.5t-56 -21.5t-55.5 21.5t-21.5 54.5q0 31 22 53t55 22z" />
    <glyph glyph-name="ring" unicode="&#x2da;" horiz-adv-x="600" 
d="M478 667q0 -51 -37.5 -87t-90.5 -36q-48 0 -79 31t-31 76q0 51 37.5 87t90.5 36q48 0 79 -31t31 -76zM401 663q0 15 -11 25.5t-28 10.5q-18 0 -30 -12.5t-12 -30.5q0 -16 9.5 -26.5t26.5 -10.5q18 0 31.5 13.5t13.5 30.5z" />
    <glyph glyph-name="ogonek" unicode="&#x2db;" horiz-adv-x="600" 
d="M266 0h90q-9 -8 -20 -18t-17 -15.5t-14 -13t-12 -11.5l-9 -9q-5 -5 -7 -8.5t-4.5 -8t-3 -8.5t-0.5 -8q0 -20 24 -20q14 0 50 11l-21 -82q-32 -19 -73 -19q-38 0 -61 21t-23 55q0 67 101 134z" />
    <glyph glyph-name="tilde" unicode="&#x2dc;" horiz-adv-x="600" 
d="M267 585h-87q16 71 55 101t82 30q36 0 65 -19.5t48 -19.5q13 0 23 11t14 28h87q-17 -72 -56 -102.5t-82 -30.5q-37 0 -65.5 19t-47.5 19q-13 0 -23 -10.5t-13 -25.5z" />
    <glyph glyph-name="hungarumlaut" unicode="&#x2dd;" horiz-adv-x="600" 
d="M303 567h-118l100 144h163zM489 567h-118l100 144h163z" />
    <glyph glyph-name="uni0326" unicode="&#x326;" horiz-adv-x="0" 
d="M64 -195l87 150h143l-131 -150h-99z" />
    <glyph glyph-name="Wgrave" unicode="&#x1e80;" horiz-adv-x="967" 
d="M539 738l-143 144h163l100 -144h-120zM1049 670l-350 -670h-147l-25 452l-236 -452h-144l-40 670h136l21 -462l242 462h133l28 -462l235 462h147z" />
    <glyph glyph-name="wgrave" unicode="&#x1e81;" horiz-adv-x="802" 
d="M418 567l-143 144h163l100 -144h-120zM845 499l-284 -500h-122l-32 294l-169 -294h-118l-52 500h126l30 -307l176 307h103l33 -308l173 308h136z" />
    <glyph glyph-name="Wacute" unicode="&#x1e82;" horiz-adv-x="967" 
d="M657 738h-120l100 144h163zM1049 670l-350 -670h-147l-25 452l-236 -452h-144l-40 670h136l21 -462l242 462h133l28 -462l235 462h147z" />
    <glyph glyph-name="wacute" unicode="&#x1e83;" horiz-adv-x="802" 
d="M536 567h-120l100 144h163zM845 499l-284 -500h-122l-32 294l-169 -294h-118l-52 500h126l30 -307l176 307h103l33 -308l173 308h136z" />
    <glyph glyph-name="Wdieresis" unicode="&#x1e84;" horiz-adv-x="967" 
d="M502 733q-34 0 -56.5 22t-22.5 56q0 32 22.5 55t56.5 23t57 -23.5t23 -54.5q0 -34 -22.5 -56t-57.5 -22zM718 733q-34 0 -56.5 22t-22.5 56q0 32 22.5 55t56.5 23t57 -23.5t23 -54.5q0 -34 -22.5 -56t-57.5 -22zM1049 670l-350 -670h-147l-25 452l-236 -452h-144l-40 670
h136l21 -462l242 462h133l28 -462l235 462h147z" />
    <glyph glyph-name="wdieresis" unicode="&#x1e85;" horiz-adv-x="802" 
d="M381 562q-34 0 -56.5 22t-22.5 56q0 32 22.5 55t56.5 23t57 -23.5t23 -54.5q0 -34 -22.5 -56t-57.5 -22zM597 562q-34 0 -56.5 22t-22.5 56q0 32 22.5 55t56.5 23t57 -23.5t23 -54.5q0 -34 -22.5 -56t-57.5 -22zM845 499l-284 -500h-122l-32 294l-169 -294h-118l-52 500
h126l30 -307l176 307h103l33 -308l173 308h136z" />
    <glyph glyph-name="Ygrave" unicode="&#x1ef2;" horiz-adv-x="691" 
d="M374 738l-143 144h163l100 -144h-120zM402 214l-49 -214h-136l49 212l-159 458h141l110 -316l255 316h165z" />
    <glyph glyph-name="ygrave" unicode="&#x1ef3;" horiz-adv-x="576" 
d="M313 567l-143 144h163l100 -144h-120zM623 499l-473 -729h-149l159 243l-92 486h137l59 -328l215 328h144z" />
    <glyph glyph-name="endash" unicode="&#x2013;" horiz-adv-x="621" 
d="M550 205h-500l23 100h500z" />
    <glyph glyph-name="emdash" unicode="&#x2014;" horiz-adv-x="1041" 
d="M970 205h-920l23 100h920z" />
    <glyph glyph-name="quoteleft" unicode="&#x2018;" horiz-adv-x="282" 
d="M242 670h105l-122 -268h-158l1 3z" />
    <glyph glyph-name="quoteright" unicode="&#x2019;" horiz-adv-x="282" 
d="M172 402h-105l122 268h158l-1 -3z" />
    <glyph glyph-name="quotesinglbase" unicode="&#x201a;" horiz-adv-x="282" 
d="M49 -132h-105l122 268h158l-1 -3z" />
    <glyph glyph-name="quotedblleft" unicode="&#x201c;" horiz-adv-x="472" 
d="M242 670h105l-122 -268h-158l1 3zM432 670h105l-122 -268h-158l1 3z" />
    <glyph glyph-name="quotedblright" unicode="&#x201d;" horiz-adv-x="472" 
d="M172 402h-105l122 268h158l-1 -3zM362 402h-105l122 268h158l-1 -3z" />
    <glyph glyph-name="quotedblbase" unicode="&#x201e;" horiz-adv-x="472" 
d="M49 -132h-105l122 268h158l-1 -3zM239 -132h-105l122 268h158l-1 -3z" />
    <glyph glyph-name="dagger" unicode="&#x2020;" horiz-adv-x="406" 
d="M433 566h-112l-57 -247h-91l57 247h-112l20 84h112l21 90h91l-21 -90h112z" />
    <glyph glyph-name="daggerdbl" unicode="&#x2021;" horiz-adv-x="406" 
d="M321 566l-16 -73h112l-20 -84h-112l-21 -90h-91l21 90h-112l20 84h112l16 73h-112l20 84h112l21 90h91l-21 -90h112l-20 -84h-112z" />
    <glyph glyph-name="bullet" unicode="&#x2022;" horiz-adv-x="431" 
d="M217 424q73 0 122 -49.5t49 -116.5q0 -70 -48.5 -117.5t-122.5 -47.5t-122.5 47.5t-48.5 117.5q0 67 49 116.5t122 49.5z" />
    <glyph glyph-name="ellipsis" unicode="&#x2026;" horiz-adv-x="782" 
d="M80 149q34 0 56.5 -23t22.5 -54q0 -32 -22.5 -54t-56.5 -22t-56.5 22t-22.5 54q0 31 22.5 54t56.5 23zM350 149q34 0 56.5 -23t22.5 -54q0 -32 -22.5 -54t-56.5 -22t-56.5 22t-22.5 54q0 31 22.5 54t56.5 23zM620 149q34 0 56.5 -23t22.5 -54q0 -32 -22.5 -54t-56.5 -22
t-56.5 22t-22.5 54q0 31 22.5 54t56.5 23z" />
    <glyph glyph-name="perthousand" unicode="&#x2030;" horiz-adv-x="1262" 
d="M287 685q67 0 110.5 -41t43.5 -108q0 -76 -54 -125.5t-128 -49.5q-66 0 -110 41t-44 109q0 76 54 125t128 49zM97 0l645 670h87l-645 -670h-87zM279 595q-29 0 -52 -21.5t-23 -55.5q0 -31 18.5 -49t44.5 -18q29 0 52 21.5t23 56.5q0 31 -18.5 48.5t-44.5 17.5zM672 309
q67 0 110.5 -41t43.5 -108q0 -76 -54 -125.5t-128 -49.5q-66 0 -110 41t-44 109q0 76 54 125t128 49zM1042 309q67 0 110.5 -41t43.5 -108q0 -76 -54 -125.5t-128 -49.5q-66 0 -110 41t-44 109q0 76 54 125t128 49zM664 219q-29 0 -52 -21.5t-23 -55.5q0 -31 18.5 -49
t44.5 -18q29 0 52 21.5t23 56.5q0 31 -18.5 48.5t-44.5 17.5zM1034 219q-29 0 -52 -21.5t-23 -55.5q0 -31 18.5 -49t44.5 -18q29 0 52 21.5t23 56.5q0 31 -18.5 48.5t-44.5 17.5z" />
    <glyph glyph-name="guilsinglleft" unicode="&#x2039;" horiz-adv-x="292" 
d="M28 262l153 178h130l-162 -184l71 -172h-121z" />
    <glyph glyph-name="guilsinglright" unicode="&#x203a;" horiz-adv-x="292" 
d="M270 262l-153 -178h-130l162 184l-71 172h121z" />
    <glyph glyph-name="fraction" unicode="&#x2044;" horiz-adv-x="238" 
d="M-257 0l645 670h87l-645 -670h-87z" />
    <glyph glyph-name="Euro" unicode="&#x20ac;" horiz-adv-x="790" 
d="M445 112q106 0 168 137l130 -29q-45 -109 -129 -172t-189 -63q-100 0 -163.5 62.5t-77.5 169.5h-115l21 96h93q1 17 5 44h-92l21 95h97q43 107 128 170t193 63q105 0 169.5 -63.5t74.5 -171.5l-143 -27q-4 68 -37 102t-84 34q-48 0 -89 -28.5t-68 -78.5h195l-39 -95h-188
q-4 -27 -5 -44h177l-39 -96h-131q12 -50 42.5 -77.5t74.5 -27.5z" />
    <glyph glyph-name="uni2116" unicode="&#x2116;" horiz-adv-x="1201" 
d="M1024 680q70 0 118.5 -42t48.5 -112q0 -78 -59.5 -133t-140.5 -55q-69 0 -115 41.5t-46 111.5q0 80 57 134.5t137 54.5zM786 670l-154 -670h-114l-264 444l-103 -444h-136l154 670h114l262 -453l105 453h136zM1002 434q33 0 58.5 25t25.5 58q0 30 -21 48.5t-50 18.5
q-32 0 -55.5 -24t-23.5 -58q0 -30 19 -49t47 -19zM788 287h337l-27 -107h-337z" />
    <glyph glyph-name="uni2117" unicode="&#x2117;" horiz-adv-x="756" 
d="M397 685q146 0 248 -100t102 -252q0 -150 -102 -249t-248 -99t-248.5 99t-102.5 249q0 152 102.5 252t248.5 100zM397 42q120 0 204 83t84 209t-84.5 210.5t-203.5 84.5q-120 0 -204.5 -84t-84.5 -211q0 -126 84.5 -209t204.5 -83zM264 516h170q66 0 105 -35.5t39 -93.5
q0 -60 -39 -96.5t-105 -36.5h-91v-103h-79v365zM343 327h85q33 0 53 16.5t20 43.5q0 26 -20 41.5t-53 15.5h-85v-117z" />
    <glyph glyph-name="trademark" unicode="&#x2122;" horiz-adv-x="668" 
d="M364 606h-86l-48 -208h-76l48 208h-84l14 64h246zM657 398h-71l36 159l-97 -158h-44l-25 158l-36 -159h-71l62 272h83l27 -172l107 172h91z" />
    <glyph glyph-name="oneeighth" unicode="&#x215b;" horiz-adv-x="796" 
d="M744 670l-645 -670h-87l645 670h87zM167 550l-93 -43l22 98l132 65h63l-87 -380h-96zM685 180q50 -28 50 -81q0 -51 -43.5 -84.5t-110.5 -33.5q-65 0 -104.5 30.5t-39.5 79.5q0 34 25 62t67 40q-42 30 -42 81q0 50 40 80.5t103 30.5q60 0 96 -28t36 -74q0 -35 -20 -62.5
t-57 -40.5zM626 317q-22 0 -36.5 -12t-14.5 -35q0 -41 46 -41q22 0 37.5 12t15.5 34q0 21 -13.5 31.5t-34.5 10.5zM583 54q24 0 40.5 13t16.5 37q0 21 -15 32.5t-37 11.5q-24 0 -39.5 -12.5t-15.5 -37.5q0 -21 14 -32.5t36 -11.5z" />
    <glyph glyph-name="threeeighths" unicode="&#x215c;" horiz-adv-x="888" 
d="M364 411q-2 -58 -47.5 -94t-115.5 -36q-63 0 -102 35t-38 92l82 19q1 -31 19.5 -50t47.5 -19t47.5 14t18.5 37q0 43 -51 43h-45l18 69h49q26 0 43 12.5t18 33.5t-12 33t-39 12t-45.5 -20t-25.5 -52l-79 18q8 56 51.5 92.5t106.5 36.5q60 0 96.5 -31t34.5 -79
q-1 -67 -68 -94q38 -23 36 -72zM836 670l-645 -670h-87l645 670h87zM777 180q50 -28 50 -81q0 -51 -43.5 -84.5t-110.5 -33.5q-65 0 -104.5 30.5t-39.5 79.5q0 34 25 62t67 40q-42 30 -42 81q0 50 40 80.5t103 30.5q60 0 96 -28t36 -74q0 -35 -20 -62.5t-57 -40.5zM718 317
q-22 0 -36.5 -12t-14.5 -35q0 -41 46 -41q22 0 37.5 12t15.5 34q0 21 -13.5 31.5t-34.5 10.5zM675 54q24 0 40.5 13t16.5 37q0 21 -15 32.5t-37 11.5q-24 0 -39.5 -12.5t-15.5 -37.5q0 -21 14 -32.5t36 -11.5z" />
    <glyph glyph-name="fiveeighths" unicode="&#x215d;" horiz-adv-x="888" 
d="M367 425q0 -64 -44.5 -103.5t-118.5 -39.5q-63 0 -103 32.5t-43 80.5l92 17q4 -23 19.5 -36t40.5 -13q29 0 47 15.5t18 40.5q0 17 -12.5 28t-33.5 11h-140l54 212h265l-17 -84h-183l-13 -50h52q52 0 86 -30t34 -81zM850 670l-645 -670h-87l645 670h87zM776 180
q50 -28 50 -81q0 -51 -43.5 -84.5t-110.5 -33.5q-65 0 -104.5 30.5t-39.5 79.5q0 34 25 62t67 40q-42 30 -42 81q0 50 40 80.5t103 30.5q60 0 96 -28t36 -74q0 -35 -20 -62.5t-57 -40.5zM717 317q-22 0 -36.5 -12t-14.5 -35q0 -41 46 -41q22 0 37.5 12t15.5 34
q0 21 -13.5 31.5t-34.5 10.5zM674 54q24 0 40.5 13t16.5 37q0 21 -15 32.5t-37 11.5q-24 0 -39.5 -12.5t-15.5 -37.5q0 -21 14 -32.5t36 -11.5z" />
    <glyph glyph-name="seveneighths" unicode="&#x215e;" horiz-adv-x="784" 
d="M732 670l-645 -670h-87l645 670h87zM59 290l203 296h-177l19 84h284l-17 -74l-204 -306h-108zM673 180q50 -28 50 -81q0 -51 -43.5 -84.5t-110.5 -33.5q-65 0 -104.5 30.5t-39.5 79.5q0 34 25 62t67 40q-42 30 -42 81q0 50 40 80.5t103 30.5q60 0 96 -28t36 -74
q0 -35 -20 -62.5t-57 -40.5zM614 317q-22 0 -36.5 -12t-14.5 -35q0 -41 46 -41q22 0 37.5 12t15.5 34q0 21 -13.5 31.5t-34.5 10.5zM571 54q24 0 40.5 13t16.5 37q0 21 -15 32.5t-37 11.5q-24 0 -39.5 -12.5t-15.5 -37.5q0 -21 14 -32.5t36 -11.5z" />
    <glyph glyph-name="arrowleft" unicode="&#x2190;" horiz-adv-x="727" 
d="M687 256h-416l168 -168l-96 -97l-333 333l334 334l96 -97l-169 -169h416v-136z" />
    <glyph glyph-name="arrowup" unicode="&#x2191;" horiz-adv-x="747" 
d="M610 248l-168 168v-416h-136v416l-169 -169l-97 96l334 334l333 -333z" />
    <glyph glyph-name="arrowright" unicode="&#x2192;" horiz-adv-x="727" 
d="M717 324l-333 -333l-96 97l168 168h-416v136h416l-169 169l96 97z" />
    <glyph glyph-name="arrowdown" unicode="&#x2193;" horiz-adv-x="747" 
d="M707 326l-333 -333l-334 334l97 96l169 -169v416h136v-416l168 168z" />
    <glyph glyph-name="uni2196" unicode="&#x2196;" horiz-adv-x="747" 
d="M611 -8l-445 446v-260h-136v492h491l-1 -136h-258l445 -445z" />
    <glyph glyph-name="uni2197" unicode="&#x2197;" horiz-adv-x="747" 
d="M717 670v-492h-136v260l-445 -446l-96 97l445 445h-258l-1 136h491z" />
    <glyph glyph-name="uni2198" unicode="&#x2198;" horiz-adv-x="747" 
d="M717 492v-492h-491l1 136h258l-445 445l96 97l445 -446v260h136z" />
    <glyph glyph-name="uni2199" unicode="&#x2199;" horiz-adv-x="747" 
d="M520 136l1 -136h-491v492h136v-260l445 446l96 -97l-445 -445h258z" />
    <glyph glyph-name="minus" unicode="&#x2212;" horiz-adv-x="581" 
d="M520 247h-460l27 116h460z" />
    <glyph glyph-name="approxequal" unicode="&#x2248;" horiz-adv-x="580" 
d="M568 456l-25 -109q-42 -19 -107 -19q-53 0 -116 22t-113 22q-83 0 -125 -29l25 108q46 30 125 30q51 0 117 -22t115 -22q65 0 104 19zM534 309l-25 -108q-45 -20 -107 -20q-53 0 -116 22.5t-113 22.5q-81 0 -125 -29l25 108q46 30 125 30q51 0 117 -22t115 -22
q65 0 104 18z" />
    <glyph glyph-name="notequal" unicode="&#x2260;" horiz-adv-x="581" 
d="M391 363l-64 -83h201l-27 -115h-263l-54 -69h-117l54 69h-80l27 115h142l64 83h-187l27 115h249l57 73h117l-57 -73h94l-27 -115h-156z" />
    <glyph glyph-name="lessequal" unicode="&#x2264;" horiz-adv-x="431" 
d="M200 385l207 -51l-27 -125l-331 122l30 128l387 121l-34 -141zM20 198h359l-26 -115h-359z" />
    <glyph glyph-name="greaterequal" unicode="&#x2265;" horiz-adv-x="432" 
d="M296 404l-207 51l30 127l331 -122l-29 -128l-387 -121l30 139zM363 83h-359l27 115h359z" />
    <glyph glyph-name="K.ss03" horiz-adv-x="669" 
d="M363 329l248 -329h-166l-199 268h-45l-62 -268h-136l155 670h136l-65 -279h19l325 279h182z" />
    <glyph glyph-name="Kcommaaccent.ss03" horiz-adv-x="669" 
d="M363 329l248 -329h-166l-199 268h-45l-62 -268h-136l155 670h136l-65 -279h19l325 279h182zM208 -45h143l-131 -150h-99z" />
    <glyph glyph-name="Q.ss04" horiz-adv-x="788" 
d="M765 334q-22 -166 -139 -262l123 -145l-105 -96l-147 171q-57 -18 -123 -18q-154 -1 -243 100.5t-69 250.5q21 147 135.5 249.5t255.5 102.5q154 0 243.5 -103.5t68.5 -249.5zM628 334q13 95 -39 159.5t-138 64.5q-97 0 -168 -63.5t-85 -160.5q-13 -95 40.5 -158.5
t137.5 -63.5q98 0 168 62t84 160z" />
    <glyph glyph-name="I.ss05" horiz-adv-x="277" 
d="M149 0h-136l154 670h136z" />
    <glyph glyph-name="IJ.ss05" horiz-adv-x="871" 
d="M149 0h-136l154 670h136zM904 670l-102 -433q-27 -119 -106 -185.5t-188 -66.5q-104 0 -164 59t-63 160l129 26q0 -55 28 -89t82 -34q55 0 93 36t53 94l102 433h136z" />
    <glyph glyph-name="Iacute.ss05" horiz-adv-x="277" 
d="M314 738h-120l100 144h163zM149 0h-136l154 670h136z" />
    <glyph glyph-name="Icircumflex.ss05" horiz-adv-x="277" 
d="M451 729h-124l-31 62l-60 -62h-138l149 149h125zM167 670h136l-154 -670h-136z" />
    <glyph glyph-name="Idieresis.ss05" horiz-adv-x="277" 
d="M159 889q34 0 57 -23.5t23 -54.5q0 -34 -22.5 -56t-57.5 -22q-34 0 -56.5 22t-22.5 56q0 32 22.5 55t56.5 23zM375 889q34 0 57 -23.5t23 -54.5q0 -34 -22.5 -56t-57.5 -22q-34 0 -56.5 22t-22.5 56q0 32 22.5 55t56.5 23zM149 0h-136l154 670h136z" />
    <glyph glyph-name="Idotaccent.ss05" horiz-adv-x="277" 
d="M268 894q33 0 55.5 -22t22.5 -53q0 -33 -22 -54.5t-56 -21.5t-55.5 21.5t-21.5 54.5q0 31 22 53t55 22zM149 0h-136l154 670h136z" />
    <glyph glyph-name="Igrave.ss05" horiz-adv-x="277" 
d="M216 882l100 -144h-120l-143 144h163zM149 0h-136l154 670h136z" />
    <glyph glyph-name="Imacron.ss05" horiz-adv-x="277" 
d="M411 743h-318l24 108h318zM149 0h-136l154 670h136z" />
    <glyph glyph-name="Iogonek.ss05" horiz-adv-x="277" 
d="M303 670l-154 -670q-9 -8 -20 -18t-17 -15.5t-14 -13t-12 -11.5l-9 -9q-5 -5 -7 -8.5t-4.5 -8t-3 -8.5t-0.5 -8q0 -20 24 -20q14 0 50 11l-21 -82q-32 -19 -73 -19q-38 0 -61 21t-23 55q0 67 101 134h-46l154 670h136z" />
    <glyph glyph-name="J.ss05" horiz-adv-x="594" 
d="M627 670l-102 -433q-27 -119 -106 -185.5t-188 -66.5q-104 0 -164 59t-63 160l129 26q0 -55 28 -89t82 -34q55 0 93 36t53 94l102 433h136z" />
    <glyph glyph-name="i.loclTRK" horiz-adv-x="296" 
d="M239 723q33 0 55.5 -22t22.5 -53q0 -33 -22 -54.5t-56 -21.5t-55.5 21.5t-21.5 54.5q0 31 22 53t55 22zM156 0h-132l116 499h132z" />
    <glyph glyph-name="germandbls.case" horiz-adv-x="1238" 
d="M389 685q107 0 172.5 -51t73.5 -142l-137 -28q-1 47 -35 76.5t-87 29.5q-52 0 -86.5 -27.5t-34.5 -66.5q0 -21 14 -35t47 -25l97 -29q154 -46 154 -173q0 -103 -76.5 -166t-201.5 -63q-109 0 -186 50.5t-84 148.5l144 29q12 -111 138 -111q63 0 97.5 27t34.5 69
q0 24 -15.5 38.5t-55.5 26.5l-95 27q-31 9 -54.5 20t-48 30t-38 49t-13.5 69q0 100 77.5 163.5t198.5 63.5zM998 685q107 0 172.5 -51t73.5 -142l-137 -28q-1 47 -35 76.5t-87 29.5q-52 0 -86.5 -27.5t-34.5 -66.5q0 -21 14 -35t47 -25l97 -29q154 -46 154 -173
q0 -103 -76.5 -166t-201.5 -63q-109 0 -186 50.5t-84 148.5l144 29q12 -111 138 -111q63 0 97.5 27t34.5 69q0 24 -15.5 38.5t-55.5 26.5l-95 27q-31 9 -54.5 20t-48 30t-38 49t-13.5 69q0 100 77.5 163.5t198.5 63.5z" />
    <glyph glyph-name="a.ss01" horiz-adv-x="644" 
d="M631 499l-116 -499h-132l8 34q-64 -49 -158 -49q-98 0 -159.5 75.5t-43.5 189.5q19 117 99.5 190.5t187.5 73.5q120 0 167 -79l15 64h132zM274 100q56 0 105.5 42t60.5 108t-25.5 107.5t-92.5 41.5q-63 0 -108 -41t-56 -108q-11 -68 22 -109t94 -41z" />
    <glyph glyph-name="aacute.ss01" horiz-adv-x="644" 
d="M449 567h-120l100 144h163zM631 499l-116 -499h-132l8 34q-64 -49 -158 -49q-98 0 -159.5 75.5t-43.5 189.5q19 117 99.5 190.5t187.5 73.5q120 0 167 -79l15 64h132zM274 100q56 0 105.5 42t60.5 108t-25.5 107.5t-92.5 41.5q-63 0 -108 -41t-56 -108q-11 -68 22 -109
t94 -41z" />
    <glyph glyph-name="abreve.ss01" horiz-adv-x="644" 
d="M381 547q-77 0 -113 40.5t-19 109.5h102q-7 -26 6 -42.5t38 -16.5t45 16.5t27 42.5h116q-17 -69 -71 -109.5t-131 -40.5zM631 499l-116 -499h-132l8 34q-64 -49 -158 -49q-98 0 -159.5 75.5t-43.5 189.5q19 117 99.5 190.5t187.5 73.5q120 0 167 -79l15 64h132zM274 100
q56 0 105.5 42t60.5 108t-25.5 107.5t-92.5 41.5q-63 0 -108 -41t-56 -108q-11 -68 22 -109t94 -41z" />
    <glyph glyph-name="acircumflex.ss01" horiz-adv-x="644" 
d="M371 558h-138l149 149h125l79 -149h-124l-31 62zM631 499l-116 -499h-132l8 34q-64 -49 -158 -49q-98 0 -159.5 75.5t-43.5 189.5q19 117 99.5 190.5t187.5 73.5q120 0 167 -79l15 64h132zM274 100q56 0 105.5 42t60.5 108t-25.5 107.5t-92.5 41.5q-63 0 -108 -41
t-56 -108q-11 -68 22 -109t94 -41z" />
    <glyph glyph-name="adieresis.ss01" horiz-adv-x="644" 
d="M294 562q-34 0 -56.5 22t-22.5 56q0 32 22.5 55t56.5 23t57 -23.5t23 -54.5q0 -34 -22.5 -56t-57.5 -22zM510 562q-34 0 -56.5 22t-22.5 56q0 32 22.5 55t56.5 23t57 -23.5t23 -54.5q0 -34 -22.5 -56t-57.5 -22zM631 499l-116 -499h-132l8 34q-64 -49 -158 -49
q-98 0 -159.5 75.5t-43.5 189.5q19 117 99.5 190.5t187.5 73.5q120 0 167 -79l15 64h132zM274 100q56 0 105.5 42t60.5 108t-25.5 107.5t-92.5 41.5q-63 0 -108 -41t-56 -108q-11 -68 22 -109t94 -41z" />
    <glyph glyph-name="agrave.ss01" horiz-adv-x="644" 
d="M331 567l-143 144h163l100 -144h-120zM631 499l-116 -499h-132l8 34q-64 -49 -158 -49q-98 0 -159.5 75.5t-43.5 189.5q19 117 99.5 190.5t187.5 73.5q120 0 167 -79l15 64h132zM274 100q56 0 105.5 42t60.5 108t-25.5 107.5t-92.5 41.5q-63 0 -108 -41t-56 -108
q-11 -68 22 -109t94 -41z" />
    <glyph glyph-name="amacron.ss01" horiz-adv-x="644" 
d="M546 572h-318l24 108h318zM631 499l-116 -499h-132l8 34q-64 -49 -158 -49q-98 0 -159.5 75.5t-43.5 189.5q19 117 99.5 190.5t187.5 73.5q120 0 167 -79l15 64h132zM274 100q56 0 105.5 42t60.5 108t-25.5 107.5t-92.5 41.5q-63 0 -108 -41t-56 -108q-11 -68 22 -109
t94 -41z" />
    <glyph glyph-name="aogonek.ss01" horiz-adv-x="644" 
d="M631 499l-116 -499q-9 -8 -20 -18t-17 -15.5t-14 -13t-12 -11.5l-9 -9q-5 -5 -7 -8.5t-4.5 -8t-3 -8.5t-0.5 -8q0 -20 24 -20q14 0 50 11l-21 -82q-32 -19 -73 -19q-38 0 -61 21t-23 55q0 67 101 134h-42l8 34q-64 -49 -158 -49q-98 0 -159.5 75.5t-43.5 189.5
q19 117 99.5 190.5t187.5 73.5q120 0 167 -79l15 64h132zM274 100q56 0 105.5 42t60.5 108t-25.5 107.5t-92.5 41.5q-63 0 -108 -41t-56 -108q-11 -68 22 -109t94 -41z" />
    <glyph glyph-name="aring.ss01" horiz-adv-x="644" 
d="M395 544q-48 0 -79 31t-31 76q0 51 37.5 87t90.5 36q48 0 79 -31t31 -76q0 -51 -37.5 -87t-90.5 -36zM407 699q-18 0 -30 -12.5t-12 -30.5q0 -16 9.5 -26.5t26.5 -10.5q19 0 32 13.5t13 30.5q0 15 -11 25.5t-28 10.5zM631 499l-116 -499h-132l8 34q-64 -49 -158 -49
q-98 0 -159.5 75.5t-43.5 189.5q19 117 99.5 190.5t187.5 73.5q120 0 167 -79l15 64h132zM274 100q56 0 105.5 42t60.5 108t-25.5 107.5t-92.5 41.5q-63 0 -108 -41t-56 -108q-11 -68 22 -109t94 -41z" />
    <glyph glyph-name="atilde.ss01" horiz-adv-x="644" 
d="M348 621q-13 0 -23 -10.5t-13 -25.5h-87q16 71 55 101t82 30q36 0 65 -19.5t48 -19.5q13 0 23 11t14 28h87q-17 -72 -56 -102.5t-82 -30.5q-37 0 -65.5 19t-47.5 19zM631 499l-116 -499h-132l8 34q-64 -49 -158 -49q-98 0 -159.5 75.5t-43.5 189.5q19 117 99.5 190.5
t187.5 73.5q120 0 167 -79l15 64h132zM274 100q56 0 105.5 42t60.5 108t-25.5 107.5t-92.5 41.5q-63 0 -108 -41t-56 -108q-11 -68 22 -109t94 -41z" />
    <glyph glyph-name="l.ss02" horiz-adv-x="273" 
d="M144 0h-132l179 770h132z" />
    <glyph glyph-name="lacute.ss02" horiz-adv-x="273" 
d="M336 838h-120l100 144h163zM144 0h-132l179 770h132z" />
    <glyph glyph-name="lcaron.ss02" horiz-adv-x="273" 
d="M144 0h-132l179 770h132zM438 571h-104l46 199h133z" />
    <glyph glyph-name="lcommaaccent.ss02" horiz-adv-x="273" 
d="M144 0h-132l179 770h132zM-90 -195l87 150h143l-131 -150h-99z" />
    <glyph glyph-name="ldot.ss02" horiz-adv-x="401" 
d="M144 0h-132l179 770h132zM376 427q33 0 55.5 -22t22.5 -53q0 -33 -22 -54.5t-56 -21.5t-55.5 21.5t-21.5 54.5q0 31 22 53t55 22z" />
    <glyph glyph-name="lslash.ss02" horiz-adv-x="344" 
d="M288 448l69 35l-30 -127l-68 -35l-75 -321h-132l57 245l-77 -39l29 127l78 39l92 398h132z" />
    <glyph glyph-name="k.ss03" horiz-adv-x="607" 
d="M342 260l207 -260h-160l-151 195h-49l-45 -195h-132l178 770h132l-103 -445h20l219 174h179z" />
    <glyph glyph-name="kcommaaccent.ss03" horiz-adv-x="607" 
d="M342 260l207 -260h-160l-151 195h-49l-45 -195h-132l178 770h132l-103 -445h20l219 174h179zM169 -45h143l-131 -150h-99z" />
    <glyph glyph-name="f_j" horiz-adv-x="677" 
d="M660 499l-139 -604q-15 -65 -64.5 -105t-115.5 -40q-51 0 -98 19l51 115q27 -10 43 -10q21 0 36.5 11t19.5 28l110 478h-242l-91 -391h-132l91 391h-76l25 108h76l21 92q20 87 86.5 138t157.5 51q47 0 84 -18l-53 -107q-27 8 -49 8q-35 0 -60.5 -18.5t-33.5 -53.5
l-21 -92h374zM622 727q34 0 57 -23.5t23 -55.5q0 -33 -23 -55t-57 -22q-35 0 -57.5 22t-22.5 55q0 32 23 55.5t57 23.5z" />
    <glyph glyph-name="f_t" horiz-adv-x="793" 
d="M616 391l-46 -197q-20 -86 41 -86q41 0 91 24l7 -115q-64 -32 -130 -32q-87 0 -126.5 49.5t-16.5 149.5l48 207h-223l-91 -391h-132l91 391h-76l25 108h76l21 92q20 87 86.5 138t157.5 51q47 0 84 -18l-53 -107q-27 8 -49 8q-35 0 -60.5 -18.5t-33.5 -53.5l-21 -92h223
l39 171h132l-40 -171h164l-25 -108h-163z" />
    <glyph glyph-name="fl.ss02" horiz-adv-x="641" 
d="M261 391l-90 -391h-132l90 391h-76l25 108h76l21 92q21 91 81.5 140t148.5 49q53 0 84 -18l-24 -105q-33 6 -68 6q-33 0 -57.5 -19t-32.5 -53l-21 -92h151l-25 -108h-151zM692 770l-179 -770h-132l179 770h132z" />
    <glyph glyph-name="zero.tf" 
d="M381 685q125 0 187 -97t36 -253q-25 -157 -117 -253.5t-217 -96.5t-187 96.5t-37 253.5q25 156 117.5 253t217.5 97zM285 110q65 0 115.5 62.5t65.5 162.5q16 102 -10.5 163.5t-89.5 61.5q-65 0 -116 -62.5t-66 -162.5q-16 -101 10.5 -163t90.5 -62z" />
    <glyph glyph-name="one.tf" 
d="M522 123l-28 -123h-474l28 123h185l87 377l-183 -96l33 143l237 123h84l-126 -547h157z" />
    <glyph glyph-name="two.tf" 
d="M280 123h241l-30 -123h-462l27 88l273 224q3 2 21 16.5t24 20.5t21.5 20t22.5 24.5t16.5 25t13 30t3.5 31.5q0 39 -24.5 63.5t-67.5 24.5q-96 0 -116 -123l-127 26q14 98 83.5 156t169.5 58q95 0 152.5 -53t57.5 -142q0 -70 -40.5 -130t-134.5 -136z" />
    <glyph glyph-name="three.tf" 
d="M593 505q0 -61 -33 -108t-89 -70q62 -47 62 -128q0 -87 -70.5 -150.5t-186.5 -63.5q-108 0 -174 57.5t-64 154.5l121 27q2 -57 32 -89.5t86 -32.5t90 30.5t34 73.5q0 36 -26.5 58t-68.5 22h-89l31 108h82q62 0 101.5 26.5t39.5 70.5q0 36 -26.5 58.5t-70.5 22.5
q-46 0 -80.5 -27t-44.5 -86l-122 23q18 94 87 148.5t168 54.5q96 0 153.5 -49.5t57.5 -130.5z" />
    <glyph glyph-name="four.tf" 
d="M493 245h73l-25 -110h-73l-31 -135h-132l31 135h-325l29 125l371 410h180zM361 245l66 289l-255 -289h189z" />
    <glyph glyph-name="five.tf" 
d="M260 547l-31 -117h79q103 0 164 -49t61 -143q0 -107 -74 -180t-195 -73q-113 0 -182 65t-64 171l126 24q0 -66 33.5 -105.5t93.5 -39.5q57 0 92 34.5t35 84.5q0 46 -32 70.5t-85 24.5h-210l93 356h444l-29 -123h-319z" />
    <glyph glyph-name="six.tf" 
d="M350 434q93 0 151.5 -57t58.5 -147q0 -104 -76.5 -174.5t-189.5 -70.5q-114 0 -182.5 76.5t-68.5 198.5q0 189 102.5 307t250.5 118q86 0 148 -41.5t74 -117.5l-126 -25q-7 32 -34 48.5t-68 16.5q-75 0 -133 -55t-75 -138q64 61 168 61zM300 106q48 0 85 33.5t37 82.5
q0 45 -30 73t-72 28q-48 0 -85 -33t-37 -84q0 -44 30 -72t72 -28z" />
    <glyph glyph-name="seven.tf" 
d="M668 670l-22 -97l-402 -573h-161l390 547h-351l28 123h518z" />
    <glyph glyph-name="eight.tf" 
d="M454 329q95 -48 95 -144q0 -87 -74 -143.5t-191 -56.5q-113 0 -181 51.5t-68 135.5q0 62 45.5 110.5t123.5 66.5q-82 46 -82 144q0 85 68.5 138.5t178.5 53.5q103 0 165 -49t62 -129q0 -64 -37 -111t-105 -67zM362 576q-44 0 -75 -24t-31 -67q0 -39 27.5 -60t69.5 -21
q45 0 77 23.5t32 66.5q0 39 -29 60.5t-71 21.5zM287 98q48 0 81.5 25t33.5 71q0 41 -30.5 63.5t-75.5 22.5q-47 0 -79.5 -25t-32.5 -71q0 -41 29.5 -63.5t73.5 -22.5z" />
    <glyph glyph-name="nine.tf" 
d="M351 684q114 0 182.5 -76.5t68.5 -198.5q0 -189 -102.5 -307t-250.5 -118q-86 0 -148 41.5t-74 117.5l126 25q7 -32 34 -48.5t68 -16.5q75 0 133 55t75 138q-64 -61 -168 -61q-93 0 -151.5 57t-58.5 147q0 104 76.5 174.5t189.5 70.5zM325 346q48 0 85 33t37 84
q0 44 -30 72t-72 28q-48 0 -85 -33.5t-37 -82.5q0 -45 30 -73t72 -28z" />
    <glyph glyph-name="zero.zero.tf" 
d="M381 685q125 0 187 -97t36 -253q-25 -157 -117 -253.5t-217 -96.5t-187 96.5t-37 253.5q25 156 117.5 253t217.5 97zM366 560q-65 0 -116 -62.5t-66 -162.5q-4 -35 -5 -48l272 222q-28 51 -85 51zM285 110q65 0 115.5 62.5t65.5 162.5q4 34 5 50l-272 -223q28 -52 86 -52
z" />
    <glyph glyph-name="zero.zero" horiz-adv-x="666" 
d="M396 685q131 0 201.5 -98t43.5 -252q-28 -159 -116 -254.5t-215 -95.5q-131 0 -201.5 97.5t-43.5 252.5q28 159 116 254.5t215 95.5zM393 560q-68 0 -120 -62t-70 -163q-7 -34 -7 -67l290 238q-30 54 -93 54zM313 110q68 0 120 62t70 163q5 25 6 48l-282 -231
q31 -42 86 -42z" />
    <glyph glyph-name="zero.dnom" horiz-adv-x="407" 
d="M219 386q75 0 112.5 -53.5t23.5 -144.5q-14 -90 -68 -144t-130 -54q-75 0 -112.5 54t-23.5 144t68 144t130 54zM168 75q29 0 51 29t31 84q8 52 -4 81.5t-42 29.5q-31 0 -52.5 -29.5t-29.5 -81.5q-9 -55 3.5 -84t42.5 -29z" />
    <glyph glyph-name="one.dnom" horiz-adv-x="257" 
d="M137 0h-96l59 260l-93 -43l22 98l132 65h63z" />
    <glyph glyph-name="two.dnom" horiz-adv-x="357" 
d="M155 84h131l-17 -84h-288l16 64l160 118q38 29 55.5 48t17.5 40q0 19 -12 30t-32 11q-27 0 -44 -19t-21 -52l-85 14q4 62 48.5 99t108.5 37q59 0 91.5 -32.5t32.5 -83.5q0 -43 -24.5 -73.5t-85.5 -77.5z" />
    <glyph glyph-name="three.dnom" horiz-adv-x="359" 
d="M197 392q60 0 96.5 -31t34.5 -79q-1 -67 -68 -94q38 -23 36 -72q-2 -58 -47.5 -94t-115.5 -36q-63 0 -102 35t-38 92l82 19q1 -31 19.5 -50t47.5 -19t47.5 14t18.5 37q0 43 -51 43h-45l18 69h49q26 0 43 12.5t18 33.5t-12 33t-39 12t-45.5 -20t-25.5 -52l-79 18
q8 56 51.5 92.5t106.5 36.5z" />
    <glyph glyph-name="four.dnom" horiz-adv-x="402" 
d="M334 70h-55l-16 -70h-90l16 70h-208l19 86l237 224h112l-53 -232h55zM207 148l32 135l-146 -135h114z" />
    <glyph glyph-name="five.dnom" horiz-adv-x="355" 
d="M141 294l-13 -50h52q52 0 86 -30t34 -81q0 -64 -44.5 -103.5t-118.5 -39.5q-63 0 -103 32.5t-43 80.5l92 17q4 -23 19.5 -36t40.5 -13q29 0 47 15.5t18 40.5q0 17 -12.5 28t-33.5 11h-140l54 212h265l-17 -84h-183z" />
    <glyph glyph-name="six.dnom" horiz-adv-x="362" 
d="M189 248q56 0 89 -32.5t33 -84.5q0 -62 -45 -101.5t-113 -39.5q-70 0 -109 44t-39 124q0 98 55 162.5t140 64.5q56 0 96.5 -28.5t44.5 -80.5l-94 -14q-3 45 -52 45q-33 0 -56 -23t-33 -58q36 22 83 22zM158 66q26 0 45 18t19 43q0 23 -15.5 38.5t-39.5 15.5
q-26 0 -45 -18.5t-19 -43.5q0 -23 16 -38t39 -15z" />
    <glyph glyph-name="seven.dnom" horiz-adv-x="301" 
d="M321 380l-17 -74l-204 -306h-108l203 296h-177l19 84h284z" />
    <glyph glyph-name="eight.dnom" horiz-adv-x="359" 
d="M248 180q50 -28 50 -81q0 -51 -43.5 -84.5t-110.5 -33.5q-65 0 -104.5 30.5t-39.5 79.5q0 34 25 62t67 40q-42 30 -42 81q0 50 40 80.5t103 30.5q60 0 96 -28t36 -74q0 -35 -20 -62.5t-57 -40.5zM189 317q-22 0 -36.5 -12t-14.5 -35q0 -41 46 -41q22 0 37.5 12t15.5 34
q0 21 -13.5 31.5t-34.5 10.5zM146 54q24 0 40.5 13t16.5 37q0 21 -15 32.5t-37 11.5q-24 0 -39.5 -12.5t-15.5 -37.5q0 -21 14 -32.5t36 -11.5z" />
    <glyph glyph-name="nine.dnom" horiz-adv-x="363" 
d="M181 385q70 0 109 -44t39 -124q0 -98 -55 -162.5t-140 -64.5q-56 0 -96.5 28.5t-44.5 80.5l94 14q3 -45 52 -45q33 0 56 23t33 58q-36 -22 -83 -22q-56 0 -89 32.5t-33 84.5q0 62 45 101.5t113 39.5zM167 194q26 0 45 18.5t19 43.5q0 23 -16 38t-39 15q-26 0 -45 -18
t-19 -43q0 -23 15.5 -38.5t39.5 -15.5z" />
    <glyph glyph-name="zero.numr" horiz-adv-x="407" 
d="M287 680q75 0 112.5 -53.5t23.5 -144.5q-14 -90 -68 -144t-130 -54q-75 0 -112.5 54t-23.5 144t68 144t130 54zM236 369q29 0 51 29t31 84q8 52 -4 81.5t-42 29.5q-31 0 -52.5 -29.5t-29.5 -81.5q-9 -55 3.5 -84t42.5 -29z" />
    <glyph glyph-name="one.numr" horiz-adv-x="257" 
d="M204 290h-96l59 260l-93 -43l22 98l132 65h63z" />
    <glyph glyph-name="two.numr" horiz-adv-x="357" 
d="M222 374h131l-17 -84h-288l16 64l160 118q38 29 55.5 48t17.5 40q0 19 -12 30t-32 11q-27 0 -44 -19t-21 -52l-85 14q4 62 48.5 99t108.5 37q59 0 91.5 -32.5t32.5 -83.5q0 -43 -24.5 -73.5t-85.5 -77.5z" />
    <glyph glyph-name="three.numr" horiz-adv-x="359" 
d="M265 687q60 0 96.5 -31t34.5 -79q-1 -67 -68 -94q38 -23 36 -72q-2 -58 -47.5 -94t-115.5 -36q-63 0 -102 35t-38 92l82 19q1 -31 19.5 -50t47.5 -19t47.5 14t18.5 37q0 43 -51 43h-45l18 69h49q26 0 43 12.5t18 33.5t-12 33t-39 12t-45.5 -20t-25.5 -52l-79 18
q8 56 51.5 92.5t106.5 36.5z" />
    <glyph glyph-name="four.numr" horiz-adv-x="402" 
d="M401 360h-55l-16 -70h-90l16 70h-208l19 86l237 224h112l-53 -232h55zM274 438l32 135l-146 -135h114z" />
    <glyph glyph-name="five.numr" horiz-adv-x="355" 
d="M208 586l-13 -50h52q52 0 86 -30t34 -81q0 -64 -44.5 -103.5t-118.5 -39.5q-63 0 -103 32.5t-43 80.5l92 17q4 -23 19.5 -36t40.5 -13q29 0 47 15.5t18 40.5q0 17 -12.5 28t-33.5 11h-140l54 212h265l-17 -84h-183z" />
    <glyph glyph-name="six.numr" horiz-adv-x="362" 
d="M257 543q56 0 89 -32.5t33 -84.5q0 -62 -45 -101.5t-113 -39.5q-70 0 -109 44t-39 124q0 98 55 162.5t140 64.5q56 0 96.5 -28.5t44.5 -80.5l-94 -14q-3 45 -52 45q-33 0 -56 -23t-33 -58q36 22 83 22zM226 361q26 0 45 18t19 43q0 23 -15.5 38.5t-39.5 15.5
q-26 0 -45 -18.5t-19 -43.5q0 -23 16 -38t39 -15z" />
    <glyph glyph-name="seven.numr" horiz-adv-x="301" 
d="M388 670l-17 -74l-204 -306h-108l203 296h-177l19 84h284z" />
    <glyph glyph-name="eight.numr" horiz-adv-x="359" 
d="M312 475q50 -28 50 -81q0 -51 -43.5 -84.5t-110.5 -33.5q-65 0 -104.5 30.5t-39.5 79.5q0 34 25 62t67 40q-42 30 -42 81q0 50 40 80.5t103 30.5q60 0 96 -28t36 -74q0 -35 -20 -62.5t-57 -40.5zM253 612q-22 0 -36.5 -12t-14.5 -35q0 -41 46 -41q22 0 37.5 12t15.5 34
q0 21 -13.5 31.5t-34.5 10.5zM210 349q24 0 40.5 13t16.5 37q0 21 -15 32.5t-37 11.5q-24 0 -39.5 -12.5t-15.5 -37.5q0 -21 14 -32.5t36 -11.5z" />
    <glyph glyph-name="nine.numr" horiz-adv-x="363" 
d="M249 680q70 0 109 -44t39 -124q0 -98 -55 -162.5t-140 -64.5q-56 0 -96.5 28.5t-44.5 80.5l94 14q3 -45 52 -45q33 0 56 23t33 58q-36 -22 -83 -22q-56 0 -89 32.5t-33 84.5q0 62 45 101.5t113 39.5zM235 489q26 0 45 18.5t19 43.5q0 23 -16 38t-39 15q-26 0 -45 -18
t-19 -43q0 -23 15.5 -38.5t39.5 -15.5z" />
    <glyph glyph-name="backslash.case" horiz-adv-x="419" 
d="M336 0h-130l-84 670h130z" />
    <glyph glyph-name="periodcentered.case" horiz-adv-x="242" 
d="M138 400q34 0 56.5 -23t22.5 -54q0 -32 -22.5 -54t-56.5 -22t-56.5 22t-22.5 54q0 31 22.5 54t56.5 23z" />
    <glyph glyph-name="bullet.case" horiz-adv-x="430" 
d="M233 494q73 0 122 -49.5t49 -116.5q0 -70 -48.5 -117.5t-122.5 -47.5t-122.5 47.5t-48.5 117.5q0 67 49 116.5t122 49.5z" />
    <glyph glyph-name="colon.case" horiz-adv-x="243" 
d="M175 555q34 0 56.5 -23t22.5 -54q0 -32 -22.5 -54t-56.5 -22t-56.5 22t-22.5 54q0 31 22.5 54t56.5 23zM101 239q34 0 56.5 -23t22.5 -54q0 -32 -22.5 -54t-56.5 -22t-56.5 22t-22.5 54q0 31 22.5 54t56.5 23z" />
    <glyph glyph-name="exclamdown.case" horiz-adv-x="292" 
d="M227 521q-34 0 -56.5 23t-22.5 54q0 32 22.5 54t56.5 22t56.5 -22t22.5 -54q0 -31 -22.5 -54t-56.5 -23zM21 0l7 31l102 420h135l-92 -420l-7 -31h-145z" />
    <glyph glyph-name="questiondown.case" horiz-adv-x="535" 
d="M351 524q-34 0 -56.5 23t-22.5 54q0 32 22.5 54t56.5 22t56.5 -22t22.5 -54q0 -31 -22.5 -54t-56.5 -23zM377 220l123 -25q-15 -87 -89 -147t-179 -60q-97 0 -159 52t-62 137q0 90 68.5 149t170.5 68l13 54h121l-36 -156h-76q-46 0 -89.5 -28t-43.5 -75q0 -39 28 -61.5
t72 -22.5q52 0 88.5 32t49.5 83z" />
    <glyph glyph-name="semicolon.case" horiz-adv-x="279" 
d="M191 555q34 0 56.5 -23t22.5 -54q0 -32 -22.5 -54t-56.5 -22t-56.5 22t-22.5 54q0 31 22.5 54t56.5 23zM41 -132h-105l122 268h158l-1 -3z" />
    <glyph glyph-name="slash.case" horiz-adv-x="478" 
d="M95 0h-117l404 670h117z" />
    <glyph glyph-name="braceleft.case" horiz-adv-x="425" 
d="M314 527l-20 -84q-19 -81 -91 -108q59 -29 41 -109l-19 -83q-4 -15 2.5 -23.5t20.5 -8.5h105l-26 -111h-122q-63 0 -93 35.5t-17 93.5l18 81q6 27 -8 41t-47 25l-29 10l23 98l33 10q39 12 59.5 25t26.5 40l19 82q14 58 60.5 93.5t109.5 35.5h122l-26 -111h-105
q-30 0 -37 -32z" />
    <glyph glyph-name="braceright.case" horiz-adv-x="465" 
d="M436 384l-23 -98l-33 -10q-39 -12 -59.5 -25t-26.5 -40l-19 -82q-14 -58 -60.5 -93.5t-109.5 -35.5h-122l26 111h105q30 0 37 32l20 84q19 81 91 108q-59 29 -41 109l19 83q4 15 -2.5 23.5t-20.5 8.5h-105l26 111h122q63 0 93 -35.5t17 -93.5l-18 -81q-6 -27 8 -41
t47 -25z" />
    <glyph glyph-name="bracketleft.case" horiz-adv-x="406" 
d="M268 557l-102 -444h168l-26 -113h-295l154 670h295l-26 -113h-168z" />
    <glyph glyph-name="bracketright.case" horiz-adv-x="406" 
d="M432 670l-154 -670h-295l26 113h168l102 444h-168l26 113h295z" />
    <glyph glyph-name="parenleft.case" horiz-adv-x="356" 
d="M289 686l90 -90q-81 -58 -122.5 -120t-54.5 -142q-12 -77 7.5 -140.5t74.5 -130.5l-107 -80q-150 150 -117 351q33 204 229 352z" />
    <glyph glyph-name="parenright.case" horiz-adv-x="357" 
d="M111 606l107 80q150 -150 117 -351q-33 -204 -229 -352l-90 90q81 58 122.5 120t54.5 142q12 77 -7.5 140.5t-74.5 130.5z" />
    <glyph glyph-name="emdash.case" horiz-adv-x="1040" 
d="M987 280h-920l23 100h920z" />
    <glyph glyph-name="endash.case" horiz-adv-x="620" 
d="M567 280h-500l23 100h500z" />
    <glyph glyph-name="hyphen.case" horiz-adv-x="449" 
d="M393 273h-328l27 114h328z" />
    <glyph glyph-name="guillemotleft.case" horiz-adv-x="472" 
d="M56 322l153 178h130l-162 -184l71 -172h-121zM236 322l153 178h130l-162 -184l71 -172h-121z" />
    <glyph glyph-name="guillemotright.case" horiz-adv-x="472" 
d="M270 322l-153 -178h-130l162 184l-71 172h121zM450 322l-153 -178h-130l162 184l-71 172h121z" />
    <glyph glyph-name="guilsinglleft.case" horiz-adv-x="292" 
d="M42 322l153 178h130l-162 -184l71 -172h-121z" />
    <glyph glyph-name="guilsinglright.case" horiz-adv-x="292" 
d="M284 322l-153 -178h-130l162 184l-71 172h121z" />
    <glyph glyph-name="cent.tf" 
d="M379 384l-65 -275q70 12 104 84l126 -21q-33 -81 -100.5 -131t-150.5 -55l-27 -116h-111l30 128q-80 25 -120.5 92t-25.5 159q16 103 90.5 175t173.5 87l28 119h111l-29 -124q63 -17 105 -63.5t51 -112.5l-136 -25q-4 60 -54 79zM167 249q-14 -90 49 -127l62 263
q-44 -14 -73.5 -50t-37.5 -86z" />
    <glyph glyph-name="dollar.tf" 
d="M380 386l3 -1q74 -26 111.5 -63t37.5 -101q0 -86 -65 -141t-169 -62l-27 -118h-110l30 126q-68 15 -112 58t-51 114l134 26q9 -61 61 -82l36 152q-29 10 -49.5 20t-43.5 27.5t-35 45t-12 62.5q0 80 61 135t156 66l28 120h110l-29 -123q136 -27 155 -169l-128 -27
q-3 60 -57 82zM252 464q0 -30 36 -45l28 116q-29 -9 -46.5 -28t-17.5 -43zM351 264l-31 -131q42 5 64 25t22 51q0 20 -12 31.5t-43 23.5z" />
    <glyph glyph-name="Euro.tf" 
d="M317 112q79 0 142 127l133 -25q-42 -105 -120.5 -167t-174.5 -62t-154.5 60t-67.5 172h-65l21 96h44q1 17 5 44h-38l21 95h40q39 111 119 172t186 61q97 0 155 -63.5t66 -171.5l-139 -23q-6 66 -33 99t-69 33q-96 0 -143 -107h198l-38 -95h-187q-4 -27 -5 -44h178
l-37 -96h-138q18 -105 101 -105z" />
    <glyph glyph-name="florin.tf" 
d="M551 567q-71 0 -105 -82l-42 -101h150l-24 -108h-171l-111 -269q-70 -172 -229 -172q-61 0 -106 28l67 106q30 -10 56 -10t48 13.5t30 34.5l112 269h-105l24 108h125l51 122q37 89 100 133.5t143 44.5q85 0 132 -34l-69 -108q-30 25 -76 25z" />
    <glyph glyph-name="sterling.tf" 
d="M630 448l-123 -14q8 59 -14 95.5t-66 36.5q-52 0 -89 -33.5t-49 -84.5l-20 -87h170l-28 -123h-170l-27 -115h340l-28 -123h-561l19 83l91 24l30 131h-85l28 123h85l20 87q25 108 100.5 172.5t181.5 64.5q103 0 157.5 -65.5t37.5 -171.5z" />
    <glyph glyph-name="yen.tf" 
d="M438 338h109l-24 -100h-155l-11 -50h155l-23 -100h-155l-20 -88h-136l20 88h-149l23 100h149l12 50h-150l24 100h102l-102 332h143l75 -294l210 294h163z" />
    <glyph glyph-name="approxequal.tf" 
d="M581 456l-25 -109q-42 -19 -107 -19q-53 0 -116 22t-113 22q-83 0 -125 -29l25 108q46 30 125 30q51 0 117 -22t115 -22q65 0 104 19zM547 309l-25 -108q-45 -20 -107 -20q-53 0 -116 22.5t-113 22.5q-82 0 -125 -29l25 108q46 30 125 30q51 0 117 -22t115 -22
q65 0 104 18z" />
    <glyph glyph-name="divide.tf" 
d="M349 557q34 0 56.5 -23t22.5 -54q0 -32 -22.5 -54t-56.5 -22t-56.5 22t-22.5 54q0 31 22.5 54t56.5 23zM538 247h-460l27 116h460zM268 207q34 0 56.5 -23t22.5 -54q0 -32 -22.5 -54t-56.5 -22t-56.5 22t-22.5 54q0 31 22.5 54t56.5 23z" />
    <glyph glyph-name="equal.tf" 
d="M559 363h-460l27 115h460zM513 165h-460l27 115h460z" />
    <glyph glyph-name="greater.tf" 
d="M372 336l-210 72l32 133l346 -143l-32 -140l-412 -141l32 144z" />
    <glyph glyph-name="greaterequal.tf" 
d="M386 404l-207 51l30 127l331 -122l-29 -128l-387 -121l30 139zM453 83h-359l27 115h359z" />
    <glyph glyph-name="less.tf" 
d="M268 322l210 -72l-32 -133l-346 143l32 140l412 141l-32 -144z" />
    <glyph glyph-name="lessequal.tf" 
d="M280 385l207 -51l-27 -125l-331 122l30 128l387 121l-34 -141zM100 198h359l-26 -115h-359z" />
    <glyph glyph-name="minus.tf" 
d="M535 247h-460l27 116h460z" />
    <glyph glyph-name="multiply.tf" 
d="M392 301l106 -134l-90 -74l-107 135l-173 -139l-64 85l171 137l-104 132l91 74l105 -133l174 140l64 -85z" />
    <glyph glyph-name="notequal.tf" 
d="M403 363l-64 -83h201l-27 -115h-263l-54 -69h-117l54 69h-80l27 115h142l64 83h-187l27 115h249l57 73h117l-57 -73h94l-27 -115h-156z" />
    <glyph glyph-name="plus.tf" 
d="M535 247h-172l-41 -176h-116l41 176h-172l27 116h171l41 176h116l-41 -176h173z" />
    <glyph glyph-name="plusminus.tf" 
d="M582 447l-27 -115h-172l-34 -146h-116l34 146h-172l27 115h172l38 166h116l-38 -166h172zM45 115h460l-27 -115h-460z" />
    <glyph glyph-name="bar.case" horiz-adv-x="268" 
d="M130 -41h-127l174 752h127z" />
    <glyph glyph-name="at.case" horiz-adv-x="943" 
d="M725 515l-65 -283q-6 -24 9 -38.5t39 -14.5q53 0 87.5 69.5t34.5 141.5q0 115 -80 186.5t-204 71.5q-166 0 -286.5 -112t-120.5 -272q0 -123 79 -202.5t202 -79.5q136 0 258 81l31 -68q-61 -43 -142 -67.5t-159 -24.5q-155 0 -255 98t-100 251q0 98 41.5 186.5t110.5 151
t162 99t193 36.5q154 0 255 -90.5t101 -231.5q0 -47 -14 -97t-41 -96.5t-74.5 -76.5t-106.5 -30q-85 0 -106 59q-61 -58 -154 -58q-77 0 -124 47t-47 125q0 108 73 177t171 69q91 0 131 -70l15 63h86zM448 191q53 0 95.5 39.5t42.5 102.5q0 46 -27.5 73t-68.5 27
q-53 0 -95 -39t-42 -102q0 -46 27.5 -73.5t67.5 -27.5z" />
    <glyph glyph-name="caron.alt" horiz-adv-x="600" 
d="M374 451h-104l46 199h133z" />
    </font>
</defs>
</svg>
