<?xml version="1.0" standalone="no"?>
<!DOCTYPE svg PUBLIC "-//W3C//DTD SVG 1.1//EN" "http://www.w3.org/Graphics/SVG/1.1/DTD/svg11.dtd" >
<svg>
<metadata>
Created by FontForge 20120731 at Thu Dec 17 11:05:16 2015
 By ,,,
Copyright (c) 2014 by Rene' Bieder. All rights reserved.
</metadata>
<defs>
<font id="GalanoGrotesque-ThinItalic" horiz-adv-x="610" >
  <font-face 
    font-family="Galano Grotesque Thin"
    font-weight="400"
    font-style="italic"
    font-stretch="normal"
    units-per-em="1000"
    panose-1="0 0 3 0 0 0 0 0 0 0"
    ascent="796"
    descent="-204"
    x-height="486"
    cap-height="670"
    bbox="-249 -191 1209 937"
    underline-thickness="50"
    underline-position="-50"
    slope="-13"
    unicode-range="U+0020-FB02"
  />
<missing-glyph horiz-adv-x="814" 
d="M407 683q145 0 246 -99.5t101 -250.5q0 -150 -101 -249t-246 -99t-246 99t-101 249q0 151 101 250.5t246 99.5zM407 665q-136 0 -231.5 -94t-95.5 -237q0 -141 95.5 -235.5t231.5 -94.5t231.5 94.5t95.5 235.5q0 143 -95.5 237t-231.5 94zM536 401q0 -49 -35 -81.5
t-87 -35.5v-56h-21v77h11q47 0 78.5 26.5t31.5 69.5t-28.5 69t-76.5 26q-50 0 -79.5 -31t-27.5 -81l-22 2q-1 58 35 94t94 36q56 0 91.5 -32t35.5 -83zM404 181q7 0 12.5 -5t5.5 -12t-5.5 -13t-12.5 -6q-8 0 -13.5 5.5t-5.5 13.5q0 7 5.5 12t13.5 5z" />
    <glyph glyph-name="fi" unicode="fi" horiz-adv-x="594" 
d="M535 486l-112 -486h-21l107 466h-322l-107 -466h-21l107 466h-95l5 20h95l23 101q17 70 63 111.5t109 41.5q58 0 92 -30l-13 -15q-29 25 -79 25q-56 0 -96 -36.5t-55 -96.5l-23 -101h343zM559 659q10 0 17.5 -7t7.5 -17t-7 -17t-18 -7t-18 7t-7 17t7.5 17t17.5 7z" />
    <glyph glyph-name="fl" unicode="fl" horiz-adv-x="574" 
d="M188 466l-108 -466h-21l108 466h-95l4 20h96l23 101q16 71 63.5 112t112.5 41q43 0 71 -18l-11 -16q-24 15 -60 15q-61 0 -101.5 -37.5t-53.5 -96.5l-23 -101h206l-4 -20h-207zM579 720l-166 -720h-21l166 720h21z" />
    <glyph glyph-name=".notdef" horiz-adv-x="814" 
d="M407 683q145 0 246 -99.5t101 -250.5q0 -150 -101 -249t-246 -99t-246 99t-101 249q0 151 101 250.5t246 99.5zM407 665q-136 0 -231.5 -94t-95.5 -237q0 -141 95.5 -235.5t231.5 -94.5t231.5 94.5t95.5 235.5q0 143 -95.5 237t-231.5 94zM536 401q0 -49 -35 -81.5
t-87 -35.5v-56h-21v77h11q47 0 78.5 26.5t31.5 69.5t-28.5 69t-76.5 26q-50 0 -79.5 -31t-27.5 -81l-22 2q-1 58 35 94t94 36q56 0 91.5 -32t35.5 -83zM404 181q7 0 12.5 -5t5.5 -12t-5.5 -13t-12.5 -6q-8 0 -13.5 5.5t-5.5 13.5q0 7 5.5 12t13.5 5z" />
    <glyph glyph-name=".null" horiz-adv-x="0" 
 />
    <glyph glyph-name="nonmarkingreturn" horiz-adv-x="333" 
 />
    <glyph glyph-name="space" unicode=" " horiz-adv-x="260" 
 />
    <glyph glyph-name="exclam" unicode="!" horiz-adv-x="252" 
d="M235 670l-7 -31l-107 -460h-21l107 460l7 31h21zM75 46q10 0 17.5 -7t7.5 -17t-7 -17t-18 -7t-18 7t-7 17t7.5 17t17.5 7z" />
    <glyph glyph-name="quotedbl" unicode="&#x22;" horiz-adv-x="251" 
d="M99 412l60 258h21l-60 -258h-21zM209 412l60 258h21l-60 -258h-21z" />
    <glyph glyph-name="numbersign" unicode="#" horiz-adv-x="664" 
d="M557 452l-120 -244h110l-9 -20h-111l-92 -188h-23l92 188h-246l-92 -188h-23l92 188h-108l9 20h109l119 244h-108l10 20h108l97 198h24l-97 -198h245l97 198h24l-97 -198h110l-10 -20h-110zM533 452h-245l-120 -244h246z" />
    <glyph glyph-name="dollar" unicode="$" horiz-adv-x="576" 
d="M552 483l-21 -7q-7 64 -46.5 103.5t-104.5 49.5l-65 -272l72 -30q59 -25 86.5 -57.5t27.5 -80.5q0 -73 -58 -118.5t-155 -45.5q-30 0 -51 4l-29 -129h-23l30 133q-73 16 -117.5 64t-46.5 118l23 5q1 -65 40.5 -109t105.5 -60l71 296l-16 7q-79 34 -108 62t-29 74
q0 73 56 117t148 44l21 -1l27 120h23l-28 -122q74 -10 117 -54t50 -111zM359 631l-19 1q-81 0 -131 -39t-50 -102q0 -39 25.5 -64.5t93.5 -53.5l17 -7zM310 338l-69 -291q22 -3 47 -3q86 0 138.5 40.5t52.5 105.5q0 75 -93 116z" />
    <glyph glyph-name="percent" unicode="%" horiz-adv-x="891" 
d="M312 680q59 0 99 -36.5t40 -97.5q0 -76 -57 -127t-129 -51q-60 0 -100.5 38.5t-40.5 99.5q0 75 58 124.5t130 49.5zM99 0l665 670h27l-665 -670h-27zM312 663q-64 0 -117 -45t-53 -112q0 -52 36.5 -85.5t86.5 -33.5q65 0 116 45t51 114q0 51 -34 84t-86 33zM669 302
q60 0 100 -36.5t40 -97.5q0 -76 -57 -127t-129 -51q-59 0 -99.5 38.5t-40.5 99.5q0 75 57.5 124.5t128.5 49.5zM669 285q-64 0 -115.5 -45t-51.5 -112q0 -53 35.5 -86t85.5 -33q65 0 116 45t51 114q0 52 -34 84.5t-87 32.5z" />
    <glyph glyph-name="ampersand" unicode="&#x26;" horiz-adv-x="724" 
d="M624 -10l-116 113q-108 -114 -260 -114q-87 0 -138 42t-51 113q0 77 56 137t138 89q-37 57 -37 114q0 83 58.5 139.5t146.5 56.5q64 0 106 -32.5t46 -92.5l-20 -3q-4 53 -40 81t-92 28q-78 0 -131 -50.5t-53 -125.5q0 -54 34.5 -107.5t110.5 -126.5l125 -121
q58 68 82 165l8 36h21l-8 -36q-25 -105 -89 -178l117 -113zM249 9q145 0 246 107l-127 123q-71 68 -105 116q-86 -33 -134.5 -88t-48.5 -122q0 -64 45 -100t124 -36z" />
    <glyph glyph-name="quotesingle" unicode="'" horiz-adv-x="141" 
d="M99 412l60 258h21l-60 -258h-21z" />
    <glyph glyph-name="parenleft" unicode="(" horiz-adv-x="368" 
d="M343 750l14 -17q-205 -165 -243 -399q-38 -236 114 -402l-17 -14q-157 171 -119 416t251 416z" />
    <glyph glyph-name="parenright" unicode=")" horiz-adv-x="368" 
d="M69 -82l-14 17q205 165 243 399q38 236 -114 402l17 14q157 -171 119 -416t-251 -416z" />
    <glyph glyph-name="asterisk" unicode="*" horiz-adv-x="432" 
d="M307 545l99 -116l-16 -12l-99 116l-52 -142l-19 7l52 141l-151 -25l-4 20l151 25l-100 117l17 12l99 -116l51 141l19 -7l-52 -141l151 25l5 -19z" />
    <glyph glyph-name="plus" unicode="+" horiz-adv-x="580" 
d="M512 295h-200l-46 -200h-21l46 200h-199l5 20h198l46 200h22l-46 -200h200z" />
    <glyph glyph-name="comma" unicode="," horiz-adv-x="168" 
d="M-47 -132h-20l132 258h28l-1 -2z" />
    <glyph glyph-name="hyphen" unicode="-" horiz-adv-x="439" 
d="M379 245h-318l4 20h318z" />
    <glyph glyph-name="period" unicode="." horiz-adv-x="172" 
d="M35 46q10 0 17.5 -7t7.5 -17t-7 -17t-18 -7t-18 7t-7 17t7.5 17t17.5 7z" />
    <glyph glyph-name="slash" unicode="/" horiz-adv-x="318" 
d="M425 720l-470 -790h-22l470 790h22z" />
    <glyph glyph-name="zero" unicode="0" horiz-adv-x="664" 
d="M417 680q121 0 177.5 -95.5t25.5 -249.5q-32 -156 -122.5 -250.5t-209.5 -94.5q-121 0 -177.5 95.5t-24.5 249.5q32 156 122 250.5t209 94.5zM291 11q110 0 193 88.5t114 235.5q30 145 -22 235t-162 90q-109 0 -192.5 -89t-113.5 -236q-31 -145 20.5 -234.5t162.5 -89.5z
" />
    <glyph glyph-name="one" unicode="1" horiz-adv-x="340" 
d="M339 670l-155 -670h-22l147 639l-215 -105l6 25l226 111h13z" />
    <glyph glyph-name="two" unicode="2" horiz-adv-x="507" 
d="M517 495q0 -80 -48 -136t-165 -139l-281 -200h412l-5 -20h-457l4 13l312 223q116 81 161.5 133t45.5 125q0 75 -47.5 120.5t-128.5 45.5q-86 0 -142 -54t-64 -143l-21 3q8 96 71 155t157 59q90 0 143 -50.5t53 -134.5z" />
    <glyph glyph-name="three" unicode="3" horiz-adv-x="600" 
d="M61 213l22 4q-8 -90 44 -148.5t147 -58.5q93 0 157.5 55t64.5 137q0 65 -44.5 100t-124.5 35h-56l6 21h56q51 0 98 15t82.5 53t35.5 93q0 65 -46 103t-122 38q-87 0 -141 -51t-69 -139l-21 4q17 96 77.5 151t155.5 55q84 0 135.5 -43.5t51.5 -116.5q0 -72 -49.5 -116
t-134.5 -56v-1q131 -24 131 -143q0 -93 -71 -153.5t-174 -60.5t-161 62.5t-50 160.5z" />
    <glyph glyph-name="four" unicode="4" horiz-adv-x="626" 
d="M578 187h-119l-43 -187h-22l43 187h-400l6 26l504 457h23l-106 -463h118zM442 207l98 427l-473 -427h375z" />
    <glyph glyph-name="five" unicode="5" horiz-adv-x="552" 
d="M224 650l-97 -274h186q84 0 135 -44.5t51 -120.5q0 -91 -69 -156t-179 -65q-105 0 -165 61.5t-60 164.5l22 4q-2 -96 53 -153t151 -57q101 0 163.5 59.5t62.5 140.5q0 68 -45.5 107t-120.5 39h-212l109 314h363l-5 -20h-343z" />
    <glyph glyph-name="six" unicode="6" 
d="M423 680q72 0 122.5 -36t56.5 -99l-22 -4q-5 56 -50 87.5t-110 31.5q-83 0 -152 -50t-108 -123t-54 -157q-2 -9 -10 -79h3q24 79 91.5 130t154.5 51t140.5 -52t53.5 -133q0 -108 -70 -182.5t-181 -74.5q-102 0 -156.5 62t-54.5 180q0 183 99 315.5t247 132.5zM339 411
q-96 0 -165.5 -73t-69.5 -151q0 -79 52 -127.5t132 -48.5q102 0 166 68.5t64 165.5q0 72 -49 119t-130 47z" />
    <glyph glyph-name="seven" unicode="7" horiz-adv-x="486" 
d="M570 670l-3 -12l-433 -658h-28l432 650h-414l5 20h441z" />
    <glyph glyph-name="eight" unicode="8" horiz-adv-x="588" 
d="M374 680q99 0 154.5 -46.5t50.5 -123.5q-4 -65 -55.5 -113.5t-157.5 -52.5q77 -16 112 -60.5t35 -101.5q0 -85 -68.5 -138.5t-178.5 -53.5q-107 0 -169 50t-56 132q5 68 66.5 120.5t175.5 55.5q-74 15 -107.5 56.5t-33.5 95.5q0 81 63.5 130.5t168.5 49.5zM351 359
q96 0 151 46t55 113q0 64 -49.5 103t-133.5 39q-90 0 -147.5 -41.5t-62.5 -108.5q-5 -66 45 -108.5t142 -42.5zM489 181q0 67 -48.5 108.5t-142.5 41.5q-103 0 -167.5 -48t-64.5 -120q0 -68 54 -109.5t145 -41.5q100 0 162 46.5t62 122.5z" />
    <glyph glyph-name="nine" unicode="9" 
d="M229 -10q-72 0 -122.5 36t-56.5 99l22 4q5 -56 50 -87.5t110 -31.5q83 0 152 50t108 123t54 157q2 9 10 79h-3q-24 -79 -91.5 -130t-154.5 -51t-140.5 52t-53.5 133q0 108 70 182.5t181 74.5q102 0 156.5 -62t54.5 -180q0 -183 -99 -315.5t-247 -132.5zM313 259
q96 0 165.5 73t69.5 151q0 79 -52 127.5t-132 48.5q-102 0 -166 -68.5t-64 -165.5q0 -72 49 -119t130 -47z" />
    <glyph glyph-name="colon" unicode=":" horiz-adv-x="172" 
d="M125 438q10 0 17.5 -7t7.5 -17t-7 -17t-18 -7t-18 7t-7 17t7.5 17t17.5 7zM35 46q10 0 17.5 -7t7.5 -17t-7 -17t-18 -7t-18 7t-7 17t7.5 17t17.5 7z" />
    <glyph glyph-name="semicolon" unicode=";" horiz-adv-x="183" 
d="M137 438q10 0 17.5 -7t7.5 -17t-7 -17t-18 -7t-18 7t-7 17t7.5 17t17.5 7zM-47 -132h-20l132 258h28l-1 -2z" />
    <glyph glyph-name="less" unicode="&#x3c;" horiz-adv-x="424" 
d="M77 303l285 -160l-6 -21l-313 177l3 12l395 177l-5 -25z" />
    <glyph glyph-name="equal" unicode="=" horiz-adv-x="581" 
d="M536 395h-420l4 20h420zM494 215h-420l5 20h420z" />
    <glyph glyph-name="greater" unicode="&#x3e;" horiz-adv-x="424" 
d="M377 307l-285 160l6 21l313 -177l-3 -12l-395 -177l5 25z" />
    <glyph glyph-name="question" unicode="?" horiz-adv-x="501" 
d="M516 504q0 -99 -81 -161.5t-183 -64.5l-25 -99h-22l30 119h11q94 0 171.5 56.5t77.5 147.5q0 70 -46.5 114t-122.5 44q-84 0 -143.5 -55t-67.5 -145l-21 3q8 97 73 157t159 60q86 0 138 -49t52 -127zM180 46q10 0 17.5 -7t7.5 -17t-7 -17t-18 -7t-18 7t-7 17t7.5 17
t17.5 7z" />
    <glyph glyph-name="at" unicode="@" horiz-adv-x="975" 
d="M563 680q156 0 252.5 -91.5t96.5 -236.5q0 -68 -20 -130.5t-65.5 -107t-106.5 -44.5q-51 0 -76 26t-15 70l6 25q-32 -53 -85 -83.5t-112 -30.5q-73 0 -118.5 46.5t-45.5 123.5q0 99 70.5 167t161.5 68q68 0 112 -41t49 -110l33 141h20l-71 -307q-8 -35 12 -56.5t61 -21.5
q52 0 92 41t59 100.5t19 123.5q0 137 -90.5 223.5t-238.5 86.5q-120 0 -225.5 -57t-170 -157.5t-64.5 -219.5q0 -142 87 -232t224 -90q58 0 128 16.5t118 43.5l7 -18q-50 -29 -121.5 -45.5t-132.5 -16.5q-145 0 -238 94.5t-93 243.5q0 126 67.5 231.5t177.5 165t236 59.5z
M442 95q83 0 145.5 62t62.5 153q0 70 -40 111t-105 41q-83 0 -146.5 -60.5t-63.5 -151.5q0 -70 41 -112.5t106 -42.5z" />
    <glyph glyph-name="A" unicode="A" horiz-adv-x="678" 
d="M602 0h-21l-46 196h-410l-136 -196h-25l465 670h18zM531 216l-99 423l-293 -423h392z" />
    <glyph glyph-name="B" unicode="B" horiz-adv-x="693" 
d="M505 342v-3q55 -9 85 -43.5t30 -88.5q0 -87 -70.5 -147t-172.5 -60h-315l150 650l5 20h265q81 0 129.5 -38.5t48.5 -104.5q0 -62 -45.5 -117t-109.5 -68zM235 650l-70 -301h272q83 0 142 53.5t59 124.5q0 58 -42.5 90.5t-113.5 32.5h-247zM89 20h288q94 0 157.5 55
t63.5 132q0 58 -38.5 90t-107.5 32h-292z" />
    <glyph glyph-name="C" unicode="C" horiz-adv-x="805" 
d="M495 680q104 0 178.5 -50.5t98.5 -134.5l-21 -8q-21 77 -90.5 125t-167.5 48q-153 0 -266.5 -109.5t-113.5 -260.5q0 -121 76.5 -200.5t202.5 -79.5q97 0 181 48.5t129 124.5l19 -8q-48 -82 -138.5 -133.5t-193.5 -51.5q-134 0 -216.5 85t-82.5 214q0 160 121 275.5
t284 115.5z" />
    <glyph glyph-name="D" unicode="D" horiz-adv-x="749" 
d="M204 670h195q152 0 230.5 -76t78.5 -195q0 -75 -31.5 -146.5t-89 -128t-146 -90.5t-193.5 -34h-199zM76 20h172q101 0 185 33t138 86.5t84 120.5t30 137q0 111 -73 182t-213 71h-177z" />
    <glyph glyph-name="E" unicode="E" horiz-adv-x="640" 
d="M221 650l-70 -303h418l-4 -20h-418l-71 -307h448l-5 -20h-470l155 670h470l-5 -20h-448z" />
    <glyph glyph-name="F" unicode="F" horiz-adv-x="585" 
d="M221 650l-70 -303h408l-4 -20h-408l-76 -327h-22l155 670h460l-5 -20h-438z" />
    <glyph glyph-name="G" unicode="G" horiz-adv-x="814" 
d="M769 345l-1 -10q-23 -145 -131 -245t-254 -100q-129 0 -211.5 85.5t-82.5 215.5q0 104 56 194t148 142.5t196 52.5q111 0 184.5 -50.5t96.5 -134.5l-21 -8q-22 78 -90 125.5t-170 47.5q-150 0 -263.5 -109.5t-113.5 -259.5q0 -120 76 -200.5t195 -80.5q136 0 236 91
t125 224h-353l4 20h374z" />
    <glyph glyph-name="H" unicode="H" horiz-adv-x="739" 
d="M733 670l-155 -670h-22l76 328h-485l-76 -328h-22l155 670h22l-74 -322h485l74 322h22z" />
    <glyph glyph-name="I" unicode="I" horiz-adv-x="232" 
d="M71 0h-22l155 670h22z" />
    <glyph glyph-name="J" unicode="J" horiz-adv-x="594" 
d="M617 670l-97 -420q-27 -117 -108.5 -188.5t-186.5 -71.5q-95 0 -150.5 58.5t-51.5 153.5l21 7q-4 -90 45 -144t136 -54q97 0 172.5 66t100.5 173l97 420h22z" />
    <glyph glyph-name="K" unicode="K" horiz-adv-x="678" 
d="M200 334l392 -334h-31l-379 325h-36l-75 -325h-22l154 670h22l-75 -325h31l497 325h34z" />
    <glyph glyph-name="L" unicode="L" horiz-adv-x="575" 
d="M499 20l-5 -20h-445l155 670h22l-150 -650h423z" />
    <glyph glyph-name="M" unicode="M" horiz-adv-x="909" 
d="M903 670l-155 -670h-21l143 619l-461 -619h-21l-175 619l-143 -619h-21l155 670h18l182 -641l477 641h22z" />
    <glyph glyph-name="N" unicode="N" horiz-adv-x="759" 
d="M753 670l-155 -670h-20l-359 640l-148 -640h-22l155 670h22l358 -638l147 638h22z" />
    <glyph glyph-name="O" unicode="O" horiz-adv-x="819" 
d="M486 680q143 0 225.5 -100t59.5 -245q-22 -145 -136 -245t-257 -100t-226 99.5t-60 245.5q23 145 137 245t257 100zM381 10q133 0 239.5 94t128.5 231q21 136 -55.5 230.5t-209.5 94.5q-134 0 -241.5 -94.5t-128.5 -230.5q-22 -137 55.5 -231t211.5 -94z" />
    <glyph glyph-name="P" unicode="P" horiz-adv-x="639" 
d="M203 670h268q86 0 134 -42t48 -114q0 -93 -77 -159.5t-193 -66.5h-246l-67 -288h-22l150 650zM141 308h242q106 0 177 60.5t71 145.5q0 62 -41 99t-119 37h-251z" />
    <glyph glyph-name="Q" unicode="Q" horiz-adv-x="819" 
d="M771 335q-14 -89 -65.5 -164.5t-127.5 -122.5l155 -183l-17 -14l-157 186q-86 -47 -181 -47q-143 0 -226 99.5t-60 245.5q23 145 137 245t257 100t225.5 -100t59.5 -245zM381 10q133 0 239.5 94t128.5 231q21 136 -55.5 230.5t-209.5 94.5q-134 0 -241.5 -94.5
t-128.5 -230.5q-22 -137 55.5 -231t211.5 -94z" />
    <glyph glyph-name="R" unicode="R" horiz-adv-x="666" 
d="M673 531q0 -91 -67.5 -147t-177.5 -56h-54l205 -328h-27l-202 328h-194l-76 -328h-22l150 650l5 20h299q73 0 117 -38.5t44 -100.5zM161 348h268q100 0 161 49.5t61 131.5q0 55 -38.5 88t-100.5 33h-281z" />
    <glyph glyph-name="S" unicode="S" horiz-adv-x="619" 
d="M383 680q100 0 161 -50.5t66 -134.5l-21 -7q-5 78 -60.5 125t-147.5 47q-91 0 -151.5 -44.5t-60.5 -115.5q0 -43 26 -70t81 -49l135 -55q68 -28 99 -63.5t31 -85.5q0 -84 -68 -135.5t-178 -51.5q-115 0 -185 57.5t-70 151.5l22 6q-1 -88 62.5 -141.5t171.5 -53.5
q100 0 161 45.5t61 120.5q0 85 -109 129l-140 57q-66 29 -94 58.5t-28 77.5q0 81 67 131.5t169 50.5z" />
    <glyph glyph-name="T" unicode="T" horiz-adv-x="632" 
d="M696 650h-274l-150 -650h-24l150 650h-274l5 20h572z" />
    <glyph glyph-name="U" unicode="U" horiz-adv-x="730" 
d="M734 670l-89 -385q-31 -134 -118.5 -214.5t-209.5 -80.5q-123 0 -182.5 81.5t-29.5 213.5l89 385h22l-89 -385q-28 -123 24.5 -198.5t164.5 -75.5q114 0 196 74.5t111 199.5l89 385h22z" />
    <glyph glyph-name="V" unicode="V" horiz-adv-x="667" 
d="M736 670l-451 -670h-20l-141 670h21l136 -637l430 637h25z" />
    <glyph glyph-name="W" unicode="W" horiz-adv-x="949" 
d="M1018 670l-371 -670h-21l-64 636l-354 -636h-22l-62 670h21l59 -636l354 636h23l62 -636l352 636h23z" />
    <glyph glyph-name="X" unicode="X" horiz-adv-x="602" 
d="M319 334l183 -334h-25l-174 319l-319 -319h-31l338 337l-174 333h25l166 -319l313 319h31l-329 -333z" />
    <glyph glyph-name="Y" unicode="Y" horiz-adv-x="655" 
d="M339 254l-59 -254h-22l59 254l-193 416h24l182 -398l366 398h28z" />
    <glyph glyph-name="Z" unicode="Z" horiz-adv-x="626" 
d="M661 658l-607 -638h460l-4 -20h-496l3 13l606 637h-445l4 20h482z" />
    <glyph glyph-name="bracketleft" unicode="[" horiz-adv-x="377" 
d="M237 720l-180 -782h180l-5 -20h-202l190 822h202l-5 -20h-180z" />
    <glyph glyph-name="backslash" unicode="\" horiz-adv-x="318" 
d="M219 -72h-20l-100 812h20z" />
    <glyph glyph-name="bracketright" unicode="]" horiz-adv-x="377" 
d="M387 740l-190 -822h-202l5 20h180l180 782h-180l5 20h202z" />
    <glyph glyph-name="asciicircum" unicode="^" horiz-adv-x="344" 
d="M112 481h-27l179 189h14l91 -189h-23l-79 163z" />
    <glyph glyph-name="underscore" unicode="_" horiz-adv-x="470" 
d="M377 -76h-430l4 20h430z" />
    <glyph glyph-name="grave" unicode="`" horiz-adv-x="600" 
d="M226 703l124 -136h-23l-131 136h30z" />
    <glyph glyph-name="a" unicode="a" horiz-adv-x="657" 
d="M608 486l-112 -486h-21l29 125q-41 -63 -106 -99t-135 -36q-105 0 -165 70.5t-42 184.5q18 113 99.5 182t186.5 69q81 0 138.5 -45t70.5 -123l36 158h21zM265 10q91 0 169.5 66t95.5 169q16 103 -41 167t-148 64q-96 0 -172 -63.5t-92 -167.5q-17 -105 38 -170t150 -65z
" />
    <glyph glyph-name="b" unicode="b" horiz-adv-x="656" 
d="M394 496q105 0 165 -70.5t42 -184.5q-18 -113 -99.5 -182t-186.5 -69q-81 0 -138.5 45t-70.5 123l-36 -158h-21l166 720h21l-83 -358q41 63 106 98.5t135 35.5zM316 10q96 0 172 63.5t92 167.5q17 105 -38 170t-150 65q-91 0 -169.5 -66t-95.5 -169q-16 -103 41 -167
t148 -64z" />
    <glyph glyph-name="c" unicode="c" horiz-adv-x="579" 
d="M340 476q-94 0 -171 -65.5t-93 -167.5t41.5 -167.5t148.5 -65.5q68 0 128.5 37.5t88.5 96.5l18 -7q-29 -65 -95 -106t-140 -41q-103 0 -166 71t-45 182t101 182t184 71q77 0 132 -39t65 -105l-20 -8q-9 60 -59.5 96t-117.5 36z" />
    <glyph glyph-name="d" unicode="d" horiz-adv-x="656" 
d="M661 720l-166 -720h-21l29 125q-41 -63 -106 -99t-135 -36q-105 0 -165 70.5t-42 184.5q18 113 99.5 182t186.5 69q81 0 138.5 -45t70.5 -123l90 392h21zM264 10q91 0 169.5 66t95.5 169q16 103 -41 167t-148 64q-96 0 -172 -63.5t-92 -167.5q-17 -105 38 -170t150 -65z
" />
    <glyph glyph-name="e" unicode="e" horiz-adv-x="594" 
d="M542 248h-466q-3 -20 -3 -37q0 -88 54 -144.5t148 -56.5q69 0 129.5 38t96.5 108l17 -7q-35 -74 -101.5 -116.5t-144.5 -42.5q-94 0 -156 59t-62 161q0 123 87.5 204.5t198.5 81.5q106 0 161.5 -70t40.5 -178zM340 477q-103 0 -171 -62t-89 -147h443q8 94 -41 151.5
t-142 57.5z" />
    <glyph glyph-name="f" unicode="f" horiz-adv-x="344" 
d="M371 721q-61 0 -101.5 -37.5t-53.5 -96.5l-23 -101h206l-4 -20h-207l-108 -466h-21l108 466h-95l4 20h96l23 101q16 71 63.5 112t112.5 41q43 0 71 -18l-11 -16q-24 15 -60 15z" />
    <glyph glyph-name="g" unicode="g" horiz-adv-x="647" 
d="M598 486l-105 -455q-23 -100 -95 -160.5t-173 -60.5q-176 0 -230 146l22 8q47 -134 208 -134q92 0 159 55t88 146l29 126q-40 -60 -104.5 -94t-134.5 -34q-102 0 -161.5 65t-41.5 170t98 168t183 63q78 0 134.5 -40.5t69.5 -111.5l33 143h21zM264 47q89 0 166 60.5
t94 156.5q16 95 -40 154t-145 59q-94 0 -168.5 -58.5t-90.5 -154.5q-16 -97 37.5 -157t146.5 -60z" />
    <glyph glyph-name="h" unicode="h" horiz-adv-x="632" 
d="M389 496q93 0 136.5 -57.5t21.5 -152.5l-66 -286h-21l66 286q19 85 -18.5 137.5t-118.5 52.5q-98 0 -167 -60.5t-93 -162.5l-59 -253h-21l167 720h21l-82 -355q39 62 100 96.5t134 34.5z" />
    <glyph glyph-name="i" unicode="i" horiz-adv-x="251" 
d="M216 659q10 0 17.5 -7t7.5 -17t-7 -17t-18 -7t-18 7t-7 17t7.5 17t17.5 7zM80 0h-21l112 486h21z" />
    <glyph glyph-name="j" unicode="j" horiz-adv-x="271" 
d="M236 659q10 0 17.5 -7t7.5 -17t-7 -17t-18 -7t-18 7t-7 17t7.5 17t17.5 7zM214 486l-135 -573q-11 -47 -45.5 -75t-80.5 -28q-34 0 -56 16l12 17q19 -13 46 -13q38 0 66 23t37 60l135 573h21z" />
    <glyph glyph-name="k" unicode="k" horiz-adv-x="579" 
d="M196 248l316 -248h-29l-307 240h-40l-56 -240h-21l167 720h21l-107 -460h39l355 226h32z" />
    <glyph glyph-name="l" unicode="l" horiz-adv-x="231" 
d="M70 0h-21l166 720h21z" />
    <glyph glyph-name="m" unicode="m" horiz-adv-x="941" 
d="M722 496q72 0 115.5 -48t26.5 -122l-75 -326h-21l75 326q15 65 -22 107.5t-99 42.5q-85 0 -141.5 -51.5t-82.5 -142.5l-65 -282h-21l75 326q15 65 -22 107.5t-98 42.5q-84 0 -140.5 -51t-82.5 -141l-65 -284h-21l60 263l5 21l47 202h21l-23 -101q71 111 199 111
q60 0 102 -35.5t44 -92.5q71 128 209 128z" />
    <glyph glyph-name="n" unicode="n" horiz-adv-x="640" 
d="M396 496q93 0 137 -58t22 -152l-66 -286h-21l66 286q20 86 -18 138t-120 52q-98 0 -166.5 -60.5t-92.5 -162.5l-59 -253h-21l113 486h21l-28 -120q39 61 100 95.5t133 34.5z" />
    <glyph glyph-name="o" unicode="o" horiz-adv-x="615" 
d="M342 496q110 0 171.5 -73t46.5 -182q-15 -108 -97.5 -179.5t-190.5 -71.5q-109 0 -170.5 71t-46.5 180t97.5 182t189.5 73zM272 10q101 0 177 65.5t90 165.5t-42.5 167.5t-154.5 67.5q-100 0 -176 -67t-90 -168q-14 -100 42 -165.5t154 -65.5z" />
    <glyph glyph-name="p" unicode="p" horiz-adv-x="657" 
d="M395 496q105 0 165 -70.5t42 -184.5q-18 -113 -99.5 -182t-186.5 -69q-81 0 -138.5 45.5t-70.5 123.5l-76 -329h-21l152 656h21l-29 -125q41 63 106 99t135 36zM317 10q96 0 172 63.5t92 167.5q17 105 -38 170t-150 65q-91 0 -169.5 -66t-95.5 -169q-16 -103 41 -167
t148 -64z" />
    <glyph glyph-name="q" unicode="q" horiz-adv-x="655" 
d="M607 486l-152 -656h-21l68 293q-42 -62 -106.5 -97.5t-133.5 -35.5q-105 0 -165 70.5t-42 184.5q18 113 99.5 182t186.5 69q80 0 137.5 -44.5t70.5 -121.5l3 11l34 145h21zM264 10q91 0 169.5 66t95.5 169q16 103 -41 167t-148 64q-96 0 -172 -63.5t-92 -167.5
q-17 -105 38 -170t150 -65z" />
    <glyph glyph-name="r" unicode="r" horiz-adv-x="374" 
d="M384 489q18 0 30 -3l-4 -19q-9 2 -27 2q-89 0 -161.5 -71t-98.5 -169l-53 -229h-21l112 486h21l-36 -155q42 70 105.5 114t132.5 44z" />
    <glyph glyph-name="s" unicode="s" horiz-adv-x="508" 
d="M30 134l19 7q11 -59 60.5 -95.5t119.5 -36.5q77 0 125 33t48 90q0 21 -7.5 36.5t-26 27t-32 17.5t-43.5 17l-75 27q-53 19 -76.5 38.5t-23.5 58.5q0 64 53 103t134 39q70 0 118.5 -34.5t58.5 -91.5l-19 -8q-7 51 -51 82.5t-108 31.5q-72 0 -118.5 -32.5t-46.5 -86.5
q0 -12 2 -21.5t9 -17.5t11 -12.5t16.5 -10.5t16 -8t19.5 -7.5t18 -6.5l67 -25q3 -1 19 -7t21 -8t18.5 -7.5t18.5 -9.5t15 -11t14 -13.5t9.5 -15.5t7.5 -19.5t2 -22.5q0 -66 -54.5 -105t-142.5 -39q-78 0 -131.5 39.5t-64.5 104.5z" />
    <glyph glyph-name="t" unicode="t" horiz-adv-x="353" 
d="M180 466l-80 -346q-12 -51 8.5 -80.5t66.5 -29.5q52 0 102 39l9 -19q-52 -40 -109 -40q-58 0 -85 36.5t-13 96.5l79 343h-106l4 20h107l38 164h21l-38 -164h190l-4 -20h-190z" />
    <glyph glyph-name="u" unicode="u" horiz-adv-x="640" 
d="M583 486l-113 -486h-21l28 120q-39 -61 -100 -95.5t-133 -34.5q-93 0 -137 58t-22 152l66 286h21l-66 -286q-20 -86 18 -138t120 -52q98 0 166.5 60.5t92.5 162.5l59 253h21z" />
    <glyph glyph-name="v" unicode="v" horiz-adv-x="538" 
d="M565 486l-342 -486h-25l-116 486h23l109 -463l327 463h24z" />
    <glyph glyph-name="w" unicode="w" horiz-adv-x="755" 
d="M782 487l-279 -490h-24l-55 453l-265 -453h-24l-53 490h21l52 -456l266 455h19l57 -456l262 457h23z" />
    <glyph glyph-name="x" unicode="x" horiz-adv-x="564" 
d="M295 241l151 -241h-26l-141 228l-247 -228h-32l264 243l2 2l-150 241h26l140 -228l246 228h32l-263 -243z" />
    <glyph glyph-name="y" unicode="y" horiz-adv-x="546" 
d="M573 486l-466 -656h-28l125 175l-122 481h25l114 -456l325 456h27z" />
    <glyph glyph-name="z" unicode="z" horiz-adv-x="489" 
d="M493 469l-471 -449h376l-5 -20h-409l4 17l471 449h-356l5 20h389z" />
    <glyph glyph-name="braceleft" unicode="{" horiz-adv-x="436" 
d="M480 740l-4 -20h-61q-44 0 -78.5 -28.5t-44.5 -74.5l-41 -175q-20 -90 -95 -114q28 -15 39.5 -45.5t3.5 -66.5l-40 -175q-11 -46 10 -74.5t65 -28.5h61l-5 -20h-61q-55 0 -80 33.5t-12 89.5l40 175q10 46 -10.5 74.5t-64.5 28.5h-14l5 20h14q44 0 78 28.5t44 74.5l41 175
q13 56 53.5 89.5t95.5 33.5h61z" />
    <glyph glyph-name="bar" unicode="|" horiz-adv-x="232" 
d="M55 -72h-22l187 812h22z" />
    <glyph glyph-name="braceright" unicode="}" horiz-adv-x="436" 
d="M388 339l-5 -20h-14q-44 0 -78 -28.5t-44 -74.5l-41 -175q-13 -56 -53.5 -89.5t-95.5 -33.5h-61l4 20h61q44 0 78.5 28.5t44.5 74.5l41 175q20 90 95 114q-28 15 -39.5 45.5t-3.5 66.5l40 175q11 46 -10 74.5t-65 28.5h-61l5 20h61q55 0 80 -33.5t12 -89.5l-40 -175
q-10 -46 10.5 -74.5t64.5 -28.5h14z" />
    <glyph glyph-name="asciitilde" unicode="~" horiz-adv-x="452" 
d="M65 247h-26q11 47 43.5 75t74.5 28q27 0 50 -13.5t36.5 -29.5t33.5 -29.5t43 -13.5q35 0 59.5 22t32.5 62h25q-11 -48 -43.5 -76.5t-73.5 -28.5q-35 0 -61.5 21.5t-50 43t-51.5 21.5q-36 0 -61 -22t-31 -60z" />
    <glyph glyph-name="exclamdown" unicode="&#xa1;" horiz-adv-x="252" 
d="M179 448q-10 0 -17.5 7t-7.5 17t7 17t18 7t18 -7t7 -17t-7.5 -17t-17.5 -7zM19 -176l7 31l107 460h21l-107 -460l-7 -31h-21z" />
    <glyph glyph-name="cent" unicode="&#xa2;" horiz-adv-x="580" 
d="M536 352l-20 -8q-8 56 -53.5 91.5t-107.5 39.5l-107 -464l17 -1q68 0 128.5 37.5t88.5 96.5l18 -7q-29 -65 -95 -106t-140 -41q-15 0 -22 1l-29 -121h-21l30 124q-87 15 -135.5 83t-33.5 166q18 111 101 182t184 71l30 134h21l-31 -135q70 -5 119 -43.5t58 -99.5zM75 243
q-14 -90 30 -153t121 -77l107 463q-92 -2 -167.5 -67t-90.5 -166z" />
    <glyph glyph-name="sterling" unicode="&#xa3;" horiz-adv-x="648" 
d="M466 680q97 0 143 -56.5t25 -148.5l-23 -5q20 87 -18.5 138t-126.5 51q-86 0 -151 -52t-85 -134l-34 -148h297l-4 -20h-298l-65 -285h411l-5 -20h-518l3 14l86 5l66 286h-84l4 20h85l34 148q22 93 93.5 150t164.5 57z" />
    <glyph glyph-name="yen" unicode="&#xa5;" horiz-adv-x="639" 
d="M353 288h196l-4 -20h-208l-23 -100h207l-4 -20h-208l-34 -148h-22l34 148h-208l4 20h209l23 100h-208l4 20h196l-169 382h25l166 -382l342 382h27z" />
    <glyph glyph-name="section" unicode="&#xa7;" horiz-adv-x="557" 
d="M521 510h-22q11 67 -26.5 108.5t-116.5 41.5q-77 0 -126.5 -37.5t-49.5 -96.5q0 -58 68 -91l156 -77q52 -26 75.5 -52.5t23.5 -61.5q0 -107 -127 -153q31 -33 31 -75q0 -67 -56.5 -111.5t-143.5 -44.5q-96 0 -140.5 48t-31.5 129h21q-11 -73 28 -115t125 -42
q77 0 126.5 38t49.5 96q0 57 -68 91l-156 77q-52 26 -75.5 52.5t-23.5 61.5q0 56 38.5 96t88.5 57q-31 31 -31 75q0 67 56.5 111.5t143.5 44.5q88 0 131.5 -47t31.5 -123zM391 341l-156 76q-18 9 -32 20q-51 -18 -85 -53.5t-34 -83.5q0 -57 90 -101l156 -76q19 -10 31 -20
q119 44 119 137q0 58 -89 101z" />
    <glyph glyph-name="dieresis" unicode="&#xa8;" horiz-adv-x="600" 
d="M265 640q10 0 17.5 -7t7.5 -17t-7 -17t-18 -7t-18 7t-7 17t7.5 17t17.5 7zM445 640q10 0 17.5 -7t7.5 -17t-7 -17t-18 -7t-18 7t-7 17t7.5 17t17.5 7z" />
    <glyph glyph-name="copyright" unicode="&#xa9;" horiz-adv-x="794" 
d="M417 680q144 0 244 -98.5t100 -248.5q0 -148 -100 -245.5t-244 -97.5t-244 97.5t-100 245.5q0 150 100 248.5t244 98.5zM417 661q-135 0 -229 -93t-94 -234q0 -140 94 -232t229 -92t229 92t94 232q0 141 -94 234t-229 93zM425 523q62 0 111.5 -35.5t59.5 -90.5l-19 -5
q-13 49 -56.5 80t-95.5 31q-69 0 -117.5 -47t-48.5 -121q0 -75 48.5 -122.5t117.5 -47.5q52 0 95.5 31.5t56.5 80.5l18 -6q-13 -55 -61 -90.5t-109 -35.5q-79 0 -133.5 53t-54.5 137q0 83 54.5 135.5t133.5 52.5z" />
    <glyph glyph-name="ordfeminine" unicode="&#xaa;" horiz-adv-x="385" 
d="M281 673q59 0 89.5 -34t14.5 -95l-52 -199h-20l15 58q-55 -65 -141 -65q-43 0 -68 22t-25 58q0 50 42 80t118 30h107l4 16q14 55 -9 83.5t-73 28.5q-44 0 -78 -22.5t-49 -67.5l-18 3q16 51 54.5 77.5t88.5 26.5zM347 476l10 36h-105q-66 0 -102 -25t-36 -67
q0 -30 21 -47.5t57 -17.5q58 0 99.5 34t55.5 87z" />
    <glyph glyph-name="guillemotleft" unicode="&#xab;" horiz-adv-x="357" 
d="M30 262l173 178h28l-175 -181l89 -175h-24zM180 262l173 178h28l-175 -181l89 -175h-24z" />
    <glyph glyph-name="registered" unicode="&#xae;" horiz-adv-x="500" 
d="M305 680q84 0 142 -57t58 -144q0 -86 -58 -143t-142 -57t-142 57t-58 143q0 87 58 144t142 57zM305 296q77 0 130 52t53 131q0 80 -53 132.5t-130 52.5t-130 -52.5t-53 -132.5q0 -79 53 -131t130 -52zM321 465l80 -78h-23l-79 78h-47v-78h-16v195h87q31 0 49 -16t18 -42
q0 -27 -18.5 -43t-50.5 -16zM252 480h69q24 0 38.5 12t14.5 32t-13.5 31.5t-37.5 11.5h-71v-87z" />
    <glyph glyph-name="macron" unicode="&#xaf;" horiz-adv-x="600" 
d="M475 595h-250l4 17h250z" />
    <glyph glyph-name="degree" unicode="&#xb0;" horiz-adv-x="397" 
d="M279 680q46 0 77.5 -29.5t31.5 -77.5q0 -54 -39 -90t-90 -36q-46 0 -78 30t-32 77q0 56 39 91t91 35zM260 466q42 0 75 30t33 75q0 40 -26.5 65.5t-63.5 25.5q-42 0 -75.5 -30t-33.5 -76q0 -39 27 -64.5t64 -25.5z" />
    <glyph glyph-name="plusminus" unicode="&#xb1;" horiz-adv-x="580" 
d="M523 340l-5 -20h-200l-44 -190h-21l44 190h-199l5 20h199l44 190h21l-44 -190h200zM29 20h420l-5 -20h-420z" />
    <glyph glyph-name="acute" unicode="&#xb4;" horiz-adv-x="600" 
d="M363 567h-23l124 136h30z" />
    <glyph glyph-name="paragraph" unicode="&#xb6;" horiz-adv-x="529" 
d="M249 0h-22l69 299h-50q-77 0 -124 41t-47 110q0 101 67.5 160.5t174.5 59.5h86zM368 0h-22l154 670h22z" />
    <glyph glyph-name="periodcentered" unicode="&#xb7;" horiz-adv-x="172" 
d="M92 292q10 0 17.5 -7t7.5 -17t-7 -17t-18 -7t-18 7t-7 17t7.5 17t17.5 7z" />
    <glyph glyph-name="cedilla" unicode="&#xb8;" horiz-adv-x="600" 
d="M227 0h25l-142 -180h-33z" />
    <glyph glyph-name="ordmasculine" unicode="&#xba;" horiz-adv-x="452" 
d="M300 673q66 0 109.5 -42.5t43.5 -110.5q0 -79 -53.5 -130.5t-127.5 -51.5q-64 0 -108.5 43.5t-44.5 112.5q0 77 55 128t126 51zM272 356q65 0 113.5 46t48.5 118q0 59 -39 97t-95 38q-63 0 -112 -46t-49 -115q0 -60 39.5 -99t93.5 -39z" />
    <glyph glyph-name="guillemotright" unicode="&#xbb;" horiz-adv-x="357" 
d="M187 262l-173 -178h-28l175 181l-89 175h24zM337 262l-173 -178h-28l175 181l-89 175h24z" />
    <glyph glyph-name="onequarter" unicode="&#xbc;" horiz-adv-x="664" 
d="M694 670l-665 -670h-27l665 670h27zM214 643l-112 -57l5 22l120 62h12l-83 -359h-20zM547 114h67l-4 -18h-67l-22 -96h-20l22 96h-212l5 21l267 241h21zM527 114l49 213l-236 -213h187z" />
    <glyph glyph-name="onehalf" unicode="&#xbd;" horiz-adv-x="722" 
d="M674 670l-665 -670h-27l665 670h27zM214 643l-112 -57l5 22l120 62h12l-83 -359h-20zM678 266q0 -36 -27 -68t-92 -79l-141 -101h212l-4 -18h-249l4 13l164 118q63 45 88.5 74t25.5 60q0 36 -24 58t-64 22q-46 0 -75.5 -27.5t-31.5 -72.5l-18 3q2 52 37 83.5t89 31.5
q48 0 77 -26.5t29 -70.5z" />
    <glyph glyph-name="threequarters" unicode="&#xbe;" horiz-adv-x="765" 
d="M204 311q-62 0 -95.5 33.5t-27.5 89.5l20 2q-5 -49 22.5 -78t80.5 -29q49 0 83 27t34 67q0 34 -26 52.5t-71 18.5h-33l1 16h13q35 0 66.5 6.5t56.5 26.5t25 51q0 29 -22 49t-61 20q-47 0 -80 -27.5t-40 -71.5l-18 3q8 51 46.5 82t93.5 31q48 0 74 -24t26 -62
q0 -67 -96 -92q64 -18 64 -78q0 -46 -39 -79.5t-97 -33.5zM795 670l-665 -670h-27l665 670h27zM648 114h67l-4 -18h-67l-22 -96h-20l22 96h-212l5 21l267 241h21zM628 114l49 213l-236 -213h187z" />
    <glyph glyph-name="questiondown" unicode="&#xbf;" horiz-adv-x="502" 
d="M324 448q-10 0 -17.5 7t-7.5 17t7 17t18 7t18 -7t7 -17t-7.5 -17t-17.5 -7zM389 34l21 -3q-8 -97 -73 -157t-159 -60q-86 0 -138 49t-52 127q0 99 81 161.5t183 64.5l25 99h22l-30 -119h-11q-94 0 -171.5 -56.5t-77.5 -147.5q0 -70 46.5 -114t122.5 -44q84 0 143.5 55
t67.5 145z" />
    <glyph glyph-name="Agrave" unicode="&#xc0;" horiz-adv-x="678" 
d="M440 751l-131 136h30l124 -136h-23zM602 0h-21l-46 196h-410l-136 -196h-25l465 670h18zM531 216l-99 423l-293 -423h392z" />
    <glyph glyph-name="Aacute" unicode="&#xc1;" horiz-adv-x="678" 
d="M476 751h-23l124 136h30zM447 670l155 -670h-21l-46 196h-410l-136 -196h-25l465 670h18zM531 216l-99 423l-293 -423h392z" />
    <glyph glyph-name="Acircumflex" unicode="&#xc2;" horiz-adv-x="678" 
d="M354 744h-27l151 135h20l89 -135h-23l-78 117zM602 0h-21l-46 196h-410l-136 -196h-25l465 670h18zM531 216l-99 423l-293 -423h392z" />
    <glyph glyph-name="Atilde" unicode="&#xc3;" horiz-adv-x="678" 
d="M413 838q-46 0 -59 -54h-21q7 34 30.5 53.5t53.5 19.5q28 0 57 -28.5t52 -28.5q45 0 58 56h21q-7 -34 -30 -54.5t-53 -20.5q-27 0 -57 28.5t-52 28.5zM447 670l155 -670h-21l-46 196h-410l-136 -196h-25l465 670h18zM531 216l-99 423l-293 -423h392z" />
    <glyph glyph-name="Adieresis" unicode="&#xc4;" horiz-adv-x="678" 
d="M378 776q-11 0 -18 7t-7 17t7.5 17t17.5 7t17.5 -7t7.5 -17t-7 -17t-18 -7zM558 776q-11 0 -18 7t-7 17t7.5 17t17.5 7t17.5 -7t7.5 -17t-7 -17t-18 -7zM602 0h-21l-46 196h-410l-136 -196h-25l465 670h18zM531 216l-99 423l-293 -423h392z" />
    <glyph glyph-name="Aring" unicode="&#xc5;" horiz-adv-x="678" 
d="M465 738q-34 0 -57 23.5t-23 56.5q0 37 28.5 64.5t67.5 27.5q34 0 57 -23.5t23 -56.5q0 -37 -28.5 -64.5t-67.5 -27.5zM479 892q-31 0 -53.5 -22t-22.5 -51q0 -26 18.5 -44.5t45.5 -18.5q31 0 53.5 22t22.5 51q0 26 -18.5 44.5t-45.5 18.5zM602 0h-21l-46 196h-410
l-136 -196h-25l465 670h18zM531 216l-99 423l-293 -423h392z" />
    <glyph glyph-name="AE" unicode="&#xc6;" horiz-adv-x="1133" 
d="M714 650l-70 -303h418l-4 -20h-418l-71 -307h448l-5 -20h-470l43 186h-388l-203 -186h-30l732 670h471l-5 -20h-448zM589 206l100 429l-470 -429h370z" />
    <glyph glyph-name="Ccedilla" unicode="&#xc7;" horiz-adv-x="805" 
d="M493 660q-153 0 -266.5 -109.5t-113.5 -260.5q0 -121 76.5 -200.5t202.5 -79.5q97 0 181 48.5t129 124.5l19 -8q-48 -82 -138.5 -133.5t-193.5 -51.5h-3l-134 -170h-33l143 171q-123 9 -197.5 92.5t-74.5 205.5q0 160 121 275.5t284 115.5q104 0 178.5 -50.5t98.5 -134.5
l-21 -8q-21 77 -90.5 125t-167.5 48z" />
    <glyph glyph-name="Egrave" unicode="&#xc8;" horiz-adv-x="640" 
d="M431 751l-131 136h30l124 -136h-23zM221 650l-70 -303h418l-4 -20h-418l-71 -307h448l-5 -20h-470l155 670h470l-5 -20h-448z" />
    <glyph glyph-name="Eacute" unicode="&#xc9;" horiz-adv-x="640" 
d="M467 751h-23l124 136h30zM221 650l-70 -303h418l-4 -20h-418l-71 -307h448l-5 -20h-470l155 670h470l-5 -20h-448z" />
    <glyph glyph-name="Ecircumflex" unicode="&#xca;" horiz-adv-x="640" 
d="M345 744h-27l151 135h20l89 -135h-23l-78 117zM221 650l-70 -303h418l-4 -20h-418l-71 -307h448l-5 -20h-470l155 670h470l-5 -20h-448z" />
    <glyph glyph-name="Edieresis" unicode="&#xcb;" horiz-adv-x="640" 
d="M369 776q-11 0 -18 7t-7 17t7.5 17t17.5 7t17.5 -7t7.5 -17t-7 -17t-18 -7zM549 776q-11 0 -18 7t-7 17t7.5 17t17.5 7t17.5 -7t7.5 -17t-7 -17t-18 -7zM221 650l-70 -303h418l-4 -20h-418l-71 -307h448l-5 -20h-470l155 670h470l-5 -20h-448z" />
    <glyph glyph-name="Igrave" unicode="&#xcc;" horiz-adv-x="232" 
d="M116 887l124 -136h-23l-131 136h30zM71 0h-22l155 670h22z" />
    <glyph glyph-name="Iacute" unicode="&#xcd;" horiz-adv-x="232" 
d="M253 751h-23l124 136h30zM71 0h-22l155 670h22z" />
    <glyph glyph-name="Icircumflex" unicode="&#xce;" horiz-adv-x="232" 
d="M341 744l-78 117l-132 -117h-27l151 135h20l89 -135h-23zM204 670h22l-155 -670h-22z" />
    <glyph glyph-name="Idieresis" unicode="&#xcf;" horiz-adv-x="232" 
d="M155 824q10 0 17.5 -7t7.5 -17t-7 -17t-18 -7t-18 7t-7 17t7.5 17t17.5 7zM335 824q10 0 17.5 -7t7.5 -17t-7 -17t-18 -7t-18 7t-7 17t7.5 17t17.5 7zM71 0h-22l155 670h22z" />
    <glyph glyph-name="Eth" unicode="&#xd0;" horiz-adv-x="786" 
d="M229 670h195q152 0 230.5 -76t78.5 -195q0 -75 -31.5 -146.5t-89 -128t-146 -90.5t-193.5 -34h-199l76 328h-84l4 20h85zM101 20h172q101 0 185 33t138 86.5t84 120.5t30 137q0 111 -73 182t-213 71h-177l-70 -302h201l-4 -20h-202z" />
    <glyph glyph-name="Ntilde" unicode="&#xd1;" horiz-adv-x="759" 
d="M444 838q-46 0 -59 -54h-21q7 34 30.5 53.5t53.5 19.5q28 0 57 -28.5t52 -28.5q45 0 58 56h21q-7 -34 -30 -54.5t-53 -20.5q-27 0 -57 28.5t-52 28.5zM753 670l-155 -670h-20l-359 640l-148 -640h-22l155 670h22l358 -638l147 638h22z" />
    <glyph glyph-name="Ograve" unicode="&#xd2;" horiz-adv-x="819" 
d="M406 887l124 -136h-23l-131 136h30zM486 680q143 0 225.5 -100t59.5 -245q-22 -145 -136 -245t-257 -100t-226 99.5t-60 245.5q23 145 137 245t257 100zM381 10q133 0 239.5 94t128.5 231q21 136 -55.5 230.5t-209.5 94.5q-134 0 -241.5 -94.5t-128.5 -230.5
q-22 -137 55.5 -231t211.5 -94z" />
    <glyph glyph-name="Oacute" unicode="&#xd3;" horiz-adv-x="819" 
d="M543 751h-23l124 136h30zM486 680q143 0 225.5 -100t59.5 -245q-22 -145 -136 -245t-257 -100t-226 99.5t-60 245.5q23 145 137 245t257 100zM381 10q133 0 239.5 94t128.5 231q21 136 -55.5 230.5t-209.5 94.5q-134 0 -241.5 -94.5t-128.5 -230.5q-22 -137 55.5 -231
t211.5 -94z" />
    <glyph glyph-name="Ocircumflex" unicode="&#xd4;" horiz-adv-x="819" 
d="M421 744h-27l151 135h20l89 -135h-23l-78 117zM486 680q143 0 225.5 -100t59.5 -245q-22 -145 -136 -245t-257 -100t-226 99.5t-60 245.5q23 145 137 245t257 100zM749 335q21 136 -55.5 230.5t-209.5 94.5q-134 0 -241.5 -94.5t-128.5 -230.5q-22 -137 55.5 -231
t211.5 -94q133 0 239.5 94t128.5 231z" />
    <glyph glyph-name="Otilde" unicode="&#xd5;" horiz-adv-x="819" 
d="M421 784h-21q7 34 30.5 53.5t53.5 19.5q28 0 57 -28.5t52 -28.5q45 0 58 56h21q-7 -34 -30 -54.5t-53 -20.5q-27 0 -57 28.5t-52 28.5q-46 0 -59 -54zM486 680q143 0 225.5 -100t59.5 -245q-22 -145 -136 -245t-257 -100t-226 99.5t-60 245.5q23 145 137 245t257 100z
M381 10q133 0 239.5 94t128.5 231q21 136 -55.5 230.5t-209.5 94.5q-134 0 -241.5 -94.5t-128.5 -230.5q-22 -137 55.5 -231t211.5 -94z" />
    <glyph glyph-name="Odieresis" unicode="&#xd6;" horiz-adv-x="819" 
d="M445 824q10 0 17.5 -7t7.5 -17t-7 -17t-18 -7t-18 7t-7 17t7.5 17t17.5 7zM625 824q10 0 17.5 -7t7.5 -17t-7 -17t-18 -7t-18 7t-7 17t7.5 17t17.5 7zM486 680q143 0 225.5 -100t59.5 -245q-22 -145 -136 -245t-257 -100t-226 99.5t-60 245.5q23 145 137 245t257 100z
M381 10q133 0 239.5 94t128.5 231q21 136 -55.5 230.5t-209.5 94.5q-134 0 -241.5 -94.5t-128.5 -230.5q-22 -137 55.5 -231t211.5 -94z" />
    <glyph glyph-name="multiply" unicode="&#xd7;" horiz-adv-x="493" 
d="M276 303l114 -146l-17 -13l-113 145l-185 -147l-12 16l184 147l-115 148l17 13l115 -147l184 147l13 -16z" />
    <glyph glyph-name="Oslash" unicode="&#xd8;" horiz-adv-x="819" 
d="M805 642l-87 -71q76 -98 53 -236q-22 -145 -136 -245t-257 -100q-154 0 -236 113l-95 -77l-14 17l97 78q-57 94 -38 214q23 145 137 245t257 100q136 0 218 -92l88 71zM114 335q-18 -112 33 -199l540 438q-78 86 -203 86q-134 0 -241.5 -94.5t-128.5 -230.5zM749 335
q20 130 -49 222l-541 -440q36 -50 93.5 -78.5t128.5 -28.5q133 0 239.5 94t128.5 231z" />
    <glyph glyph-name="Ugrave" unicode="&#xd9;" horiz-adv-x="730" 
d="M466 751l-131 136h30l124 -136h-23zM734 670l-89 -385q-31 -134 -118.5 -214.5t-209.5 -80.5q-123 0 -182.5 81.5t-29.5 213.5l89 385h22l-89 -385q-28 -123 24.5 -198.5t164.5 -75.5q114 0 196 74.5t111 199.5l89 385h22z" />
    <glyph glyph-name="Uacute" unicode="&#xda;" horiz-adv-x="730" 
d="M502 751h-23l124 136h30zM734 670l-89 -385q-31 -134 -118.5 -214.5t-209.5 -80.5q-123 0 -182.5 81.5t-29.5 213.5l89 385h22l-89 -385q-28 -123 24.5 -198.5t164.5 -75.5q114 0 196 74.5t111 199.5l89 385h22z" />
    <glyph glyph-name="Ucircumflex" unicode="&#xdb;" horiz-adv-x="730" 
d="M380 744h-27l151 135h20l89 -135h-23l-78 117zM734 670l-89 -385q-31 -134 -118.5 -214.5t-209.5 -80.5q-123 0 -182.5 81.5t-29.5 213.5l89 385h22l-89 -385q-28 -123 24.5 -198.5t164.5 -75.5q114 0 196 74.5t111 199.5l89 385h22z" />
    <glyph glyph-name="Udieresis" unicode="&#xdc;" horiz-adv-x="730" 
d="M404 776q-11 0 -18 7t-7 17t7.5 17t17.5 7t17.5 -7t7.5 -17t-7 -17t-18 -7zM584 776q-11 0 -18 7t-7 17t7.5 17t17.5 7t17.5 -7t7.5 -17t-7 -17t-18 -7zM734 670l-89 -385q-31 -134 -118.5 -214.5t-209.5 -80.5q-123 0 -182.5 81.5t-29.5 213.5l89 385h22l-89 -385
q-28 -123 24.5 -198.5t164.5 -75.5q114 0 196 74.5t111 199.5l89 385h22z" />
    <glyph glyph-name="Yacute" unicode="&#xdd;" horiz-adv-x="655" 
d="M462 751h-23l124 136h30zM339 254l-59 -254h-22l59 254l-193 416h24l182 -398l366 398h28z" />
    <glyph glyph-name="Thorn" unicode="&#xde;" horiz-adv-x="609" 
d="M195 536h220q88 0 138 -45t50 -120q0 -98 -80.5 -167.5t-195.5 -69.5h-225l-31 -134h-22l119 516l5 20l31 134h22zM107 154h220q105 0 179.5 64t74.5 154q0 66 -43 105t-123 39h-224z" />
    <glyph glyph-name="germandbls" unicode="&#xdf;" horiz-adv-x="652" 
d="M453 386q150 -26 150 -163q0 -101 -73 -167t-189 -66q-107 0 -178 49l11 18q68 -47 170 -47q104 0 171 61.5t67 151.5q0 75 -50 113t-138 38h-59l5 21h46q90 0 163 50t73 123q0 67 -47 108t-123 41q-97 0 -165.5 -62t-92.5 -168l-113 -487h-21l112 487
q26 115 101.5 182.5t178.5 67.5q86 0 138.5 -45.5t52.5 -120.5q0 -64 -53.5 -117t-136.5 -68z" />
    <glyph glyph-name="agrave" unicode="&#xe0;" horiz-adv-x="657" 
d="M374 567l-131 136h30l124 -136h-23zM608 486l-112 -486h-21l29 125q-41 -63 -106 -99t-135 -36q-105 0 -165 70.5t-42 184.5q18 113 99.5 182t186.5 69q81 0 138.5 -45t70.5 -123l36 158h21zM265 10q91 0 169.5 66t95.5 169q16 103 -41 167t-148 64q-96 0 -172 -63.5
t-92 -167.5q-17 -105 38 -170t150 -65z" />
    <glyph glyph-name="aacute" unicode="&#xe1;" horiz-adv-x="657" 
d="M410 567h-23l124 136h30zM608 486l-112 -486h-21l29 125q-41 -63 -106 -99t-135 -36q-105 0 -165 70.5t-42 184.5q18 113 99.5 182t186.5 69q81 0 138.5 -45t70.5 -123l36 158h21zM265 10q91 0 169.5 66t95.5 169q16 103 -41 167t-148 64q-96 0 -172 -63.5t-92 -167.5
q-17 -105 38 -170t150 -65z" />
    <glyph glyph-name="acircumflex" unicode="&#xe2;" horiz-adv-x="657" 
d="M288 560h-27l151 135h20l89 -135h-23l-78 117zM608 486l-112 -486h-21l29 125q-41 -63 -106 -99t-135 -36q-105 0 -165 70.5t-42 184.5q18 113 99.5 182t186.5 69q81 0 138.5 -45t70.5 -123l36 158h21zM265 10q91 0 169.5 66t95.5 169q16 103 -41 167t-148 64
q-96 0 -172 -63.5t-92 -167.5q-17 -105 38 -170t150 -65z" />
    <glyph glyph-name="atilde" unicode="&#xe3;" horiz-adv-x="657" 
d="M347 654q-46 0 -59 -54h-21q7 34 30.5 53.5t53.5 19.5q28 0 57 -28.5t52 -28.5q45 0 58 56h21q-7 -34 -30 -54.5t-53 -20.5q-27 0 -57 28.5t-52 28.5zM608 486l-112 -486h-21l29 125q-41 -63 -106 -99t-135 -36q-105 0 -165 70.5t-42 184.5q18 113 99.5 182t186.5 69
q81 0 138.5 -45t70.5 -123l36 158h21zM265 10q91 0 169.5 66t95.5 169q16 103 -41 167t-148 64q-96 0 -172 -63.5t-92 -167.5q-17 -105 38 -170t150 -65z" />
    <glyph glyph-name="adieresis" unicode="&#xe4;" horiz-adv-x="657" 
d="M312 592q-11 0 -18 7t-7 17t7.5 17t17.5 7t17.5 -7t7.5 -17t-7 -17t-18 -7zM492 592q-11 0 -18 7t-7 17t7.5 17t17.5 7t17.5 -7t7.5 -17t-7 -17t-18 -7zM608 486l-112 -486h-21l29 125q-41 -63 -106 -99t-135 -36q-105 0 -165 70.5t-42 184.5q18 113 99.5 182t186.5 69
q81 0 138.5 -45t70.5 -123l36 158h21zM265 10q91 0 169.5 66t95.5 169q16 103 -41 167t-148 64q-96 0 -172 -63.5t-92 -167.5q-17 -105 38 -170t150 -65z" />
    <glyph glyph-name="aring" unicode="&#xe5;" horiz-adv-x="657" 
d="M399 554q-34 0 -57 23.5t-23 56.5q0 37 28.5 64.5t67.5 27.5q34 0 57 -23.5t23 -56.5q0 -37 -28.5 -64.5t-67.5 -27.5zM413 708q-31 0 -53.5 -22t-22.5 -51q0 -26 18.5 -44.5t45.5 -18.5q31 0 53.5 22t22.5 51q0 26 -18.5 44.5t-45.5 18.5zM608 486l-112 -486h-21l29 125
q-41 -63 -106 -99t-135 -36q-105 0 -165 70.5t-42 184.5q18 113 99.5 182t186.5 69q81 0 138.5 -45t70.5 -123l36 158h21zM265 10q91 0 169.5 66t95.5 169q16 103 -41 167t-148 64q-96 0 -172 -63.5t-92 -167.5q-17 -105 38 -170t150 -65z" />
    <glyph glyph-name="ae" unicode="&#xe6;" horiz-adv-x="953" 
d="M720 496q97 0 145.5 -69.5t33.5 -177.5l-1 -9h-432q-15 -106 34.5 -168t142.5 -62q61 0 123.5 40t91.5 106l18 -6q-28 -70 -98 -115t-139 -45q-84 0 -134 45.5t-60 127.5q-31 -80 -99 -126.5t-149 -46.5q-79 0 -120.5 32.5t-41.5 86.5q0 70 56 110.5t147 40.5h210l10 63
q11 69 -26 111t-112 42q-73 0 -129 -35t-74 -92l-18 6q17 64 78 102.5t143 38.5q75 0 118.5 -40t41.5 -106q39 70 101 108t139 38zM469 260h410q9 97 -33 156.5t-126 59.5q-92 0 -161 -58.5t-90 -157.5zM201 10q89 0 158 61t85 161l1 8h-210q-80 0 -129 -34t-49 -94
q0 -47 36.5 -74.5t107.5 -27.5z" />
    <glyph glyph-name="ccedilla" unicode="&#xe7;" horiz-adv-x="579" 
d="M340 476q-94 0 -171 -65.5t-93 -167.5t41.5 -167.5t148.5 -65.5q68 0 128.5 37.5t88.5 96.5l18 -7q-29 -64 -93.5 -104.5t-137.5 -42.5l-134 -170h-33l142 171q-95 8 -151 77.5t-39 174.5q18 111 101 182t184 71q77 0 132 -39t65 -105l-20 -8q-9 60 -59.5 96t-117.5 36z
" />
    <glyph glyph-name="egrave" unicode="&#xe8;" horiz-adv-x="594" 
d="M347 567l-131 136h30l124 -136h-23zM542 248h-466q-3 -20 -3 -37q0 -88 54 -144.5t148 -56.5q69 0 129.5 38t96.5 108l17 -7q-35 -74 -101.5 -116.5t-144.5 -42.5q-94 0 -156 59t-62 161q0 123 87.5 204.5t198.5 81.5q106 0 161.5 -70t40.5 -178zM340 477
q-103 0 -171 -62t-89 -147h443q8 94 -41 151.5t-142 57.5z" />
    <glyph glyph-name="eacute" unicode="&#xe9;" horiz-adv-x="594" 
d="M383 567h-23l124 136h30zM542 248h-466q-3 -20 -3 -37q0 -88 54 -144.5t148 -56.5q69 0 129.5 38t96.5 108l17 -7q-35 -74 -101.5 -116.5t-144.5 -42.5q-94 0 -156 59t-62 161q0 123 87.5 204.5t198.5 81.5q106 0 161.5 -70t40.5 -178zM340 477q-103 0 -171 -62t-89 -147
h443q8 94 -41 151.5t-142 57.5z" />
    <glyph glyph-name="ecircumflex" unicode="&#xea;" horiz-adv-x="594" 
d="M261 560h-27l151 135h20l89 -135h-23l-78 117zM542 248h-466q-3 -20 -3 -37q0 -88 54 -144.5t148 -56.5q69 0 129.5 38t96.5 108l17 -7q-35 -74 -101.5 -116.5t-144.5 -42.5q-94 0 -156 59t-62 161q0 123 87.5 204.5t198.5 81.5q106 0 161.5 -70t40.5 -178zM340 477
q-103 0 -171 -62t-89 -147h443q8 94 -41 151.5t-142 57.5z" />
    <glyph glyph-name="edieresis" unicode="&#xeb;" horiz-adv-x="594" 
d="M285 592q-11 0 -18 7t-7 17t7.5 17t17.5 7t17.5 -7t7.5 -17t-7 -17t-18 -7zM465 592q-11 0 -18 7t-7 17t7.5 17t17.5 7t17.5 -7t7.5 -17t-7 -17t-18 -7zM542 248h-466q-3 -20 -3 -37q0 -88 54 -144.5t148 -56.5q69 0 129.5 38t96.5 108l17 -7q-35 -74 -101.5 -116.5
t-144.5 -42.5q-94 0 -156 59t-62 161q0 123 87.5 204.5t198.5 81.5q106 0 161.5 -70t40.5 -178zM340 477q-103 0 -171 -62t-89 -147h443q8 94 -41 151.5t-142 57.5z" />
    <glyph glyph-name="igrave" unicode="&#xec;" horiz-adv-x="261" 
d="M88 703l124 -136h-23l-131 136h30zM85 0h-21l112 486h21z" />
    <glyph glyph-name="iacute" unicode="&#xed;" horiz-adv-x="261" 
d="M225 567h-23l124 136h30zM85 0h-21l112 486h21z" />
    <glyph glyph-name="icircumflex" unicode="&#xee;" horiz-adv-x="261" 
d="M313 560l-78 117l-132 -117h-27l151 135h20l89 -135h-23zM176 486h21l-112 -486h-21z" />
    <glyph glyph-name="idieresis" unicode="&#xef;" horiz-adv-x="261" 
d="M127 640q10 0 17.5 -7t7.5 -17t-7 -17t-18 -7t-18 7t-7 17t7.5 17t17.5 7zM307 640q10 0 17.5 -7t7.5 -17t-7 -17t-18 -7t-18 7t-7 17t7.5 17t17.5 7zM85 0h-21l112 486h21z" />
    <glyph glyph-name="eth" unicode="&#xf0;" horiz-adv-x="612" 
d="M512 672l-106 -49q75 -71 115 -159t40 -173q0 -131 -87 -216t-200 -85q-101 0 -160.5 62.5t-59.5 158.5q0 83 46.5 150.5t112 101t132.5 33.5q120 0 176 -94l2 1q-42 124 -136 211l-141 -66l-6 17l132 63q-67 55 -150 88v4h42q73 -35 127 -83l113 53zM274 10
q81 0 143.5 44.5t92 105.5t29.5 122q0 83 -56 138.5t-138 55.5q-103 0 -187 -76t-84 -189q0 -90 56 -145.5t144 -55.5z" />
    <glyph glyph-name="ntilde" unicode="&#xf1;" horiz-adv-x="640" 
d="M369 654q-46 0 -59 -54h-21q7 34 30.5 53.5t53.5 19.5q28 0 57 -28.5t52 -28.5q45 0 58 56h21q-7 -34 -30 -54.5t-53 -20.5q-27 0 -57 28.5t-52 28.5zM396 496q93 0 137 -58t22 -152l-66 -286h-21l66 286q20 86 -18 138t-120 52q-98 0 -166.5 -60.5t-92.5 -162.5
l-59 -253h-21l113 486h21l-28 -120q39 61 100 95.5t133 34.5z" />
    <glyph glyph-name="ograve" unicode="&#xf2;" horiz-adv-x="615" 
d="M345 567l-131 136h30l124 -136h-23zM342 496q110 0 171.5 -73t46.5 -182q-15 -108 -97.5 -179.5t-190.5 -71.5q-109 0 -170.5 71t-46.5 180t97.5 182t189.5 73zM272 10q101 0 177 65.5t90 165.5t-42.5 167.5t-154.5 67.5q-100 0 -176 -67t-90 -168q-14 -100 42 -165.5
t154 -65.5z" />
    <glyph glyph-name="oacute" unicode="&#xf3;" horiz-adv-x="615" 
d="M381 567h-23l124 136h30zM342 496q110 0 171.5 -73t46.5 -182q-15 -108 -97.5 -179.5t-190.5 -71.5q-109 0 -170.5 71t-46.5 180t97.5 182t189.5 73zM272 10q101 0 177 65.5t90 165.5t-42.5 167.5t-154.5 67.5q-100 0 -176 -67t-90 -168q-14 -100 42 -165.5t154 -65.5z
" />
    <glyph glyph-name="ocircumflex" unicode="&#xf4;" horiz-adv-x="615" 
d="M259 560h-27l151 135h20l89 -135h-23l-78 117zM342 496q110 0 171.5 -73t46.5 -182q-15 -108 -97.5 -179.5t-190.5 -71.5q-109 0 -170.5 71t-46.5 180t97.5 182t189.5 73zM272 10q101 0 177 65.5t90 165.5t-42.5 167.5t-154.5 67.5q-100 0 -176 -67t-90 -168
q-14 -100 42 -165.5t154 -65.5z" />
    <glyph glyph-name="otilde" unicode="&#xf5;" horiz-adv-x="615" 
d="M318 654q-46 0 -59 -54h-21q7 34 30.5 53.5t53.5 19.5q28 0 57 -28.5t52 -28.5q45 0 58 56h21q-7 -34 -30 -54.5t-53 -20.5q-27 0 -57 28.5t-52 28.5zM342 496q110 0 171.5 -73t46.5 -182q-15 -108 -97.5 -179.5t-190.5 -71.5q-109 0 -170.5 71t-46.5 180t97.5 182
t189.5 73zM272 10q101 0 177 65.5t90 165.5t-42.5 167.5t-154.5 67.5q-100 0 -176 -67t-90 -168q-14 -100 42 -165.5t154 -65.5z" />
    <glyph glyph-name="odieresis" unicode="&#xf6;" horiz-adv-x="615" 
d="M283 592q-11 0 -18 7t-7 17t7.5 17t17.5 7t17.5 -7t7.5 -17t-7 -17t-18 -7zM463 592q-11 0 -18 7t-7 17t7.5 17t17.5 7t17.5 -7t7.5 -17t-7 -17t-18 -7zM342 496q110 0 171.5 -73t46.5 -182q-15 -108 -97.5 -179.5t-190.5 -71.5q-109 0 -170.5 71t-46.5 180t97.5 182
t189.5 73zM272 10q101 0 177 65.5t90 165.5t-42.5 167.5t-154.5 67.5q-100 0 -176 -67t-90 -168q-14 -100 42 -165.5t154 -65.5z" />
    <glyph glyph-name="divide" unicode="&#xf7;" horiz-adv-x="580" 
d="M342 513q10 0 17.5 -7t7.5 -17t-7 -17t-18 -7t-18 7t-7 17t7.5 17t17.5 7zM512 295h-420l5 20h420zM257 145q10 0 17.5 -7t7.5 -17t-7 -17t-18 -7t-18 7t-7 17t7.5 17t17.5 7z" />
    <glyph glyph-name="oslash" unicode="&#xf8;" 
d="M609 477l-86 -70q48 -70 34 -166q-15 -108 -97.5 -179.5t-190.5 -71.5q-110 0 -172 72l-86 -70l-12 15l87 70q-47 68 -34 164q15 109 97.5 182t189.5 73q109 0 172 -74l86 70zM73 241q-12 -86 30 -150l391 317q-55 68 -155 68t-176 -67t-90 -168zM536 241q13 88 -30 152
l-391 -317q56 -66 154 -66q101 0 177 65.5t90 165.5z" />
    <glyph glyph-name="ugrave" unicode="&#xf9;" horiz-adv-x="640" 
d="M361 567l-131 136h30l124 -136h-23zM583 486l-113 -486h-21l28 120q-39 -61 -100 -95.5t-133 -34.5q-93 0 -137 58t-22 152l66 286h21l-66 -286q-20 -86 18 -138t120 -52q98 0 166.5 60.5t92.5 162.5l59 253h21z" />
    <glyph glyph-name="uacute" unicode="&#xfa;" horiz-adv-x="640" 
d="M397 567h-23l124 136h30zM583 486l-113 -486h-21l28 120q-39 -61 -100 -95.5t-133 -34.5q-93 0 -137 58t-22 152l66 286h21l-66 -286q-20 -86 18 -138t120 -52q98 0 166.5 60.5t92.5 162.5l59 253h21z" />
    <glyph glyph-name="ucircumflex" unicode="&#xfb;" horiz-adv-x="640" 
d="M275 560h-27l151 135h20l89 -135h-23l-78 117zM583 486l-113 -486h-21l28 120q-39 -61 -100 -95.5t-133 -34.5q-93 0 -137 58t-22 152l66 286h21l-66 -286q-20 -86 18 -138t120 -52q98 0 166.5 60.5t92.5 162.5l59 253h21z" />
    <glyph glyph-name="udieresis" unicode="&#xfc;" horiz-adv-x="640" 
d="M299 592q-11 0 -18 7t-7 17t7.5 17t17.5 7t17.5 -7t7.5 -17t-7 -17t-18 -7zM479 592q-11 0 -18 7t-7 17t7.5 17t17.5 7t17.5 -7t7.5 -17t-7 -17t-18 -7zM583 486l-113 -486h-21l28 120q-39 -61 -100 -95.5t-133 -34.5q-93 0 -137 58t-22 152l66 286h21l-66 -286
q-20 -86 18 -138t120 -52q98 0 166.5 60.5t92.5 162.5l59 253h21z" />
    <glyph glyph-name="yacute" unicode="&#xfd;" horiz-adv-x="546" 
d="M357 567h-23l124 136h30zM573 486l-466 -656h-28l125 175l-122 481h25l114 -456l325 456h27z" />
    <glyph glyph-name="thorn" unicode="&#xfe;" horiz-adv-x="656" 
d="M394 496q105 0 165 -70.5t42 -184.5q-18 -113 -99.5 -182t-186.5 -69q-80 0 -137.5 45t-70.5 122l-76 -327h-21l206 890h21l-83 -357q42 62 106.5 97.5t133.5 35.5zM316 10q96 0 172 63.5t92 167.5q17 105 -38 170t-150 65q-91 0 -169.5 -66t-95.5 -169q-16 -103 41 -167
t148 -64z" />
    <glyph glyph-name="ydieresis" unicode="&#xff;" horiz-adv-x="546" 
d="M259 592q-11 0 -18 7t-7 17t7.5 17t17.5 7t17.5 -7t7.5 -17t-7 -17t-18 -7zM439 592q-11 0 -18 7t-7 17t7.5 17t17.5 7t17.5 -7t7.5 -17t-7 -17t-18 -7zM573 486l-466 -656h-28l125 175l-122 481h25l114 -456l325 456h27z" />
    <glyph glyph-name="Amacron" unicode="&#x100;" horiz-adv-x="678" 
d="M588 779h-250l4 17h250zM602 0h-21l-46 196h-410l-136 -196h-25l465 670h18zM531 216l-99 423l-293 -423h392z" />
    <glyph glyph-name="amacron" unicode="&#x101;" horiz-adv-x="657" 
d="M522 595h-250l4 17h250zM608 486l-112 -486h-21l29 125q-41 -63 -106 -99t-135 -36q-105 0 -165 70.5t-42 184.5q18 113 99.5 182t186.5 69q81 0 138.5 -45t70.5 -123l36 158h21zM265 10q91 0 169.5 66t95.5 169q16 103 -41 167t-148 64q-96 0 -172 -63.5t-92 -167.5
q-17 -105 38 -170t150 -65z" />
    <glyph glyph-name="Abreve" unicode="&#x102;" horiz-adv-x="678" 
d="M463 745q-53 0 -83 33t-21 86h19q-7 -45 17.5 -73t68.5 -28t78.5 28t41.5 73h21q-9 -53 -49 -86t-93 -33zM447 670l155 -670h-21l-46 196h-410l-136 -196h-25l465 670h18zM531 216l-99 423l-293 -423h392z" />
    <glyph glyph-name="abreve" unicode="&#x103;" horiz-adv-x="657" 
d="M397 561q-53 0 -83 33t-21 86h19q-7 -45 17.5 -73t68.5 -28t78.5 28t41.5 73h21q-9 -53 -49 -86t-93 -33zM608 486l-112 -486h-21l29 125q-41 -63 -106 -99t-135 -36q-105 0 -165 70.5t-42 184.5q18 113 99.5 182t186.5 69q81 0 138.5 -45t70.5 -123l36 158h21zM265 10
q91 0 169.5 66t95.5 169q16 103 -41 167t-148 64q-96 0 -172 -63.5t-92 -167.5q-17 -105 38 -170t150 -65z" />
    <glyph glyph-name="Aogonek" unicode="&#x104;" horiz-adv-x="678" 
d="M598 -160l6 -19q-37 -12 -54 -12q-33 0 -53.5 19.5t-20.5 50.5q0 22 14.5 43.5t29.5 34t60 48.5l-45 191h-410l-136 -196h-25l465 670h18l155 -670q-5 -4 -17.5 -13.5t-17 -13.5t-14.5 -12t-14.5 -12t-12 -11t-10.5 -11.5t-7.5 -11t-6.5 -12t-3.5 -12t-1.5 -12.5
q0 -23 15.5 -36t40.5 -13q13 0 45 10zM531 216l-99 423l-293 -423h392z" />
    <glyph glyph-name="aogonek" unicode="&#x105;" horiz-adv-x="657" 
d="M447 -170q13 0 45 10l6 -19q-37 -12 -54 -12q-33 0 -53.5 19.5t-20.5 50.5q0 30 21 53.5t77 67.5q3 2 5 3.5t4 3.5l27 118q-41 -63 -106 -99t-135 -36q-105 0 -165 70.5t-42 184.5q18 113 99.5 182t186.5 69q81 0 138.5 -45t70.5 -123l36 158h21l-112 -486
q-5 -4 -17.5 -13.5t-17 -13.5t-14.5 -12t-14.5 -12t-12 -11t-10.5 -11.5t-7.5 -11t-6.5 -12t-3.5 -12t-1.5 -12.5q0 -23 15.5 -36t40.5 -13zM265 10q91 0 169.5 66t95.5 169q16 103 -41 167t-148 64q-96 0 -172 -63.5t-92 -167.5q-17 -105 38 -170t150 -65z" />
    <glyph glyph-name="Cacute" unicode="&#x106;" horiz-adv-x="805" 
d="M532 751h-23l124 136h30zM495 680q104 0 178.5 -50.5t98.5 -134.5l-21 -8q-21 77 -90.5 125t-167.5 48q-153 0 -266.5 -109.5t-113.5 -260.5q0 -121 76.5 -200.5t202.5 -79.5q97 0 181 48.5t129 124.5l19 -8q-48 -82 -138.5 -133.5t-193.5 -51.5q-134 0 -216.5 85
t-82.5 214q0 160 121 275.5t284 115.5z" />
    <glyph glyph-name="cacute" unicode="&#x107;" horiz-adv-x="579" 
d="M381 567h-23l124 136h30zM340 476q-94 0 -171 -65.5t-93 -167.5t41.5 -167.5t148.5 -65.5q68 0 128.5 37.5t88.5 96.5l18 -7q-29 -65 -95 -106t-140 -41q-103 0 -166 71t-45 182t101 182t184 71q77 0 132 -39t65 -105l-20 -8q-9 60 -59.5 96t-117.5 36z" />
    <glyph glyph-name="Cdotaccent" unicode="&#x10a;" horiz-adv-x="805" 
d="M522 829q10 0 17.5 -7t7.5 -17t-7 -17t-18 -7t-18 7t-7 17t7.5 17t17.5 7zM495 680q104 0 178.5 -50.5t98.5 -134.5l-21 -8q-21 77 -90.5 125t-167.5 48q-153 0 -266.5 -109.5t-113.5 -260.5q0 -121 76.5 -200.5t202.5 -79.5q97 0 181 48.5t129 124.5l19 -8
q-48 -82 -138.5 -133.5t-193.5 -51.5q-134 0 -216.5 85t-82.5 214q0 160 121 275.5t284 115.5z" />
    <glyph glyph-name="cdotaccent" unicode="&#x10b;" horiz-adv-x="579" 
d="M371 597q-11 0 -18 7t-7 17t7.5 17t17.5 7t17.5 -7t7.5 -17t-7 -17t-18 -7zM340 476q-94 0 -171 -65.5t-93 -167.5t41.5 -167.5t148.5 -65.5q68 0 128.5 37.5t88.5 96.5l18 -7q-29 -65 -95 -106t-140 -41q-103 0 -166 71t-45 182t101 182t184 71q77 0 132 -39t65 -105
l-20 -8q-9 60 -59.5 96t-117.5 36z" />
    <glyph glyph-name="Ccaron" unicode="&#x10c;" horiz-adv-x="805" 
d="M502 746l-89 135h23l78 -117l132 117h27l-151 -135h-20zM493 660q-153 0 -266.5 -109.5t-113.5 -260.5q0 -121 76.5 -200.5t202.5 -79.5q97 0 181 48.5t129 124.5l19 -8q-48 -82 -138.5 -133.5t-193.5 -51.5q-134 0 -216.5 85t-82.5 214q0 160 121 275.5t284 115.5
q104 0 178.5 -50.5t98.5 -134.5l-21 -8q-21 77 -90.5 125t-167.5 48z" />
    <glyph glyph-name="ccaron" unicode="&#x10d;" horiz-adv-x="579" 
d="M351 562l-89 135h23l78 -117l132 117h27l-151 -135h-20zM340 476q-94 0 -171 -65.5t-93 -167.5t41.5 -167.5t148.5 -65.5q68 0 128.5 37.5t88.5 96.5l18 -7q-29 -65 -95 -106t-140 -41q-103 0 -166 71t-45 182t101 182t184 71q77 0 132 -39t65 -105l-20 -8
q-9 60 -59.5 96t-117.5 36z" />
    <glyph glyph-name="Dcaron" unicode="&#x10e;" horiz-adv-x="749" 
d="M452 746l-89 135h23l78 -117l132 117h27l-151 -135h-20zM204 670h195q152 0 230.5 -76t78.5 -195q0 -75 -31.5 -146.5t-89 -128t-146 -90.5t-193.5 -34h-199zM76 20h172q101 0 185 33t138 86.5t84 120.5t30 137q0 111 -73 182t-213 71h-177z" />
    <glyph glyph-name="dcaron" unicode="&#x10f;" horiz-adv-x="655" 
d="M640 720h21l-166 -720h-21l29 125q-41 -63 -106 -99t-135 -36q-105 0 -165 70.5t-42 184.5q18 113 99.5 182t186.5 69q81 0 138.5 -45t70.5 -123zM765 720l-38 -146h-18l34 146h22zM264 10q91 0 169.5 66t95.5 169q16 103 -41 167t-148 64q-96 0 -172 -63.5t-92 -167.5
q-17 -105 38 -170t150 -65z" />
    <glyph glyph-name="Dcroat" unicode="&#x110;" horiz-adv-x="786" 
d="M229 670h195q152 0 230.5 -76t78.5 -195q0 -75 -31.5 -146.5t-89 -128t-146 -90.5t-193.5 -34h-199l76 328h-84l4 20h85zM101 20h172q101 0 185 33t138 86.5t84 120.5t30 137q0 111 -73 182t-213 71h-177l-70 -302h201l-4 -20h-202z" />
    <glyph glyph-name="dcroat" unicode="&#x111;" horiz-adv-x="682" 
d="M718 595h-86l-137 -595h-21l29 125q-41 -63 -106 -99t-135 -36q-105 0 -165 70.5t-42 184.5q18 113 99.5 182t186.5 69q81 0 138.5 -45t70.5 -123l61 267h-203l4 17h203l25 108h21l-25 -108h86zM264 10q91 0 169.5 66t95.5 169q16 103 -41 167t-148 64q-96 0 -172 -63.5
t-92 -167.5q-17 -105 38 -170t150 -65z" />
    <glyph glyph-name="Emacron" unicode="&#x112;" horiz-adv-x="640" 
d="M579 779h-250l4 17h250zM221 650l-70 -303h418l-4 -20h-418l-71 -307h448l-5 -20h-470l155 670h470l-5 -20h-448z" />
    <glyph glyph-name="emacron" unicode="&#x113;" horiz-adv-x="594" 
d="M495 595h-250l4 17h250zM542 248h-466q-3 -20 -3 -37q0 -88 54 -144.5t148 -56.5q69 0 129.5 38t96.5 108l17 -7q-35 -74 -101.5 -116.5t-144.5 -42.5q-94 0 -156 59t-62 161q0 123 87.5 204.5t198.5 81.5q106 0 161.5 -70t40.5 -178zM340 477q-103 0 -171 -62t-89 -147
h443q8 94 -41 151.5t-142 57.5z" />
    <glyph glyph-name="Edotaccent" unicode="&#x116;" horiz-adv-x="640" 
d="M457 781q-11 0 -18 7t-7 17t7.5 17t17.5 7t17.5 -7t7.5 -17t-7 -17t-18 -7zM221 650l-70 -303h418l-4 -20h-418l-71 -307h448l-5 -20h-470l155 670h470l-5 -20h-448z" />
    <glyph glyph-name="edotaccent" unicode="&#x117;" horiz-adv-x="594" 
d="M373 597q-11 0 -18 7t-7 17t7.5 17t17.5 7t17.5 -7t7.5 -17t-7 -17t-18 -7zM542 248h-466q-3 -20 -3 -37q0 -88 54 -144.5t148 -56.5q69 0 129.5 38t96.5 108l17 -7q-35 -74 -101.5 -116.5t-144.5 -42.5q-94 0 -156 59t-62 161q0 123 87.5 204.5t198.5 81.5
q106 0 161.5 -70t40.5 -178zM340 477q-103 0 -171 -62t-89 -147h443q8 94 -41 151.5t-142 57.5z" />
    <glyph glyph-name="Eogonek" unicode="&#x118;" horiz-adv-x="640" 
d="M221 650l-70 -303h418l-4 -20h-418l-71 -307h448l-5 -20h-41q-5 -4 -17.5 -13.5t-17 -13.5t-14.5 -12t-14.5 -12t-12 -11t-10.5 -11.5t-7.5 -11t-6.5 -12t-3.5 -12t-1.5 -12.5q0 -23 15.5 -36t40.5 -13q13 0 45 10l6 -19q-37 -12 -54 -12q-33 0 -53.5 19.5t-20.5 50.5
q0 30 21 53.5t77 67.5h-401l155 670h470l-5 -20h-448z" />
    <glyph glyph-name="eogonek" unicode="&#x119;" horiz-adv-x="595" 
d="M543 248h-467q-3 -20 -3 -37q0 -88 54 -144.5t148 -56.5q69 0 129.5 37.5t96.5 107.5l17 -6q-25 -53 -80 -102q-111 -95 -131 -120t-20 -48t15.5 -36t40.5 -13q13 0 45 10l6 -19q-37 -12 -54 -12q-33 0 -53.5 19.5t-20.5 50.5q0 27 19.5 51t79.5 77q-43 -17 -93 -17
q-94 0 -156 59t-62 161q0 123 87.5 204.5t198.5 81.5q107 0 163.5 -71t39.5 -177zM340 477q-103 0 -171 -62t-89 -147h445q8 94 -42 151.5t-143 57.5z" />
    <glyph glyph-name="Ecaron" unicode="&#x11a;" horiz-adv-x="640" 
d="M437 746l-89 135h23l78 -117l132 117h27l-151 -135h-20zM221 650l-70 -303h418l-4 -20h-418l-71 -307h448l-5 -20h-470l155 670h470l-5 -20h-448z" />
    <glyph glyph-name="ecaron" unicode="&#x11b;" horiz-adv-x="594" 
d="M353 562l-89 135h23l78 -117l132 117h27l-151 -135h-20zM542 248h-466q-3 -20 -3 -37q0 -88 54 -144.5t148 -56.5q69 0 129.5 38t96.5 108l17 -7q-35 -74 -101.5 -116.5t-144.5 -42.5q-94 0 -156 59t-62 161q0 123 87.5 204.5t198.5 81.5q106 0 161.5 -70t40.5 -178z
M340 477q-103 0 -171 -62t-89 -147h443q8 94 -41 151.5t-142 57.5z" />
    <glyph glyph-name="Gbreve" unicode="&#x11e;" horiz-adv-x="814" 
d="M514 745q-53 0 -83 33t-21 86h19q-7 -45 17.5 -73t68.5 -28t78.5 28t41.5 73h21q-9 -53 -49 -86t-93 -33zM769 345l-1 -10q-23 -145 -131 -245t-254 -100q-129 0 -211.5 85.5t-82.5 215.5q0 104 56 194t148 142.5t196 52.5q111 0 184.5 -50.5t96.5 -134.5l-21 -8
q-22 78 -90 125.5t-170 47.5q-150 0 -263.5 -109.5t-113.5 -259.5q0 -120 76 -200.5t195 -80.5q136 0 236 91t125 224h-353l4 20h374z" />
    <glyph glyph-name="gbreve" unicode="&#x11f;" horiz-adv-x="647" 
d="M391 561q-53 0 -83 33t-21 86h19q-7 -45 17.5 -73t68.5 -28t78.5 28t41.5 73h21q-9 -53 -49 -86t-93 -33zM598 486l-105 -455q-23 -100 -95 -160.5t-173 -60.5q-176 0 -230 146l22 8q47 -134 208 -134q92 0 159 55t88 146l29 126q-40 -60 -104.5 -94t-134.5 -34
q-102 0 -161.5 65t-41.5 170t98 168t183 63q78 0 134.5 -40.5t69.5 -111.5l33 143h21zM264 47q89 0 166 60.5t94 156.5q16 95 -40 154t-145 59q-94 0 -168.5 -58.5t-90.5 -154.5q-16 -97 37.5 -157t146.5 -60z" />
    <glyph glyph-name="Gdotaccent" unicode="&#x120;" horiz-adv-x="814" 
d="M517 829q10 0 17.5 -7t7.5 -17t-7 -17t-18 -7t-18 7t-7 17t7.5 17t17.5 7zM769 345l-1 -10q-23 -145 -131 -245t-254 -100q-129 0 -211.5 85.5t-82.5 215.5q0 104 56 194t148 142.5t196 52.5q111 0 184.5 -50.5t96.5 -134.5l-21 -8q-22 78 -90 125.5t-170 47.5
q-150 0 -263.5 -109.5t-113.5 -259.5q0 -120 76 -200.5t195 -80.5q136 0 236 91t125 224h-353l4 20h374z" />
    <glyph glyph-name="gdotaccent" unicode="&#x121;" horiz-adv-x="647" 
d="M394 597q-11 0 -18 7t-7 17t7.5 17t17.5 7t17.5 -7t7.5 -17t-7 -17t-18 -7zM598 486l-105 -455q-23 -100 -95 -160.5t-173 -60.5q-176 0 -230 146l22 8q47 -134 208 -134q92 0 159 55t88 146l29 126q-40 -60 -104.5 -94t-134.5 -34q-102 0 -161.5 65t-41.5 170t98 168
t183 63q78 0 134.5 -40.5t69.5 -111.5l33 143h21zM264 47q89 0 166 60.5t94 156.5q16 95 -40 154t-145 59q-94 0 -168.5 -58.5t-90.5 -154.5q-16 -97 37.5 -157t146.5 -60z" />
    <glyph glyph-name="Gcommaaccent" unicode="&#x122;" horiz-adv-x="814" 
d="M769 345l-1 -10q-23 -145 -131 -245t-254 -100q-129 0 -211.5 85.5t-82.5 215.5q0 104 56 194t148 142.5t196 52.5q111 0 184.5 -50.5t96.5 -134.5l-21 -8q-22 78 -90 125.5t-170 47.5q-150 0 -263.5 -109.5t-113.5 -259.5q0 -120 76 -200.5t195 -80.5q136 0 236 91
t125 224h-353l4 20h374zM272 -180l69 135h28l-77 -135h-20z" />
    <glyph glyph-name="gcommaaccent" unicode="&#x123;" horiz-adv-x="647" 
d="M394 574h-28l77 135h20zM598 486l-105 -455q-23 -100 -95 -160.5t-173 -60.5q-176 0 -230 146l22 8q47 -134 208 -134q92 0 159 55t88 146l29 126q-40 -60 -104.5 -94t-134.5 -34q-102 0 -161.5 65t-41.5 170t98 168t183 63q78 0 134.5 -40.5t69.5 -111.5l33 143h21z
M264 47q89 0 166 60.5t94 156.5q16 95 -40 154t-145 59q-94 0 -168.5 -58.5t-90.5 -154.5q-16 -97 37.5 -157t146.5 -60z" />
    <glyph glyph-name="Hbar" unicode="&#x126;" horiz-adv-x="774" 
d="M785 486h-77l-112 -486h-22l76 328h-485l-76 -328h-22l112 486h-77l5 20h77l38 164h22l-38 -164h485l38 164h22l-38 -164h77zM687 486h-485l-32 -138h485z" />
    <glyph glyph-name="hbar" unicode="&#x127;" horiz-adv-x="667" 
d="M424 496q93 0 136.5 -57.5t21.5 -152.5l-66 -286h-21l66 286q19 85 -18.5 137.5t-118.5 52.5q-98 0 -167 -60.5t-93 -162.5l-59 -253h-21l138 595h-95l4 17h95l25 108h21l-25 -108h194l-4 -17h-194l-53 -230q39 62 100 96.5t134 34.5z" />
    <glyph glyph-name="Imacron" unicode="&#x12a;" horiz-adv-x="232" 
d="M365 779h-250l4 17h250zM71 0h-22l155 670h22z" />
    <glyph glyph-name="imacron" unicode="&#x12b;" horiz-adv-x="261" 
d="M337 595h-250l4 17h250zM85 0h-21l112 486h21z" />
    <glyph glyph-name="Iogonek" unicode="&#x12e;" horiz-adv-x="232" 
d="M22 -170q13 0 45 10l6 -19q-37 -12 -54 -12q-33 0 -53.5 19.5t-20.5 50.5q0 30 20 53t75 66q7 5 10 8l154 664h22l-155 -670q-5 -4 -17.5 -13.5t-17 -13.5t-14.5 -12t-14.5 -12t-12 -11t-10.5 -11.5t-7.5 -11t-6.5 -12t-3.5 -12t-1.5 -12.5q0 -23 15.5 -36t40.5 -13z" />
    <glyph glyph-name="iogonek" unicode="&#x12f;" horiz-adv-x="261" 
d="M215 645q10 0 17.5 -7t7.5 -17t-7 -17t-18 -7t-18 7t-7 17t7.5 17t17.5 7zM197 486l-112 -486q-5 -4 -17.5 -13.5t-17 -13.5t-14.5 -12t-14.5 -12t-12 -11t-10.5 -11.5t-7.5 -11t-6.5 -12t-3.5 -12t-1.5 -12.5q0 -23 15.5 -36t40.5 -13q13 0 45 10l6 -19q-37 -12 -54 -12
q-33 0 -53.5 19.5t-20.5 50.5q0 30 21 53.5t77 67.5q6 5 9 7l110 479h21z" />
    <glyph glyph-name="Idotaccent" unicode="&#x130;" horiz-adv-x="232" 
d="M243 829q10 0 17.5 -7t7.5 -17t-7 -17t-18 -7t-18 7t-7 17t7.5 17t17.5 7zM71 0h-22l155 670h22z" />
    <glyph glyph-name="dotlessi" unicode="&#x131;" horiz-adv-x="261" 
d="M85 0h-21l112 486h21z" />
    <glyph glyph-name="IJ" unicode="&#x132;" horiz-adv-x="826" 
d="M71 0h-22l155 670h22zM849 670l-97 -420q-27 -117 -108.5 -188.5t-186.5 -71.5q-95 0 -150.5 58.5t-51.5 153.5l21 7q-4 -90 45 -144t136 -54q97 0 172.5 66t100.5 173l97 420h22z" />
    <glyph glyph-name="ij" unicode="&#x133;" horiz-adv-x="522" 
d="M216 659q10 0 17.5 -7t7.5 -17t-7 -17t-18 -7t-18 7t-7 17t7.5 17t17.5 7zM487 659q10 0 17.5 -7t7.5 -17t-7 -17t-18 -7t-18 7t-7 17t7.5 17t17.5 7zM80 0h-21l112 486h21zM465 486l-135 -573q-11 -47 -45.5 -75t-80.5 -28q-34 0 -56 16l12 17q19 -13 46 -13q38 0 66 23
t37 60l135 573h21z" />
    <glyph glyph-name="Kcommaaccent" unicode="&#x136;" horiz-adv-x="678" 
d="M200 334l392 -334h-31l-379 325h-36l-75 -325h-22l154 670h22l-75 -325h31l497 325h34zM277 -45h28l-77 -135h-20z" />
    <glyph glyph-name="kcommaaccent" unicode="&#x137;" horiz-adv-x="579" 
d="M196 248l316 -248h-29l-307 240h-40l-56 -240h-21l167 720h21l-107 -460h39l355 226h32zM223 -45h28l-77 -135h-20z" />
    <glyph glyph-name="Lacute" unicode="&#x139;" horiz-adv-x="575" 
d="M253 751h-23l124 136h30zM499 20l-5 -20h-445l155 670h22l-150 -650h423z" />
    <glyph glyph-name="lacute" unicode="&#x13a;" horiz-adv-x="231" 
d="M264 801h-23l124 136h30zM70 0h-21l166 720h21z" />
    <glyph glyph-name="Lcommaaccent" unicode="&#x13b;" horiz-adv-x="575" 
d="M499 20l-5 -20h-445l155 670h22l-150 -650h423zM263 -45h28l-77 -135h-20z" />
    <glyph glyph-name="lcommaaccent" unicode="&#x13c;" horiz-adv-x="231" 
d="M70 0h-21l166 720h21zM-38 -180l69 135h28l-77 -135h-20z" />
    <glyph glyph-name="Lcaron" unicode="&#x13d;" horiz-adv-x="575" 
d="M499 20l-5 -20h-445l155 670h22l-150 -650h423zM400 524h-18l34 146h22z" />
    <glyph glyph-name="lcaron" unicode="&#x13e;" horiz-adv-x="231" 
d="M70 0h-21l166 720h21zM313 574h-18l34 146h22z" />
    <glyph glyph-name="Ldot" unicode="&#x13f;" horiz-adv-x="580" 
d="M499 20l-5 -20h-445l155 670h22l-150 -650h423zM351 311q-11 0 -18 7t-7 17t7.5 17t17.5 7t17.5 -7t7.5 -17t-7 -17t-18 -7z" />
    <glyph glyph-name="ldot" unicode="&#x140;" horiz-adv-x="264" 
d="M70 0h-21l166 720h21zM281 349q10 0 17.5 -7t7.5 -17t-7 -17t-18 -7t-18 7t-7 17t7.5 17t17.5 7z" />
    <glyph glyph-name="Lslash" unicode="&#x141;" horiz-adv-x="611" 
d="M530 20l-5 -20h-445l66 285l-101 -45l5 23l101 45l84 362h22l-81 -351l209 94l-5 -23l-209 -94l-64 -276h423z" />
    <glyph glyph-name="lslash" unicode="&#x142;" horiz-adv-x="311" 
d="M307 418l-125 -73l-79 -345h-21l76 330l-106 -62l6 25l106 63l84 364h21l-81 -350l124 73z" />
    <glyph glyph-name="Nacute" unicode="&#x143;" horiz-adv-x="759" 
d="M507 751h-23l124 136h30zM753 670l-155 -670h-20l-359 640l-148 -640h-22l155 670h22l358 -638l147 638h22z" />
    <glyph glyph-name="nacute" unicode="&#x144;" horiz-adv-x="640" 
d="M432 567h-23l124 136h30zM396 496q93 0 137 -58t22 -152l-66 -286h-21l66 286q20 86 -18 138t-120 52q-98 0 -166.5 -60.5t-92.5 -162.5l-59 -253h-21l113 486h21l-28 -120q39 61 100 95.5t133 34.5z" />
    <glyph glyph-name="Ncommaaccent" unicode="&#x145;" horiz-adv-x="759" 
d="M753 670l-155 -670h-20l-359 640l-148 -640h-22l155 670h22l358 -638l147 638h22zM313 -45h28l-77 -135h-20z" />
    <glyph glyph-name="ncommaaccent" unicode="&#x146;" horiz-adv-x="640" 
d="M396 496q93 0 137 -58t22 -152l-66 -286h-21l66 286q20 86 -18 138t-120 52q-98 0 -166.5 -60.5t-92.5 -162.5l-59 -253h-21l113 486h21l-28 -120q39 61 100 95.5t133 34.5zM249 -45h28l-77 -135h-20z" />
    <glyph glyph-name="Ncaron" unicode="&#x147;" horiz-adv-x="759" 
d="M477 746l-89 135h23l78 -117l132 117h27l-151 -135h-20zM753 670l-155 -670h-20l-359 640l-148 -640h-22l155 670h22l358 -638l147 638h22z" />
    <glyph glyph-name="ncaron" unicode="&#x148;" horiz-adv-x="640" 
d="M402 562l-89 135h23l78 -117l132 117h27l-151 -135h-20zM396 496q93 0 137 -58t22 -152l-66 -286h-21l66 286q20 86 -18 138t-120 52q-98 0 -166.5 -60.5t-92.5 -162.5l-59 -253h-21l113 486h21l-28 -120q39 61 100 95.5t133 34.5z" />
    <glyph glyph-name="Eng" unicode="&#x14a;" horiz-adv-x="759" 
d="M753 670l-175 -757q-10 -46 -44.5 -74.5t-80.5 -28.5q-37 0 -63 21l13 20q21 -18 52 -18q38 0 65 22t36 59l21 89l-358 637l-148 -640h-22l155 670h22l357 -637l148 637h22z" />
    <glyph glyph-name="eng" unicode="&#x14b;" horiz-adv-x="640" 
d="M396 496q93 0 137 -58t22 -152l-66 -286l-22 -87q-12 -47 -46 -75t-79 -28q-38 0 -63 21l11 17q22 -18 52 -18q37 0 65.5 22.5t38.5 60.5l22 87l66 286q20 86 -18 138t-120 52q-98 0 -166.5 -60.5t-92.5 -162.5l-59 -253h-21l113 486h21l-28 -120q39 61 100 95.5
t133 34.5z" />
    <glyph glyph-name="Omacron" unicode="&#x14c;" horiz-adv-x="819" 
d="M655 779h-250l4 17h250zM486 680q143 0 225.5 -100t59.5 -245q-22 -145 -136 -245t-257 -100t-226 99.5t-60 245.5q23 145 137 245t257 100zM381 10q133 0 239.5 94t128.5 231q21 136 -55.5 230.5t-209.5 94.5q-134 0 -241.5 -94.5t-128.5 -230.5q-22 -137 55.5 -231
t211.5 -94z" />
    <glyph glyph-name="omacron" unicode="&#x14d;" horiz-adv-x="615" 
d="M493 595h-250l4 17h250zM342 496q110 0 171.5 -73t46.5 -182q-15 -108 -97.5 -179.5t-190.5 -71.5q-109 0 -170.5 71t-46.5 180t97.5 182t189.5 73zM272 10q101 0 177 65.5t90 165.5t-42.5 167.5t-154.5 67.5q-100 0 -176 -67t-90 -168q-14 -100 42 -165.5t154 -65.5z
" />
    <glyph glyph-name="Ohungarumlaut" unicode="&#x150;" horiz-adv-x="819" 
d="M469 751h-21l124 135h27zM591 751h-21l123 135h27zM486 680q143 0 225.5 -100t59.5 -245q-22 -145 -136 -245t-257 -100t-226 99.5t-60 245.5q23 145 137 245t257 100zM381 10q133 0 239.5 94t128.5 231q21 136 -55.5 230.5t-209.5 94.5q-134 0 -241.5 -94.5
t-128.5 -230.5q-22 -137 55.5 -231t211.5 -94z" />
    <glyph glyph-name="ohungarumlaut" unicode="&#x151;" horiz-adv-x="615" 
d="M307 567h-21l124 135h27zM408 567l123 135h27l-129 -135h-21zM342 496q110 0 171.5 -73t46.5 -182q-15 -108 -97.5 -179.5t-190.5 -71.5q-109 0 -170.5 71t-46.5 180t97.5 182t189.5 73zM272 10q101 0 177 65.5t90 165.5t-42.5 167.5t-154.5 67.5q-100 0 -176 -67
t-90 -168q-14 -100 42 -165.5t154 -65.5z" />
    <glyph glyph-name="OE" unicode="&#x152;" horiz-adv-x="1028" 
d="M609 650l-70 -303h418l-4 -20h-418l-71 -307h448l-5 -20h-529q-144 0 -226 95t-60 240q24 147 145.5 241t301.5 94h523l-5 -20h-448zM442 20l145 630h-53q-169 0 -284 -88.5t-136 -226.5q-22 -136 55.5 -225.5t213.5 -89.5h59z" />
    <glyph glyph-name="oe" unicode="&#x153;" horiz-adv-x="1080" 
d="M560 241l-2 -15q-1 -5 -1 -15q0 -88 54 -144.5t148 -56.5q69 0 129.5 38t96.5 108l17 -7q-35 -74 -101.5 -116.5t-144.5 -42.5q-84 0 -143.5 48t-71.5 132q-34 -81 -107.5 -130.5t-161.5 -49.5q-109 0 -170.5 71t-46.5 180t97.5 182t189.5 73q88 0 146.5 -48.5
t71.5 -127.5q33 80 107 128t157 48q106 0 161.5 -70t40.5 -178h-465zM824 477q-103 0 -171 -62t-89 -147h443q8 94 -41 151.5t-142 57.5zM272 10q101 0 177 65.5t90 165.5t-42.5 167.5t-154.5 67.5q-100 0 -176 -67t-90 -168q-14 -100 42 -165.5t154 -65.5z" />
    <glyph glyph-name="Racute" unicode="&#x154;" horiz-adv-x="666" 
d="M445 751h-23l124 136h30zM673 531q0 -91 -67.5 -147t-177.5 -56h-54l205 -328h-27l-202 328h-194l-76 -328h-22l150 650l5 20h299q73 0 117 -38.5t44 -100.5zM161 348h268q100 0 161 49.5t61 131.5q0 55 -38.5 88t-100.5 33h-281z" />
    <glyph glyph-name="racute" unicode="&#x155;" horiz-adv-x="374" 
d="M296 567h-23l124 136h30zM182 486l-36 -155q42 70 105.5 114t132.5 44q18 0 30 -3l-4 -19q-9 2 -27 2q-89 0 -161.5 -71t-98.5 -169l-53 -229h-21l112 486h21z" />
    <glyph glyph-name="Rcommaaccent" unicode="&#x156;" horiz-adv-x="666" 
d="M673 531q0 -91 -67.5 -147t-177.5 -56h-54l205 -328h-27l-202 328h-194l-76 -328h-22l150 650l5 20h299q73 0 117 -38.5t44 -100.5zM161 348h268q100 0 161 49.5t61 131.5q0 55 -38.5 88t-100.5 33h-281zM270 -45h28l-77 -135h-20z" />
    <glyph glyph-name="rcommaaccent" unicode="&#x157;" horiz-adv-x="374" 
d="M384 489q18 0 30 -3l-4 -19q-9 2 -27 2q-89 0 -161.5 -71t-98.5 -169l-53 -229h-21l112 486h21l-36 -155q42 70 105.5 114t132.5 44zM31 -45h28l-77 -135h-20z" />
    <glyph glyph-name="Rcaron" unicode="&#x158;" horiz-adv-x="666" 
d="M415 746l-89 135h23l78 -117l132 117h27l-151 -135h-20zM673 531q0 -91 -67.5 -147t-177.5 -56h-54l205 -328h-27l-202 328h-194l-76 -328h-22l150 650l5 20h299q73 0 117 -38.5t44 -100.5zM161 348h268q100 0 161 49.5t61 131.5q0 55 -38.5 88t-100.5 33h-281z" />
    <glyph glyph-name="rcaron" unicode="&#x159;" horiz-adv-x="374" 
d="M266 562l-89 135h23l78 -117l132 117h27l-151 -135h-20zM182 486l-36 -155q42 70 105.5 114t132.5 44q18 0 30 -3l-4 -19q-9 2 -27 2q-89 0 -161.5 -71t-98.5 -169l-53 -229h-21l112 486h21z" />
    <glyph glyph-name="Sacute" unicode="&#x15a;" horiz-adv-x="619" 
d="M428 751h-23l124 136h30zM383 680q100 0 161 -50.5t66 -134.5l-21 -7q-5 78 -60.5 125t-147.5 47q-91 0 -151.5 -44.5t-60.5 -115.5q0 -43 26 -70t81 -49l135 -55q68 -28 99 -63.5t31 -85.5q0 -84 -68 -135.5t-178 -51.5q-115 0 -185 57.5t-70 151.5l22 6
q-1 -88 62.5 -141.5t171.5 -53.5q100 0 161 45.5t61 120.5q0 85 -109 129l-140 57q-66 29 -94 58.5t-28 77.5q0 81 67 131.5t169 50.5z" />
    <glyph glyph-name="sacute" unicode="&#x15b;" horiz-adv-x="508" 
d="M369 567h-23l124 136h30zM30 134l19 7q11 -59 60.5 -95.5t119.5 -36.5q77 0 125 33t48 90q0 21 -7.5 36.5t-26 27t-32 17.5t-43.5 17l-75 27q-53 19 -76.5 38.5t-23.5 58.5q0 64 53 103t134 39q70 0 118.5 -34.5t58.5 -91.5l-19 -8q-7 51 -51 82.5t-108 31.5
q-72 0 -118.5 -32.5t-46.5 -86.5q0 -12 2 -21.5t9 -17.5t11 -12.5t16.5 -10.5t16 -8t19.5 -7.5t18 -6.5l67 -25q3 -1 19 -7t21 -8t18.5 -7.5t18.5 -9.5t15 -11t14 -13.5t9.5 -15.5t7.5 -19.5t2 -22.5q0 -66 -54.5 -105t-142.5 -39q-78 0 -131.5 39.5t-64.5 104.5z" />
    <glyph glyph-name="Scedilla" unicode="&#x15e;" horiz-adv-x="619" 
d="M381 660q-91 0 -151.5 -44.5t-60.5 -115.5q0 -43 26 -70t81 -49l135 -55q68 -28 99 -63.5t31 -85.5q0 -84 -68 -135.5t-178 -51.5h-12l-134 -170h-33l143 172q-101 9 -160 65t-59 142l22 6q-1 -88 62.5 -141.5t171.5 -53.5q100 0 161 45.5t61 120.5q0 85 -109 129
l-140 57q-66 29 -94 58.5t-28 77.5q0 81 67 131.5t169 50.5q100 0 161 -50.5t66 -134.5l-21 -7q-5 78 -60.5 125t-147.5 47z" />
    <glyph glyph-name="scedilla" unicode="&#x15f;" horiz-adv-x="508" 
d="M305 496q70 0 118.5 -34.5t58.5 -91.5l-19 -8q-7 51 -51 82.5t-108 31.5q-72 0 -118.5 -32.5t-46.5 -86.5q0 -12 2 -21.5t9 -17.5t11 -12.5t16.5 -10.5t16 -8t19.5 -7.5t18 -6.5l67 -25q3 -1 19 -7t21 -8t18.5 -7.5t18.5 -9.5t15 -11t14 -13.5t9.5 -15.5t7.5 -19.5
t2 -22.5q0 -66 -54.5 -105t-142.5 -39h-8l-134 -170h-33l143 172q-66 7 -110 45.5t-54 96.5l19 7q11 -59 60.5 -95.5t119.5 -36.5q77 0 125 33t48 90q0 21 -7.5 36.5t-26 27t-32 17.5t-43.5 17l-75 27q-53 19 -76.5 38.5t-23.5 58.5q0 64 53 103t134 39z" />
    <glyph glyph-name="Scaron" unicode="&#x160;" horiz-adv-x="619" 
d="M398 746l-89 135h23l78 -117l132 117h27l-151 -135h-20zM381 660q-91 0 -151.5 -44.5t-60.5 -115.5q0 -43 26 -70t81 -49l135 -55q68 -28 99 -63.5t31 -85.5q0 -84 -68 -135.5t-178 -51.5q-115 0 -185 57.5t-70 151.5l22 6q-1 -88 62.5 -141.5t171.5 -53.5
q100 0 161 45.5t61 120.5q0 85 -109 129l-140 57q-66 29 -94 58.5t-28 77.5q0 81 67 131.5t169 50.5q100 0 161 -50.5t66 -134.5l-21 -7q-5 78 -60.5 125t-147.5 47z" />
    <glyph glyph-name="scaron" unicode="&#x161;" horiz-adv-x="508" 
d="M339 562l-89 135h23l78 -117l132 117h27l-151 -135h-20zM305 496q70 0 118.5 -34.5t58.5 -91.5l-19 -8q-7 51 -51 82.5t-108 31.5q-72 0 -118.5 -32.5t-46.5 -86.5q0 -12 2 -21.5t9 -17.5t11 -12.5t16.5 -10.5t16 -8t19.5 -7.5t18 -6.5l67 -25q3 -1 19 -7t21 -8
t18.5 -7.5t18.5 -9.5t15 -11t14 -13.5t9.5 -15.5t7.5 -19.5t2 -22.5q0 -66 -54.5 -105t-142.5 -39q-78 0 -131.5 39.5t-64.5 104.5l19 7q11 -59 60.5 -95.5t119.5 -36.5q77 0 125 33t48 90q0 21 -7.5 36.5t-26 27t-32 17.5t-43.5 17l-75 27q-53 19 -76.5 38.5t-23.5 58.5
q0 64 53 103t134 39z" />
    <glyph glyph-name="tcedilla" unicode="&#x163;" horiz-adv-x="353" 
d="M180 466l-80 -346q-12 -51 8.5 -80.5t66.5 -29.5q52 0 102 39l9 -19q-52 -40 -110 -40l-134 -170h-33l143 172q-45 8 -65 43t-8 88l79 343h-106l4 20h107l38 164h21l-38 -164h190l-4 -20h-190z" />
    <glyph glyph-name="Tcaron" unicode="&#x164;" horiz-adv-x="632" 
d="M424 746l-89 135h23l78 -117l132 117h27l-151 -135h-20zM696 650h-274l-150 -650h-24l150 650h-274l5 20h572z" />
    <glyph glyph-name="tcaron" unicode="&#x165;" horiz-adv-x="353" 
d="M295 550h-18l34 146h22zM180 466l-80 -346q-12 -51 8.5 -80.5t66.5 -29.5q52 0 102 39l9 -19q-52 -40 -109 -40q-58 0 -85 36.5t-13 96.5l79 343h-106l4 20h107l38 164h21l-38 -164h190l-4 -20h-190z" />
    <glyph glyph-name="Tbar" unicode="&#x166;" horiz-adv-x="632" 
d="M422 650l-70 -304h143l-4 -19h-143l-76 -327h-24l76 327h-143l4 19h143l70 304h-274l5 20h572l-5 -20h-274z" />
    <glyph glyph-name="tbar" unicode="&#x167;" horiz-adv-x="353" 
d="M180 466l-34 -146h163l-4 -20h-164l-41 -180q-12 -51 8.5 -80.5t66.5 -29.5q52 0 102 39l9 -19q-52 -40 -109 -40q-58 0 -85 36.5t-13 96.5l41 177h-105l4 20h106l33 146h-106l4 20h107l38 164h21l-38 -164h190l-4 -20h-190z" />
    <glyph glyph-name="Umacron" unicode="&#x16a;" horiz-adv-x="730" 
d="M614 779h-250l4 17h250zM734 670l-89 -385q-31 -134 -118.5 -214.5t-209.5 -80.5q-123 0 -182.5 81.5t-29.5 213.5l89 385h22l-89 -385q-28 -123 24.5 -198.5t164.5 -75.5q114 0 196 74.5t111 199.5l89 385h22z" />
    <glyph glyph-name="umacron" unicode="&#x16b;" horiz-adv-x="640" 
d="M509 595h-250l4 17h250zM583 486l-113 -486h-21l28 120q-39 -61 -100 -95.5t-133 -34.5q-93 0 -137 58t-22 152l66 286h21l-66 -286q-20 -86 18 -138t120 -52q98 0 166.5 60.5t92.5 162.5l59 253h21z" />
    <glyph glyph-name="Uring" unicode="&#x16e;" horiz-adv-x="730" 
d="M491 738q-34 0 -57 23.5t-23 56.5q0 37 28.5 64.5t67.5 27.5q34 0 57 -23.5t23 -56.5q0 -37 -28.5 -64.5t-67.5 -27.5zM505 892q-31 0 -53.5 -22t-22.5 -51q0 -26 18.5 -44.5t45.5 -18.5q31 0 53.5 22t22.5 51q0 26 -18.5 44.5t-45.5 18.5zM734 670l-89 -385
q-31 -134 -118.5 -214.5t-209.5 -80.5q-123 0 -182.5 81.5t-29.5 213.5l89 385h22l-89 -385q-28 -123 24.5 -198.5t164.5 -75.5q114 0 196 74.5t111 199.5l89 385h22z" />
    <glyph glyph-name="uring" unicode="&#x16f;" horiz-adv-x="640" 
d="M386 554q-34 0 -57 23.5t-23 56.5q0 37 28.5 64.5t67.5 27.5q34 0 57 -23.5t23 -56.5q0 -37 -28.5 -64.5t-67.5 -27.5zM400 708q-31 0 -53.5 -22t-22.5 -51q0 -26 18.5 -44.5t45.5 -18.5q31 0 53.5 22t22.5 51q0 26 -18.5 44.5t-45.5 18.5zM583 486l-113 -486h-21l28 120
q-39 -61 -100 -95.5t-133 -34.5q-93 0 -137 58t-22 152l66 286h21l-66 -286q-20 -86 18 -138t120 -52q98 0 166.5 60.5t92.5 162.5l59 253h21z" />
    <glyph glyph-name="Uhungarumlaut" unicode="&#x170;" horiz-adv-x="730" 
d="M428 751h-21l124 135h27zM529 751l123 135h27l-129 -135h-21zM734 670l-89 -385q-31 -134 -118.5 -214.5t-209.5 -80.5q-123 0 -182.5 81.5t-29.5 213.5l89 385h22l-89 -385q-28 -123 24.5 -198.5t164.5 -75.5q114 0 196 74.5t111 199.5l89 385h22z" />
    <glyph glyph-name="uhungarumlaut" unicode="&#x171;" horiz-adv-x="640" 
d="M323 567h-21l124 135h27zM424 567l123 135h27l-129 -135h-21zM583 486l-113 -486h-21l28 120q-39 -61 -100 -95.5t-133 -34.5q-93 0 -137 58t-22 152l66 286h21l-66 -286q-20 -86 18 -138t120 -52q98 0 166.5 60.5t92.5 162.5l59 253h21z" />
    <glyph glyph-name="Uogonek" unicode="&#x172;" horiz-adv-x="730" 
d="M734 670l-89 -385q-38 -163 -153 -242q-114 -93 -135 -117q-20 -24 -20 -47t15.5 -36t40.5 -13q13 0 45 10l6 -19q-37 -12 -54 -12q-33 0 -53.5 18.5t-20.5 49.5q0 17 5.5 31t24.5 33t31.5 29.5t49.5 39.5q-52 -20 -110 -20q-123 0 -182.5 81.5t-29.5 213.5l89 385h22
l-89 -385q-28 -123 24.5 -198.5t164.5 -75.5q114 0 196 74.5t111 199.5l89 385h22z" />
    <glyph glyph-name="uogonek" unicode="&#x173;" horiz-adv-x="640" 
d="M421 -170q13 0 45 10l6 -19q-37 -12 -54 -12q-33 0 -53.5 19.5t-20.5 50.5q0 30 21 53.5t77 67.5q3 2 5 3.5t4 3.5l26 113q-39 -61 -100 -95.5t-133 -34.5q-93 0 -137 58t-22 152l66 286h21l-66 -286q-20 -86 18 -138t120 -52q98 0 166.5 60.5t92.5 162.5l59 253h21
l-113 -486q-5 -4 -17.5 -13.5t-17 -13.5t-14.5 -12t-14.5 -12t-12 -11t-10.5 -11.5t-7.5 -11t-6.5 -12t-3.5 -12t-1.5 -12.5q0 -23 15.5 -36t40.5 -13z" />
    <glyph glyph-name="Wcircumflex" unicode="&#x174;" horiz-adv-x="949" 
d="M487 744h-27l151 135h20l89 -135h-23l-78 117zM1018 670l-371 -670h-21l-64 636l-354 -636h-22l-62 670h21l59 -636l354 636h23l62 -636l352 636h23z" />
    <glyph glyph-name="wcircumflex" unicode="&#x175;" horiz-adv-x="755" 
d="M348 560h-27l151 135h20l89 -135h-23l-78 117zM782 487l-279 -490h-24l-55 453l-265 -453h-24l-53 490h21l52 -456l266 455h19l57 -456l262 457h23z" />
    <glyph glyph-name="Ycircumflex" unicode="&#x176;" horiz-adv-x="655" 
d="M340 744h-27l151 135h20l89 -135h-23l-78 117zM339 254l-59 -254h-22l59 254l-193 416h24l182 -398l366 398h28z" />
    <glyph glyph-name="ycircumflex" unicode="&#x177;" horiz-adv-x="546" 
d="M235 560h-27l151 135h20l89 -135h-23l-78 117zM573 486l-466 -656h-28l125 175l-122 481h25l114 -456l325 456h27z" />
    <glyph glyph-name="Ydieresis" unicode="&#x178;" horiz-adv-x="655" 
d="M364 776q-11 0 -18 7t-7 17t7.5 17t17.5 7t17.5 -7t7.5 -17t-7 -17t-18 -7zM544 776q-11 0 -18 7t-7 17t7.5 17t17.5 7t17.5 -7t7.5 -17t-7 -17t-18 -7zM339 254l-59 -254h-22l59 254l-193 416h24l182 -398l366 398h28z" />
    <glyph glyph-name="Zacute" unicode="&#x179;" horiz-adv-x="626" 
d="M459 751h-23l124 136h30zM661 658l-607 -638h460l-4 -20h-496l3 13l606 637h-445l4 20h482z" />
    <glyph glyph-name="zacute" unicode="&#x17a;" horiz-adv-x="489" 
d="M330 567h-23l124 136h30zM493 469l-471 -449h376l-5 -20h-409l4 17l471 449h-356l5 20h389z" />
    <glyph glyph-name="Zdotaccent" unicode="&#x17b;" horiz-adv-x="626" 
d="M449 781q-11 0 -18 7t-7 17t7.5 17t17.5 7t17.5 -7t7.5 -17t-7 -17t-18 -7zM661 658l-607 -638h460l-4 -20h-496l3 13l606 637h-445l4 20h482z" />
    <glyph glyph-name="zdotaccent" unicode="&#x17c;" horiz-adv-x="489" 
d="M320 597q-11 0 -18 7t-7 17t7.5 17t17.5 7t17.5 -7t7.5 -17t-7 -17t-18 -7zM493 469l-471 -449h376l-5 -20h-409l4 17l471 449h-356l5 20h389z" />
    <glyph glyph-name="Zcaron" unicode="&#x17d;" horiz-adv-x="626" 
d="M429 746l-89 135h23l78 -117l132 117h27l-151 -135h-20zM661 658l-607 -638h460l-4 -20h-496l3 13l606 637h-445l4 20h482z" />
    <glyph glyph-name="zcaron" unicode="&#x17e;" horiz-adv-x="489" 
d="M300 562l-89 135h23l78 -117l132 117h27l-151 -135h-20zM493 469l-471 -449h376l-5 -20h-409l4 17l471 449h-356l5 20h389z" />
    <glyph glyph-name="florin" unicode="&#x192;" horiz-adv-x="517" 
d="M491 680q66 0 96 -42l-14 -14q-29 37 -83 37q-61 0 -110.5 -38t-74.5 -100l-73 -178h219l-5 -20h-223l-158 -384q-22 -51 -60 -78.5t-86 -27.5q-40 0 -59 22l16 17q15 -18 45 -18q40 0 72.5 24t47.5 61l158 384h-136l5 20h140l73 178q29 72 84.5 114.5t125.5 42.5z" />
    <glyph glyph-name="AEacute" unicode="&#x1fc;" horiz-adv-x="1133" 
d="M910 751h-23l124 136h30zM714 650l-70 -303h418l-4 -20h-418l-71 -307h448l-5 -20h-470l43 186h-388l-203 -186h-30l732 670h471l-5 -20h-448zM589 206l100 429l-470 -429h370z" />
    <glyph glyph-name="aeacute" unicode="&#x1fd;" horiz-adv-x="953" 
d="M549 567h-23l124 136h30zM720 496q97 0 145.5 -69.5t33.5 -177.5l-1 -9h-432q-15 -106 34.5 -168t142.5 -62q61 0 123.5 40t91.5 106l18 -6q-28 -70 -98 -115t-139 -45q-84 0 -134 45.5t-60 127.5q-31 -80 -99 -126.5t-149 -46.5q-79 0 -120.5 32.5t-41.5 86.5
q0 70 56 110.5t147 40.5h210l10 63q11 69 -26 111t-112 42q-73 0 -129 -35t-74 -92l-18 6q17 64 78 102.5t143 38.5q75 0 118.5 -40t41.5 -106q39 70 101 108t139 38zM469 260h410q9 97 -33 156.5t-126 59.5q-92 0 -161 -58.5t-90 -157.5zM201 10q89 0 158 61t85 161l1 8
h-210q-80 0 -129 -34t-49 -94q0 -47 36.5 -74.5t107.5 -27.5z" />
    <glyph glyph-name="Scommaaccent" unicode="&#x218;" horiz-adv-x="619" 
d="M383 680q100 0 161 -50.5t66 -134.5l-21 -7q-5 78 -60.5 125t-147.5 47q-91 0 -151.5 -44.5t-60.5 -115.5q0 -43 26 -70t81 -49l135 -55q68 -28 99 -63.5t31 -85.5q0 -84 -68 -135.5t-178 -51.5q-115 0 -185 57.5t-70 151.5l22 6q-1 -88 62.5 -141.5t171.5 -53.5
q100 0 161 45.5t61 120.5q0 85 -109 129l-140 57q-66 29 -94 58.5t-28 77.5q0 81 67 131.5t169 50.5zM168 -180l69 135h28l-77 -135h-20z" />
    <glyph glyph-name="scommaaccent" unicode="&#x219;" horiz-adv-x="508" 
d="M30 134l19 7q11 -59 60.5 -95.5t119.5 -36.5q77 0 125 33t48 90q0 21 -7.5 36.5t-26 27t-32 17.5t-43.5 17l-75 27q-53 19 -76.5 38.5t-23.5 58.5q0 64 53 103t134 39q70 0 118.5 -34.5t58.5 -91.5l-19 -8q-7 51 -51 82.5t-108 31.5q-72 0 -118.5 -32.5t-46.5 -86.5
q0 -12 2 -21.5t9 -17.5t11 -12.5t16.5 -10.5t16 -8t19.5 -7.5t18 -6.5l67 -25q3 -1 19 -7t21 -8t18.5 -7.5t18.5 -9.5t15 -11t14 -13.5t9.5 -15.5t7.5 -19.5t2 -22.5q0 -66 -54.5 -105t-142.5 -39q-78 0 -131.5 39.5t-64.5 104.5zM103 -180l69 135h28l-77 -135h-20z" />
    <glyph glyph-name="uni021A" unicode="&#x21a;" horiz-adv-x="632" 
d="M696 650h-274l-150 -650h-24l150 650h-274l5 20h572zM233 -45h28l-77 -135h-20z" />
    <glyph glyph-name="uni021B" unicode="&#x21b;" horiz-adv-x="353" 
d="M180 466l-80 -346q-12 -51 8.5 -80.5t66.5 -29.5q52 0 102 39l9 -19q-52 -40 -109 -40q-58 0 -85 36.5t-13 96.5l79 343h-106l4 20h107l38 164h21l-38 -164h190l-4 -20h-190zM130 -45h28l-77 -135h-20z" />
    <glyph glyph-name="circumflex" unicode="&#x2c6;" horiz-adv-x="600" 
d="M451 560l-78 117l-132 -117h-27l151 135h20l89 -135h-23z" />
    <glyph glyph-name="caron" unicode="&#x2c7;" horiz-adv-x="600" 
d="M504 697l-151 -135h-20l-89 135h23l78 -117l132 117h27z" />
    <glyph glyph-name="breve" unicode="&#x2d8;" horiz-adv-x="600" 
d="M350 561q-53 0 -83 33t-21 86h19q-7 -45 17.5 -73t68.5 -28t78.5 28t41.5 73h21q-9 -53 -49 -86t-93 -33z" />
    <glyph glyph-name="dotaccent" unicode="&#x2d9;" horiz-adv-x="600" 
d="M353 645q10 0 17.5 -7t7.5 -17t-7 -17t-18 -7t-18 7t-7 17t7.5 17t17.5 7z" />
    <glyph glyph-name="ring" unicode="&#x2da;" horiz-adv-x="600" 
d="M448 646q0 -37 -28.5 -64.5t-67.5 -27.5q-34 0 -57 23.5t-23 56.5q0 37 28.5 64.5t67.5 27.5q34 0 57 -23.5t23 -56.5zM430 645q0 26 -18.5 44.5t-45.5 18.5q-31 0 -53.5 -22t-22.5 -51q0 -26 18.5 -44.5t45.5 -18.5q31 0 53.5 22t22.5 51z" />
    <glyph glyph-name="ogonek" unicode="&#x2db;" horiz-adv-x="600" 
d="M300 13l12 -13q-5 -4 -17.5 -13.5t-17 -13.5t-14.5 -12t-14.5 -12t-12 -11t-10.5 -11.5t-7.5 -11t-6.5 -12t-3.5 -12t-1.5 -12.5q0 -23 15.5 -36t40.5 -13q13 0 45 10l6 -19q-37 -12 -54 -12q-33 0 -53.5 19.5t-20.5 50.5q0 30 20.5 53t74.5 66q4 3 6.5 5t6 5t6.5 5z" />
    <glyph glyph-name="tilde" unicode="&#x2dc;" horiz-adv-x="600" 
d="M241 600h-21q7 34 30.5 53.5t53.5 19.5q28 0 57 -28.5t52 -28.5q45 0 58 56h21q-7 -34 -30 -54.5t-53 -20.5q-27 0 -57 28.5t-52 28.5q-46 0 -59 -54z" />
    <glyph glyph-name="hungarumlaut" unicode="&#x2dd;" horiz-adv-x="600" 
d="M289 567h-21l124 135h27zM411 567h-21l123 135h27z" />
    <glyph glyph-name="uni0326" unicode="&#x326;" horiz-adv-x="0" 
d="M134 -180l69 135h28l-77 -135h-20z" />
    <glyph glyph-name="Wgrave" unicode="&#x1e80;" horiz-adv-x="949" 
d="M573 751l-131 136h30l124 -136h-23zM1018 670l-371 -670h-21l-64 636l-354 -636h-22l-62 670h21l59 -636l354 636h23l62 -636l352 636h23z" />
    <glyph glyph-name="wgrave" unicode="&#x1e81;" horiz-adv-x="755" 
d="M434 567l-131 136h30l124 -136h-23zM782 487l-279 -490h-24l-55 453l-265 -453h-24l-53 490h21l52 -456l266 455h19l57 -456l262 457h23z" />
    <glyph glyph-name="Wacute" unicode="&#x1e82;" horiz-adv-x="949" 
d="M609 751h-23l124 136h30zM1018 670l-371 -670h-21l-64 636l-354 -636h-22l-62 670h21l59 -636l354 636h23l62 -636l352 636h23z" />
    <glyph glyph-name="wacute" unicode="&#x1e83;" horiz-adv-x="755" 
d="M470 567h-23l124 136h30zM782 487l-279 -490h-24l-55 453l-265 -453h-24l-53 490h21l52 -456l266 455h19l57 -456l262 457h23z" />
    <glyph glyph-name="Wdieresis" unicode="&#x1e84;" horiz-adv-x="949" 
d="M511 776q-11 0 -18 7t-7 17t7.5 17t17.5 7t17.5 -7t7.5 -17t-7 -17t-18 -7zM691 776q-11 0 -18 7t-7 17t7.5 17t17.5 7t17.5 -7t7.5 -17t-7 -17t-18 -7zM1018 670l-371 -670h-21l-64 636l-354 -636h-22l-62 670h21l59 -636l354 636h23l62 -636l352 636h23z" />
    <glyph glyph-name="wdieresis" unicode="&#x1e85;" horiz-adv-x="755" 
d="M372 592q-11 0 -18 7t-7 17t7.5 17t17.5 7t17.5 -7t7.5 -17t-7 -17t-18 -7zM552 592q-11 0 -18 7t-7 17t7.5 17t17.5 7t17.5 -7t7.5 -17t-7 -17t-18 -7zM782 487l-279 -490h-24l-55 453l-265 -453h-24l-53 490h21l52 -456l266 455h19l57 -456l262 457h23z" />
    <glyph glyph-name="Ygrave" unicode="&#x1ef2;" horiz-adv-x="655" 
d="M426 751l-131 136h30l124 -136h-23zM339 254l-59 -254h-22l59 254l-193 416h24l182 -398l366 398h28z" />
    <glyph glyph-name="ygrave" unicode="&#x1ef3;" horiz-adv-x="546" 
d="M321 567l-131 136h30l124 -136h-23zM573 486l-466 -656h-28l125 175l-122 481h25l114 -456l325 456h27z" />
    <glyph glyph-name="endash" unicode="&#x2013;" horiz-adv-x="621" 
d="M561 245h-500l4 20h500z" />
    <glyph glyph-name="emdash" unicode="&#x2014;" horiz-adv-x="1041" 
d="M981 245h-920l4 20h920z" />
    <glyph glyph-name="quoteleft" unicode="&#x2018;" horiz-adv-x="218" 
d="M239 670h20l-132 -258h-28l1 2z" />
    <glyph glyph-name="quoteright" unicode="&#x2019;" horiz-adv-x="218" 
d="M119 412h-20l132 258h28l-1 -2z" />
    <glyph glyph-name="quotesinglbase" unicode="&#x201a;" horiz-adv-x="218" 
d="M-7 -132h-20l132 258h28l-1 -2z" />
    <glyph glyph-name="quotedblleft" unicode="&#x201c;" horiz-adv-x="358" 
d="M239 670h20l-132 -258h-28l1 2zM379 670h20l-132 -258h-28l1 2z" />
    <glyph glyph-name="quotedblright" unicode="&#x201d;" horiz-adv-x="358" 
d="M119 412h-20l132 258h28l-1 -2zM259 412h-20l132 258h28l-1 -2z" />
    <glyph glyph-name="quotedblbase" unicode="&#x201e;" horiz-adv-x="358" 
d="M-7 -132h-20l132 258h28l-1 -2zM133 -132h-20l132 258h28l-1 -2z" />
    <glyph glyph-name="dagger" unicode="&#x2020;" horiz-adv-x="311" 
d="M365 629h-110l-54 -235h-22l54 235h-108l4 21h109l21 90h22l-21 -90h109z" />
    <glyph glyph-name="daggerdbl" unicode="&#x2021;" horiz-adv-x="311" 
d="M255 629l-28 -124h109l-5 -21h-109l-21 -90h-22l21 90h-109l5 21h109l28 124h-109l5 21h109l21 90h22l-21 -90h109l-5 -21h-109z" />
    <glyph glyph-name="bullet" unicode="&#x2022;" horiz-adv-x="380" 
d="M195 390q53 0 90 -36t37 -86q0 -53 -36.5 -87t-90.5 -34t-90 34t-36 87q0 50 36.5 86t89.5 36z" />
    <glyph glyph-name="ellipsis" unicode="&#x2026;" horiz-adv-x="512" 
d="M35 46q10 0 17.5 -7t7.5 -17t-7 -17t-18 -7t-18 7t-7 17t7.5 17t17.5 7zM205 46q10 0 17.5 -7t7.5 -17t-7 -17t-18 -7t-18 7t-7 17t7.5 17t17.5 7zM375 46q10 0 17.5 -7t7.5 -17t-7 -17t-18 -7t-18 7t-7 17t7.5 17t17.5 7z" />
    <glyph glyph-name="perthousand" unicode="&#x2030;" horiz-adv-x="1291" 
d="M312 680q59 0 99 -36.5t40 -97.5q0 -76 -57 -127t-129 -51q-60 0 -100.5 38.5t-40.5 99.5q0 75 58 124.5t130 49.5zM99 0l665 670h27l-665 -670h-27zM312 663q-64 0 -117 -45t-53 -112q0 -52 36.5 -85.5t86.5 -33.5q65 0 116 45t51 114q0 51 -34 84t-86 33zM669 302
q60 0 100 -36.5t40 -97.5q0 -76 -57 -127t-129 -51q-59 0 -99.5 38.5t-40.5 99.5q0 75 57.5 124.5t128.5 49.5zM1069 302q60 0 100 -36.5t40 -97.5q0 -76 -57 -127t-129 -51q-59 0 -99.5 38.5t-40.5 99.5q0 75 57.5 124.5t128.5 49.5zM669 285q-64 0 -115.5 -45t-51.5 -112
q0 -53 35.5 -86t85.5 -33q65 0 116 45t51 114q0 52 -34 84.5t-87 32.5zM1069 285q-64 0 -115.5 -45t-51.5 -112q0 -53 35.5 -86t85.5 -33q65 0 116 45t51 114q0 52 -34 84.5t-87 32.5z" />
    <glyph glyph-name="guilsinglleft" unicode="&#x2039;" horiz-adv-x="207" 
d="M30 262l173 178h28l-175 -181l89 -175h-24z" />
    <glyph glyph-name="guilsinglright" unicode="&#x203a;" horiz-adv-x="207" 
d="M188 262l-173 -178h-28l175 181l-89 175h24z" />
    <glyph glyph-name="fraction" unicode="&#x2044;" horiz-adv-x="194" 
d="M-249 0l665 670h27l-665 -670h-27z" />
    <glyph glyph-name="Euro" unicode="&#x20ac;" horiz-adv-x="827" 
d="M593 660q-96 0 -171.5 -65.5t-115.5 -177.5h343l-9 -20h-341q-19 -65 -25 -129v-6h289l-8 -20h-282q-2 -103 53.5 -167t143.5 -64q85 0 154 56t108 153l19 -6q-39 -102 -114.5 -162.5t-169.5 -60.5q-98 0 -159 69.5t-58 181.5h-145l6 20h140v3q6 73 25 132h-127l6 20h128
q41 120 124.5 191.5t188.5 71.5q94 0 150.5 -61.5t61.5 -164.5l-20 -7q-8 99 -59 156t-136 57z" />
    <glyph glyph-name="uni2116" unicode="&#x2116;" horiz-adv-x="1241" 
d="M1045 680q65 0 108.5 -42.5t43.5 -110.5q0 -80 -54 -131t-128 -51q-63 0 -107.5 43.5t-44.5 111.5q0 78 55 129t127 51zM731 670h22l-155 -670h-20l-359 640l-148 -640h-22l155 670h22l358 -638zM1017 365q64 0 111.5 45t47.5 115q0 60 -38.5 97.5t-94.5 37.5
q-61 0 -109.5 -45t-48.5 -114q0 -60 39 -98t93 -38zM800 242h312l-1 -20h-312z" />
    <glyph glyph-name="uni2117" unicode="&#x2117;" horiz-adv-x="794" 
d="M417 680q144 0 244 -98.5t100 -248.5q0 -148 -100 -245.5t-244 -97.5t-244 97.5t-100 245.5q0 150 100 248.5t244 98.5zM417 10q135 0 229 92t94 232q0 141 -94 234t-229 93t-229 -93t-94 -234q0 -140 94 -232t229 -92zM297 517h152q62 0 99.5 -33t37.5 -87t-37.5 -87
t-99.5 -33h-132v-138h-20v378zM317 294h132q53 0 85 28.5t32 74.5t-32 74.5t-85 28.5h-132v-206z" />
    <glyph glyph-name="trademark" unicode="&#x2122;" horiz-adv-x="633" 
d="M353 653h-99l-56 -243h-20l56 243h-99l4 17h218zM622 410h-19l50 219l-160 -219h-15l-61 221l-51 -221h-19l60 260h17l67 -232l171 232h20z" />
    <glyph glyph-name="oneeighth" unicode="&#x215b;" horiz-adv-x="707" 
d="M674 670l-665 -670h-27l665 670h27zM214 643l-112 -57l5 22l120 62h12l-83 -359h-20zM559 359q55 0 87.5 -25.5t30.5 -67.5q-3 -35 -29.5 -60.5t-79.5 -28.5q77 -18 77 -87q0 -45 -38 -72.5t-99 -27.5q-62 0 -97 27t-31 70q3 37 34 63.5t90 30.5q-74 17 -74 82
q0 42 36 69t93 27zM548 188q51 0 81 24t30 58q0 33 -28 52.5t-73 19.5q-48 0 -77.5 -21t-31.5 -55t24.5 -56t74.5 -22zM624 91q0 34 -26.5 56t-76.5 22q-54 0 -87.5 -25t-33.5 -63q0 -34 28.5 -53.5t77.5 -19.5q53 0 85.5 22t32.5 61z" />
    <glyph glyph-name="threeeighths" unicode="&#x215c;" horiz-adv-x="823" 
d="M204 311q-62 0 -95.5 33.5t-27.5 89.5l20 2q-5 -49 22.5 -78t80.5 -29q49 0 83 27t34 67q0 34 -26 52.5t-71 18.5h-33l1 16h13q35 0 66.5 6.5t56.5 26.5t25 51q0 29 -22 49t-61 20q-47 0 -80 -27.5t-40 -71.5l-18 3q8 51 46.5 82t93.5 31q48 0 74 -24t26 -62
q0 -67 -96 -92q64 -18 64 -78q0 -46 -39 -79.5t-97 -33.5zM775 670l-665 -670h-27l665 670h27zM660 359q55 0 87.5 -25.5t30.5 -67.5q-3 -35 -29.5 -60.5t-79.5 -28.5q77 -18 77 -87q0 -45 -38 -72.5t-99 -27.5q-62 0 -97 27t-31 70q3 37 34 63.5t90 30.5q-74 17 -74 82
q0 42 36 69t93 27zM649 188q51 0 81 24t30 58q0 33 -28 52.5t-73 19.5q-48 0 -77.5 -21t-31.5 -55t24.5 -56t74.5 -22zM725 91q0 34 -26.5 56t-76.5 22q-54 0 -87.5 -25t-33.5 -63q0 -34 28.5 -53.5t77.5 -19.5q53 0 85.5 22t32.5 61z" />
    <glyph glyph-name="fiveeighths" unicode="&#x215d;" horiz-adv-x="818" 
d="M197 306q-51 0 -86 29t-36 75l20 2q1 -40 31 -64t72 -24q56 0 90.5 29t34.5 75q0 37 -26 58.5t-71 21.5h-108l35 162h220l-5 -19h-200l-27 -125h87q52 0 83 -26.5t31 -70.5q0 -55 -40.5 -89t-104.5 -34zM775 670l-665 -670h-27l665 670h27zM670 359q55 0 87.5 -25.5
t30.5 -67.5q-3 -35 -29.5 -60.5t-79.5 -28.5q77 -18 77 -87q0 -45 -38 -72.5t-99 -27.5q-62 0 -97 27t-31 70q3 37 34 63.5t90 30.5q-74 17 -74 82q0 42 36 69t93 27zM659 188q51 0 81 24t30 58q0 33 -28 52.5t-73 19.5q-48 0 -77.5 -21t-31.5 -55t24.5 -56t74.5 -22z
M735 91q0 34 -26.5 56t-76.5 22q-54 0 -87.5 -25t-33.5 -63q0 -34 28.5 -53.5t77.5 -19.5q53 0 85.5 22t32.5 61z" />
    <glyph glyph-name="seveneighths" unicode="&#x215e;" horiz-adv-x="732" 
d="M663 670l-665 -670h-27l665 670h27zM78 312l256 339h-220l5 19h245l-3 -14l-258 -344h-25zM578 359q55 0 87.5 -25.5t30.5 -67.5q-3 -35 -29.5 -60.5t-79.5 -28.5q77 -18 77 -87q0 -45 -38 -72.5t-99 -27.5q-62 0 -97 27t-31 70q3 37 34 63.5t90 30.5q-74 17 -74 82
q0 42 36 69t93 27zM567 188q51 0 81 24t30 58q0 33 -28 52.5t-73 19.5q-48 0 -77.5 -21t-31.5 -55t24.5 -56t74.5 -22zM643 91q0 34 -26.5 56t-76.5 22q-54 0 -87.5 -25t-33.5 -63q0 -34 28.5 -53.5t77.5 -19.5q53 0 85.5 22t32.5 61z" />
    <glyph glyph-name="arrowleft" unicode="&#x2190;" horiz-adv-x="727" 
d="M687 313h-635l308 -307l-16 -16l-334 334l334 334l16 -16l-308 -307h635v-22z" />
    <glyph glyph-name="arrowup" unicode="&#x2191;" horiz-adv-x="748" 
d="M692 327l-307 308v-635h-22v635l-307 -308l-16 16l334 334l334 -334z" />
    <glyph glyph-name="arrowright" unicode="&#x2192;" horiz-adv-x="727" 
d="M717 324l-334 -334l-16 16l308 307h-635v22h635l-308 307l16 16z" />
    <glyph glyph-name="arrowdown" unicode="&#x2193;" horiz-adv-x="748" 
d="M708 327l-334 -334l-334 334l16 16l307 -308v635h22v-635l307 308z" />
    <glyph glyph-name="uni2196" unicode="&#x2196;" horiz-adv-x="745" 
d="M690 -6l-638 638v-455h-22v493h492l1 -22h-456l638 -638z" />
    <glyph glyph-name="uni2197" unicode="&#x2197;" horiz-adv-x="745" 
d="M715 670v-493h-22v455l-638 -638l-15 16l638 638h-456l1 22h492z" />
    <glyph glyph-name="uni2198" unicode="&#x2198;" horiz-adv-x="745" 
d="M715 493v-493h-492l-1 22h456l-638 638l15 16l638 -638v455h22z" />
    <glyph glyph-name="uni2199" unicode="&#x2199;" horiz-adv-x="745" 
d="M67 22h456l-1 -22h-492v493h22v-455l638 638l15 -16z" />
    <glyph glyph-name="minus" unicode="&#x2212;" horiz-adv-x="580" 
d="M512 295h-420l5 20h420z" />
    <glyph glyph-name="approxequal" unicode="&#x2248;" horiz-adv-x="581" 
d="M539 409l-6 -26q-48 -24 -100 -24q-49 0 -103.5 32.5t-99.5 32.5q-69 0 -116 -38l6 24q45 34 114 34q46 0 102.5 -32.5t100.5 -32.5q58 0 102 30zM500 239l-6 -26q-48 -24 -101 -24q-49 0 -103.5 32.5t-99.5 32.5q-69 0 -115 -38l5 24q47 34 115 34q46 0 102.5 -32.5
t100.5 -32.5q58 0 102 30z" />
    <glyph glyph-name="notequal" unicode="&#x2260;" horiz-adv-x="581" 
d="M388 395l-144 -160h255l-5 -20h-268l-99 -110h-26l99 110h-126l5 20h139l144 160h-246l4 20h260l99 110h26l-99 -110h134l-4 -20h-148z" />
    <glyph glyph-name="lessequal" unicode="&#x2264;" horiz-adv-x="414" 
d="M86 322l277 -130l-6 -21l-310 147l3 12l378 147l-5 -25zM14 114h340l-5 -20h-340z" />
    <glyph glyph-name="greaterequal" unicode="&#x2265;" horiz-adv-x="414" 
d="M366 327l-277 130l6 21l310 -147l-3 -12l-378 -147l5 25zM346 95h-340l5 20h340z" />
    <glyph glyph-name="K.ss03" horiz-adv-x="695" 
d="M362 381l246 -381h-26l-237 367l-232 -188l-42 -179h-22l156 670h22l-106 -457l562 457h35z" />
    <glyph glyph-name="Kcommaaccent.ss03" horiz-adv-x="695" 
d="M362 381l246 -381h-26l-237 367l-232 -188l-42 -179h-22l156 670h22l-106 -457l562 457h35zM279 -45h28l-77 -135h-20z" />
    <glyph glyph-name="Q.ss04" horiz-adv-x="819" 
d="M771 335q-14 -91 -66.5 -166.5t-129.5 -122.5l191 -216h-28l-181 206q-87 -46 -179 -46q-143 0 -226 99.5t-60 245.5q23 145 137 245t257 100t225.5 -100t59.5 -245zM381 10q133 0 239.5 94t128.5 231q21 136 -55.5 230.5t-209.5 94.5q-134 0 -241.5 -94.5t-128.5 -230.5
q-22 -137 55.5 -231t211.5 -94z" />
    <glyph glyph-name="I.ss05" horiz-adv-x="423" 
d="M316 650l-144 -630h169l-4 -20h-362l4 20h171l144 630h-169l4 20h362l-4 -20h-171z" />
    <glyph glyph-name="IJ.ss05" horiz-adv-x="1017" 
d="M172 20h169l-4 -20h-362l4 20h171l144 630h-169l4 20h362l-4 -20h-171zM1040 670l-97 -420q-27 -117 -108.5 -188.5t-186.5 -71.5q-95 0 -150.5 58.5t-51.5 153.5l21 7q-4 -90 45 -144t136 -54q97 0 172.5 66t100.5 173l92 400h-335l4 20h358z" />
    <glyph glyph-name="Iacute.ss05" horiz-adv-x="423" 
d="M348 751h-23l124 136h30zM316 650l-144 -630h169l-4 -20h-362l4 20h171l144 630h-169l4 20h362l-4 -20h-171z" />
    <glyph glyph-name="Icircumflex.ss05" horiz-adv-x="423" 
d="M226 744h-27l151 135h20l89 -135h-23l-78 117zM316 650l-144 -630h169l-4 -20h-362l4 20h171l144 630h-169l4 20h362l-4 -20h-171z" />
    <glyph glyph-name="Idieresis.ss05" horiz-adv-x="423" 
d="M250 776q-11 0 -18 7t-7 17t7.5 17t17.5 7t17.5 -7t7.5 -17t-7 -17t-18 -7zM430 776q-11 0 -18 7t-7 17t7.5 17t17.5 7t17.5 -7t7.5 -17t-7 -17t-18 -7zM316 650l-144 -630h169l-4 -20h-362l4 20h171l144 630h-169l4 20h362l-4 -20h-171z" />
    <glyph glyph-name="Idotaccent.ss05" horiz-adv-x="423" 
d="M338 781q-11 0 -18 7t-7 17t7.5 17t17.5 7t17.5 -7t7.5 -17t-7 -17t-18 -7zM316 650l-144 -630h169l-4 -20h-362l4 20h171l144 630h-169l4 20h362l-4 -20h-171z" />
    <glyph glyph-name="Igrave.ss05" horiz-adv-x="423" 
d="M312 751l-131 136h30l124 -136h-23zM316 650l-144 -630h169l-4 -20h-362l4 20h171l144 630h-169l4 20h362l-4 -20h-171z" />
    <glyph glyph-name="Imacron.ss05" horiz-adv-x="423" 
d="M460 779h-250l4 17h250zM316 650l-144 -630h169l-4 -20h-362l4 20h171l144 630h-169l4 20h362l-4 -20h-171z" />
    <glyph glyph-name="Iogonek.ss05" horiz-adv-x="423" 
d="M316 650l-144 -630h169l-4 -20h-170q-5 -4 -17.5 -13.5t-17 -13.5t-14.5 -12t-14.5 -12t-12 -11t-10.5 -11.5t-7.5 -11t-6.5 -12t-3.5 -12t-1.5 -12.5q0 -23 15.5 -36t40.5 -13q13 0 45 10l6 -19q-37 -12 -54 -12q-33 0 -53.5 19.5t-20.5 50.5q0 30 21 53.5t77 67.5h-164
l4 20h171l144 630h-169l4 20h362l-4 -20h-171z" />
    <glyph glyph-name="J.ss05" horiz-adv-x="594" 
d="M617 670l-97 -420q-27 -117 -108.5 -188.5t-186.5 -71.5q-95 0 -150.5 58.5t-51.5 153.5l21 7q-4 -90 45 -144t136 -54q97 0 172.5 66t100.5 173l92 400h-335l4 20h358z" />
    <glyph glyph-name="i.loclTRK" horiz-adv-x="261" 
d="M215 645q10 0 17.5 -7t7.5 -17t-7 -17t-18 -7t-18 7t-7 17t7.5 17t17.5 7zM85 0h-21l112 486h21z" />
    <glyph glyph-name="germandbls.case" horiz-adv-x="1218" 
d="M383 680q100 0 161 -50.5t66 -134.5l-21 -7q-5 78 -60.5 125t-147.5 47q-91 0 -151.5 -44.5t-60.5 -115.5q0 -43 26 -70t81 -49l135 -55q68 -28 99 -63.5t31 -85.5q0 -84 -68 -135.5t-178 -51.5q-115 0 -185 57.5t-70 151.5l22 6q-1 -88 62.5 -141.5t171.5 -53.5
q100 0 161 45.5t61 120.5q0 85 -109 129l-140 57q-66 29 -94 58.5t-28 77.5q0 81 67 131.5t169 50.5zM982 680q100 0 161 -50.5t66 -134.5l-21 -7q-5 78 -60.5 125t-147.5 47q-91 0 -151.5 -44.5t-60.5 -115.5q0 -43 26 -70t81 -49l135 -55q68 -28 99 -63.5t31 -85.5
q0 -84 -68 -135.5t-178 -51.5q-115 0 -185 57.5t-70 151.5l22 6q-1 -88 62.5 -141.5t171.5 -53.5q100 0 161 45.5t61 120.5q0 85 -109 129l-140 57q-66 29 -94 58.5t-28 77.5q0 81 67 131.5t169 50.5z" />
    <glyph glyph-name="a.ss01" horiz-adv-x="548" 
d="M318 496q88 0 136.5 -50t28.5 -133l-72 -313h-21l26 113q-37 -57 -96 -90t-131 -33t-116.5 33.5t-44.5 89.5q0 67 60.5 115.5t156.5 48.5h209l8 36q17 76 -25 119.5t-119 43.5q-69 0 -126 -35t-79 -91l-20 8q24 61 86 99.5t139 38.5zM438 209l11 48h-205
q-88 0 -141 -42.5t-53 -99.5q0 -49 39 -77t103 -28q91 0 158.5 56t87.5 143z" />
    <glyph glyph-name="aacute.ss01" horiz-adv-x="548" 
d="M366 567h-23l124 136h30zM318 496q88 0 136.5 -50t28.5 -133l-72 -313h-21l26 113q-37 -57 -96 -90t-131 -33t-116.5 33.5t-44.5 89.5q0 67 60.5 115.5t156.5 48.5h209l8 36q17 76 -25 119.5t-119 43.5q-69 0 -126 -35t-79 -91l-20 8q24 61 86 99.5t139 38.5zM438 209
l11 48h-205q-88 0 -141 -42.5t-53 -99.5q0 -49 39 -77t103 -28q91 0 158.5 56t87.5 143z" />
    <glyph glyph-name="abreve.ss01" horiz-adv-x="548" 
d="M353 561q-53 0 -83 33t-21 86h19q-7 -45 17.5 -73t68.5 -28t78.5 28t41.5 73h21q-9 -53 -49 -86t-93 -33zM318 496q88 0 136.5 -50t28.5 -133l-72 -313h-21l26 113q-37 -57 -96 -90t-131 -33t-116.5 33.5t-44.5 89.5q0 67 60.5 115.5t156.5 48.5h209l8 36
q17 76 -25 119.5t-119 43.5q-69 0 -126 -35t-79 -91l-20 8q24 61 86 99.5t139 38.5zM438 209l11 48h-205q-88 0 -141 -42.5t-53 -99.5q0 -49 39 -77t103 -28q91 0 158.5 56t87.5 143z" />
    <glyph glyph-name="acircumflex.ss01" horiz-adv-x="548" 
d="M244 560h-27l151 135h20l89 -135h-23l-78 117zM318 496q88 0 136.5 -50t28.5 -133l-72 -313h-21l26 113q-37 -57 -96 -90t-131 -33t-116.5 33.5t-44.5 89.5q0 67 60.5 115.5t156.5 48.5h209l8 36q17 76 -25 119.5t-119 43.5q-69 0 -126 -35t-79 -91l-20 8q24 61 86 99.5
t139 38.5zM438 209l11 48h-205q-88 0 -141 -42.5t-53 -99.5q0 -49 39 -77t103 -28q91 0 158.5 56t87.5 143z" />
    <glyph glyph-name="adieresis.ss01" horiz-adv-x="548" 
d="M268 592q-11 0 -18 7t-7 17t7.5 17t17.5 7t17.5 -7t7.5 -17t-7 -17t-18 -7zM448 592q-11 0 -18 7t-7 17t7.5 17t17.5 7t17.5 -7t7.5 -17t-7 -17t-18 -7zM318 496q88 0 136.5 -50t28.5 -133l-72 -313h-21l26 113q-37 -57 -96 -90t-131 -33t-116.5 33.5t-44.5 89.5
q0 67 60.5 115.5t156.5 48.5h209l8 36q17 76 -25 119.5t-119 43.5q-69 0 -126 -35t-79 -91l-20 8q24 61 86 99.5t139 38.5zM438 209l11 48h-205q-88 0 -141 -42.5t-53 -99.5q0 -49 39 -77t103 -28q91 0 158.5 56t87.5 143z" />
    <glyph glyph-name="agrave.ss01" horiz-adv-x="548" 
d="M330 567l-131 136h30l124 -136h-23zM318 496q88 0 136.5 -50t28.5 -133l-72 -313h-21l26 113q-37 -57 -96 -90t-131 -33t-116.5 33.5t-44.5 89.5q0 67 60.5 115.5t156.5 48.5h209l8 36q17 76 -25 119.5t-119 43.5q-69 0 -126 -35t-79 -91l-20 8q24 61 86 99.5t139 38.5z
M438 209l11 48h-205q-88 0 -141 -42.5t-53 -99.5q0 -49 39 -77t103 -28q91 0 158.5 56t87.5 143z" />
    <glyph glyph-name="amacron.ss01" horiz-adv-x="548" 
d="M478 595h-250l4 17h250zM318 496q88 0 136.5 -50t28.5 -133l-72 -313h-21l26 113q-37 -57 -96 -90t-131 -33t-116.5 33.5t-44.5 89.5q0 67 60.5 115.5t156.5 48.5h209l8 36q17 76 -25 119.5t-119 43.5q-69 0 -126 -35t-79 -91l-20 8q24 61 86 99.5t139 38.5zM438 209
l11 48h-205q-88 0 -141 -42.5t-53 -99.5q0 -49 39 -77t103 -28q91 0 158.5 56t87.5 143z" />
    <glyph glyph-name="aogonek.ss01" horiz-adv-x="548" 
d="M483 313l-72 -313q-5 -4 -17.5 -13.5t-17 -13.5t-14.5 -12t-14.5 -12t-12 -11t-10.5 -11.5t-7.5 -11t-6.5 -12t-3.5 -12t-1.5 -12.5q0 -23 15.5 -36t40.5 -13q13 0 45 10l6 -19q-37 -12 -54 -12q-33 0 -53.5 19.5t-20.5 50.5q0 30 21 53.5t77 67.5q3 2 5 3.5t4 3.5
l24 106q-37 -57 -96 -90t-131 -33t-116.5 33.5t-44.5 89.5q0 67 60.5 115.5t156.5 48.5h209l8 36q17 76 -25 119.5t-119 43.5q-69 0 -126 -35t-79 -91l-20 8q24 61 86 99.5t139 38.5q88 0 136.5 -50t28.5 -133zM438 209l11 48h-205q-88 0 -141 -42.5t-53 -99.5q0 -49 39 -77
t103 -28q91 0 158.5 56t87.5 143z" />
    <glyph glyph-name="aring.ss01" horiz-adv-x="548" 
d="M355 554q-34 0 -57 23.5t-23 56.5q0 37 28.5 64.5t67.5 27.5q34 0 57 -23.5t23 -56.5q0 -37 -28.5 -64.5t-67.5 -27.5zM369 708q-31 0 -53.5 -22t-22.5 -51q0 -26 18.5 -44.5t45.5 -18.5q31 0 53.5 22t22.5 51q0 26 -18.5 44.5t-45.5 18.5zM318 496q88 0 136.5 -50
t28.5 -133l-72 -313h-21l26 113q-37 -57 -96 -90t-131 -33t-116.5 33.5t-44.5 89.5q0 67 60.5 115.5t156.5 48.5h209l8 36q17 76 -25 119.5t-119 43.5q-69 0 -126 -35t-79 -91l-20 8q24 61 86 99.5t139 38.5zM438 209l11 48h-205q-88 0 -141 -42.5t-53 -99.5q0 -49 39 -77
t103 -28q91 0 158.5 56t87.5 143z" />
    <glyph glyph-name="atilde.ss01" horiz-adv-x="548" 
d="M303 654q-46 0 -59 -54h-21q7 34 30.5 53.5t53.5 19.5q28 0 57 -28.5t52 -28.5q45 0 58 56h21q-7 -34 -30 -54.5t-53 -20.5q-27 0 -57 28.5t-52 28.5zM318 496q88 0 136.5 -50t28.5 -133l-72 -313h-21l26 113q-37 -57 -96 -90t-131 -33t-116.5 33.5t-44.5 89.5
q0 67 60.5 115.5t156.5 48.5h209l8 36q17 76 -25 119.5t-119 43.5q-69 0 -126 -35t-79 -91l-20 8q24 61 86 99.5t139 38.5zM438 209l11 48h-205q-88 0 -141 -42.5t-53 -99.5q0 -49 39 -77t103 -28q91 0 158.5 56t87.5 143z" />
    <glyph glyph-name="l.ss02" horiz-adv-x="294" 
d="M215 720l-145 -627q-9 -38 6.5 -60.5t52.5 -22.5q31 0 64 20l6 -19q-35 -21 -70 -21q-47 0 -69 28.5t-11 74.5l145 627h21z" />
    <glyph glyph-name="lacute.ss02" horiz-adv-x="294" 
d="M243 801h-23l124 136h30zM215 720l-145 -627q-9 -38 6.5 -60.5t52.5 -22.5q31 0 64 20l6 -19q-35 -21 -70 -21q-47 0 -69 28.5t-11 74.5l145 627h21z" />
    <glyph glyph-name="lcaron.ss02" horiz-adv-x="294" 
d="M215 720l-145 -627q-9 -38 6.5 -60.5t52.5 -22.5q31 0 64 20l6 -19q-35 -21 -70 -21q-47 0 -69 28.5t-11 74.5l145 627h21zM297 574h-18l34 146h22z" />
    <glyph glyph-name="lcommaaccent.ss02" horiz-adv-x="294" 
d="M215 720l-145 -627q-9 -38 6.5 -60.5t52.5 -22.5q31 0 64 20l6 -19q-35 -21 -70 -21q-47 0 -69 28.5t-11 74.5l145 627h21zM8 -180l69 135h28l-77 -135h-20z" />
    <glyph glyph-name="ldot.ss02" horiz-adv-x="293" 
d="M214 720l-145 -627q-9 -38 6.5 -60.5t52.5 -22.5q31 0 64 20l6 -19q-34 -21 -70 -21q-47 0 -69 28.5t-11 74.5l145 627h21zM270 349q10 0 17.5 -7t7.5 -17t-7 -17t-18 -7t-18 7t-7 17t7.5 17t17.5 7z" />
    <glyph glyph-name="lslash.ss02" horiz-adv-x="317" 
d="M151 342l-58 -249q-9 -38 6.5 -60.5t52.5 -22.5q31 0 64 20l6 -19q-34 -21 -70 -21q-47 0 -69 28.5t-11 74.5l54 235l-101 -60l6 25l101 60l85 367h21l-82 -353l129 76l-5 -25z" />
    <glyph glyph-name="k.ss03" horiz-adv-x="571" 
d="M305 286l200 -286h-23l-193 273l-191 -154l-28 -119h-21l167 720h21l-132 -571l416 337h31z" />
    <glyph glyph-name="kcommaaccent.ss03" horiz-adv-x="571" 
d="M305 286l200 -286h-23l-193 273l-191 -154l-28 -119h-21l167 720h21l-132 -571l416 337h31zM218 -45h28l-77 -135h-20z" />
    <glyph glyph-name="f_j" horiz-adv-x="616" 
d="M558 486l-135 -573q-11 -47 -45.5 -75t-80.5 -28q-34 0 -56 16l12 17q19 -13 46 -13q38 0 66 23t37 60l130 553h-344l-107 -466h-21l107 466h-95l5 20h95l23 101q17 70 63 111.5t109 41.5q57 0 92 -30l-13 -15q-29 25 -79 25q-56 0 -96 -36.5t-55 -96.5l-23 -101h365z
M580 659q10 0 17.5 -7t7.5 -17t-7 -17t-18 -7t-18 7t-7 17t7.5 17t17.5 7z" />
    <glyph glyph-name="f_t" horiz-adv-x="706" 
d="M533 466l-80 -346q-12 -51 8.5 -80.5t66.5 -29.5q52 0 102 39l9 -19q-52 -40 -109 -40q-58 0 -85 36.5t-13 96.5l79 343h-324l-107 -466h-21l107 466h-95l5 20h95l23 101q17 70 63 111.5t109 41.5q58 0 92 -30l-13 -15q-29 25 -79 25q-56 0 -96 -36.5t-55 -96.5l-23 -101
h324l38 164h21l-38 -164h190l-4 -20h-190z" />
    <glyph glyph-name="fl.ss02" horiz-adv-x="637" 
d="M188 466l-108 -466h-21l108 466h-95l4 20h96l23 101q16 71 63.5 112t112.5 41q43 0 71 -18l-11 -16q-24 15 -60 15q-61 0 -101.5 -37.5t-53.5 -96.5l-23 -101h206l-4 -20h-207zM472 10q31 0 64 20l6 -19q-34 -21 -70 -21q-47 0 -69 28.5t-11 74.5l145 627h21l-145 -627
q-9 -38 6.5 -60.5t52.5 -22.5z" />
    <glyph glyph-name="zero.tf" 
d="M388 680q121 0 177.5 -95.5t25.5 -249.5q-32 -156 -122.5 -250.5t-209.5 -94.5q-121 0 -177.5 95.5t-24.5 249.5q32 156 122 250.5t209 94.5zM262 11q110 0 193 88.5t114 235.5q30 145 -22 235t-162 90q-109 0 -192.5 -89t-113.5 -236q-31 -145 20.5 -234.5t162.5 -89.5z
" />
    <glyph glyph-name="one.tf" 
d="M490 20l-4 -20h-464l4 20h221l143 619l-217 -105l6 25l226 111h13l-149 -650h221z" />
    <glyph glyph-name="two.tf" 
d="M567 495q0 -80 -48 -136t-165 -139l-281 -200h412l-5 -20h-457l4 13l312 223q116 81 161.5 133t45.5 125q0 75 -47.5 120.5t-128.5 45.5q-86 0 -142 -54t-64 -143l-21 3q8 96 71 155t157 59q90 0 143 -50.5t53 -134.5z" />
    <glyph glyph-name="three.tf" 
d="M56 213l22 4q-8 -90 44 -148.5t147 -58.5q93 0 157.5 55t64.5 137q0 65 -44.5 100t-124.5 35h-56l6 21h56q51 0 98 15t82.5 53t35.5 93q0 65 -46 103t-122 38q-87 0 -141 -51t-69 -139l-21 4q17 96 77.5 151t155.5 55q84 0 135.5 -43.5t51.5 -116.5q0 -72 -49.5 -116
t-134.5 -56v-1q131 -24 131 -143q0 -93 -71 -153.5t-174 -60.5t-161 62.5t-50 160.5z" />
    <glyph glyph-name="four.tf" 
d="M561 187h-126l-43 -187h-22l43 187h-390l6 26l497 457h20l-106 -463h125zM418 207l97 422l-461 -422h364z" />
    <glyph glyph-name="five.tf" 
d="M238 650l-97 -274h186q84 0 135 -44.5t51 -120.5q0 -91 -69 -156t-179 -65q-105 0 -165 61.5t-60 164.5l22 4q-2 -96 53 -153t151 -57q101 0 163.5 59.5t62.5 140.5q0 68 -45.5 107t-120.5 39h-212l109 314h363l-5 -20h-343z" />
    <glyph glyph-name="six.tf" 
d="M427 680q72 0 122.5 -36t56.5 -99l-22 -4q-5 56 -50 87.5t-110 31.5q-83 0 -152 -50t-108 -123t-54 -157q-2 -9 -10 -79h3q24 79 91.5 130t154.5 51t140.5 -52t53.5 -133q0 -108 -70 -182.5t-181 -74.5q-102 0 -156.5 62t-54.5 180q0 183 99 315.5t247 132.5zM343 411
q-96 0 -165.5 -73t-69.5 -151q0 -79 52 -127.5t132 -48.5q102 0 166 68.5t64 165.5q0 72 -49 119t-130 47z" />
    <glyph glyph-name="seven.tf" 
d="M659 670l-3 -12l-510 -658h-30l506 650h-459l5 20h491z" />
    <glyph glyph-name="eight.tf" 
d="M379 680q99 0 154.5 -46.5t50.5 -123.5q-4 -65 -55.5 -113.5t-157.5 -52.5q77 -16 112 -60.5t35 -101.5q0 -85 -68.5 -138.5t-178.5 -53.5q-107 0 -169 50t-56 132q5 68 66.5 120.5t175.5 55.5q-74 15 -107.5 56.5t-33.5 95.5q0 81 63.5 130.5t168.5 49.5zM356 359
q96 0 151 46t55 113q0 64 -49.5 103t-133.5 39q-90 0 -147.5 -41.5t-62.5 -108.5q-5 -66 45 -108.5t142 -42.5zM494 181q0 67 -48.5 108.5t-142.5 41.5q-103 0 -167.5 -48t-64.5 -120q0 -68 54 -109.5t145 -41.5q100 0 162 46.5t62 122.5z" />
    <glyph glyph-name="nine.tf" 
d="M227 -11q-72 0 -122.5 36t-56.5 99l22 4q5 -56 50 -87.5t110 -31.5q83 0 152 50t108 123t54 157q2 9 10 79h-3q-24 -79 -91.5 -130t-154.5 -51t-140.5 52t-53.5 133q0 108 70 182.5t181 74.5q102 0 156.5 -62t54.5 -180q0 -183 -99 -315.5t-247 -132.5zM311 258
q96 0 165.5 73t69.5 151q0 79 -52 127.5t-132 48.5q-102 0 -166 -68.5t-64 -165.5q0 -72 49 -119t130 -47z" />
    <glyph glyph-name="zero.zero.tf" 
d="M388 680q121 0 177.5 -95.5t25.5 -249.5q-32 -156 -122.5 -250.5t-209.5 -94.5q-121 0 -177.5 95.5t-24.5 249.5q32 156 122 250.5t209 94.5zM79 335q-24 -115 4 -196l455 445q-51 76 -153 76q-109 0 -192.5 -89t-113.5 -236zM262 11q110 0 193 88.5t114 235.5
q29 143 -20 231l-458 -449q49 -106 171 -106z" />
    <glyph glyph-name="zero.zero" horiz-adv-x="653" 
d="M417 680q121 0 177.5 -95.5t25.5 -249.5q-32 -156 -122.5 -250.5t-209.5 -94.5q-121 0 -177.5 95.5t-24.5 249.5q32 156 122 250.5t209 94.5zM108 335q-23 -108 2 -191l454 444q-53 72 -150 72q-109 0 -192.5 -89t-113.5 -236zM598 335q30 145 -23 236l-457 -449
q48 -111 173 -111q110 0 193 88.5t114 235.5z" />
    <glyph glyph-name="zero.dnom" horiz-adv-x="378" 
d="M203 359q68 0 100 -51.5t19 -132.5q-13 -85 -62 -135t-115 -50q-65 0 -99 50t-21 135q13 82 62 133t116 51zM147 9q57 0 100 44.5t55 121.5q12 76 -16 121t-85 45q-59 0 -101.5 -46.5t-53.5 -119.5q-12 -73 15.5 -119.5t85.5 -46.5z" />
    <glyph glyph-name="one.dnom" horiz-adv-x="211" 
d="M84 0h-20l78 332l-112 -57l5 22l120 62h12z" />
    <glyph glyph-name="two.dnom" horiz-adv-x="317" 
d="M273 266q0 -36 -27 -68t-92 -79l-141 -101h212l-4 -18h-249l4 13l164 118q63 45 88.5 74t25.5 60q0 36 -24 58t-64 22q-46 0 -75.5 -27.5t-31.5 -72.5l-18 3q2 52 37 83.5t89 31.5q48 0 77 -26.5t29 -70.5z" />
    <glyph glyph-name="three.dnom" horiz-adv-x="331" 
d="M298 273q0 -67 -96 -92q64 -18 64 -78q0 -46 -39 -79.5t-97 -33.5q-62 0 -95.5 34t-27.5 89l20 2q-5 -49 22.5 -78t80.5 -29q49 0 83 27t34 67q0 34 -26 52.5t-71 18.5h-33l1 16h13q35 0 66.5 6.5t56.5 26.5t25 51q0 29 -22 49t-61 20q-47 0 -80 -27.5t-40 -71.5l-18 3
q8 51 46.5 82t93.5 31q48 0 74 -24t26 -62z" />
    <glyph glyph-name="four.dnom" horiz-adv-x="349" 
d="M295 96h-67l-22 -96h-20l22 96h-212l5 21l267 241h21l-57 -244h67zM212 114l49 213l-236 -213h187z" />
    <glyph glyph-name="five.dnom" horiz-adv-x="332" 
d="M95 335l-27 -125h87q52 0 83 -26.5t31 -70.5q0 -55 -40.5 -89t-104.5 -34q-51 0 -86 29t-36 75l20 2q1 -40 31 -64t72 -24q56 0 90.5 29t34.5 75q0 37 -26 58.5t-71 21.5h-108l35 162h220l-5 -19h-200z" />
    <glyph glyph-name="six.dnom" horiz-adv-x="359" 
d="M206 342q-62 0 -105.5 -54.5t-52.5 -126.5l-1 -16q14 36 49.5 59t78.5 23q48 0 76 -29t28 -75q0 -56 -38.5 -94.5t-98.5 -38.5q-56 0 -85 37t-29 103q0 93 51 161t127 68q40 0 66.5 -19.5t31.5 -55.5l-19 -3q-4 29 -25.5 45t-53.5 16zM172 211q-52 0 -86.5 -35t-34.5 -80
q0 -39 26 -63.5t68 -24.5q50 0 83 34t33 81q0 38 -23 63t-66 25z" />
    <glyph glyph-name="seven.dnom" horiz-adv-x="278" 
d="M292 358l-3 -14l-258 -344h-25l256 339h-220l5 19h245z" />
    <glyph glyph-name="eight.dnom" horiz-adv-x="328" 
d="M174 359q55 0 87.5 -25.5t30.5 -67.5q-3 -35 -29.5 -60.5t-79.5 -28.5q77 -18 77 -87q0 -45 -38 -72.5t-99 -27.5q-62 0 -97 27t-31 70q3 37 34 63.5t90 30.5q-74 17 -74 82q0 42 36 69t93 27zM163 188q51 0 81 24t30 58q0 33 -28 52.5t-73 19.5q-48 0 -77.5 -21
t-31.5 -55t24.5 -56t74.5 -22zM239 91q0 34 -26.5 56t-76.5 22q-54 0 -87.5 -25t-33.5 -63q0 -34 28.5 -53.5t77.5 -19.5q53 0 85.5 22t32.5 61z" />
    <glyph glyph-name="nine.dnom" horiz-adv-x="359" 
d="M182 359q56 0 85 -37t29 -103q0 -93 -51 -161t-127 -68q-40 0 -66.5 19.5t-31.5 55.5l19 3q4 -29 25.5 -45t53.5 -16q62 0 105.5 54.5t52.5 126.5l1 16q-14 -36 -49.5 -59t-78.5 -23q-48 0 -76 29t-28 75q0 56 38.5 94.5t98.5 38.5zM152 138q52 0 86.5 35t34.5 80
q0 39 -26 63.5t-68 24.5q-50 0 -83 -34t-33 -81q0 -38 23 -63t66 -25z" />
    <glyph glyph-name="zero.numr" horiz-adv-x="378" 
d="M277 680q68 0 100 -51.5t19 -132.5q-13 -85 -62 -135t-115 -50q-65 0 -99 50t-21 135q13 82 62 133t116 51zM221 330q57 0 100 44.5t55 121.5q12 76 -16 121t-85 45q-59 0 -101.5 -46.5t-53.5 -119.5q-12 -73 15.5 -119.5t85.5 -46.5z" />
    <glyph glyph-name="one.numr" horiz-adv-x="211" 
d="M156 311h-20l78 332l-112 -57l5 22l120 62h12z" />
    <glyph glyph-name="two.numr" horiz-adv-x="317" 
d="M346 583q0 -36 -27 -68t-92 -79l-141 -101h212l-4 -18h-249l4 13l164 118q63 45 88.5 74t25.5 60q0 36 -24 58t-64 22q-46 0 -75.5 -27.5t-31.5 -72.5l-18 3q2 52 37 83.5t89 31.5q48 0 77 -26.5t29 -70.5z" />
    <glyph glyph-name="three.numr" horiz-adv-x="331" 
d="M372 594q0 -67 -96 -92q64 -18 64 -78q0 -46 -39 -79.5t-97 -33.5q-62 0 -95.5 33.5t-27.5 89.5l20 2q-5 -49 22.5 -78t80.5 -29q49 0 83 27t34 67q0 34 -26 52.5t-71 18.5h-33l1 16h13q35 0 66.5 6.5t56.5 26.5t25 51q0 29 -22 49t-61 20q-47 0 -80 -27.5t-40 -71.5
l-18 3q8 51 46.5 82t93.5 31q48 0 74 -24t26 -62z" />
    <glyph glyph-name="four.numr" horiz-adv-x="349" 
d="M367 408h-67l-22 -96h-20l22 96h-212l5 21l267 241h21l-57 -244h67zM284 426l49 213l-236 -213h187z" />
    <glyph glyph-name="five.numr" horiz-adv-x="332" 
d="M168 651l-27 -125h87q52 0 83 -26.5t31 -70.5q0 -55 -40.5 -89t-104.5 -34q-51 0 -86 29t-36 75l20 2q1 -40 31 -64t72 -24q56 0 90.5 29t34.5 75q0 37 -26 58.5t-71 21.5h-108l35 162h220l-5 -19h-200z" />
    <glyph glyph-name="six.numr" horiz-adv-x="359" 
d="M280 663q-62 0 -105.5 -54.5t-52.5 -126.5l-1 -16q14 36 49.5 59t78.5 23q48 0 76 -29t28 -75q0 -56 -38.5 -94.5t-98.5 -38.5q-56 0 -85 37t-29 103q0 93 51 161t127 68q40 0 66.5 -19.5t31.5 -55.5l-19 -3q-4 29 -25.5 45t-53.5 16zM246 532q-52 0 -86.5 -35t-34.5 -80
q0 -39 26 -63.5t68 -24.5q50 0 83 34t33 81q0 38 -23 63t-66 25z" />
    <glyph glyph-name="seven.numr" horiz-adv-x="278" 
d="M364 670l-3 -14l-258 -344h-25l256 339h-220l5 19h245z" />
    <glyph glyph-name="eight.numr" horiz-adv-x="328" 
d="M248 680q55 0 87.5 -25.5t30.5 -67.5q-3 -35 -29.5 -60.5t-79.5 -28.5q77 -18 77 -87q0 -45 -38 -72.5t-99 -27.5q-62 0 -97 27t-31 70q3 37 34 63.5t90 30.5q-74 17 -74 82q0 42 36 69t93 27zM237 509q51 0 81 24t30 58q0 33 -28 52.5t-73 19.5q-48 0 -77.5 -21
t-31.5 -55t24.5 -56t74.5 -22zM313 412q0 34 -26.5 56t-76.5 22q-54 0 -87.5 -25t-33.5 -63q0 -34 28.5 -53.5t77.5 -19.5q53 0 85.5 22t32.5 61z" />
    <glyph glyph-name="nine.numr" horiz-adv-x="359" 
d="M256 680q56 0 85 -37t29 -103q0 -93 -51 -161t-127 -68q-40 0 -66.5 19.5t-31.5 55.5l19 3q4 -29 25.5 -45t53.5 -16q62 0 105.5 54.5t52.5 126.5l1 16q-14 -36 -49.5 -59t-78.5 -23q-48 0 -76 29t-28 75q0 56 38.5 94.5t98.5 38.5zM226 459q52 0 86.5 35t34.5 80
q0 39 -26 63.5t-68 24.5q-50 0 -83 -34t-33 -81q0 -38 23 -63t66 -25z" />
    <glyph glyph-name="backslash.case" horiz-adv-x="326" 
d="M239 0h-20l-89 670h20z" />
    <glyph glyph-name="periodcentered.case" horiz-adv-x="172" 
d="M107 357q10 0 17.5 -7t7.5 -17t-7 -17t-18 -7t-18 7t-7 17t7.5 17t17.5 7z" />
    <glyph glyph-name="bullet.case" horiz-adv-x="381" 
d="M211 455q53 0 90 -36t37 -86q0 -53 -36.5 -87t-90.5 -34t-90 34t-36 87q0 50 36.5 86t89.5 36z" />
    <glyph glyph-name="colon.case" horiz-adv-x="175" 
d="M146 528q10 0 17.5 -7t7.5 -17t-7 -17t-18 -7t-18 7t-7 17t7.5 17t17.5 7zM66 166q10 0 17.5 -7t7.5 -17t-7 -17t-18 -7t-18 7t-7 17t7.5 17t17.5 7z" />
    <glyph glyph-name="exclamdown.case" horiz-adv-x="252" 
d="M220 624q-10 0 -17.5 7t-7.5 17t7 17t18 7t18 -7t7 -17t-7.5 -17t-17.5 -7zM60 0l7 31l107 460h21l-107 -460l-7 -31h-21z" />
    <glyph glyph-name="questiondown.case" horiz-adv-x="501" 
d="M364 626q-10 0 -17.5 7t-7.5 17t7 17t18 7t18 -7t7 -17t-7.5 -17t-17.5 -7zM429 212l21 -3q-8 -97 -73 -157t-159 -60q-86 0 -138 49t-52 127q0 99 81 161.5t183 64.5l25 99h22l-30 -119h-11q-94 0 -171.5 -56.5t-77.5 -147.5q0 -70 46.5 -114t122.5 -44q84 0 143.5 55
t67.5 145z" />
    <glyph glyph-name="semicolon.case" horiz-adv-x="180" 
d="M147 528q10 0 17.5 -7t7.5 -17t-7 -17t-18 -7t-18 7t-7 17t7.5 17t17.5 7zM-47 -132h-20l132 258h28l-1 -2z" />
    <glyph glyph-name="slash.case" horiz-adv-x="338" 
d="M-29 0h-24l419 670h24z" />
    <glyph glyph-name="braceleft.case" horiz-adv-x="435" 
d="M464 670l-5 -20h-61q-44 0 -78 -28.5t-45 -75.5l-24 -103q-18 -89 -94 -114q28 -15 39 -45t3 -68l-21 -92q-11 -47 9.5 -75.5t65.5 -28.5h61l-5 -20h-61q-55 0 -80 34t-12 90l21 92q11 47 -10 75.5t-65 28.5h-14l5 20h14q44 0 78 28.5t44 74.5l24 103q13 56 54 90t96 34
h61z" />
    <glyph glyph-name="braceright.case" horiz-adv-x="435" 
d="M390 350l-5 -20h-14q-44 0 -78 -28.5t-44 -74.5l-24 -103q-13 -56 -54 -90t-96 -34h-61l5 20h61q44 0 78 28.5t45 75.5l24 103q18 89 94 114q-28 15 -39 45t-3 68l21 92q11 47 -9.5 75.5t-65.5 28.5h-61l5 20h61q55 0 80 -34t12 -90l-21 -92q-11 -47 10 -75.5t65 -28.5
h14z" />
    <glyph glyph-name="bracketleft.case" horiz-adv-x="378" 
d="M221 650l-145 -630h180l-5 -20h-202l155 670h202l-5 -20h-180z" />
    <glyph glyph-name="bracketright.case" horiz-adv-x="377" 
d="M371 670l-155 -670h-202l5 20h180l145 630h-180l5 20h202z" />
    <glyph glyph-name="parenleft.case" horiz-adv-x="340" 
d="M312 679l12 -14q-179 -139 -210 -330q-31 -195 102 -332l-13 -12q-144 141 -111 344q33 204 220 344z" />
    <glyph glyph-name="parenright.case" horiz-adv-x="340" 
d="M168 667l13 12q144 -141 111 -344q-33 -204 -220 -344l-12 14q179 139 210 330q31 195 -102 332z" />
    <glyph glyph-name="emdash.case" horiz-adv-x="1041" 
d="M1002 325h-920l4 20h920z" />
    <glyph glyph-name="endash.case" horiz-adv-x="621" 
d="M579 325h-500l4 20h500z" />
    <glyph glyph-name="hyphen.case" horiz-adv-x="439" 
d="M397 325h-318l4 20h318z" />
    <glyph glyph-name="guillemotleft.case" horiz-adv-x="357" 
d="M58 322l173 178h28l-175 -181l89 -175h-24zM208 322l173 178h28l-175 -181l89 -175h-24z" />
    <glyph glyph-name="guillemotright.case" horiz-adv-x="357" 
d="M190 322l-173 -178h-28l175 181l-89 175h24zM340 322l-173 -178h-28l175 181l-89 175h24z" />
    <glyph glyph-name="guilsinglleft.case" horiz-adv-x="207" 
d="M44 322l173 178h28l-175 -181l89 -175h-24z" />
    <glyph glyph-name="guilsinglright.case" horiz-adv-x="207" 
d="M204 322l-173 -178h-28l175 181l-89 175h24z" />
    <glyph glyph-name="cent.tf" 
d="M536 352l-20 -8q-8 56 -53.5 91.5t-107.5 39.5l-107 -464l17 -1q68 0 128.5 37.5t88.5 96.5l18 -7q-29 -65 -95 -106t-140 -41q-15 0 -22 1l-29 -121h-21l30 124q-87 15 -135.5 83t-33.5 166q18 111 101 182t184 71l30 134h21l-31 -135q70 -5 119 -43.5t58 -99.5zM75 243
q-14 -90 30 -153t121 -77l107 463q-92 -2 -167.5 -67t-90.5 -166z" />
    <glyph glyph-name="dollar.tf" 
d="M552 483l-21 -7q-7 64 -46.5 103.5t-104.5 49.5l-65 -272l72 -30q59 -25 86.5 -57.5t27.5 -80.5q0 -73 -58 -118.5t-155 -45.5q-30 0 -51 4l-29 -129h-23l30 133q-73 16 -117.5 64t-46.5 118l23 5q1 -65 40.5 -109t105.5 -60l71 296l-16 7q-79 34 -108 62t-29 74
q0 73 56 117t148 44l21 -1l27 120h23l-28 -122q74 -10 117 -54t50 -111zM359 631l-19 1q-81 0 -131 -39t-50 -102q0 -39 25.5 -64.5t93.5 -53.5l17 -7zM310 338l-69 -291q22 -3 47 -3q86 0 138.5 40.5t52.5 105.5q0 75 -93 116z" />
    <glyph glyph-name="Euro.tf" 
d="M412 660q-92 0 -165 -66t-109 -177h298l-9 -20h-295q-17 -64 -20 -132v-3h248l-8 -20h-240q1 -104 52 -168t135 -64q81 0 148 56t106 154l19 -6q-39 -102 -112.5 -163t-163.5 -61q-93 0 -149.5 69.5t-56.5 182.5h-64l4 20h60v1q3 69 20 134h-48l4 20h50q37 120 117 191.5
t183 71.5q90 0 144 -61t60 -164l-21 -6q-8 98 -57 154.5t-130 56.5z" />
    <glyph glyph-name="florin.tf" 
d="M571 680q66 0 96 -42l-14 -14q-29 37 -83 37q-61 0 -110.5 -38t-74.5 -100l-73 -178h219l-5 -20h-223l-158 -384q-22 -51 -60 -78.5t-86 -27.5q-40 0 -59 22l16 17q15 -18 45 -18q40 0 72.5 24t47.5 61l158 384h-136l5 20h140l73 178q29 72 84.5 114.5t125.5 42.5z" />
    <glyph glyph-name="sterling.tf" 
d="M446 680q97 0 143 -56.5t25 -148.5l-23 -5q20 87 -18.5 138t-126.5 51q-86 0 -151 -52t-85 -134l-34 -148h297l-4 -20h-298l-65 -285h411l-5 -20h-518l3 14l86 5l66 286h-84l4 20h85l34 148q22 93 93.5 150t164.5 57z" />
    <glyph glyph-name="yen.tf" 
d="M341 288h197l-5 -20h-208l-23 -100h208l-5 -20h-208l-34 -148h-22l34 148h-208l5 20h208l23 100h-208l5 20h195l-168 382h24l166 -382l342 382h28z" />
    <glyph glyph-name="approxequal.tf" 
d="M555 409l-6 -26q-48 -24 -100 -24q-49 0 -103.5 32.5t-99.5 32.5q-69 0 -116 -38l6 24q45 34 114 34q46 0 102.5 -32.5t100.5 -32.5q58 0 102 30zM516 239l-6 -26q-48 -24 -101 -24q-49 0 -103.5 32.5t-99.5 32.5q-69 0 -115 -38l5 24q47 34 115 34q46 0 102.5 -32.5
t100.5 -32.5q58 0 102 30z" />
    <glyph glyph-name="divide.tf" 
d="M357 513q10 0 17.5 -7t7.5 -17t-7 -17t-18 -7t-18 7t-7 17t7.5 17t17.5 7zM527 295h-420l5 20h420zM272 145q10 0 17.5 -7t7.5 -17t-7 -17t-18 -7t-18 7t-7 17t7.5 17t17.5 7z" />
    <glyph glyph-name="equal.tf" 
d="M551 395h-420l4 20h420zM509 215h-420l5 20h420z" />
    <glyph glyph-name="greater.tf" 
d="M477 307l-285 160l6 21l313 -177l-3 -12l-395 -177l5 25z" />
    <glyph glyph-name="greaterequal.tf" 
d="M466 327l-277 130l6 21l310 -147l-3 -12l-378 -147l5 25zM446 95h-340l5 20h340z" />
    <glyph glyph-name="less.tf" 
d="M133 303l285 -160l-6 -21l-313 177l3 12l395 177l-5 -25z" />
    <glyph glyph-name="lessequal.tf" 
d="M166 322l277 -130l-6 -21l-310 147l3 12l378 147l-5 -25zM94 114h340l-5 -20h-340z" />
    <glyph glyph-name="minus.tf" 
d="M527 295h-420l5 20h420z" />
    <glyph glyph-name="multiply.tf" 
d="M334 303l114 -146l-17 -13l-113 145l-185 -147l-12 16l184 147l-115 148l17 13l115 -147l184 147l13 -16z" />
    <glyph glyph-name="notequal.tf" 
d="M403 395l-144 -160h255l-5 -20h-268l-99 -110h-26l99 110h-126l5 20h139l144 160h-246l4 20h260l99 110h26l-99 -110h134l-4 -20h-148z" />
    <glyph glyph-name="plus.tf" 
d="M527 295h-200l-46 -200h-21l46 200h-199l5 20h198l46 200h22l-46 -200h200z" />
    <glyph glyph-name="plusminus.tf" 
d="M538 340l-5 -20h-200l-44 -190h-21l44 190h-199l5 20h199l44 190h21l-44 -190h200zM44 20h420l-5 -20h-420z" />
    <glyph glyph-name="bar.case" horiz-adv-x="232" 
d="M62 -41h-22l173 751h22z" />
    <glyph glyph-name="at.case" horiz-adv-x="975" 
d="M572 720q156 0 252.5 -91.5t96.5 -236.5q0 -68 -20 -130.5t-65.5 -107t-106.5 -44.5q-51 0 -76 26t-15 70l6 25q-32 -53 -85 -83.5t-112 -30.5q-73 0 -118.5 46.5t-45.5 123.5q0 99 70.5 167t161.5 68q68 0 112 -41t49 -110l33 141h20l-71 -307q-8 -35 12 -56.5t61 -21.5
q52 0 92 41t59 100.5t19 123.5q0 137 -90.5 223.5t-238.5 86.5q-120 0 -225.5 -57t-170 -157.5t-64.5 -219.5q0 -142 87 -232t224 -90q58 0 128 16.5t118 43.5l7 -18q-50 -29 -121.5 -45.5t-132.5 -16.5q-145 0 -238 94.5t-93 243.5q0 126 67.5 231.5t177.5 165t236 59.5z
M451 135q83 0 145.5 62t62.5 153q0 70 -40 111t-105 41q-83 0 -146.5 -60.5t-63.5 -151.5q0 -70 41 -112.5t106 -42.5z" />
    <glyph glyph-name="caron.alt" horiz-adv-x="600" 
d="M351 504h-18l34 146h22z" />
    </font>
</defs>
</svg>
