<?xml version="1.0" standalone="no"?>
<!DOCTYPE svg PUBLIC "-//W3C//DTD SVG 1.1//EN" "http://www.w3.org/Graphics/SVG/1.1/DTD/svg11.dtd" >
<svg>
<metadata>
Created by FontForge 20120731 at Thu Dec 17 11:05:17 2015
 By ,,,
Copyright (c) 2014 by Rene' Bieder. All rights reserved.
</metadata>
<defs>
<font id="GalanoGrotesque-MediumItalic" horiz-adv-x="610" >
  <font-face 
    font-family="Galano Grotesque Medium"
    font-weight="400"
    font-style="italic"
    font-stretch="normal"
    units-per-em="1000"
    panose-1="0 0 6 0 0 0 0 0 0 0"
    ascent="795"
    descent="-205"
    x-height="496"
    cap-height="670"
    bbox="-255 -205 1236 936"
    underline-thickness="50"
    underline-position="-50"
    slope="-13"
    unicode-range="U+0020-FB02"
  />
<missing-glyph horiz-adv-x="780" 
d="M391 684q144 0 245.5 -100t101.5 -251q0 -149 -101.5 -248.5t-245.5 -99.5q-145 0 -247 99.5t-102 248.5q0 151 102 251t247 100zM391 638q-125 0 -212 -86.5t-87 -217.5q0 -130 87 -216.5t212 -86.5q123 0 210 86.5t87 216.5q0 131 -87 217.5t-210 86.5zM523 400
q0 -44 -30.5 -73t-80.5 -34v-37h-56v84h35q32 0 52.5 16.5t20.5 43.5q0 29 -20 47t-52 18q-34 0 -55.5 -20.5t-24.5 -54.5l-58 10q2 50 41 84.5t97 34.5q59 0 95 -33t36 -86zM383 213q16 0 27 -10.5t11 -25.5q0 -16 -11 -27t-27 -11t-26.5 11t-10.5 27q0 15 11 25.5t26 10.5
z" />
    <glyph glyph-name="fi" unicode="fi" horiz-adv-x="632" 
d="M604 496l-114 -496h-104l94 410h-237l-95 -410h-105l95 410h-80l20 86h80l14 59q19 83 80.5 131.5t145.5 48.5q48 0 86 -21l-43 -84q-27 12 -57 12q-40 0 -69 -23t-39 -64l-14 -59h342zM587 710q28 0 47 -19t19 -46q0 -28 -18.5 -46t-47.5 -18t-47.5 18t-18.5 46
q0 27 18.5 46t47.5 19z" />
    <glyph glyph-name="fl" unicode="fl" horiz-adv-x="624" 
d="M243 410l-95 -410h-104l95 410h-81l20 86h80l14 59q20 86 77 133t139 47q50 0 81 -18l-21 -83q-32 8 -66 8q-39 0 -67.5 -23.5t-38.5 -63.5l-14 -59h166l-20 -86h-165zM655 720l-167 -720h-104l167 720h104z" />
    <glyph glyph-name=".notdef" horiz-adv-x="780" 
d="M391 684q144 0 245.5 -100t101.5 -251q0 -149 -101.5 -248.5t-245.5 -99.5q-145 0 -247 99.5t-102 248.5q0 151 102 251t247 100zM391 638q-125 0 -212 -86.5t-87 -217.5q0 -130 87 -216.5t212 -86.5q123 0 210 86.5t87 216.5q0 131 -87 217.5t-210 86.5zM523 400
q0 -44 -30.5 -73t-80.5 -34v-37h-56v84h35q32 0 52.5 16.5t20.5 43.5q0 29 -20 47t-52 18q-34 0 -55.5 -20.5t-24.5 -54.5l-58 10q2 50 41 84.5t97 34.5q59 0 95 -33t36 -86zM383 213q16 0 27 -10.5t11 -25.5q0 -16 -11 -27t-27 -11t-26.5 11t-10.5 27q0 15 11 25.5t26 10.5
z" />
    <glyph glyph-name=".null" horiz-adv-x="0" 
 />
    <glyph glyph-name="nonmarkingreturn" horiz-adv-x="333" 
 />
    <glyph glyph-name="space" unicode=" " horiz-adv-x="247" 
 />
    <glyph glyph-name="exclam" unicode="!" horiz-adv-x="282" 
d="M292 670l-7 -31l-103 -430h-107l96 430l7 31h114zM98 123q28 0 46.5 -18.5t18.5 -44.5q0 -27 -18.5 -45.5t-46.5 -18.5t-47 18.5t-19 45.5q0 26 19 44.5t47 18.5z" />
    <glyph glyph-name="quotedbl" unicode="&#x22;" horiz-adv-x="382" 
d="M84 382l66 288h106l-66 -288h-106zM254 382l66 288h106l-66 -288h-106z" />
    <glyph glyph-name="numbersign" unicode="#" horiz-adv-x="686" 
d="M568 406l-76 -157h103l-44 -87h-100l-78 -162h-98l78 162h-153l-78 -162h-98l78 162h-105l44 87h103l75 157h-104l43 87h103l85 177h98l-85 -177h152l85 177h98l-85 -177h103l-44 -87h-100zM470 406h-153l-75 -157h153z" />
    <glyph glyph-name="dollar" unicode="$" horiz-adv-x="584" 
d="M364 378l20 -7q70 -27 105 -62.5t35 -95.5q0 -85 -67 -138.5t-174 -55.5l-28 -119h-88l30 127q-69 16 -113 60t-50 115l106 21q9 -80 83 -104l44 189q-33 12 -54 22.5t-44 28t-34 42.5t-11 58q0 79 61.5 132t157.5 61l28 118h88l-29 -122q70 -13 110 -57t48 -112
l-101 -22q-6 79 -80 101zM229 471q0 -23 13.5 -37.5t47.5 -27.5l37 157q-44 -7 -71 -32.5t-27 -59.5zM342 282l-41 -173q59 2 91 28t32 67q0 26 -16 42.5t-56 31.5z" />
    <glyph glyph-name="percent" unicode="%" horiz-adv-x="892" 
d="M293 684q65 0 108 -40t43 -105q0 -76 -55 -126t-128 -50q-65 0 -108 40.5t-43 106.5q0 76 55 125t128 49zM98 0l650 670h72l-650 -670h-72zM287 612q-38 0 -68 -27t-30 -70q0 -36 23 -58t55 -22q38 0 68 27.5t30 70.5q0 36 -22.5 57.5t-55.5 21.5zM671 307q65 0 108 -40
t43 -105q0 -76 -54.5 -126t-128.5 -50q-64 0 -107.5 41t-43.5 106q0 76 55 125t128 49zM665 236q-38 0 -68 -27.5t-30 -69.5q0 -37 23 -58.5t55 -21.5q38 0 68 27.5t30 70.5q0 36 -22.5 57.5t-55.5 21.5z" />
    <glyph glyph-name="ampersand" unicode="&#x26;" horiz-adv-x="708" 
d="M560 -24l-78 84q-94 -75 -221 -75q-98 0 -159.5 46.5t-61.5 125.5q0 68 46 123t122 88q-27 48 -27 102q0 92 64.5 153t172.5 61q81 0 126.5 -36t50.5 -103l-102 -17q-8 69 -88 69q-54 0 -87.5 -32.5t-33.5 -83.5q0 -33 19 -65.5t63 -77.5l126 -136q27 44 38 95l12 48h93
l-12 -48q-22 -90 -69 -160l84 -91zM272 74q82 0 150 51l-150 162l-17 18q-51 -22 -80.5 -57.5t-29.5 -76.5q0 -44 34.5 -70.5t92.5 -26.5z" />
    <glyph glyph-name="quotesingle" unicode="'" horiz-adv-x="212" 
d="M84 382l66 288h106l-66 -288h-106z" />
    <glyph glyph-name="parenleft" unicode="(" horiz-adv-x="385" 
d="M348 753l71 -73q-119 -90 -170.5 -167.5t-67.5 -177.5t5 -183.5t91 -169.5l-84 -64q-162 175 -124 417q38 250 279 418z" />
    <glyph glyph-name="parenright" unicode=")" horiz-adv-x="385" 
d="M77 -82l-71 73q119 89 170.5 166.5t68.5 178.5q16 100 -5 184t-91 169l84 64q162 -173 124 -417q-40 -251 -280 -418z" />
    <glyph glyph-name="asterisk" unicode="*" horiz-adv-x="460" 
d="M359 517l85 -101l-50 -42l-82 98l-42 -115l-69 25l42 114l-126 -22l-11 65l130 23l-85 101l51 42l82 -97l41 113l69 -25l-42 -114l126 22l11 -64z" />
    <glyph glyph-name="plus" unicode="+" horiz-adv-x="581" 
d="M518 259h-179l-42 -182h-92l42 182h-179l22 92h178l42 182h92l-42 -182h180z" />
    <glyph glyph-name="comma" unicode="," horiz-adv-x="231" 
d="M19 -132h-84l125 266h125l-1 -3z" />
    <glyph glyph-name="hyphen" unicode="-" horiz-adv-x="447" 
d="M377 210h-326l22 90h325z" />
    <glyph glyph-name="period" unicode="." horiz-adv-x="225" 
d="M69 123q28 0 46.5 -18.5t18.5 -44.5q0 -27 -18.5 -45.5t-46.5 -18.5t-47 18.5t-19 45.5q0 26 19 44.5t47 18.5z" />
    <glyph glyph-name="slash" unicode="/" horiz-adv-x="393" 
d="M488 720l-470 -790h-103l470 790h103z" />
    <glyph glyph-name="zero" unicode="0" horiz-adv-x="666" 
d="M401 684q128 0 195.5 -97.5t39.5 -251.5q-30 -159 -118 -254t-213 -95q-128 0 -195.5 97.5t-39.5 251.5q30 159 118 254t213 95zM308 85q78 0 138 69t81 181t-14.5 181t-114.5 69q-78 0 -138 -69t-81 -181q-21 -111 14.5 -180.5t114.5 -69.5z" />
    <glyph glyph-name="one" unicode="1" horiz-adv-x="363" 
d="M379 670l-154 -670h-105l124 535l-192 -98l26 113l235 120h66z" />
    <glyph glyph-name="two" unicode="2" horiz-adv-x="519" 
d="M185 97h281l-24 -97h-461l22 69l282 224q40 31 54 42.5t41.5 39t38 53.5t10.5 56q0 48 -30.5 77.5t-82.5 29.5q-56 0 -92.5 -36t-46.5 -105l-100 20q13 98 80.5 156t165.5 58q94 0 150.5 -52.5t56.5 -140.5q0 -72 -43 -131.5t-142 -136.5z" />
    <glyph glyph-name="three" unicode="3" horiz-adv-x="578" 
d="M576 509q0 -62 -35.5 -108.5t-95.5 -67.5q73 -44 73 -133q0 -88 -71 -151t-183 -63q-107 0 -171 59t-60 156l96 21q-1 -65 34.5 -104t101.5 -39q65 0 107 37t42 89q0 44 -31 69t-83 25h-81l25 86h76q67 0 113 30t46 83q0 44 -31 70t-83 26q-56 0 -95.5 -33t-51.5 -99
l-96 18q17 94 84 149t165 55q93 0 149 -48t56 -127z" />
    <glyph glyph-name="four" unicode="4" horiz-adv-x="619" 
d="M489 236h98l-20 -88h-98l-34 -148h-105l34 148h-360l23 100l422 422h140zM385 236l77 331l-323 -331h246z" />
    <glyph glyph-name="five" unicode="5" horiz-adv-x="566" 
d="M241 573l-45 -156h104q99 0 157.5 -48t58.5 -138q0 -102 -73 -173.5t-191 -71.5q-111 0 -178 64.5t-63 169.5l100 19q0 -74 38.5 -117.5t107.5 -43.5q68 0 110 40.5t42 98.5q0 51 -35.5 79.5t-93.5 28.5h-211l97 345h424l-23 -97h-326z" />
    <glyph glyph-name="six" unicode="6" horiz-adv-x="612" 
d="M354 434q92 0 149 -56t57 -144q0 -104 -75 -176t-187 -72q-111 0 -176 73t-65 194q0 188 101.5 309.5t249.5 121.5q83 0 142 -40t69 -113l-100 -20q-6 38 -37.5 58.5t-78.5 20.5q-88 0 -154 -69t-81 -167q32 38 81 59t105 21zM302 82q62 0 105.5 42.5t43.5 103.5
q0 52 -34.5 84.5t-86.5 32.5q-60 0 -105 -43t-45 -101q0 -53 35.5 -86t86.5 -33z" />
    <glyph glyph-name="seven" unicode="7" horiz-adv-x="515" 
d="M591 670l-17 -76l-390 -594h-133l386 573h-344l22 97h476z" />
    <glyph glyph-name="eight" unicode="8" horiz-adv-x="584" 
d="M358 684q102 0 162.5 -48t58.5 -128q-1 -63 -40.5 -111t-114.5 -65q50 -22 76.5 -61t26.5 -87q0 -86 -72.5 -142t-187.5 -56q-111 0 -178 51.5t-65 134.5q1 63 49 112.5t133 64.5q-92 43 -92 146q0 84 67.5 136.5t176.5 52.5zM340 393q58 0 95.5 29t37.5 78
q0 45 -34.5 71t-86.5 26q-55 0 -93 -28.5t-39 -77.5q-1 -45 32.5 -71.5t87.5 -26.5zM269 77q61 0 101.5 30.5t40.5 83.5q0 47 -35 74.5t-92 27.5q-61 0 -101.5 -30.5t-40.5 -83.5q0 -48 35.5 -75t91.5 -27z" />
    <glyph glyph-name="nine" unicode="9" horiz-adv-x="619" 
d="M353 684q111 0 176 -73.5t65 -193.5q0 -188 -101.5 -309.5t-249.5 -121.5q-83 0 -142 40.5t-70 112.5l100 20q7 -38 38.5 -58t78.5 -20q89 0 155 69t80 168q-67 -81 -186 -81q-92 0 -149 55.5t-57 143.5q0 105 74.5 176.5t187.5 71.5zM321 325q59 0 104.5 43t45.5 101
q0 53 -35.5 86t-87.5 33q-61 0 -105 -42.5t-44 -103.5q0 -51 35 -84t87 -33z" />
    <glyph glyph-name="colon" unicode=":" horiz-adv-x="225" 
d="M150 473q28 0 46.5 -18.5t18.5 -44.5q0 -27 -18.5 -45t-46.5 -18t-47 18t-19 45q0 26 19 44.5t47 18.5zM69 123q28 0 46.5 -18.5t18.5 -44.5q0 -27 -18.5 -45.5t-46.5 -18.5t-47 18.5t-19 45.5q0 26 19 44.5t47 18.5z" />
    <glyph glyph-name="semicolon" unicode=";" horiz-adv-x="255" 
d="M171 473q28 0 46.5 -18.5t18.5 -44.5q0 -27 -18.5 -45t-46.5 -18t-47 18t-19 45q0 26 19 44.5t47 18.5zM19 -132h-84l125 266h125l-1 -3z" />
    <glyph glyph-name="less" unicode="&#x3c;" horiz-adv-x="444" 
d="M170 317l229 -94l-26 -105l-337 152l24 108l408 150l-25 -114z" />
    <glyph glyph-name="equal" unicode="=" horiz-adv-x="581" 
d="M544 371h-450l22 91h450zM499 178h-450l22 91h450z" />
    <glyph glyph-name="greater" unicode="&#x3e;" horiz-adv-x="444" 
d="M310 329l-229 94l25 105l338 -152l-25 -108l-407 -150l25 115z" />
    <glyph glyph-name="question" unicode="?" horiz-adv-x="527" 
d="M551 498q0 -92 -71.5 -152t-174.5 -67l-16 -65h-96l35 146h59q58 0 110 35.5t52 93.5q0 46 -32.5 74t-84.5 28q-60 0 -102.5 -38t-53.5 -98l-98 19q13 90 85 150t174 60q94 0 154 -51.5t60 -134.5zM212 123q28 0 46.5 -18.5t18.5 -44.5q0 -27 -18.5 -45.5t-46.5 -18.5
t-47 18.5t-19 45.5q0 26 19 44.5t47 18.5z" />
    <glyph glyph-name="at" unicode="@" horiz-adv-x="956" 
d="M724 474l-67 -289q-6 -26 10 -42.5t45 -16.5q59 0 96.5 73t37.5 152q0 120 -83 195.5t-213 75.5q-170 0 -295 -116t-125 -281q0 -128 81 -210t208 -82q136 0 255 76l25 -56q-58 -39 -137 -61.5t-153 -22.5q-152 0 -250.5 97t-98.5 249q0 130 69.5 238.5t184.5 169.5
t247 61q155 0 254.5 -91t99.5 -233q0 -47 -13.5 -97t-39.5 -95t-71 -74t-101 -29q-90 0 -105 67q-63 -65 -160 -65q-76 0 -123 47t-47 125q0 106 72.5 174.5t168.5 68.5q102 0 140 -84l18 76h70zM447 137q60 0 107.5 45t47.5 115q0 52 -30.5 82.5t-77.5 30.5
q-60 0 -107.5 -44t-47.5 -114q0 -53 30.5 -84t77.5 -31z" />
    <glyph glyph-name="A" unicode="A" horiz-adv-x="707" 
d="M645 0h-110l-30 156h-325l-102 -156h-123l450 670h100zM486 254l-55 285l-187 -285h242z" />
    <glyph glyph-name="B" unicode="B" horiz-adv-x="660" 
d="M518 345l-1 -4q41 -5 67.5 -38t26.5 -85q0 -93 -73 -155.5t-194 -62.5h-319l21 92l112 486l22 92h306q79 0 125.5 -40t46.5 -107q0 -71 -44.5 -119.5t-95.5 -58.5zM220 380h195q57 0 96 35t39 85q0 36 -24.5 57t-63.5 21h-196zM153 92h208q64 0 102 35t38 88
q0 37 -23.5 58t-65.5 21h-212z" />
    <glyph glyph-name="C" unicode="C" horiz-adv-x="776" 
d="M469 684q119 0 199.5 -61.5t93.5 -163.5l-111 -22q-12 67 -59 107t-125 40q-117 0 -204.5 -83.5t-87.5 -201.5q0 -93 57 -153t151 -60q79 0 141.5 40.5t91.5 103.5l98 -31q-39 -97 -126 -155t-209 -58q-141 0 -227 85.5t-86 220.5q0 161 117.5 276.5t285.5 115.5z" />
    <glyph glyph-name="D" unicode="D" horiz-adv-x="737" 
d="M177 670h234q143 0 223 -75.5t80 -201.5q0 -165 -128 -279t-320 -114h-244zM152 97h102q145 0 247 84.5t102 209.5q0 85 -52.5 133.5t-151.5 48.5h-137z" />
    <glyph glyph-name="E" unicode="E" horiz-adv-x="636" 
d="M262 573l-44 -189h361l-22 -96h-361l-44 -191h392l-23 -97h-499l154 670h498l-22 -97h-390z" />
    <glyph glyph-name="F" unicode="F" horiz-adv-x="593" 
d="M262 573l-46 -199h345l-22 -97h-345l-64 -277h-108l154 670h490l-22 -97h-382z" />
    <glyph glyph-name="G" unicode="G" horiz-adv-x="789" 
d="M404 380h361q0 -22 -4 -46q-29 -159 -134 -253.5t-256 -94.5q-137 0 -221 84t-84 220q0 162 121 278t290 116q107 0 186.5 -52.5t99.5 -145.5l-108 -24q-19 62 -69 91.5t-116 29.5q-120 0 -207 -83t-87 -201q0 -93 57 -152.5t149 -59.5q90 0 159.5 54.5t93.5 140.5h-254z
" />
    <glyph glyph-name="H" unicode="H" horiz-adv-x="735" 
d="M753 670l-155 -670h-107l66 288h-361l-66 -288h-108l154 670h108l-65 -284h361l65 284h108z" />
    <glyph glyph-name="I" unicode="I" horiz-adv-x="266" 
d="M130 0h-108l154 670h108z" />
    <glyph glyph-name="J" unicode="J" horiz-adv-x="594" 
d="M625 670l-101 -430q-28 -119 -104 -186.5t-183 -67.5q-103 0 -164.5 59.5t-63.5 158.5l102 21q-1 -64 32.5 -103t95.5 -39q65 0 112.5 43.5t64.5 113.5l101 430h108z" />
    <glyph glyph-name="K" unicode="K" horiz-adv-x="671" 
d="M323 330l283 -330h-132l-239 282h-48l-65 -282h-107l154 670h108l-67 -290h25l364 290h145z" />
    <glyph glyph-name="L" unicode="L" horiz-adv-x="581" 
d="M517 97l-22 -97h-473l154 670h108l-132 -573h365z" />
    <glyph glyph-name="M" unicode="M" horiz-adv-x="893" 
d="M911 670l-155 -670h-104l98 426l-320 -426h-81l-124 427l-99 -427h-104l154 670h86l151 -530l395 530h103z" />
    <glyph glyph-name="N" unicode="N" horiz-adv-x="761" 
d="M778 670l-154 -670h-91l-288 493l-114 -493h-107l154 670h91l285 -498l116 498h108z" />
    <glyph glyph-name="O" unicode="O" horiz-adv-x="796" 
d="M461 685q152 0 239.5 -102.5t66.5 -248.5q-22 -156 -132 -252.5t-260 -96.5q-151 0 -238.5 101t-66.5 249q21 146 135.5 248t255.5 102zM377 87q107 0 186.5 70t94.5 177q16 106 -42.5 178t-156.5 72q-107 0 -186.5 -71.5t-95.5 -178.5q-15 -105 44.5 -176t155.5 -71z
" />
    <glyph glyph-name="P" unicode="P" horiz-adv-x="662" 
d="M176 670h284q98 0 157 -52t59 -138q0 -108 -81 -176t-210 -68h-201l-55 -236h-107zM206 334h185q77 0 126 41t49 102q0 45 -29 70.5t-85 25.5h-191z" />
    <glyph glyph-name="Q" unicode="Q" horiz-adv-x="796" 
d="M767 334q-24 -170 -152 -269l130 -154l-83 -75l-148 173q-69 -24 -139 -24q-151 0 -238.5 101t-66.5 249q21 146 135.5 248t255.5 102q152 0 239.5 -102.5t66.5 -248.5zM177 334q-15 -105 44.5 -176t155.5 -71q107 0 186.5 70t94.5 177q16 106 -42.5 178t-156.5 72
q-107 0 -186.5 -71.5t-95.5 -178.5z" />
    <glyph glyph-name="R" unicode="R" horiz-adv-x="680" 
d="M682 497q0 -89 -62.5 -151t-166.5 -76l155 -270h-122l-146 267h-147l-61 -267h-108l132 573l23 97h300q93 0 148 -46t55 -127zM216 364h191q74 0 120 35t46 90q0 40 -27.5 62t-72.5 22h-209z" />
    <glyph glyph-name="S" unicode="S" horiz-adv-x="627" 
d="M388 684q105 0 169 -51t72 -140l-108 -23q-2 55 -41.5 89t-102.5 34q-62 0 -102.5 -32t-40.5 -79q0 -27 16.5 -44t55.5 -31l107 -35q148 -48 148 -167q0 -99 -74.5 -159t-195.5 -60q-110 0 -185.5 52t-81.5 150l114 23q4 -64 47 -98t115 -34t113 31.5t41 82.5
q0 29 -18 47.5t-62 33.5l-106 34q-68 23 -107 58t-39 102q0 95 74.5 155.5t191.5 60.5z" />
    <glyph glyph-name="T" unicode="T" horiz-adv-x="625" 
d="M677 573h-235l-132 -573h-108l132 573h-236l22 97h580z" />
    <glyph glyph-name="U" unicode="U" horiz-adv-x="716" 
d="M742 670l-86 -374q-33 -144 -121.5 -227t-223.5 -83q-122 0 -190.5 87.5t-37.5 222.5l86 374h108l-86 -374q-22 -94 15 -150.5t119 -56.5q80 0 140.5 56.5t82.5 150.5l86 374h108z" />
    <glyph glyph-name="V" unicode="V" horiz-adv-x="710" 
d="M789 670l-442 -670h-104l-132 670h111l98 -525l342 525h127z" />
    <glyph glyph-name="W" unicode="W" horiz-adv-x="963" 
d="M1041 670l-355 -670h-115l-35 498l-266 -498h-113l-46 670h108l30 -505l270 505h106l36 -505l264 505h116z" />
    <glyph glyph-name="X" unicode="X" horiz-adv-x="648" 
d="M409 334l163 -334h-123l-120 253l-236 -253h-140l316 336l-159 334h122l119 -251l235 251h139l-314 -334z" />
    <glyph glyph-name="Y" unicode="Y" horiz-adv-x="682" 
d="M387 224l-52 -224h-108l52 223l-168 447h112l128 -336l283 336h131z" />
    <glyph glyph-name="Z" unicode="Z" horiz-adv-x="626" 
d="M653 590l-483 -498h373l-21 -92h-526l16 69l500 509h-371l20 92h510z" />
    <glyph glyph-name="bracketleft" unicode="[" horiz-adv-x="398" 
d="M272 651l-148 -643h171l-21 -90h-272l190 823h272l-21 -90h-171z" />
    <glyph glyph-name="backslash" unicode="\" horiz-adv-x="393" 
d="M290 -72h-87l-100 813h87z" />
    <glyph glyph-name="bracketright" unicode="]" horiz-adv-x="399" 
d="M434 741l-190 -823h-272l20 90h172l148 643h-171l21 90h272z" />
    <glyph glyph-name="asciicircum" unicode="^" horiz-adv-x="419" 
d="M165 444h-97l202 226h74l98 -226h-88l-61 140z" />
    <glyph glyph-name="underscore" unicode="_" horiz-adv-x="523" 
d="M413 -143h-483l20 87h483z" />
    <glyph glyph-name="grave" unicode="`" horiz-adv-x="600" 
d="M286 709l106 -142h-96l-140 142h130z" />
    <glyph glyph-name="a" unicode="a" horiz-adv-x="647" 
d="M625 496l-115 -496h-104l12 51q-71 -65 -177 -65q-100 0 -161 74t-43 189q18 116 99 188.5t187 72.5q132 0 179 -98l19 84h104zM272 78q65 0 122 47.5t69 123.5t-29.5 122.5t-106.5 46.5q-71 0 -123.5 -46.5t-65.5 -122.5q-13 -77 25.5 -124t108.5 -47z" />
    <glyph glyph-name="b" unicode="b" horiz-adv-x="642" 
d="M407 510q100 0 161 -74t43 -189q-19 -116 -100 -188.5t-187 -72.5q-132 0 -178 99l-20 -85h-105l167 720h104l-64 -276q74 66 179 66zM321 78q70 0 123 46.5t66 122.5q12 77 -26.5 124t-107.5 47q-65 0 -122 -47.5t-69 -123.5t29 -122.5t107 -46.5z" />
    <glyph glyph-name="c" unicode="c" horiz-adv-x="571" 
d="M268 82q50 0 91 26t63 73l99 -18q-33 -80 -104.5 -128.5t-156.5 -48.5q-115 0 -181 73.5t-48 188.5q18 114 106 188t197 74q85 0 145 -47.5t70 -126.5l-107 -21q-4 47 -38 73t-84 26q-70 0 -123 -46.5t-65 -119.5q-11 -74 27.5 -120t108.5 -46z" />
    <glyph glyph-name="d" unicode="d" horiz-adv-x="642" 
d="M672 720l-166 -720h-105l12 51q-73 -65 -178 -65q-100 0 -161 74t-43 189q19 116 100 188.5t187 72.5q132 0 178 -98l71 308h105zM266 78q65 0 122 47.5t69 123.5t-29 122.5t-107 46.5q-70 0 -123 -46.5t-66 -122.5q-12 -77 26.5 -124t107.5 -47z" />
    <glyph glyph-name="e" unicode="e" horiz-adv-x="580" 
d="M131 223v-7q0 -66 36 -103t103 -37q97 0 152 90l92 -24q-36 -75 -103 -115.5t-148 -40.5q-103 0 -165.5 61.5t-62.5 164.5q0 127 89 212.5t205 85.5q110 0 170.5 -79.5t39.5 -207.5h-408zM321 422q-62 0 -108 -35t-67 -90h304q-3 60 -37 92.5t-92 32.5z" />
    <glyph glyph-name="f" unicode="f" horiz-adv-x="364" 
d="M382 642q-39 0 -67.5 -23.5t-38.5 -63.5l-14 -59h166l-20 -86h-165l-95 -410h-104l95 410h-81l20 86h80l14 59q20 86 77 133t139 47q50 0 81 -18l-21 -83q-32 8 -66 8z" />
    <glyph glyph-name="g" unicode="g" horiz-adv-x="640" 
d="M617 496l-105 -452q-24 -109 -108 -171.5t-195 -62.5q-176 0 -232 148l98 37q37 -91 140 -91q69 0 126 42.5t73 112.5l8 32q-74 -63 -180 -63q-99 0 -159 69t-43 180q18 100 100.5 166t183.5 66q128 0 174 -88l18 75h101zM272 115q66 0 121.5 41t67.5 110t-29 112.5
t-105 43.5q-71 0 -122 -41t-64 -108q-12 -71 25.5 -114.5t105.5 -43.5z" />
    <glyph glyph-name="h" unicode="h" horiz-adv-x="622" 
d="M394 510q99 0 144 -66.5t23 -164.5l-65 -279h-104l65 283q14 62 -13 98.5t-85 36.5q-65 0 -110 -45.5t-67 -131.5l-56 -241h-104l166 720h105l-67 -288q66 78 168 78z" />
    <glyph glyph-name="i" unicode="i" horiz-adv-x="280" 
d="M232 710q28 0 47 -19t19 -46q0 -28 -18.5 -46t-47.5 -18t-47.5 18t-18.5 46q0 27 18.5 46t47.5 19zM135 0h-104l114 496h104z" />
    <glyph glyph-name="j" unicode="j" horiz-adv-x="291" 
d="M243 710q28 0 47 -19t19 -46q0 -28 -18.5 -46t-47.5 -18t-47.5 18t-18.5 46q0 27 18.5 46t47.5 19zM264 496l-127 -552q-14 -60 -60 -97t-107 -37q-47 0 -87 18l41 91q24 -11 44 -11q25 0 44 14t24 36l123 538h105z" />
    <glyph glyph-name="k" unicode="k" horiz-adv-x="600" 
d="M306 257l234 -257h-127l-185 206h-53l-47 -206h-104l166 720h104l-95 -411h28l250 187h142z" />
    <glyph glyph-name="l" unicode="l" horiz-adv-x="263" 
d="M126 0h-105l167 720h104z" />
    <glyph glyph-name="m" unicode="m" horiz-adv-x="947" 
d="M745 510q85 0 130.5 -54t25.5 -140l-73 -316h-103l68 295q12 53 -12.5 86t-72.5 33q-61 0 -105 -40.5t-64 -118.5l-59 -255h-104l68 295q13 53 -11.5 86t-72.5 33q-59 0 -101.5 -38t-63.5 -112l-61 -264h-104l114 496h104l-14 -59q62 73 163 73q59 0 101 -26t56 -72
q70 98 191 98z" />
    <glyph glyph-name="n" unicode="n" horiz-adv-x="624" 
d="M395 510q100 0 145 -66.5t23 -164.5l-65 -279h-104l65 283q14 62 -13 98.5t-85 36.5q-67 0 -113 -48.5t-67 -140.5l-53 -229h-105l115 496h104l-15 -65q65 79 168 79z" />
    <glyph glyph-name="o" unicode="o" horiz-adv-x="605" 
d="M335 507q113 0 182 -73.5t51 -186.5q-17 -114 -101.5 -186.5t-195.5 -72.5q-114 0 -183 73t-52 186q18 114 103 187t196 73zM277 78q66 0 122 47t68 122t-29.5 123t-107.5 48q-68 0 -124 -48t-68 -123t29.5 -122t109.5 -47z" />
    <glyph glyph-name="p" unicode="p" horiz-adv-x="647" 
d="M407 510q100 0 161 -74t43 -189q-19 -116 -100 -188.5t-187 -72.5q-132 0 -178 99l-59 -255h-105l155 666h104l-12 -52q72 66 178 66zM321 78q71 0 123.5 46.5t65.5 122.5q13 77 -25.5 124t-108.5 47q-65 0 -122 -47.5t-69 -123.5q-12 -75 29.5 -122t106.5 -47z" />
    <glyph glyph-name="q" unicode="q" horiz-adv-x="647" 
d="M625 496l-153 -666h-105l52 221q-75 -65 -179 -65q-100 0 -161 74t-43 189q19 116 100 188.5t187 72.5q133 0 179 -99l19 85h104zM272 78q65 0 121.5 47.5t68.5 123.5q12 75 -29 122t-106 47q-71 0 -124 -46.5t-65 -122.5q-13 -77 25.5 -124t108.5 -47z" />
    <glyph glyph-name="r" unicode="r" horiz-adv-x="415" 
d="M426 502q22 0 33 -4l-28 -100q-8 1 -28 1q-91 0 -151.5 -59.5t-84.5 -164.5l-41 -175h-104l114 496h105l-20 -88q92 94 205 94z" />
    <glyph glyph-name="s" unicode="s" horiz-adv-x="505" 
d="M9 125l103 30q7 -41 43 -64t82 -23t75 20t29 50q0 35 -57 55l-92 30q-111 34 -111 128q0 70 54.5 114.5t145.5 44.5q83 0 140 -38t69 -97l-90 -28q-5 36 -37.5 58t-81.5 22q-48 0 -72.5 -19t-24.5 -48q0 -19 15 -32.5t50 -25.5l63 -20q65 -22 98 -54t33 -84
q0 -73 -60.5 -115.5t-152.5 -42.5q-82 0 -144 36.5t-77 102.5z" />
    <glyph glyph-name="t" unicode="t" horiz-adv-x="403" 
d="M237 410l-54 -234q-21 -92 50 -92q43 0 94 27l7 -91q-62 -34 -125 -34q-79 0 -115.5 46.5t-15.5 136.5l55 241h-95l20 86h95l35 154h105l-36 -154h170l-19 -86h-171z" />
    <glyph glyph-name="u" unicode="u" horiz-adv-x="624" 
d="M601 496l-115 -496h-104l15 65q-65 -79 -168 -79q-100 0 -145 67t-22 165l64 278h104l-65 -283q-13 -61 14 -98t84 -37q65 0 110.5 46t67.5 133l56 239h104z" />
    <glyph glyph-name="v" unicode="v" horiz-adv-x="571" 
d="M610 496l-330 -496h-110l-98 496h107l71 -371l242 371h118z" />
    <glyph glyph-name="w" unicode="w" horiz-adv-x="790" 
d="M829 496l-282 -498h-98l-38 334l-193 -334h-94l-52 498h99l36 -345l198 345h82l39 -346l196 346h107z" />
    <glyph glyph-name="x" unicode="x" horiz-adv-x="596" 
d="M363 242l136 -242h-119l-90 171l-171 -171h-139l250 244l-128 252h118l84 -178l172 178h140l-252 -253z" />
    <glyph glyph-name="y" unicode="y" horiz-adv-x="572" 
d="M611 496l-443 -666h-119l122 182l-99 484h109l72 -362l243 362h115z" />
    <glyph glyph-name="z" unicode="z" horiz-adv-x="515" 
d="M505 426l-361 -340h294l-20 -86h-435l16 69l359 341h-272l20 86h415z" />
    <glyph glyph-name="braceleft" unicode="{" horiz-adv-x="428" 
d="M494 741l-21 -88h-94q-21 0 -37.5 -14t-20.5 -36l-38 -165q-20 -83 -95 -109q61 -29 44 -109l-38 -165q-5 -22 5 -35.5t31 -13.5h94l-20 -88h-107q-61 0 -90 34.5t-16 92.5l37 163q14 58 -60 74l-26 8l19 78l28 8q82 17 95 74l38 163q13 58 58.5 93t106.5 35h107z" />
    <glyph glyph-name="bar" unicode="|" horiz-adv-x="259" 
d="M106 -72h-101l188 813h101z" />
    <glyph glyph-name="braceright" unicode="}" horiz-adv-x="442" 
d="M423 369l-18 -78l-28 -8q-82 -17 -95 -74l-38 -163q-13 -58 -58.5 -93t-106.5 -35h-107l20 88h95q21 0 37.5 14t20.5 36l38 165q20 83 95 109q-29 14 -41 42.5t-3 66.5l37 165q6 22 -4 35.5t-32 13.5h-94l21 88h107q61 0 90 -35t16 -92l-38 -163q-13 -59 61 -74z" />
    <glyph glyph-name="asciitilde" unicode="~" horiz-adv-x="488" 
d="M126 234h-82q18 73 61.5 106t89.5 33q32 0 55.5 -13t41 -26t36.5 -13q21 0 36 14.5t20 38.5h88q-17 -75 -63 -109t-93 -34q-42 0 -77 26t-54 26q-23 0 -39 -13.5t-20 -35.5z" />
    <glyph glyph-name="exclamdown" unicode="&#xa1;" horiz-adv-x="282" 
d="M187 381q-28 0 -47 19t-19 45q0 27 19 45t47 18t46.5 -18t18.5 -45q0 -26 -18.5 -45t-46.5 -19zM-8 -166l7 31l103 431h107l-96 -431l-7 -31h-114z" />
    <glyph glyph-name="cent" unicode="&#xa2;" horiz-adv-x="578" 
d="M367 409l-76 -326q95 10 136 98l99 -18q-31 -78 -100 -126.5t-152 -50.5l-28 -116h-88l30 126q-81 23 -124 91t-28 161q17 105 94 176.5t176 83.5l28 122h88l-28 -126q65 -14 108.5 -58.5t51.5 -109.5l-107 -21q-6 74 -80 94zM137 248q-8 -56 12.5 -96.5t63.5 -58.5
l74 317q-58 -12 -99 -56t-51 -106z" />
    <glyph glyph-name="sterling" unicode="&#xa3;" horiz-adv-x="640" 
d="M645 455l-98 -12q11 66 -15.5 106t-81.5 40q-60 0 -104 -38.5t-58 -96.5l-24 -102h202l-22 -97h-202l-37 -158h358l-22 -97h-550l15 66l90 20l38 169h-84l22 97h85l23 102q24 104 98.5 167t177.5 63q102 0 154.5 -63.5t34.5 -165.5z" />
    <glyph glyph-name="yen" unicode="&#xa5;" horiz-adv-x="678" 
d="M452 326h144l-19 -80h-187l-14 -63h186l-18 -80h-186l-24 -103h-107l24 103h-182l18 80h182l14 63h-181l18 80h139l-137 344h111l120 -316l266 316h132z" />
    <glyph glyph-name="section" unicode="&#xa7;" horiz-adv-x="543" 
d="M538 514l-100 -15q6 45 -15.5 72.5t-67.5 27.5t-75 -24.5t-29 -61.5q0 -38 47 -61l124 -59q92 -42 92 -129q0 -110 -119 -165q13 -25 13 -59q0 -80 -58.5 -131t-154.5 -51q-89 0 -139.5 44.5t-45.5 121.5l99 21q-5 -48 18.5 -75.5t72.5 -27.5q46 0 73.5 25.5t27.5 60.5
q0 38 -45 62l-125 59q-43 20 -67.5 56.5t-24.5 79.5q0 103 121 153q-15 27 -15 62q0 81 62.5 132.5t157.5 51.5q90 0 134 -47t39 -123zM234 375l-12 6q-35 -12 -58.5 -33.5t-23.5 -52.5q0 -37 54 -65l126 -63l14 -8q79 38 79 92q0 41 -52 66z" />
    <glyph glyph-name="dieresis" unicode="&#xa8;" horiz-adv-x="600" 
d="M253 699q28 0 47 -19.5t19 -45.5q0 -28 -18.5 -46t-47.5 -18q-28 0 -46.5 18t-18.5 46q0 26 18.5 45.5t46.5 19.5zM460 699q28 0 47 -19.5t19 -45.5q0 -28 -18.5 -46t-47.5 -18q-28 0 -46.5 18t-18.5 46q0 26 18.5 45.5t46.5 19.5z" />
    <glyph glyph-name="copyright" unicode="&#xa9;" horiz-adv-x="766" 
d="M408 684q145 0 247 -100t102 -251q0 -149 -102 -248t-247 -99t-247 99t-102 248q0 151 102 251t247 100zM408 637q-124 0 -210.5 -86.5t-86.5 -216.5q0 -129 86.5 -214.5t210.5 -85.5q123 0 210 85.5t87 214.5q0 130 -87 216.5t-210 86.5zM413 522q73 0 122 -38.5
t58 -96.5l-70 -15q-10 38 -40 60t-70 22q-51 0 -83.5 -33.5t-32.5 -86.5q0 -52 33 -86t83 -34q41 0 71.5 23t37.5 64l71 -12q-8 -63 -57.5 -103t-122.5 -40q-78 0 -134 52.5t-56 135.5t56 135.5t134 52.5z" />
    <glyph glyph-name="ordfeminine" unicode="&#xaa;" horiz-adv-x="390" 
d="M299 673q63 0 97 -33t18 -97l-47 -202h-77l5 21q-43 -29 -99 -29q-51 0 -80 23t-29 64q0 51 45 83.5t116 32.5h88l3 11q7 31 -7 48t-45 17q-56 0 -82 -56l-66 15q45 102 160 102zM321 472l3 12h-79q-35 0 -57 -15t-22 -40q0 -18 13 -28.5t36 -10.5q38 0 67.5 24t38.5 58z
" />
    <glyph glyph-name="guillemotleft" unicode="&#xab;" horiz-adv-x="443" 
d="M29 262l158 178h104l-165 -183l75 -173h-96zM201 262l158 178h105l-166 -183l76 -173h-97z" />
    <glyph glyph-name="registered" unicode="&#xae;" horiz-adv-x="470" 
d="M292 684q84 0 142 -57t58 -144q0 -86 -58 -143t-142 -57t-142 57t-58 143q0 87 58 144t142 57zM292 316q69 0 117 48t48 119q0 72 -48 120t-117 48t-117 -48t-48 -120q0 -71 48 -119t117 -48zM378 522q0 -49 -51 -61l61 -66h-41l-59 64h-34v-64h-34v187h85q33 0 53 -16.5
t20 -43.5zM254 490h51q18 0 28.5 8.5t10.5 22.5q0 30 -39 30h-51v-61z" />
    <glyph glyph-name="macron" unicode="&#xaf;" horiz-adv-x="600" 
d="M495 578h-301l19 85h301z" />
    <glyph glyph-name="degree" unicode="&#xb0;" horiz-adv-x="412" 
d="M281 684q56 0 94.5 -35.5t38.5 -93.5q0 -66 -46.5 -108.5t-110.5 -42.5q-57 0 -95 35.5t-38 92.5q0 67 46.5 109.5t110.5 42.5zM262 471q31 0 54.5 22t23.5 58q0 30 -19 48.5t-45 18.5q-31 0 -55 -22t-24 -58q0 -30 19 -48.5t46 -18.5z" />
    <glyph glyph-name="plusminus" unicode="&#xb1;" horiz-adv-x="582" 
d="M556 420l-21 -91h-179l-37 -157h-92l36 157h-178l21 91h178l40 172h93l-40 -172h179zM30 91h450l-22 -91h-450z" />
    <glyph glyph-name="acute" unicode="&#xb4;" horiz-adv-x="600" 
d="M394 567h-96l106 142h130z" />
    <glyph glyph-name="paragraph" unicode="&#xb6;" horiz-adv-x="582" 
d="M306 0h-80l69 299h-50q-77 0 -124 41t-47 110q0 101 67.5 160.5t174.5 59.5h145zM446 0h-80l154 670h81z" />
    <glyph glyph-name="periodcentered" unicode="&#xb7;" horiz-adv-x="225" 
d="M115 324q28 0 47 -18.5t19 -44.5q0 -27 -19 -45t-47 -18t-46.5 18t-18.5 45q0 26 18.5 44.5t46.5 18.5z" />
    <glyph glyph-name="cedilla" unicode="&#xb8;" horiz-adv-x="600" 
d="M224 0h79l-102 -165h-121z" />
    <glyph glyph-name="ordmasculine" unicode="&#xba;" horiz-adv-x="436" 
d="M288 673q70 0 117 -44t47 -114q0 -79 -55.5 -130.5t-133.5 -51.5q-68 0 -115.5 44.5t-47.5 114.5q0 78 56 129.5t132 51.5zM268 403q43 0 75 31t32 76q0 40 -26.5 66.5t-64.5 26.5q-41 0 -73 -31t-32 -76q0 -39 26.5 -66t62.5 -27z" />
    <glyph glyph-name="guillemotright" unicode="&#xbb;" horiz-adv-x="443" 
d="M249 262l-158 -178h-104l165 183l-75 173h96zM422 262l-158 -178h-105l166 183l-76 173h97z" />
    <glyph glyph-name="onequarter" unicode="&#xbc;" horiz-adv-x="735" 
d="M739 670l-650 -670h-72l650 670h72zM179 573l-98 -46l18 79l129 64h50l-86 -375h-77zM642 139h57l-13 -63h-59l-17 -77h-72l18 77h-210l16 70l244 228h89zM570 139l35 154l-167 -154h132z" />
    <glyph glyph-name="onehalf" unicode="&#xbd;" horiz-adv-x="791" 
d="M734 670l-650 -670h-72l650 670h72zM179 573l-98 -46l18 79l129 64h50l-86 -375h-77zM565 67h150l-13 -67h-279l13 51l161 118q45 34 64.5 55.5t19.5 44.5t-15 36.5t-40 13.5q-32 0 -52 -21t-24 -57l-68 11q3 59 45.5 95t103.5 36q56 0 88 -31t32 -80q0 -41 -25.5 -72
t-87.5 -78z" />
    <glyph glyph-name="threequarters" unicode="&#xbe;" horiz-adv-x="837" 
d="M358 414q-2 -55 -45.5 -90t-110.5 -35q-63 0 -100.5 34.5t-35.5 91.5l67 14q-1 -36 20 -57t56 -21q34 0 56 17.5t22 44.5q0 50 -62 50h-42l14 55h40q34 0 58 14.5t24 41.5q1 23 -14.5 37t-44.5 14q-31 0 -54 -22t-29 -57l-64 14q8 55 50.5 90t103.5 35q57 0 91 -29
t32 -75q-1 -68 -74 -93q44 -22 42 -74zM833 670l-650 -670h-72l650 670h72zM744 139h57l-13 -63h-59l-17 -77h-72l18 77h-210l16 70l244 228h89zM672 139l35 154l-167 -154h132z" />
    <glyph glyph-name="questiondown" unicode="&#xbf;" horiz-adv-x="527" 
d="M315 381q-28 0 -46.5 19t-18.5 45q0 27 18.5 45t46.5 18t47 -18t19 -45q0 -26 -19 -45t-47 -19zM351 50l97 -20q-13 -89 -84.5 -149t-174.5 -60q-94 0 -153.5 51.5t-59.5 134.5q0 92 71.5 152t174.5 67l15 65h97l-35 -147h-60q-57 0 -109.5 -35t-52.5 -93q0 -47 33 -75
t85 -28q60 0 102 38t54 99z" />
    <glyph glyph-name="Agrave" unicode="&#xc0;" horiz-adv-x="707" 
d="M426 741l-140 142h130l106 -142h-96zM645 0h-110l-30 156h-325l-102 -156h-123l450 670h100zM486 254l-55 285l-187 -285h242z" />
    <glyph glyph-name="Aacute" unicode="&#xc1;" horiz-adv-x="707" 
d="M524 741h-96l106 142h130zM505 670l140 -670h-110l-30 156h-325l-102 -156h-123l450 670h100zM486 254l-55 285l-187 -285h242z" />
    <glyph glyph-name="Acircumflex" unicode="&#xc2;" horiz-adv-x="707" 
d="M435 733h-110l149 145h99l82 -145h-99l-42 77zM505 670l140 -670h-110l-30 156h-325l-102 -156h-123l450 670h100zM486 254l-55 285l-187 -285h242z" />
    <glyph glyph-name="Atilde" unicode="&#xc3;" horiz-adv-x="707" 
d="M432 803q-15 0 -26 -11t-15 -29h-71q14 61 49.5 88.5t74.5 27.5q34 0 63 -21.5t49 -21.5q15 0 26 12t16 31h71q-15 -63 -50 -90.5t-75 -27.5q-34 0 -63 21t-49 21zM505 670l140 -670h-110l-30 156h-325l-102 -156h-123l450 670h100zM486 254l-55 285l-187 -285h242z" />
    <glyph glyph-name="Adieresis" unicode="&#xc4;" horiz-adv-x="707" 
d="M383 744q-28 0 -46.5 18t-18.5 46q0 26 18.5 45.5t46.5 19.5t47 -19.5t19 -45.5q0 -28 -18.5 -46t-47.5 -18zM590 744q-28 0 -46.5 18t-18.5 46q0 26 18.5 45.5t46.5 19.5t47 -19.5t19 -45.5q0 -28 -18.5 -46t-47.5 -18zM505 670l140 -670h-110l-30 156h-325l-102 -156
h-123l450 670h100zM486 254l-55 285l-187 -285h242z" />
    <glyph glyph-name="Aring" unicode="&#xc5;" horiz-adv-x="707" 
d="M481 721q-45 0 -74 29t-29 71q0 47 35.5 81t84.5 34q45 0 74 -29t29 -71q0 -48 -35.5 -81.5t-84.5 -33.5zM493 875q-21 0 -35.5 -14.5t-14.5 -35.5q0 -19 11.5 -31.5t31.5 -12.5q21 0 36.5 15.5t15.5 36.5q0 18 -12.5 30t-32.5 12zM645 0h-110l-30 156h-325l-102 -156
h-123l450 670h100zM486 254l-55 285l-187 -285h242z" />
    <glyph glyph-name="AE" unicode="&#xc6;" horiz-adv-x="1147" 
d="M772 573l-44 -189h361l-22 -96h-361l-44 -191h392l-22 -97h-500l32 139h-320l-146 -139h-143l719 670h510l-22 -97h-390zM587 236l68 295l-309 -295h241z" />
    <glyph glyph-name="Ccedilla" unicode="&#xc7;" horiz-adv-x="776" 
d="M383 86q79 0 141.5 40.5t91.5 103.5l98 -31q-38 -95 -122 -152.5t-202 -60.5l-93 -151h-121l137 157q-114 19 -180.5 101t-66.5 199q0 161 117.5 276.5t285.5 115.5q119 0 199.5 -61.5t93.5 -163.5l-111 -22q-12 67 -59 107t-125 40q-117 0 -204.5 -83.5t-87.5 -201.5
q0 -93 57 -153t151 -60z" />
    <glyph glyph-name="Egrave" unicode="&#xc8;" horiz-adv-x="636" 
d="M406 741l-140 142h130l106 -142h-96zM262 573l-44 -189h361l-22 -96h-361l-44 -191h392l-23 -97h-499l154 670h498l-22 -97h-390z" />
    <glyph glyph-name="Eacute" unicode="&#xc9;" horiz-adv-x="636" 
d="M504 741h-96l106 142h130zM262 573l-44 -189h361l-22 -96h-361l-44 -191h392l-23 -97h-499l154 670h498l-22 -97h-390z" />
    <glyph glyph-name="Ecircumflex" unicode="&#xca;" horiz-adv-x="636" 
d="M415 733h-110l149 145h99l82 -145h-99l-42 77zM262 573l-44 -189h361l-22 -96h-361l-44 -191h392l-23 -97h-499l154 670h498l-22 -97h-390z" />
    <glyph glyph-name="Edieresis" unicode="&#xcb;" horiz-adv-x="636" 
d="M363 744q-28 0 -46.5 18t-18.5 46q0 26 18.5 45.5t46.5 19.5t47 -19.5t19 -45.5q0 -28 -18.5 -46t-47.5 -18zM570 744q-28 0 -46.5 18t-18.5 46q0 26 18.5 45.5t46.5 19.5t47 -19.5t19 -45.5q0 -28 -18.5 -46t-47.5 -18zM262 573l-44 -189h361l-22 -96h-361l-44 -191h392
l-23 -97h-499l154 670h498l-22 -97h-390z" />
    <glyph glyph-name="Igrave" unicode="&#xcc;" horiz-adv-x="266" 
d="M191 883l106 -142h-96l-140 142h130zM130 0h-108l154 670h108z" />
    <glyph glyph-name="Iacute" unicode="&#xcd;" horiz-adv-x="266" 
d="M299 741h-96l106 142h130zM130 0h-108l154 670h108z" />
    <glyph glyph-name="Icircumflex" unicode="&#xce;" horiz-adv-x="266" 
d="M331 733l-42 77l-79 -77h-110l149 145h99l82 -145h-99zM176 670h108l-154 -670h-108z" />
    <glyph glyph-name="Idieresis" unicode="&#xcf;" horiz-adv-x="266" 
d="M158 873q28 0 47 -19.5t19 -45.5q0 -28 -18.5 -46t-47.5 -18q-28 0 -46.5 18t-18.5 46q0 26 18.5 45.5t46.5 19.5zM365 873q28 0 47 -19.5t19 -45.5q0 -28 -18.5 -46t-47.5 -18q-28 0 -46.5 18t-18.5 46q0 26 18.5 45.5t46.5 19.5zM130 0h-108l154 670h108z" />
    <glyph glyph-name="Eth" unicode="&#xd0;" horiz-adv-x="779" 
d="M216 670h234q143 0 223 -75.5t80 -201.5q0 -165 -128 -279t-320 -114h-244l67 288h-90l22 98h90zM191 97h102q145 0 247 84.5t102 209.5q0 85 -52.5 133.5t-151.5 48.5h-137l-43 -187h140l-22 -98h-141z" />
    <glyph glyph-name="Ntilde" unicode="&#xd1;" horiz-adv-x="761" 
d="M457 803q-15 0 -26 -11t-15 -29h-71q14 61 49.5 88.5t74.5 27.5q34 0 63 -21.5t49 -21.5q15 0 26 12t16 31h71q-15 -63 -50 -90.5t-75 -27.5q-34 0 -63 21t-49 21zM778 670l-154 -670h-91l-288 493l-114 -493h-107l154 670h91l285 -498l116 498h108z" />
    <glyph glyph-name="Ograve" unicode="&#xd2;" horiz-adv-x="796" 
d="M448 883l106 -142h-96l-140 142h130zM461 685q152 0 239.5 -102.5t66.5 -248.5q-22 -156 -132 -252.5t-260 -96.5q-151 0 -238.5 101t-66.5 249q21 146 135.5 248t255.5 102zM377 87q107 0 186.5 70t94.5 177q16 106 -42.5 178t-156.5 72q-107 0 -186.5 -71.5
t-95.5 -178.5q-15 -105 44.5 -176t155.5 -71z" />
    <glyph glyph-name="Oacute" unicode="&#xd3;" horiz-adv-x="796" 
d="M556 741h-96l106 142h130zM461 685q152 0 239.5 -102.5t66.5 -248.5q-22 -156 -132 -252.5t-260 -96.5q-151 0 -238.5 101t-66.5 249q21 146 135.5 248t255.5 102zM377 87q107 0 186.5 70t94.5 177q16 106 -42.5 178t-156.5 72q-107 0 -186.5 -71.5t-95.5 -178.5
q-15 -105 44.5 -176t155.5 -71z" />
    <glyph glyph-name="Ocircumflex" unicode="&#xd4;" horiz-adv-x="796" 
d="M467 733h-110l149 145h99l82 -145h-99l-42 77zM461 685q152 0 239.5 -102.5t66.5 -248.5q-22 -156 -132 -252.5t-260 -96.5q-151 0 -238.5 101t-66.5 249q21 146 135.5 248t255.5 102zM658 334q16 106 -42.5 178t-156.5 72q-107 0 -186.5 -71.5t-95.5 -178.5
q-15 -105 44.5 -176t155.5 -71q107 0 186.5 70t94.5 177z" />
    <glyph glyph-name="Otilde" unicode="&#xd5;" horiz-adv-x="796" 
d="M423 763h-71q14 61 49.5 88.5t74.5 27.5q34 0 63 -21.5t49 -21.5q15 0 26 12t16 31h71q-15 -63 -50 -90.5t-75 -27.5q-34 0 -63 21t-49 21q-15 0 -26 -11t-15 -29zM461 685q152 0 239.5 -102.5t66.5 -248.5q-22 -156 -132 -252.5t-260 -96.5q-151 0 -238.5 101t-66.5 249
q21 146 135.5 248t255.5 102zM377 87q107 0 186.5 70t94.5 177q16 106 -42.5 178t-156.5 72q-107 0 -186.5 -71.5t-95.5 -178.5q-15 -105 44.5 -176t155.5 -71z" />
    <glyph glyph-name="Odieresis" unicode="&#xd6;" horiz-adv-x="796" 
d="M415 873q28 0 47 -19.5t19 -45.5q0 -28 -18.5 -46t-47.5 -18q-28 0 -46.5 18t-18.5 46q0 26 18.5 45.5t46.5 19.5zM622 873q28 0 47 -19.5t19 -45.5q0 -28 -18.5 -46t-47.5 -18q-28 0 -46.5 18t-18.5 46q0 26 18.5 45.5t46.5 19.5zM461 685q152 0 239.5 -102.5
t66.5 -248.5q-22 -156 -132 -252.5t-260 -96.5q-151 0 -238.5 101t-66.5 249q21 146 135.5 248t255.5 102zM377 87q107 0 186.5 70t94.5 177q16 106 -42.5 178t-156.5 72q-107 0 -186.5 -71.5t-95.5 -178.5q-15 -105 44.5 -176t155.5 -71z" />
    <glyph glyph-name="multiply" unicode="&#xd7;" horiz-adv-x="545" 
d="M349 301l107 -136l-72 -59l-108 137l-176 -141l-51 68l174 140l-107 136l73 58l107 -136l177 142l51 -68z" />
    <glyph glyph-name="Oslash" unicode="&#xd8;" horiz-adv-x="796" 
d="M813 606l-82 -67q52 -92 36 -205q-22 -156 -132 -252.5t-260 -96.5q-135 0 -222 84l-98 -79l-57 70l101 82q-44 86 -29 193q21 146 135.5 248t255.5 102q127 0 214 -76l83 67zM177 334q-10 -63 11 -120l400 325q-55 45 -129 45q-107 0 -186.5 -71.5t-95.5 -178.5z
M658 334q11 71 -15 133l-404 -328q57 -52 138 -52q107 0 186.5 70t94.5 177z" />
    <glyph glyph-name="Ugrave" unicode="&#xd9;" horiz-adv-x="716" 
d="M423 741l-140 142h130l106 -142h-96zM742 670l-86 -374q-33 -144 -121.5 -227t-223.5 -83q-122 0 -190.5 87.5t-37.5 222.5l86 374h108l-86 -374q-22 -94 15 -150.5t119 -56.5q80 0 140.5 56.5t82.5 150.5l86 374h108z" />
    <glyph glyph-name="Uacute" unicode="&#xda;" horiz-adv-x="716" 
d="M521 741h-96l106 142h130zM742 670l-86 -374q-33 -144 -121.5 -227t-223.5 -83q-122 0 -190.5 87.5t-37.5 222.5l86 374h108l-86 -374q-22 -94 15 -150.5t119 -56.5q80 0 140.5 56.5t82.5 150.5l86 374h108z" />
    <glyph glyph-name="Ucircumflex" unicode="&#xdb;" horiz-adv-x="716" 
d="M432 733h-110l149 145h99l82 -145h-99l-42 77zM742 670l-86 -374q-33 -144 -121.5 -227t-223.5 -83q-122 0 -190.5 87.5t-37.5 222.5l86 374h108l-86 -374q-22 -94 15 -150.5t119 -56.5q80 0 140.5 56.5t82.5 150.5l86 374h108z" />
    <glyph glyph-name="Udieresis" unicode="&#xdc;" horiz-adv-x="716" 
d="M380 744q-28 0 -46.5 18t-18.5 46q0 26 18.5 45.5t46.5 19.5t47 -19.5t19 -45.5q0 -28 -18.5 -46t-47.5 -18zM587 744q-28 0 -46.5 18t-18.5 46q0 26 18.5 45.5t46.5 19.5t47 -19.5t19 -45.5q0 -28 -18.5 -46t-47.5 -18zM742 670l-86 -374q-33 -144 -121.5 -227
t-223.5 -83q-122 0 -190.5 87.5t-37.5 222.5l86 374h108l-86 -374q-22 -94 15 -150.5t119 -56.5q80 0 140.5 56.5t82.5 150.5l86 374h108z" />
    <glyph glyph-name="Yacute" unicode="&#xdd;" horiz-adv-x="682" 
d="M485 741h-96l106 142h130zM387 224l-52 -224h-108l52 223l-168 447h112l128 -336l283 336h131z" />
    <glyph glyph-name="Thorn" unicode="&#xde;" horiz-adv-x="643" 
d="M258 555h155q98 0 157 -49.5t59 -131.5q0 -111 -78.5 -185t-192.5 -74h-202l-26 -115h-108l154 670h108zM179 213h172q71 0 119.5 42.5t48.5 104.5q0 46 -28.5 72t-81.5 26h-174z" />
    <glyph glyph-name="germandbls" unicode="&#xdf;" horiz-adv-x="660" 
d="M510 378q107 -37 107 -153q0 -97 -70 -164.5t-195 -67.5q-72 0 -141 22l27 86q65 -20 117 -20q73 0 121.5 41t48.5 100q0 52 -39 81.5t-103 29.5h-50l20 86h26q64 0 112.5 35t48.5 88q0 47 -31.5 75.5t-84.5 28.5q-69 0 -117 -43.5t-66 -121.5l-110 -481h-105l109 481
q27 117 104 186.5t199 69.5q93 0 148.5 -49.5t55.5 -126.5q0 -59 -36 -109t-96 -74z" />
    <glyph glyph-name="agrave" unicode="&#xe0;" horiz-adv-x="647" 
d="M342 567l-140 142h130l106 -142h-96zM625 496l-115 -496h-104l12 51q-71 -65 -177 -65q-100 0 -161 74t-43 189q18 116 99 188.5t187 72.5q132 0 179 -98l19 84h104zM272 78q65 0 122 47.5t69 123.5t-29.5 122.5t-106.5 46.5q-71 0 -123.5 -46.5t-65.5 -122.5
q-13 -77 25.5 -124t108.5 -47z" />
    <glyph glyph-name="aacute" unicode="&#xe1;" horiz-adv-x="647" 
d="M440 567h-96l106 142h130zM625 496l-115 -496h-104l12 51q-71 -65 -177 -65q-100 0 -161 74t-43 189q18 116 99 188.5t187 72.5q132 0 179 -98l19 84h104zM272 78q65 0 122 47.5t69 123.5t-29.5 122.5t-106.5 46.5q-71 0 -123.5 -46.5t-65.5 -122.5q-13 -77 25.5 -124
t108.5 -47z" />
    <glyph glyph-name="acircumflex" unicode="&#xe2;" horiz-adv-x="647" 
d="M351 559h-110l149 145h99l82 -145h-99l-42 77zM625 496l-115 -496h-104l12 51q-71 -65 -177 -65q-100 0 -161 74t-43 189q18 116 99 188.5t187 72.5q132 0 179 -98l19 84h104zM272 78q65 0 122 47.5t69 123.5t-29.5 122.5t-106.5 46.5q-71 0 -123.5 -46.5t-65.5 -122.5
q-13 -77 25.5 -124t108.5 -47z" />
    <glyph glyph-name="atilde" unicode="&#xe3;" horiz-adv-x="647" 
d="M348 629q-15 0 -26 -11t-15 -29h-71q14 61 49.5 88.5t74.5 27.5q34 0 63 -21.5t49 -21.5q15 0 26 12t16 31h71q-15 -63 -50 -90.5t-75 -27.5q-34 0 -63 21t-49 21zM625 496l-115 -496h-104l12 51q-71 -65 -177 -65q-100 0 -161 74t-43 189q18 116 99 188.5t187 72.5
q132 0 179 -98l19 84h104zM272 78q65 0 122 47.5t69 123.5t-29.5 122.5t-106.5 46.5q-71 0 -123.5 -46.5t-65.5 -122.5q-13 -77 25.5 -124t108.5 -47z" />
    <glyph glyph-name="adieresis" unicode="&#xe4;" horiz-adv-x="647" 
d="M299 570q-28 0 -46.5 18t-18.5 46q0 26 18.5 45.5t46.5 19.5t47 -19.5t19 -45.5q0 -28 -18.5 -46t-47.5 -18zM506 570q-28 0 -46.5 18t-18.5 46q0 26 18.5 45.5t46.5 19.5t47 -19.5t19 -45.5q0 -28 -18.5 -46t-47.5 -18zM625 496l-115 -496h-104l12 51q-71 -65 -177 -65
q-100 0 -161 74t-43 189q18 116 99 188.5t187 72.5q132 0 179 -98l19 84h104zM272 78q65 0 122 47.5t69 123.5t-29.5 122.5t-106.5 46.5q-71 0 -123.5 -46.5t-65.5 -122.5q-13 -77 25.5 -124t108.5 -47z" />
    <glyph glyph-name="aring" unicode="&#xe5;" horiz-adv-x="647" 
d="M397 547q-45 0 -74 29t-29 71q0 47 35.5 81t84.5 34q45 0 74 -29t29 -71q0 -48 -35.5 -81.5t-84.5 -33.5zM409 701q-21 0 -35.5 -14.5t-14.5 -35.5q0 -19 11.5 -31.5t31.5 -12.5q21 0 36.5 15.5t15.5 36.5q0 18 -12.5 30t-32.5 12zM625 496l-115 -496h-104l12 51
q-71 -65 -177 -65q-100 0 -161 74t-43 189q18 116 99 188.5t187 72.5q132 0 179 -98l19 84h104zM272 78q65 0 122 47.5t69 123.5t-29.5 122.5t-106.5 46.5q-71 0 -123.5 -46.5t-65.5 -122.5q-13 -77 25.5 -124t108.5 -47z" />
    <glyph glyph-name="ae" unicode="&#xe6;" horiz-adv-x="912" 
d="M670 510q103 0 162 -73t42 -188l-6 -36h-391q-1 -65 33.5 -101t95.5 -36q38 0 79.5 20.5t68.5 64.5l90 -20q-31 -69 -101 -112t-151 -43q-125 0 -176 100q-39 -44 -100 -72t-129 -28q-83 0 -128.5 37.5t-45.5 100.5q0 73 56.5 118.5t152.5 45.5h170l5 30q7 47 -19.5 75.5
t-76.5 28.5q-48 0 -83.5 -24t-48.5 -65l-92 21q20 69 85 112.5t154 43.5q118 0 161 -79q84 79 193 79zM487 288h287q1 64 -30.5 98.5t-84.5 34.5q-57 0 -105 -35t-67 -98zM381 213h-163q-50 0 -79.5 -21t-29.5 -56q0 -30 24.5 -48t66.5 -18q61 0 115.5 39t63.5 93z" />
    <glyph glyph-name="ccedilla" unicode="&#xe7;" horiz-adv-x="571" 
d="M268 82q50 0 91 26t63 73l99 -18q-30 -73 -92.5 -120.5t-140.5 -55.5l-94 -152h-121l136 155q-94 17 -144 87t-34 171q18 114 106 188t197 74q85 0 145 -47.5t70 -126.5l-107 -21q-4 47 -38 73t-84 26q-70 0 -123 -46.5t-65 -119.5q-11 -74 27.5 -120t108.5 -46z" />
    <glyph glyph-name="egrave" unicode="&#xe8;" horiz-adv-x="580" 
d="M306 567l-140 142h130l106 -142h-96zM131 223v-7q0 -66 36 -103t103 -37q97 0 152 90l92 -24q-36 -75 -103 -115.5t-148 -40.5q-103 0 -165.5 61.5t-62.5 164.5q0 127 89 212.5t205 85.5q110 0 170.5 -79.5t39.5 -207.5h-408zM321 422q-62 0 -108 -35t-67 -90h304
q-3 60 -37 92.5t-92 32.5z" />
    <glyph glyph-name="eacute" unicode="&#xe9;" horiz-adv-x="580" 
d="M404 567h-96l106 142h130zM131 223v-7q0 -66 36 -103t103 -37q97 0 152 90l92 -24q-36 -75 -103 -115.5t-148 -40.5q-103 0 -165.5 61.5t-62.5 164.5q0 127 89 212.5t205 85.5q110 0 170.5 -79.5t39.5 -207.5h-408zM321 422q-62 0 -108 -35t-67 -90h304q-3 60 -37 92.5
t-92 32.5z" />
    <glyph glyph-name="ecircumflex" unicode="&#xea;" horiz-adv-x="580" 
d="M315 559h-110l149 145h99l82 -145h-99l-42 77zM131 223v-7q0 -66 36 -103t103 -37q97 0 152 90l92 -24q-36 -75 -103 -115.5t-148 -40.5q-103 0 -165.5 61.5t-62.5 164.5q0 127 89 212.5t205 85.5q110 0 170.5 -79.5t39.5 -207.5h-408zM321 422q-62 0 -108 -35t-67 -90
h304q-3 60 -37 92.5t-92 32.5z" />
    <glyph glyph-name="edieresis" unicode="&#xeb;" horiz-adv-x="580" 
d="M263 570q-28 0 -46.5 18t-18.5 46q0 26 18.5 45.5t46.5 19.5t47 -19.5t19 -45.5q0 -28 -18.5 -46t-47.5 -18zM470 570q-28 0 -46.5 18t-18.5 46q0 26 18.5 45.5t46.5 19.5t47 -19.5t19 -45.5q0 -28 -18.5 -46t-47.5 -18zM131 223v-7q0 -66 36 -103t103 -37q97 0 152 90
l92 -24q-36 -75 -103 -115.5t-148 -40.5q-103 0 -165.5 61.5t-62.5 164.5q0 127 89 212.5t205 85.5q110 0 170.5 -79.5t39.5 -207.5h-408zM321 422q-62 0 -108 -35t-67 -90h304q-3 60 -37 92.5t-92 32.5z" />
    <glyph glyph-name="igrave" unicode="&#xec;" horiz-adv-x="287" 
d="M162 709l106 -142h-96l-140 142h130zM138 0h-104l115 496h104z" />
    <glyph glyph-name="iacute" unicode="&#xed;" horiz-adv-x="287" 
d="M270 567h-96l106 142h130zM138 0h-104l115 496h104z" />
    <glyph glyph-name="icircumflex" unicode="&#xee;" horiz-adv-x="287" 
d="M302 559l-42 77l-79 -77h-110l149 145h99l82 -145h-99zM149 496h104l-115 -496h-104z" />
    <glyph glyph-name="idieresis" unicode="&#xef;" horiz-adv-x="287" 
d="M129 699q28 0 47 -19.5t19 -45.5q0 -28 -18.5 -46t-47.5 -18q-28 0 -46.5 18t-18.5 46q0 26 18.5 45.5t46.5 19.5zM336 699q28 0 47 -19.5t19 -45.5q0 -28 -18.5 -46t-47.5 -18q-28 0 -46.5 18t-18.5 46q0 26 18.5 45.5t46.5 19.5zM138 0h-104l115 496h104z" />
    <glyph glyph-name="eth" unicode="&#xf0;" 
d="M526 647l-76 -30q57 -67 92 -150t35 -171q0 -97 -45.5 -169.5t-112.5 -106.5t-143 -34q-104 0 -172.5 62.5t-68.5 167.5q0 124 89 209t201 85q54 0 95 -23q-30 54 -67 92l-145 -57l-19 72l98 39q-52 36 -128 66l3 21h166q34 -20 64 -45l116 46zM282 81q83 0 136 61
t53 134q0 61 -40 101.5t-102 40.5q-75 0 -133 -56t-58 -137q0 -66 40.5 -105t103.5 -39z" />
    <glyph glyph-name="ntilde" unicode="&#xf1;" horiz-adv-x="624" 
d="M354 629q-15 0 -26 -11t-15 -29h-71q14 61 49.5 88.5t74.5 27.5q34 0 63 -21.5t49 -21.5q15 0 26 12t16 31h71q-15 -63 -50 -90.5t-75 -27.5q-34 0 -63 21t-49 21zM395 510q100 0 145 -66.5t23 -164.5l-65 -279h-104l65 283q14 62 -13 98.5t-85 36.5q-67 0 -113 -48.5
t-67 -140.5l-53 -229h-105l115 496h104l-15 -65q65 79 168 79z" />
    <glyph glyph-name="ograve" unicode="&#xf2;" horiz-adv-x="605" 
d="M321 567l-140 142h130l106 -142h-96zM335 507q113 0 182 -73.5t51 -186.5q-17 -114 -101.5 -186.5t-195.5 -72.5q-114 0 -183 73t-52 186q18 114 103 187t196 73zM277 78q66 0 122 47t68 122t-29.5 123t-107.5 48q-68 0 -124 -48t-68 -123t29.5 -122t109.5 -47z" />
    <glyph glyph-name="oacute" unicode="&#xf3;" horiz-adv-x="605" 
d="M419 567h-96l106 142h130zM335 507q113 0 182 -73.5t51 -186.5q-17 -114 -101.5 -186.5t-195.5 -72.5q-114 0 -183 73t-52 186q18 114 103 187t196 73zM277 78q66 0 122 47t68 122t-29.5 123t-107.5 48q-68 0 -124 -48t-68 -123t29.5 -122t109.5 -47z" />
    <glyph glyph-name="ocircumflex" unicode="&#xf4;" horiz-adv-x="605" 
d="M330 559h-110l149 145h99l82 -145h-99l-42 77zM335 507q113 0 182 -73.5t51 -186.5q-17 -114 -101.5 -186.5t-195.5 -72.5q-114 0 -183 73t-52 186q18 114 103 187t196 73zM277 78q66 0 122 47t68 122t-29.5 123t-107.5 48q-68 0 -124 -48t-68 -123t29.5 -122t109.5 -47z
" />
    <glyph glyph-name="otilde" unicode="&#xf5;" horiz-adv-x="605" 
d="M327 629q-15 0 -26 -11t-15 -29h-71q14 61 49.5 88.5t74.5 27.5q34 0 63 -21.5t49 -21.5q15 0 26 12t16 31h71q-15 -63 -50 -90.5t-75 -27.5q-34 0 -63 21t-49 21zM335 507q113 0 182 -73.5t51 -186.5q-17 -114 -101.5 -186.5t-195.5 -72.5q-114 0 -183 73t-52 186
q18 114 103 187t196 73zM277 78q66 0 122 47t68 122t-29.5 123t-107.5 48q-68 0 -124 -48t-68 -123t29.5 -122t109.5 -47z" />
    <glyph glyph-name="odieresis" unicode="&#xf6;" horiz-adv-x="605" 
d="M278 570q-28 0 -46.5 18t-18.5 46q0 26 18.5 45.5t46.5 19.5t47 -19.5t19 -45.5q0 -28 -18.5 -46t-47.5 -18zM485 570q-28 0 -46.5 18t-18.5 46q0 26 18.5 45.5t46.5 19.5t47 -19.5t19 -45.5q0 -28 -18.5 -46t-47.5 -18zM335 507q113 0 182 -73.5t51 -186.5
q-17 -114 -101.5 -186.5t-195.5 -72.5q-114 0 -183 73t-52 186q18 114 103 187t196 73zM277 78q66 0 122 47t68 122t-29.5 123t-107.5 48q-68 0 -124 -48t-68 -123t29.5 -122t109.5 -47z" />
    <glyph glyph-name="divide" unicode="&#xf7;" horiz-adv-x="581" 
d="M334 546q28 0 46.5 -19t18.5 -45q0 -27 -18.5 -45t-46.5 -18t-47 18.5t-19 44.5t19 45t47 19zM518 259h-450l22 92h450zM252 192q28 0 46.5 -19t18.5 -45q0 -27 -18.5 -45t-46.5 -18t-47 18t-19 45q0 26 19 45t47 19z" />
    <glyph glyph-name="oslash" unicode="&#xf8;" horiz-adv-x="603" 
d="M617 459l-72 -58q40 -68 27 -154q-18 -114 -102.5 -186.5t-194.5 -72.5q-99 0 -167 57l-74 -60l-40 52l72 58q-39 66 -26 152q18 114 103 187t196 73q97 0 164 -57l75 61zM141 247q-7 -47 8 -84l275 223q-37 32 -90 32q-68 0 -124.5 -48t-68.5 -123zM471 247q7 46 -8 87
l-276 -224q38 -32 93 -32q67 0 123 47t68 122z" />
    <glyph glyph-name="ugrave" unicode="&#xf9;" horiz-adv-x="624" 
d="M320 567l-140 142h130l106 -142h-96zM601 496l-115 -496h-104l15 65q-65 -79 -168 -79q-100 0 -145 67t-22 165l64 278h104l-65 -283q-13 -61 14 -98t84 -37q65 0 110.5 46t67.5 133l56 239h104z" />
    <glyph glyph-name="uacute" unicode="&#xfa;" horiz-adv-x="624" 
d="M418 567h-96l106 142h130zM601 496l-115 -496h-104l15 65q-65 -79 -168 -79q-100 0 -145 67t-22 165l64 278h104l-65 -283q-13 -61 14 -98t84 -37q65 0 110.5 46t67.5 133l56 239h104z" />
    <glyph glyph-name="ucircumflex" unicode="&#xfb;" horiz-adv-x="624" 
d="M329 559h-110l149 145h99l82 -145h-99l-42 77zM601 496l-115 -496h-104l15 65q-65 -79 -168 -79q-100 0 -145 67t-22 165l64 278h104l-65 -283q-13 -61 14 -98t84 -37q65 0 110.5 46t67.5 133l56 239h104z" />
    <glyph glyph-name="udieresis" unicode="&#xfc;" horiz-adv-x="624" 
d="M277 570q-28 0 -46.5 18t-18.5 46q0 26 18.5 45.5t46.5 19.5t47 -19.5t19 -45.5q0 -28 -18.5 -46t-47.5 -18zM484 570q-28 0 -46.5 18t-18.5 46q0 26 18.5 45.5t46.5 19.5t47 -19.5t19 -45.5q0 -28 -18.5 -46t-47.5 -18zM601 496l-115 -496h-104l15 65q-65 -79 -168 -79
q-100 0 -145 67t-22 165l64 278h104l-65 -283q-13 -61 14 -98t84 -37q65 0 110.5 46t67.5 133l56 239h104z" />
    <glyph glyph-name="yacute" unicode="&#xfd;" horiz-adv-x="572" 
d="M406 568h-96l106 142h130zM611 496l-443 -666h-119l122 182l-99 484h109l72 -362l243 362h115z" />
    <glyph glyph-name="thorn" unicode="&#xfe;" horiz-adv-x="648" 
d="M408 510q100 0 161 -74t43 -189q-19 -116 -100 -188.5t-187 -72.5q-133 0 -179 99l-59 -255h-105l206 890h105l-64 -276q72 66 179 66zM321 78q71 0 124 46.5t65 122.5q13 77 -25.5 124t-108.5 47q-65 0 -121.5 -47.5t-68.5 -123.5q-12 -75 29 -122t106 -47z" />
    <glyph glyph-name="ydieresis" unicode="&#xff;" horiz-adv-x="572" 
d="M265 571q-28 0 -46.5 18t-18.5 46q0 26 18.5 45.5t46.5 19.5t47 -19.5t19 -45.5q0 -28 -18.5 -46t-47.5 -18zM472 571q-28 0 -46.5 18t-18.5 46q0 26 18.5 45.5t46.5 19.5t47 -19.5t19 -45.5q0 -28 -18.5 -46t-47.5 -18zM611 496l-443 -666h-119l122 182l-99 484h109
l72 -362l243 362h115z" />
    <glyph glyph-name="Amacron" unicode="&#x100;" horiz-adv-x="707" 
d="M625 752h-301l19 85h301zM645 0h-110l-30 156h-325l-102 -156h-123l450 670h100zM486 254l-55 285l-187 -285h242z" />
    <glyph glyph-name="amacron" unicode="&#x101;" horiz-adv-x="647" 
d="M541 578h-301l19 85h301zM625 496l-115 -496h-104l12 51q-71 -65 -177 -65q-100 0 -161 74t-43 189q18 116 99 188.5t187 72.5q132 0 179 -98l19 84h104zM272 78q65 0 122 47.5t69 123.5t-29.5 122.5t-106.5 46.5q-71 0 -123.5 -46.5t-65.5 -122.5q-13 -77 25.5 -124
t108.5 -47z" />
    <glyph glyph-name="Abreve" unicode="&#x102;" horiz-adv-x="707" 
d="M470 725q-72 0 -106 38.5t-19 103.5h81q-7 -31 9 -50.5t45 -19.5q30 0 53.5 19.5t30.5 50.5h93q-15 -65 -65.5 -103.5t-121.5 -38.5zM505 670l140 -670h-110l-30 156h-325l-102 -156h-123l450 670h100zM486 254l-55 285l-187 -285h242z" />
    <glyph glyph-name="abreve" unicode="&#x103;" horiz-adv-x="647" 
d="M386 551q-72 0 -106 38.5t-19 103.5h81q-7 -31 9 -50.5t45 -19.5q30 0 53.5 19.5t30.5 50.5h93q-15 -65 -65.5 -103.5t-121.5 -38.5zM625 496l-115 -496h-104l12 51q-71 -65 -177 -65q-100 0 -161 74t-43 189q18 116 99 188.5t187 72.5q132 0 179 -98l19 84h104zM272 78
q65 0 122 47.5t69 123.5t-29.5 122.5t-106.5 46.5q-71 0 -123.5 -46.5t-65.5 -122.5q-13 -77 25.5 -124t108.5 -47z" />
    <glyph glyph-name="Aogonek" unicode="&#x104;" horiz-adv-x="707" 
d="M554 -105q0 -28 32 -28q13 0 48 11l-14 -66q-33 -17 -68 -17q-37 0 -59.5 20t-22.5 54q0 62 101 131h-36l-30 156h-325l-102 -156h-123l450 670h100l140 -670l-20 -18q-12 -10 -17.5 -15t-14.5 -12.5t-12.5 -11.5t-9 -10t-8 -10t-5 -9t-3.5 -9.5t-1 -9.5zM486 254
l-55 285l-187 -285h242z" />
    <glyph glyph-name="aogonek" unicode="&#x105;" horiz-adv-x="647" 
d="M625 496l-115 -496l-20 -18q-12 -10 -17.5 -15t-14.5 -12.5t-12.5 -11.5t-9 -10t-8 -10t-5 -9t-3.5 -9.5t-1 -9.5q0 -28 32 -28q13 0 48 11l-14 -66q-33 -17 -68 -17q-37 0 -59.5 20t-22.5 54q0 62 101 131h-30l12 51q-71 -65 -177 -65q-100 0 -161 74t-43 189
q18 116 99 188.5t187 72.5q132 0 179 -98l19 84h104zM272 78q65 0 122 47.5t69 123.5t-29.5 122.5t-106.5 46.5q-71 0 -123.5 -46.5t-65.5 -122.5q-13 -77 25.5 -124t108.5 -47z" />
    <glyph glyph-name="Cacute" unicode="&#x106;" horiz-adv-x="776" 
d="M543 741h-96l106 142h130zM469 684q119 0 199.5 -61.5t93.5 -163.5l-111 -22q-12 67 -59 107t-125 40q-117 0 -204.5 -83.5t-87.5 -201.5q0 -93 57 -153t151 -60q79 0 141.5 40.5t91.5 103.5l98 -31q-39 -97 -126 -155t-209 -58q-141 0 -227 85.5t-86 220.5
q0 161 117.5 276.5t285.5 115.5z" />
    <glyph glyph-name="cacute" unicode="&#x107;" horiz-adv-x="571" 
d="M402 567h-96l106 142h130zM268 82q50 0 91 26t63 73l99 -18q-33 -80 -104.5 -128.5t-156.5 -48.5q-115 0 -181 73.5t-48 188.5q18 114 106 188t197 74q85 0 145 -47.5t70 -126.5l-107 -21q-4 47 -38 73t-84 26q-70 0 -123 -46.5t-65 -119.5q-11 -74 27.5 -120t108.5 -46z
" />
    <glyph glyph-name="Cdotaccent" unicode="&#x10a;" horiz-adv-x="776" 
d="M506 878q27 0 46 -18.5t19 -44.5q0 -27 -18.5 -45t-46.5 -18t-46 18t-18 45q0 26 18.5 44.5t45.5 18.5zM469 684q119 0 199.5 -61.5t93.5 -163.5l-111 -22q-12 67 -59 107t-125 40q-117 0 -204.5 -83.5t-87.5 -201.5q0 -93 57 -153t151 -60q79 0 141.5 40.5t91.5 103.5
l98 -31q-39 -97 -126 -155t-209 -58q-141 0 -227 85.5t-86 220.5q0 161 117.5 276.5t285.5 115.5z" />
    <glyph glyph-name="cdotaccent" unicode="&#x10b;" horiz-adv-x="571" 
d="M365 578q-28 0 -46 18t-18 45q0 26 18.5 44.5t45.5 18.5t46 -18.5t19 -44.5q0 -27 -18.5 -45t-46.5 -18zM268 82q50 0 91 26t63 73l99 -18q-33 -80 -104.5 -128.5t-156.5 -48.5q-115 0 -181 73.5t-48 188.5q18 114 106 188t197 74q85 0 145 -47.5t70 -126.5l-107 -21
q-4 47 -38 73t-84 26q-70 0 -123 -46.5t-65 -119.5q-11 -74 27.5 -120t108.5 -46z" />
    <glyph glyph-name="Ccaron" unicode="&#x10c;" horiz-adv-x="776" 
d="M440 733l-81 146h98l42 -78l79 78h110l-149 -146h-99zM383 86q79 0 141.5 40.5t91.5 103.5l98 -31q-39 -97 -126 -155t-209 -58q-141 0 -227 85.5t-86 220.5q0 161 117.5 276.5t285.5 115.5q119 0 199.5 -61.5t93.5 -163.5l-111 -22q-12 67 -59 107t-125 40
q-117 0 -204.5 -83.5t-87.5 -201.5q0 -93 57 -153t151 -60z" />
    <glyph glyph-name="ccaron" unicode="&#x10d;" horiz-adv-x="571" 
d="M299 559l-81 146h98l42 -78l79 78h110l-149 -146h-99zM268 82q50 0 91 26t63 73l99 -18q-33 -80 -104.5 -128.5t-156.5 -48.5q-115 0 -181 73.5t-48 188.5q18 114 106 188t197 74q85 0 145 -47.5t70 -126.5l-107 -21q-4 47 -38 73t-84 26q-70 0 -123 -46.5t-65 -119.5
q-11 -74 27.5 -120t108.5 -46z" />
    <glyph glyph-name="Dcaron" unicode="&#x10e;" horiz-adv-x="737" 
d="M415 733l-81 146h98l42 -78l79 78h110l-149 -146h-99zM177 670h234q143 0 223 -75.5t80 -201.5q0 -165 -128 -279t-320 -114h-244zM152 97h102q145 0 247 84.5t102 209.5q0 85 -52.5 133.5t-151.5 48.5h-137z" />
    <glyph glyph-name="dcaron" unicode="&#x10f;" horiz-adv-x="645" 
d="M567 720h105l-166 -720h-105l12 51q-73 -65 -178 -65q-100 0 -161 74t-43 189q19 116 100 188.5t187 72.5q132 0 178 -98zM833 720l-66 -186h-83l43 186h106zM266 78q65 0 122 47.5t69 123.5t-29 122.5t-107 46.5q-70 0 -123 -46.5t-66 -122.5q-12 -77 26.5 -124
t107.5 -47z" />
    <glyph glyph-name="Dcroat" unicode="&#x110;" horiz-adv-x="779" 
d="M216 670h234q143 0 223 -75.5t80 -201.5q0 -165 -128 -279t-320 -114h-244l67 288h-90l22 98h90zM191 97h102q145 0 247 84.5t102 209.5q0 85 -52.5 133.5t-151.5 48.5h-137l-43 -187h140l-22 -98h-141z" />
    <glyph glyph-name="dcroat" unicode="&#x111;" horiz-adv-x="687" 
d="M717 563h-76l-130 -563h-104l12 52q-72 -66 -179 -66q-100 0 -161 74t-43 189q19 116 100 188.5t187 72.5q133 0 179 -99l35 152h-151l19 84h151l17 73h104l-17 -73h76zM272 78q65 0 121.5 47.5t68.5 123.5q12 75 -29 122t-106 47q-71 0 -124 -46.5t-65 -122.5
q-13 -77 25.5 -124t108.5 -47z" />
    <glyph glyph-name="Emacron" unicode="&#x112;" horiz-adv-x="636" 
d="M605 752h-301l19 85h301zM262 573l-44 -189h361l-22 -96h-361l-44 -191h392l-23 -97h-499l154 670h498l-22 -97h-390z" />
    <glyph glyph-name="emacron" unicode="&#x113;" horiz-adv-x="580" 
d="M505 578h-301l19 85h301zM131 223v-7q0 -66 36 -103t103 -37q97 0 152 90l92 -24q-36 -75 -103 -115.5t-148 -40.5q-103 0 -165.5 61.5t-62.5 164.5q0 127 89 212.5t205 85.5q110 0 170.5 -79.5t39.5 -207.5h-408zM321 422q-62 0 -108 -35t-67 -90h304q-3 60 -37 92.5
t-92 32.5z" />
    <glyph glyph-name="Edotaccent" unicode="&#x116;" horiz-adv-x="636" 
d="M467 752q-28 0 -46 18t-18 45q0 26 18.5 44.5t45.5 18.5t46 -18.5t19 -44.5q0 -27 -18.5 -45t-46.5 -18zM262 573l-44 -189h361l-22 -96h-361l-44 -191h392l-23 -97h-499l154 670h498l-22 -97h-390z" />
    <glyph glyph-name="edotaccent" unicode="&#x117;" horiz-adv-x="580" 
d="M367 578q-28 0 -46 18t-18 45q0 26 18.5 44.5t45.5 18.5t46 -18.5t19 -44.5q0 -27 -18.5 -45t-46.5 -18zM131 223v-7q0 -66 36 -103t103 -37q97 0 152 90l92 -24q-36 -75 -103 -115.5t-148 -40.5q-103 0 -165.5 61.5t-62.5 164.5q0 127 89 212.5t205 85.5
q110 0 170.5 -79.5t39.5 -207.5h-408zM321 422q-62 0 -108 -35t-67 -90h304q-3 60 -37 92.5t-92 32.5z" />
    <glyph glyph-name="Eogonek" unicode="&#x118;" horiz-adv-x="636" 
d="M262 573l-44 -189h361l-22 -96h-361l-44 -191h392l-23 -97h-41l-20 -18q-12 -10 -17.5 -15t-14.5 -12.5t-12.5 -11.5t-9 -10t-8 -10t-5 -9t-3.5 -9.5t-1 -9.5q0 -28 32 -28q13 0 48 11l-14 -66q-33 -17 -68 -17q-37 0 -59.5 20t-22.5 54q0 62 101 131h-384l154 670h498
l-22 -97h-390z" />
    <glyph glyph-name="eogonek" unicode="&#x119;" horiz-adv-x="579" 
d="M131 223v-7q0 -67 35.5 -103.5t103.5 -36.5q97 0 152 90l92 -24q-23 -50 -69 -91q-85 -76 -109.5 -105t-24.5 -51q0 -28 32 -28q14 0 49 11l-14 -66q-34 -17 -69 -17q-36 0 -58.5 20t-22.5 54q0 59 85 121q-21 -4 -50 -4q-103 0 -165.5 61.5t-62.5 164.5q0 127 89 212.5
t205 85.5q113 0 174.5 -82t34.5 -205h-407zM321 422q-62 0 -108 -35t-67 -90h305q-4 60 -38 92.5t-92 32.5z" />
    <glyph glyph-name="Ecaron" unicode="&#x11a;" horiz-adv-x="636" 
d="M401 733l-81 146h98l42 -78l79 78h110l-149 -146h-99zM262 573l-44 -189h361l-22 -96h-361l-44 -191h392l-23 -97h-499l154 670h498l-22 -97h-390z" />
    <glyph glyph-name="ecaron" unicode="&#x11b;" horiz-adv-x="580" 
d="M301 559l-81 146h98l42 -78l79 78h110l-149 -146h-99zM329 510q110 0 170.5 -79.5t39.5 -207.5h-408v-7q0 -66 36 -103t103 -37q97 0 152 90l92 -24q-36 -75 -103 -115.5t-148 -40.5q-103 0 -165.5 61.5t-62.5 164.5q0 127 89 212.5t205 85.5zM146 297h304
q-3 60 -37 92.5t-92 32.5q-62 0 -108 -35t-67 -90z" />
    <glyph glyph-name="Gbreve" unicode="&#x11e;" horiz-adv-x="789" 
d="M494 725q-72 0 -106 38.5t-19 103.5h81q-7 -31 9 -50.5t45 -19.5q30 0 53.5 19.5t30.5 50.5h93q-15 -65 -65.5 -103.5t-121.5 -38.5zM404 380h361q0 -22 -4 -46q-29 -159 -134 -253.5t-256 -94.5q-137 0 -221 84t-84 220q0 162 121 278t290 116q107 0 186.5 -52.5
t99.5 -145.5l-108 -24q-19 62 -69 91.5t-116 29.5q-120 0 -207 -83t-87 -201q0 -93 57 -152.5t149 -59.5q90 0 159.5 54.5t93.5 140.5h-254z" />
    <glyph glyph-name="gbreve" unicode="&#x11f;" horiz-adv-x="640" 
d="M382 551q-72 0 -106 38.5t-19 103.5h81q-7 -31 9 -50.5t45 -19.5q30 0 53.5 19.5t30.5 50.5h93q-15 -65 -65.5 -103.5t-121.5 -38.5zM617 496l-105 -452q-24 -109 -108 -171.5t-195 -62.5q-176 0 -232 148l98 37q37 -91 140 -91q69 0 126 42.5t73 112.5l8 32
q-74 -63 -180 -63q-99 0 -159 69t-43 180q18 100 100.5 166t183.5 66q128 0 174 -88l18 75h101zM272 115q66 0 121.5 41t67.5 110t-29 112.5t-105 43.5q-71 0 -122 -41t-64 -108q-12 -71 25.5 -114.5t105.5 -43.5z" />
    <glyph glyph-name="Gdotaccent" unicode="&#x120;" horiz-adv-x="789" 
d="M511 878q27 0 46 -18.5t19 -44.5q0 -27 -18.5 -45t-46.5 -18t-46 18t-18 45q0 26 18.5 44.5t45.5 18.5zM404 380h361q0 -22 -4 -46q-29 -159 -134 -253.5t-256 -94.5q-137 0 -221 84t-84 220q0 162 121 278t290 116q107 0 186.5 -52.5t99.5 -145.5l-108 -24
q-19 62 -69 91.5t-116 29.5q-120 0 -207 -83t-87 -201q0 -93 57 -152.5t149 -59.5q90 0 159.5 54.5t93.5 140.5h-254z" />
    <glyph glyph-name="gdotaccent" unicode="&#x121;" horiz-adv-x="640" 
d="M399 578q-28 0 -46 18t-18 45q0 26 18.5 44.5t45.5 18.5t46 -18.5t19 -44.5q0 -27 -18.5 -45t-46.5 -18zM617 496l-105 -452q-24 -109 -108 -171.5t-195 -62.5q-176 0 -232 148l98 37q37 -91 140 -91q69 0 126 42.5t73 112.5l8 32q-74 -63 -180 -63q-99 0 -159 69
t-43 180q18 100 100.5 166t183.5 66q128 0 174 -88l18 75h101zM272 115q66 0 121.5 41t67.5 110t-29 112.5t-105 43.5q-71 0 -122 -41t-64 -108q-12 -71 25.5 -114.5t105.5 -43.5z" />
    <glyph glyph-name="Gcommaaccent" unicode="&#x122;" horiz-adv-x="789" 
d="M404 380h361q0 -22 -4 -46q-29 -159 -134 -253.5t-256 -94.5q-137 0 -221 84t-84 220q0 162 121 278t290 116q107 0 186.5 -52.5t99.5 -145.5l-108 -24q-19 62 -69 91.5t-116 29.5q-120 0 -207 -83t-87 -201q0 -93 57 -152.5t149 -59.5q90 0 159.5 54.5t93.5 140.5h-254z
M212 -191l82 146h114l-117 -146h-79z" />
    <glyph glyph-name="gcommaaccent" unicode="&#x123;" horiz-adv-x="640" 
d="M435 567h-114l118 146h79zM617 496l-105 -452q-24 -109 -108 -171.5t-195 -62.5q-176 0 -232 148l98 37q37 -91 140 -91q69 0 126 42.5t73 112.5l8 32q-74 -63 -180 -63q-99 0 -159 69t-43 180q18 100 100.5 166t183.5 66q128 0 174 -88l18 75h101zM272 115
q66 0 121.5 41t67.5 110t-29 112.5t-105 43.5q-71 0 -122 -41t-64 -108q-12 -71 25.5 -114.5t105.5 -43.5z" />
    <glyph glyph-name="Hbar" unicode="&#x126;" horiz-adv-x="787" 
d="M793 455h-66l-105 -455h-107l59 258h-355l-59 -258h-108l105 455h-66l21 90h65l29 125h108l-29 -125h355l29 125h108l-29 -125h65zM620 455h-355l-23 -99h355z" />
    <glyph glyph-name="hbar" unicode="&#x127;" horiz-adv-x="663" 
d="M435 510q100 0 144.5 -66.5t22.5 -164.5l-64 -279h-104l65 283q13 62 -14 98.5t-84 36.5q-67 0 -113 -48.5t-67 -140.5l-53 -229h-104l131 570h-78l18 77h78l17 73h104l-17 -73h149l-18 -77h-149l-32 -139q65 79 168 79z" />
    <glyph glyph-name="Imacron" unicode="&#x12a;" horiz-adv-x="266" 
d="M400 752h-301l19 85h301zM130 0h-108l154 670h108z" />
    <glyph glyph-name="imacron" unicode="&#x12b;" horiz-adv-x="287" 
d="M371 578h-301l19 85h301zM138 0h-104l115 496h104z" />
    <glyph glyph-name="Iogonek" unicode="&#x12e;" horiz-adv-x="266" 
d="M284 670l-154 -670h-1l-20 -18q-12 -10 -17.5 -15t-14.5 -12.5t-12.5 -11.5t-9 -10t-8 -10t-5 -9t-3.5 -9.5t-1 -9.5q0 -28 32 -28q13 0 48 11l-14 -66q-33 -17 -68 -17q-37 0 -59.5 20t-22.5 54q0 62 101 131h-33l154 670h108z" />
    <glyph glyph-name="iogonek" unicode="&#x12f;" horiz-adv-x="287" 
d="M233 704q27 0 46 -18.5t19 -44.5q0 -27 -18.5 -45t-46.5 -18t-46 18t-18 45q0 26 18.5 44.5t45.5 18.5zM149 496h104l-115 -496l-20 -17q-12 -11 -17.5 -16t-14.5 -12.5t-12.5 -11.5t-9 -10t-8 -10t-5 -9t-3.5 -9.5t-1 -9.5q0 -28 32 -28q13 0 48 11l-14 -66
q-33 -17 -68 -17q-37 0 -59.5 20t-22.5 54q0 62 101 131h-30z" />
    <glyph glyph-name="Idotaccent" unicode="&#x130;" horiz-adv-x="266" 
d="M262 878q27 0 46 -18.5t19 -44.5q0 -27 -18.5 -45t-46.5 -18t-46 18t-18 45q0 26 18.5 44.5t45.5 18.5zM130 0h-108l154 670h108z" />
    <glyph glyph-name="dotlessi" unicode="&#x131;" horiz-adv-x="287" 
d="M138 0h-104l115 496h104z" />
    <glyph glyph-name="IJ" unicode="&#x132;" horiz-adv-x="860" 
d="M130 0h-108l154 670h108zM891 670l-101 -430q-28 -119 -104 -186.5t-183 -67.5q-103 0 -164.5 59.5t-63.5 158.5l102 21q-1 -64 32.5 -103t95.5 -39q65 0 112.5 43.5t64.5 113.5l101 430h108z" />
    <glyph glyph-name="ij" unicode="&#x133;" horiz-adv-x="572" 
d="M232 710q28 0 47 -19t19 -46q0 -28 -18.5 -46t-47.5 -18t-47.5 18t-18.5 46q0 27 18.5 46t47.5 19zM523 710q28 0 47 -19t19 -46q0 -28 -18.5 -46t-47.5 -18t-47.5 18t-18.5 46q0 27 18.5 46t47.5 19zM135 0h-104l114 496h104zM544 496l-127 -552q-14 -60 -60 -97
t-107 -37q-48 0 -86 18l40 91q24 -11 44 -11q25 0 44 14t24 36l123 538h105z" />
    <glyph glyph-name="Kcommaaccent" unicode="&#x136;" horiz-adv-x="671" 
d="M323 330l283 -330h-132l-239 282h-48l-65 -282h-107l154 670h108l-67 -290h25l364 290h145zM225 -45h114l-117 -146h-79z" />
    <glyph glyph-name="kcommaaccent" unicode="&#x137;" horiz-adv-x="600" 
d="M306 257l234 -257h-127l-185 206h-53l-47 -206h-104l166 720h104l-95 -411h28l250 187h142zM183 -45h114l-117 -146h-79z" />
    <glyph glyph-name="Lacute" unicode="&#x139;" horiz-adv-x="581" 
d="M297 741h-96l106 142h130zM517 97l-22 -97h-473l154 670h108l-132 -573h365z" />
    <glyph glyph-name="lacute" unicode="&#x13a;" horiz-adv-x="263" 
d="M309 791h-96l106 142h130zM126 0h-105l167 720h104z" />
    <glyph glyph-name="Lcommaaccent" unicode="&#x13b;" horiz-adv-x="581" 
d="M517 97l-22 -97h-473l154 670h108l-132 -573h365zM184 -45h114l-117 -146h-79z" />
    <glyph glyph-name="lcommaaccent" unicode="&#x13c;" horiz-adv-x="263" 
d="M126 0h-105l167 720h104zM-78 -191l83 146h114l-117 -146h-80z" />
    <glyph glyph-name="Lcaron" unicode="&#x13d;" horiz-adv-x="581" 
d="M517 97l-22 -97h-473l154 670h108l-132 -573h365zM440 484h-82l43 186h105z" />
    <glyph glyph-name="lcaron" unicode="&#x13e;" horiz-adv-x="263" 
d="M126 0h-105l167 720h104zM398 534h-82l43 186h105z" />
    <glyph glyph-name="Ldot" unicode="&#x13f;" horiz-adv-x="582" 
d="M517 97l-22 -97h-473l154 670h108l-132 -573h365zM385 285q-28 0 -46 17.5t-18 45.5q0 25 18.5 43.5t45.5 18.5t46 -18.5t19 -43.5q0 -28 -18.5 -45.5t-46.5 -17.5z" />
    <glyph glyph-name="ldot" unicode="&#x140;" horiz-adv-x="367" 
d="M126 0h-105l167 720h104zM352 408q28 0 46.5 -18.5t18.5 -44.5q0 -27 -18.5 -45t-46.5 -18t-46 18t-18 45q0 26 18.5 44.5t45.5 18.5z" />
    <glyph glyph-name="Lslash" unicode="&#x141;" horiz-adv-x="623" 
d="M558 97l-22 -97h-473l54 237l-85 -37l23 101l86 37l76 332h108l-65 -281l145 62l-23 -101l-145 -62l-45 -191h366z" />
    <glyph glyph-name="lslash" unicode="&#x142;" horiz-adv-x="336" 
d="M322 372l-82 -43l-76 -329h-104l61 266l-84 -44l23 101l85 44l81 353h105l-67 -290l82 43z" />
    <glyph glyph-name="Nacute" unicode="&#x143;" horiz-adv-x="761" 
d="M549 741h-96l106 142h130zM778 670l-154 -670h-91l-288 493l-114 -493h-107l154 670h91l285 -498l116 498h108z" />
    <glyph glyph-name="nacute" unicode="&#x144;" horiz-adv-x="624" 
d="M446 567h-96l106 142h130zM395 510q100 0 145 -66.5t23 -164.5l-65 -279h-104l65 283q14 62 -13 98.5t-85 36.5q-67 0 -113 -48.5t-67 -140.5l-53 -229h-105l115 496h104l-15 -65q65 79 168 79z" />
    <glyph glyph-name="Ncommaaccent" unicode="&#x145;" horiz-adv-x="761" 
d="M778 670l-154 -670h-91l-288 493l-114 -493h-107l154 670h91l285 -498l116 498h108zM276 -45h114l-117 -146h-79z" />
    <glyph glyph-name="ncommaaccent" unicode="&#x146;" horiz-adv-x="624" 
d="M395 510q100 0 145 -66.5t23 -164.5l-65 -279h-104l65 283q14 62 -13 98.5t-85 36.5q-67 0 -113 -48.5t-67 -140.5l-53 -229h-105l115 496h104l-15 -65q65 79 168 79zM197 -45h114l-117 -146h-79z" />
    <glyph glyph-name="Ncaron" unicode="&#x147;" horiz-adv-x="761" 
d="M446 733l-81 146h98l42 -78l79 78h110l-149 -146h-99zM778 670l-154 -670h-91l-288 493l-114 -493h-107l154 670h91l285 -498l116 498h108z" />
    <glyph glyph-name="ncaron" unicode="&#x148;" horiz-adv-x="624" 
d="M343 559l-81 146h98l42 -78l79 78h110l-149 -146h-99zM395 510q100 0 145 -66.5t23 -164.5l-65 -279h-104l65 283q14 62 -13 98.5t-85 36.5q-67 0 -113 -48.5t-67 -140.5l-53 -229h-105l115 496h104l-15 -65q65 79 168 79z" />
    <glyph glyph-name="Eng" unicode="&#x14a;" horiz-adv-x="759" 
d="M776 670l-163 -711q-13 -61 -60 -101.5t-107 -40.5q-54 0 -100 24l32 80q33 -12 58 -12t43.5 13.5t24.5 36.5l15 64l-275 471l-114 -494h-108l154 670h91l286 -499l116 499h107z" />
    <glyph glyph-name="eng" unicode="&#x14b;" horiz-adv-x="624" 
d="M395 510q100 0 145 -66.5t23 -164.5l-65 -279l-11 -41q-16 -62 -62 -102t-105 -40q-54 0 -100 24l37 80q31 -13 57 -13q25 0 44 14.5t25 36.5l11 41l65 283q14 62 -13 98.5t-85 36.5q-67 0 -113 -48.5t-67 -140.5l-53 -229h-105l115 496h104l-15 -65q65 79 168 79z" />
    <glyph glyph-name="Omacron" unicode="&#x14c;" horiz-adv-x="796" 
d="M657 752h-301l19 85h301zM461 685q152 0 239.5 -102.5t66.5 -248.5q-22 -156 -132 -252.5t-260 -96.5q-151 0 -238.5 101t-66.5 249q21 146 135.5 248t255.5 102zM377 87q107 0 186.5 70t94.5 177q16 106 -42.5 178t-156.5 72q-107 0 -186.5 -71.5t-95.5 -178.5
q-15 -105 44.5 -176t155.5 -71z" />
    <glyph glyph-name="omacron" unicode="&#x14d;" horiz-adv-x="605" 
d="M520 578h-301l19 85h301zM335 507q113 0 182 -73.5t51 -186.5q-17 -114 -101.5 -186.5t-195.5 -72.5q-114 0 -183 73t-52 186q18 114 103 187t196 73zM277 78q66 0 122 47t68 122t-29.5 123t-107.5 48q-68 0 -124 -48t-68 -123t29.5 -122t109.5 -47z" />
    <glyph glyph-name="Ohungarumlaut" unicode="&#x150;" horiz-adv-x="796" 
d="M462 741h-94l106 142h129zM632 741h-94l106 142h129zM461 685q152 0 239.5 -102.5t66.5 -248.5q-22 -156 -132 -252.5t-260 -96.5q-151 0 -238.5 101t-66.5 249q21 146 135.5 248t255.5 102zM377 87q107 0 186.5 70t94.5 177q16 106 -42.5 178t-156.5 72
q-107 0 -186.5 -71.5t-95.5 -178.5q-15 -105 44.5 -176t155.5 -71z" />
    <glyph glyph-name="ohungarumlaut" unicode="&#x151;" horiz-adv-x="605" 
d="M325 567h-94l106 142h129zM401 567l106 142h129l-141 -142h-94zM335 507q113 0 182 -73.5t51 -186.5q-17 -114 -101.5 -186.5t-195.5 -72.5q-114 0 -183 73t-52 186q18 114 103 187t196 73zM277 78q66 0 122 47t68 122t-29.5 123t-107.5 48q-68 0 -124 -48t-68 -123
t29.5 -122t109.5 -47z" />
    <glyph glyph-name="OE" unicode="&#x152;" horiz-adv-x="1036" 
d="M661 573l-44 -189h361l-22 -96h-361l-44 -191h392l-22 -97h-565q-149 0 -230 89t-58 230q23 155 155.5 253t311.5 98h538l-22 -97h-390zM443 97l111 476h-34q-136 0 -232 -70.5t-112 -183.5q-17 -99 32 -160.5t148 -61.5h87z" />
    <glyph glyph-name="oe" unicode="&#x153;" horiz-adv-x="1013" 
d="M563 223v-2v-5q0 -66 36 -103t103 -37q97 0 152 90l93 -24q-37 -75 -104 -115.5t-148 -40.5q-67 0 -118 27.5t-80 77.5q-90 -103 -226 -103q-114 0 -183 73t-52 186q18 114 103 187t196 73q66 0 119.5 -27t84.5 -75q42 50 100.5 77.5t121.5 27.5q110 0 170.5 -79.5
t39.5 -207.5h-408zM754 422q-63 0 -109 -35t-67 -90h305q-4 60 -38 92.5t-91 32.5zM277 78q66 0 122 47t68 122t-29.5 123t-107.5 48q-68 0 -124 -48t-68 -123t29.5 -122t109.5 -47z" />
    <glyph glyph-name="Racute" unicode="&#x154;" horiz-adv-x="680" 
d="M480 741h-96l106 142h130zM682 497q0 -89 -62.5 -151t-166.5 -76l155 -270h-122l-146 267h-147l-61 -267h-108l132 573l23 97h300q93 0 148 -46t55 -127zM216 364h191q74 0 120 35t46 90q0 40 -27.5 62t-72.5 22h-209z" />
    <glyph glyph-name="racute" unicode="&#x155;" horiz-adv-x="415" 
d="M347 567h-96l106 142h130zM241 496l-20 -88q92 94 205 94q22 0 33 -4l-28 -100q-8 1 -28 1q-91 0 -151.5 -59.5t-84.5 -164.5l-41 -175h-104l114 496h105z" />
    <glyph glyph-name="Rcommaaccent" unicode="&#x156;" horiz-adv-x="680" 
d="M682 497q0 -89 -62.5 -151t-166.5 -76l155 -270h-122l-146 267h-147l-61 -267h-108l132 573l23 97h300q93 0 148 -46t55 -127zM216 364h191q74 0 120 35t46 90q0 40 -27.5 62t-72.5 22h-209zM227 -45h114l-117 -146h-79z" />
    <glyph glyph-name="rcommaaccent" unicode="&#x157;" horiz-adv-x="415" 
d="M426 502q22 0 33 -4l-28 -100q-8 1 -28 1q-91 0 -151.5 -59.5t-84.5 -164.5l-41 -175h-104l114 496h105l-20 -88q92 94 205 94zM6 -45h114l-117 -146h-80z" />
    <glyph glyph-name="Rcaron" unicode="&#x158;" horiz-adv-x="680" 
d="M377 733l-81 146h98l42 -78l79 78h110l-149 -146h-99zM682 497q0 -89 -62.5 -151t-166.5 -76l155 -270h-122l-146 267h-147l-61 -267h-108l132 573l23 97h300q93 0 148 -46t55 -127zM216 364h191q74 0 120 35t46 90q0 40 -27.5 62t-72.5 22h-209z" />
    <glyph glyph-name="rcaron" unicode="&#x159;" horiz-adv-x="415" 
d="M244 559l-81 146h98l42 -78l79 78h110l-149 -146h-99zM241 496l-20 -88q92 94 205 94q22 0 33 -4l-28 -100q-8 1 -28 1q-91 0 -151.5 -59.5t-84.5 -164.5l-41 -175h-104l114 496h105z" />
    <glyph glyph-name="Sacute" unicode="&#x15a;" horiz-adv-x="627" 
d="M461 741h-96l106 142h130zM388 684q105 0 169 -51t72 -140l-108 -23q-2 55 -41.5 89t-102.5 34q-62 0 -102.5 -32t-40.5 -79q0 -27 16.5 -44t55.5 -31l107 -35q148 -48 148 -167q0 -99 -74.5 -159t-195.5 -60q-110 0 -185.5 52t-81.5 150l114 23q4 -64 47 -98t115 -34
t113 31.5t41 82.5q0 29 -18 47.5t-62 33.5l-106 34q-68 23 -107 58t-39 102q0 95 74.5 155.5t191.5 60.5z" />
    <glyph glyph-name="sacute" unicode="&#x15b;" horiz-adv-x="505" 
d="M377 567h-96l106 142h130zM9 125l103 30q7 -41 43 -64t82 -23t75 20t29 50q0 35 -57 55l-92 30q-111 34 -111 128q0 70 54.5 114.5t145.5 44.5q83 0 140 -38t69 -97l-90 -28q-5 36 -37.5 58t-81.5 22q-48 0 -72.5 -19t-24.5 -48q0 -19 15 -32.5t50 -25.5l63 -20
q65 -22 98 -54t33 -84q0 -73 -60.5 -115.5t-152.5 -42.5q-82 0 -144 36.5t-77 102.5z" />
    <glyph glyph-name="Scedilla" unicode="&#x15e;" horiz-adv-x="627" 
d="M306 407l107 -35q148 -48 148 -167q0 -93 -67.5 -152.5t-178.5 -65.5l-94 -152h-121l135 155q-90 12 -148 63t-63 135l114 23q4 -64 47 -98t115 -34t113 31.5t41 82.5q0 29 -18 47.5t-62 33.5l-106 34q-68 23 -107 58t-39 102q0 95 74.5 155.5t191.5 60.5q105 0 169 -51
t72 -140l-108 -23q-2 55 -41.5 89t-102.5 34q-62 0 -102.5 -32t-40.5 -79q0 -27 16.5 -44t55.5 -31z" />
    <glyph glyph-name="scedilla" unicode="&#x15f;" horiz-adv-x="505" 
d="M249 302l63 -20q65 -22 98 -54t33 -84q0 -68 -53.5 -110t-138.5 -47l-94 -152h-121l136 156q-63 11 -107 45.5t-56 88.5l103 30q7 -41 43 -64t82 -23t75 20t29 50q0 35 -57 55l-92 30q-111 34 -111 128q0 70 54.5 114.5t145.5 44.5q83 0 140 -38t69 -97l-90 -28
q-5 36 -37.5 58t-81.5 22q-48 0 -72.5 -19t-24.5 -48q0 -19 15 -32.5t50 -25.5z" />
    <glyph glyph-name="Scaron" unicode="&#x160;" horiz-adv-x="627" 
d="M358 733l-81 146h98l42 -78l79 78h110l-149 -146h-99zM306 407l107 -35q148 -48 148 -167q0 -99 -74.5 -159t-195.5 -60q-110 0 -185.5 52t-81.5 150l114 23q4 -64 47 -98t115 -34t113 31.5t41 82.5q0 29 -18 47.5t-62 33.5l-106 34q-68 23 -107 58t-39 102
q0 95 74.5 155.5t191.5 60.5q105 0 169 -51t72 -140l-108 -23q-2 55 -41.5 89t-102.5 34q-62 0 -102.5 -32t-40.5 -79q0 -27 16.5 -44t55.5 -31z" />
    <glyph glyph-name="scaron" unicode="&#x161;" horiz-adv-x="505" 
d="M274 559l-81 146h98l42 -78l79 78h110l-149 -146h-99zM281 427q-48 0 -72.5 -19t-24.5 -48q0 -19 15 -32.5t50 -25.5l63 -20q65 -22 98 -54t33 -84q0 -73 -60.5 -115.5t-152.5 -42.5q-82 0 -144 36.5t-77 102.5l103 30q7 -41 43 -64t82 -23t75 20t29 50q0 35 -57 55
l-92 30q-111 34 -111 128q0 70 54.5 114.5t145.5 44.5q83 0 140 -38t69 -97l-90 -28q-5 36 -37.5 58t-81.5 22z" />
    <glyph glyph-name="tcedilla" unicode="&#x163;" horiz-adv-x="403" 
d="M237 410l-54 -234q-21 -92 50 -92q43 0 94 27l7 -91q-61 -33 -121 -34l-93 -151h-121l142 162q-95 38 -63 172l55 241h-95l20 86h95l35 154h105l-36 -154h170l-19 -86h-171z" />
    <glyph glyph-name="Tcaron" unicode="&#x164;" horiz-adv-x="625" 
d="M376 733l-81 146h98l42 -78l79 78h110l-149 -146h-99zM677 573h-235l-132 -573h-108l132 573h-236l22 97h580z" />
    <glyph glyph-name="tcaron" unicode="&#x165;" horiz-adv-x="403" 
d="M404 542h-82l43 186h105zM257 496h170l-19 -86h-171l-54 -234q-21 -92 50 -92q43 0 94 27l7 -91q-62 -34 -125 -34q-79 0 -115.5 46.5t-15.5 136.5l55 241h-95l20 86h95l35 154h105z" />
    <glyph glyph-name="Tbar" unicode="&#x166;" horiz-adv-x="625" 
d="M442 573l-45 -193h130l-21 -90h-129l-67 -290h-108l67 290h-124l21 90h123l45 193h-236l22 97h580l-23 -97h-235z" />
    <glyph glyph-name="tbar" unicode="&#x167;" horiz-adv-x="417" 
d="M252 410l-17 -71h131l-19 -85h-131l-18 -78q-22 -92 49 -92q43 0 94 27l7 -91q-62 -34 -124 -34q-80 0 -116.5 46.5t-15.5 136.5l20 85h-91l19 85h91l17 71h-110l20 86h109l36 154h104l-35 -154h174l-20 -86h-174z" />
    <glyph glyph-name="Umacron" unicode="&#x16a;" horiz-adv-x="716" 
d="M622 752h-301l19 85h301zM742 670l-86 -374q-33 -144 -121.5 -227t-223.5 -83q-122 0 -190.5 87.5t-37.5 222.5l86 374h108l-86 -374q-22 -94 15 -150.5t119 -56.5q80 0 140.5 56.5t82.5 150.5l86 374h108z" />
    <glyph glyph-name="umacron" unicode="&#x16b;" horiz-adv-x="624" 
d="M519 578h-301l19 85h301zM601 496l-115 -496h-104l15 65q-65 -79 -168 -79q-100 0 -145 67t-22 165l64 278h104l-65 -283q-13 -61 14 -98t84 -37q65 0 110.5 46t67.5 133l56 239h104z" />
    <glyph glyph-name="Uring" unicode="&#x16e;" horiz-adv-x="716" 
d="M478 721q-45 0 -74 29t-29 71q0 47 35.5 81t84.5 34q45 0 74 -29t29 -71q0 -48 -35.5 -81.5t-84.5 -33.5zM490 875q-21 0 -35.5 -14.5t-14.5 -35.5q0 -19 11.5 -31.5t31.5 -12.5q21 0 36.5 15.5t15.5 36.5q0 18 -12.5 30t-32.5 12zM742 670l-86 -374
q-33 -144 -121.5 -227t-223.5 -83q-122 0 -190.5 87.5t-37.5 222.5l86 374h108l-86 -374q-22 -94 15 -150.5t119 -56.5q80 0 140.5 56.5t82.5 150.5l86 374h108z" />
    <glyph glyph-name="uring" unicode="&#x16f;" horiz-adv-x="624" 
d="M375 547q-45 0 -74 29t-29 71q0 47 35.5 81t84.5 34q45 0 74 -29t29 -71q0 -48 -35.5 -81.5t-84.5 -33.5zM387 701q-21 0 -35.5 -14.5t-14.5 -35.5q0 -19 11.5 -31.5t31.5 -12.5q21 0 36.5 15.5t15.5 36.5q0 18 -12.5 30t-32.5 12zM601 496l-115 -496h-104l15 65
q-65 -79 -168 -79q-100 0 -145 67t-22 165l64 278h104l-65 -283q-13 -61 14 -98t84 -37q65 0 110.5 46t67.5 133l56 239h104z" />
    <glyph glyph-name="Uhungarumlaut" unicode="&#x170;" horiz-adv-x="716" 
d="M427 741h-94l106 142h129zM503 741l106 142h129l-141 -142h-94zM742 670l-86 -374q-33 -144 -121.5 -227t-223.5 -83q-122 0 -190.5 87.5t-37.5 222.5l86 374h108l-86 -374q-22 -94 15 -150.5t119 -56.5q80 0 140.5 56.5t82.5 150.5l86 374h108z" />
    <glyph glyph-name="uhungarumlaut" unicode="&#x171;" horiz-adv-x="624" 
d="M324 567h-94l106 142h129zM400 567l106 142h129l-141 -142h-94zM497 496h104l-115 -496h-104l15 65q-65 -79 -168 -79q-100 0 -145 67t-22 165l64 278h104l-65 -283q-13 -61 14 -98t84 -37q65 0 110.5 46t67.5 133z" />
    <glyph glyph-name="Uogonek" unicode="&#x172;" horiz-adv-x="716" 
d="M742 670l-86 -374q-38 -158 -135 -238q-117 -114 -128 -127q-17 -20 -17 -36q0 -28 32 -28q14 0 49 11l-14 -66q-34 -17 -69 -17q-36 0 -58.5 20t-22.5 54q0 60 91 124q-32 -7 -73 -7q-122 0 -190.5 87.5t-37.5 222.5l86 374h108l-86 -374q-22 -94 15 -150.5t119 -56.5
q80 0 140.5 56.5t82.5 150.5l86 374h108z" />
    <glyph glyph-name="uogonek" unicode="&#x173;" horiz-adv-x="624" 
d="M601 496l-115 -496l-20 -17q-12 -11 -17.5 -16t-14.5 -12.5t-12.5 -11.5t-9 -10t-8 -10t-5 -9t-3.5 -9.5t-1 -9.5q0 -28 32 -28q13 0 48 11l-14 -66q-33 -17 -68 -17q-37 0 -59.5 20t-22.5 54q0 62 101 131h-30l15 65q-65 -79 -168 -79q-100 0 -145 67t-22 165l64 278
h104l-65 -283q-13 -61 14 -98t84 -37q65 0 110.5 46t67.5 133l56 239h104z" />
    <glyph glyph-name="Wcircumflex" unicode="&#x174;" horiz-adv-x="963" 
d="M556 733h-110l149 145h99l82 -145h-99l-42 77zM1041 670l-355 -670h-115l-35 498l-266 -498h-113l-46 670h108l30 -505l270 505h106l36 -505l264 505h116z" />
    <glyph glyph-name="wcircumflex" unicode="&#x175;" horiz-adv-x="790" 
d="M431 559h-110l149 145h99l82 -145h-99l-42 77zM829 496l-282 -498h-98l-38 334l-193 -334h-94l-52 498h99l36 -345l198 345h82l39 -346l196 346h107z" />
    <glyph glyph-name="Ycircumflex" unicode="&#x176;" horiz-adv-x="682" 
d="M396 733h-110l149 145h99l82 -145h-99l-42 77zM387 224l-52 -224h-108l52 223l-168 447h112l128 -336l283 336h131z" />
    <glyph glyph-name="ycircumflex" unicode="&#x177;" horiz-adv-x="572" 
d="M317 560h-110l149 145h99l82 -145h-99l-42 77zM611 496l-443 -666h-119l122 182l-99 484h109l72 -362l243 362h115z" />
    <glyph glyph-name="Ydieresis" unicode="&#x178;" horiz-adv-x="682" 
d="M344 744q-28 0 -46.5 18t-18.5 46q0 26 18.5 45.5t46.5 19.5t47 -19.5t19 -45.5q0 -28 -18.5 -46t-47.5 -18zM551 744q-28 0 -46.5 18t-18.5 46q0 26 18.5 45.5t46.5 19.5t47 -19.5t19 -45.5q0 -28 -18.5 -46t-47.5 -18zM387 224l-52 -224h-108l52 223l-168 447h112
l128 -336l283 336h131z" />
    <glyph glyph-name="Zacute" unicode="&#x179;" horiz-adv-x="626" 
d="M486 741h-96l106 142h130zM653 590l-483 -498h373l-21 -92h-526l16 69l500 509h-371l20 92h510z" />
    <glyph glyph-name="zacute" unicode="&#x17a;" horiz-adv-x="515" 
d="M386 567h-96l106 142h130zM521 496l-16 -70l-361 -340h294l-20 -86h-435l16 69l359 341h-272l20 86h415z" />
    <glyph glyph-name="Zdotaccent" unicode="&#x17b;" horiz-adv-x="626" 
d="M449 752q-28 0 -46 18t-18 45q0 26 18.5 44.5t45.5 18.5t46 -18.5t19 -44.5q0 -27 -18.5 -45t-46.5 -18zM653 590l-483 -498h373l-21 -92h-526l16 69l500 509h-371l20 92h510z" />
    <glyph glyph-name="zdotaccent" unicode="&#x17c;" horiz-adv-x="515" 
d="M349 578q-28 0 -46 18t-18 45q0 26 18.5 44.5t45.5 18.5t46 -18.5t19 -44.5q0 -27 -18.5 -45t-46.5 -18zM505 426l-361 -340h294l-20 -86h-435l16 69l359 341h-272l20 86h415z" />
    <glyph glyph-name="Zcaron" unicode="&#x17d;" horiz-adv-x="626" 
d="M383 733l-81 146h98l42 -78l79 78h110l-149 -146h-99zM653 590l-483 -498h373l-21 -92h-526l16 69l500 509h-371l20 92h510z" />
    <glyph glyph-name="zcaron" unicode="&#x17e;" horiz-adv-x="515" 
d="M283 559l-81 146h98l42 -78l79 78h110l-149 -146h-99zM521 496l-16 -70l-361 -340h294l-20 -86h-435l16 69l359 341h-272l20 86h415z" />
    <glyph glyph-name="florin" unicode="&#x192;" horiz-adv-x="569" 
d="M520 683q82 0 123 -36l-55 -84q-30 28 -78 28q-84 0 -125 -96l-50 -121h168l-19 -86h-184l-123 -298q-64 -155 -209 -155q-59 0 -94 26l54 84q26 -12 54 -12q29 0 53.5 16t34.5 41l124 298h-113l19 86h130l56 136q35 84 96 128.5t138 44.5z" />
    <glyph glyph-name="AEacute" unicode="&#x1fc;" horiz-adv-x="1147" 
d="M931 741h-96l106 142h130zM772 573l-44 -189h361l-22 -96h-361l-44 -191h392l-22 -97h-500l32 139h-320l-146 -139h-143l719 670h510l-22 -97h-390zM587 236l68 295l-309 -295h241z" />
    <glyph glyph-name="aeacute" unicode="&#x1fd;" horiz-adv-x="912" 
d="M595 567h-96l106 142h130zM670 510q103 0 162 -73t42 -188l-6 -36h-391q-1 -65 33.5 -101t95.5 -36q38 0 79.5 20.5t68.5 64.5l90 -20q-31 -69 -101 -112t-151 -43q-125 0 -176 100q-39 -44 -100 -72t-129 -28q-83 0 -128.5 37.5t-45.5 100.5q0 73 56.5 118.5t152.5 45.5
h170l5 30q7 47 -19.5 75.5t-76.5 28.5q-48 0 -83.5 -24t-48.5 -65l-92 21q20 69 85 112.5t154 43.5q118 0 161 -79q84 79 193 79zM487 288h287q1 64 -30.5 98.5t-84.5 34.5q-57 0 -105 -35t-67 -98zM381 213h-163q-50 0 -79.5 -21t-29.5 -56q0 -30 24.5 -48t66.5 -18
q61 0 115.5 39t63.5 93z" />
    <glyph glyph-name="Scommaaccent" unicode="&#x218;" horiz-adv-x="627" 
d="M388 684q105 0 169 -51t72 -140l-108 -23q-2 55 -41.5 89t-102.5 34q-62 0 -102.5 -32t-40.5 -79q0 -27 16.5 -44t55.5 -31l107 -35q148 -48 148 -167q0 -99 -74.5 -159t-195.5 -60q-110 0 -185.5 52t-81.5 150l114 23q4 -64 47 -98t115 -34t113 31.5t41 82.5
q0 29 -18 47.5t-62 33.5l-106 34q-68 23 -107 58t-39 102q0 95 74.5 155.5t191.5 60.5zM124 -191l82 146h114l-117 -146h-79z" />
    <glyph glyph-name="scommaaccent" unicode="&#x219;" horiz-adv-x="505" 
d="M9 125l103 30q7 -41 43 -64t82 -23t75 20t29 50q0 35 -57 55l-92 30q-111 34 -111 128q0 70 54.5 114.5t145.5 44.5q83 0 140 -38t69 -97l-90 -28q-5 36 -37.5 58t-81.5 22q-48 0 -72.5 -19t-24.5 -48q0 -19 15 -32.5t50 -25.5l63 -20q65 -22 98 -54t33 -84
q0 -73 -60.5 -115.5t-152.5 -42.5q-82 0 -144 36.5t-77 102.5zM60 -191l82 146h114l-117 -146h-79z" />
    <glyph glyph-name="uni021A" unicode="&#x21a;" horiz-adv-x="625" 
d="M677 573h-235l-132 -573h-108l132 573h-236l22 97h580zM191 -45h114l-117 -146h-79z" />
    <glyph glyph-name="uni021B" unicode="&#x21b;" horiz-adv-x="403" 
d="M237 410l-54 -234q-21 -92 50 -92q43 0 94 27l7 -91q-62 -34 -125 -34q-79 0 -115.5 46.5t-15.5 136.5l55 241h-95l20 86h95l35 154h105l-36 -154h170l-19 -86h-171zM105 -45h114l-117 -146h-79z" />
    <glyph glyph-name="circumflex" unicode="&#x2c6;" horiz-adv-x="600" 
d="M426 559l-42 77l-79 -77h-110l149 145h99l81 -145h-98z" />
    <glyph glyph-name="caron" unicode="&#x2c7;" horiz-adv-x="600" 
d="M539 705l-149 -146h-99l-81 146h98l42 -78l79 78h110z" />
    <glyph glyph-name="breve" unicode="&#x2d8;" horiz-adv-x="600" 
d="M340 551q-72 0 -106 38.5t-19 103.5h81q-7 -31 9 -50.5t45 -19.5q30 0 53.5 19.5t30.5 50.5h93q-15 -65 -65.5 -103.5t-121.5 -38.5z" />
    <glyph glyph-name="dotaccent" unicode="&#x2d9;" horiz-adv-x="600" 
d="M357 704q27 0 46 -18.5t19 -44.5q0 -27 -18.5 -45t-46.5 -18t-46 18t-18 45q0 26 18.5 44.5t45.5 18.5z" />
    <glyph glyph-name="ring" unicode="&#x2da;" horiz-adv-x="600" 
d="M471 662q0 -48 -35.5 -81.5t-84.5 -33.5q-45 0 -74 29t-29 71q0 47 35.5 81t84.5 34q45 0 74 -29t29 -71zM408 659q0 18 -12.5 30t-32.5 12q-21 0 -35.5 -14.5t-14.5 -35.5q0 -19 11.5 -31.5t31.5 -12.5q21 0 36.5 15.5t15.5 36.5z" />
    <glyph glyph-name="ogonek" unicode="&#x2db;" horiz-adv-x="600" 
d="M275 3l70 -3l-20 -18q-12 -10 -17.5 -15t-14.5 -12.5t-12.5 -11.5t-9 -10t-8 -10t-5 -9t-3.5 -9.5t-1 -9.5q0 -28 32 -28q13 0 48 11l-14 -66q-33 -17 -68 -17q-37 0 -59.5 20t-22.5 54q0 31 22.5 62t82.5 72z" />
    <glyph glyph-name="tilde" unicode="&#x2dc;" horiz-adv-x="600" 
d="M261 589h-71q14 61 49.5 88.5t74.5 27.5q34 0 63 -21.5t49 -21.5q15 0 26 12t16 31h71q-15 -63 -50 -90.5t-75 -27.5q-34 0 -63 21t-49 21q-15 0 -26 -11t-15 -29z" />
    <glyph glyph-name="hungarumlaut" unicode="&#x2dd;" horiz-adv-x="600" 
d="M300 567h-94l106 142h129zM470 567h-94l106 142h129z" />
    <glyph glyph-name="uni0326" unicode="&#x326;" horiz-adv-x="0" 
d="M82 -191l82 146h114l-117 -146h-79z" />
    <glyph glyph-name="Wgrave" unicode="&#x1e80;" horiz-adv-x="963" 
d="M547 741l-140 142h130l106 -142h-96zM1041 670l-355 -670h-115l-35 498l-266 -498h-113l-46 670h108l30 -505l270 505h106l36 -505l264 505h116z" />
    <glyph glyph-name="wgrave" unicode="&#x1e81;" horiz-adv-x="790" 
d="M422 567l-140 142h130l106 -142h-96zM829 496l-282 -498h-98l-38 334l-193 -334h-94l-52 498h99l36 -345l198 345h82l39 -346l196 346h107z" />
    <glyph glyph-name="Wacute" unicode="&#x1e82;" horiz-adv-x="963" 
d="M645 741h-96l106 142h130zM1041 670l-355 -670h-115l-35 498l-266 -498h-113l-46 670h108l30 -505l270 505h106l36 -505l264 505h116z" />
    <glyph glyph-name="wacute" unicode="&#x1e83;" horiz-adv-x="790" 
d="M520 567h-96l106 142h130zM829 496l-282 -498h-98l-38 334l-193 -334h-94l-52 498h99l36 -345l198 345h82l39 -346l196 346h107z" />
    <glyph glyph-name="Wdieresis" unicode="&#x1e84;" horiz-adv-x="963" 
d="M504 744q-28 0 -46.5 18t-18.5 46q0 26 18.5 45.5t46.5 19.5t47 -19.5t19 -45.5q0 -28 -18.5 -46t-47.5 -18zM711 744q-28 0 -46.5 18t-18.5 46q0 26 18.5 45.5t46.5 19.5t47 -19.5t19 -45.5q0 -28 -18.5 -46t-47.5 -18zM1041 670l-355 -670h-115l-35 498l-266 -498h-113
l-46 670h108l30 -505l270 505h106l36 -505l264 505h116z" />
    <glyph glyph-name="wdieresis" unicode="&#x1e85;" horiz-adv-x="790" 
d="M379 570q-28 0 -46.5 18t-18.5 46q0 26 18.5 45.5t46.5 19.5t47 -19.5t19 -45.5q0 -28 -18.5 -46t-47.5 -18zM586 570q-28 0 -46.5 18t-18.5 46q0 26 18.5 45.5t46.5 19.5t47 -19.5t19 -45.5q0 -28 -18.5 -46t-47.5 -18zM829 496l-282 -498h-98l-38 334l-193 -334h-94
l-52 498h99l36 -345l198 345h82l39 -346l196 346h107z" />
    <glyph glyph-name="Ygrave" unicode="&#x1ef2;" horiz-adv-x="682" 
d="M387 741l-140 142h130l106 -142h-96zM387 224l-52 -224h-108l52 223l-168 447h112l128 -336l283 336h131z" />
    <glyph glyph-name="ygrave" unicode="&#x1ef3;" horiz-adv-x="572" 
d="M308 568l-140 142h130l106 -142h-96zM611 496l-443 -666h-119l122 182l-99 484h109l72 -362l243 362h115z" />
    <glyph glyph-name="endash" unicode="&#x2013;" horiz-adv-x="621" 
d="M553 215h-500l18 80h500z" />
    <glyph glyph-name="emdash" unicode="&#x2014;" horiz-adv-x="1041" 
d="M973 215h-920l18 80h920z" />
    <glyph glyph-name="quoteleft" unicode="&#x2018;" horiz-adv-x="266" 
d="M241 670h84l-124 -265h-126l1 2z" />
    <glyph glyph-name="quoteright" unicode="&#x2019;" horiz-adv-x="266" 
d="M159 405h-84l125 265h125l-1 -3z" />
    <glyph glyph-name="quotesinglbase" unicode="&#x201a;" horiz-adv-x="266" 
d="M35 -132h-84l125 266h125l-1 -3z" />
    <glyph glyph-name="quotedblleft" unicode="&#x201c;" horiz-adv-x="444" 
d="M241 670h84l-124 -265h-126l1 2zM419 670h84l-125 -265h-125l1 2z" />
    <glyph glyph-name="quotedblright" unicode="&#x201d;" horiz-adv-x="444" 
d="M159 405h-84l125 265h125l-1 -3zM336 405h-83l124 265h126l-1 -3z" />
    <glyph glyph-name="quotedblbase" unicode="&#x201e;" horiz-adv-x="444" 
d="M35 -132h-84l125 266h125l-1 -3zM213 -132h-84l124 266h126l-1 -3z" />
    <glyph glyph-name="dagger" unicode="&#x2020;" horiz-adv-x="382" 
d="M416 582h-111l-57 -244h-73l56 244h-111l16 68h111l21 90h74l-21 -90h111z" />
    <glyph glyph-name="daggerdbl" unicode="&#x2021;" horiz-adv-x="382" 
d="M305 582l-20 -86h112l-16 -68h-112l-21 -90h-73l21 90h-112l17 68h111l19 86h-111l16 68h111l21 90h74l-21 -90h111l-16 -68h-111z" />
    <glyph glyph-name="bullet" unicode="&#x2022;" horiz-adv-x="418" 
d="M212 416q68 0 114 -46t46 -109q0 -66 -45.5 -110t-114.5 -44t-114.5 44t-45.5 110q0 63 46 109t114 46z" />
    <glyph glyph-name="ellipsis" unicode="&#x2026;" horiz-adv-x="715" 
d="M69 123q28 0 46.5 -18.5t18.5 -44.5q0 -27 -18.5 -45.5t-46.5 -18.5t-47 18.5t-19 45.5q0 26 19 44.5t47 18.5zM314 123q28 0 46.5 -18.5t18.5 -44.5q0 -27 -18.5 -45.5t-46.5 -18.5t-47 18.5t-19 45.5q0 26 19 44.5t47 18.5zM559 123q28 0 46.5 -18.5t18.5 -44.5
q0 -27 -18.5 -45.5t-46.5 -18.5t-47 18.5t-19 45.5q0 26 19 44.5t47 18.5z" />
    <glyph glyph-name="perthousand" unicode="&#x2030;" horiz-adv-x="1269" 
d="M293 684q65 0 108 -40t43 -105q0 -76 -55 -126t-128 -50q-65 0 -108 40.5t-43 106.5q0 76 55 125t128 49zM98 0l650 670h72l-650 -670h-72zM287 612q-38 0 -68 -27t-30 -70q0 -36 23 -58t55 -22q38 0 68 27.5t30 70.5q0 36 -22.5 57.5t-55.5 21.5zM671 307q65 0 108 -40
t43 -105q0 -76 -54.5 -126t-128.5 -50q-64 0 -107.5 41t-43.5 106q0 76 55 125t128 49zM1049 307q65 0 107.5 -39.5t42.5 -105.5q0 -76 -54.5 -126t-128.5 -50q-64 0 -107 41t-43 106q0 76 55 125t128 49zM665 236q-38 0 -68 -27.5t-30 -69.5q0 -37 23 -58.5t55 -21.5
q38 0 68 27.5t30 70.5q0 36 -22.5 57.5t-55.5 21.5zM1043 236q-38 0 -68 -27.5t-30 -69.5q0 -37 22.5 -58.5t54.5 -21.5q38 0 68 27t30 71q0 36 -22 57.5t-55 21.5z" />
    <glyph glyph-name="guilsinglleft" unicode="&#x2039;" horiz-adv-x="271" 
d="M29 262l158 178h104l-165 -183l75 -173h-96z" />
    <glyph glyph-name="guilsinglright" unicode="&#x203a;" horiz-adv-x="271" 
d="M250 262l-158 -178h-105l165 183l-75 173h97z" />
    <glyph glyph-name="fraction" unicode="&#x2044;" horiz-adv-x="227" 
d="M-255 0l650 670h72l-650 -670h-72z" />
    <glyph glyph-name="Euro" unicode="&#x20ac;" horiz-adv-x="799" 
d="M451 87q124 0 192 155l102 -23q-43 -107 -125.5 -170t-183.5 -63q-100 0 -163 64t-73 173h-122l17 77h105q3 37 10 67h-101l18 76h104q42 110 127 175.5t192 65.5q102 0 165 -63t71 -170l-112 -22q-4 76 -42 115.5t-97 39.5q-61 0 -110.5 -37.5t-79.5 -103.5h232l-31 -76
h-227q-8 -41 -9 -67h204l-31 -77h-171q11 -63 47.5 -99.5t91.5 -36.5z" />
    <glyph glyph-name="uni2116" unicode="&#x2116;" horiz-adv-x="1211" 
d="M1029 680q69 0 116.5 -42t47.5 -112q0 -78 -58.5 -132t-137.5 -54q-67 0 -113 41.5t-46 111.5q0 79 57 133t134 54zM778 670l-154 -670h-91l-288 493l-114 -493h-107l154 670h91l285 -498l116 498h108zM1006 417q41 0 72 29.5t31 72.5q0 37 -25.5 60.5t-61.5 23.5
q-40 0 -69.5 -29.5t-29.5 -71.5q0 -37 24 -61t59 -24zM791 276h331l-21 -85h-330z" />
    <glyph glyph-name="uni2117" unicode="&#x2117;" horiz-adv-x="766" 
d="M402 684q145 0 247 -100t102 -251q0 -149 -102 -248t-247 -99t-247 99t-102 248q0 151 102 251t247 100zM402 34q123 0 210 85.5t87 214.5q0 130 -87 216.5t-210 86.5q-124 0 -210.5 -86.5t-86.5 -216.5q0 -129 86.5 -214.5t210.5 -85.5zM272 516h166q65 0 103.5 -34.5
t38.5 -91.5q0 -59 -38.5 -94.5t-103.5 -35.5h-101v-112h-65v368zM337 319h96q38 0 61 19.5t23 51.5q0 31 -23 49.5t-61 18.5h-96v-139z" />
    <glyph glyph-name="trademark" unicode="&#x2122;" horiz-adv-x="659" 
d="M361 618h-89l-50 -217h-62l50 217h-88l12 52h239zM648 401h-58l40 174l-113 -173h-37l-34 174l-39 -175h-58l61 269h67l37 -187l123 187h73z" />
    <glyph glyph-name="oneeighth" unicode="&#x215b;" horiz-adv-x="774" 
d="M727 670l-650 -670h-72l650 670h72zM179 573l-98 -46l18 79l129 64h50l-86 -375h-77zM741 278q0 -35 -21 -61.5t-60 -37.5q53 -27 53 -83q0 -50 -42 -81.5t-108 -31.5q-64 0 -102.5 29.5t-37.5 77.5q1 34 27 62t70 38q-47 27 -47 81q0 48 39 77.5t101 29.5q59 0 94 -27
t34 -73zM603 218q30 0 49 15t19 40q0 24 -17 37t-44 13q-29 0 -47 -14t-19 -40q-1 -24 15.5 -37.5t43.5 -13.5zM564 42q31 0 52 15.5t21 42.5q0 25 -18 39t-47 14q-31 0 -51.5 -16t-20.5 -44q0 -24 17.5 -37.5t46.5 -13.5z" />
    <glyph glyph-name="threeeighths" unicode="&#x215c;" horiz-adv-x="872" 
d="M358 414q-2 -55 -45.5 -90t-110.5 -35q-63 0 -100.5 34.5t-35.5 91.5l67 14q-1 -36 20 -57t56 -21q34 0 56 17.5t22 44.5q0 50 -62 50h-42l14 55h40q34 0 58 14.5t24 41.5q1 23 -14.5 37t-44.5 14q-31 0 -54 -22t-29 -57l-64 14q8 55 50.5 90t103.5 35q57 0 91 -29
t32 -75q-1 -68 -74 -93q44 -22 42 -74zM821 670l-650 -670h-72l650 670h72zM834 278q0 -35 -21 -61.5t-60 -37.5q53 -27 53 -83q0 -50 -42 -81.5t-108 -31.5q-64 0 -102.5 29.5t-37.5 77.5q1 34 27 62t70 38q-47 27 -47 81q0 48 39 77.5t101 29.5q59 0 94 -27t34 -73z
M696 218q30 0 49 15t19 40q0 24 -17 37t-44 13q-29 0 -47 -14t-19 -40q-1 -24 15.5 -37.5t43.5 -13.5zM657 42q31 0 52 15.5t21 42.5q0 25 -18 39t-47 14q-31 0 -51.5 -16t-20.5 -44q0 -24 17.5 -37.5t46.5 -13.5z" />
    <glyph glyph-name="fiveeighths" unicode="&#x215d;" horiz-adv-x="871" 
d="M361 426q0 -62 -44 -100t-115 -38q-60 0 -98.5 32t-41.5 79l74 13q4 -27 23 -43t48 -16q36 0 58 18.5t22 49.5q0 23 -16 36.5t-43 13.5h-132l50 199h253l-14 -68h-187l-16 -68h60q53 0 86 -29.5t33 -78.5zM831 670l-650 -670h-72l650 670h72zM836 278q0 -35 -21 -61.5
t-60 -37.5q53 -27 53 -83q0 -50 -42 -81.5t-108 -31.5q-64 0 -102.5 29.5t-37.5 77.5q1 34 27 62t70 38q-47 27 -47 81q0 48 39 77.5t101 29.5q59 0 94 -27t34 -73zM698 218q30 0 49 15t19 40q0 24 -17 37t-44 13q-29 0 -47 -14t-19 -40q-1 -24 15.5 -37.5t43.5 -13.5z
M659 42q31 0 52 15.5t21 42.5q0 25 -18 39t-47 14q-31 0 -51.5 -16t-20.5 -44q0 -24 17.5 -37.5t46.5 -13.5z" />
    <glyph glyph-name="seveneighths" unicode="&#x215e;" horiz-adv-x="771" 
d="M715 670l-650 -670h-72l650 670h72zM64 296l215 306h-187l16 68h274l-13 -59l-218 -315h-87zM736 278q0 -35 -21 -61.5t-60 -37.5q53 -27 53 -83q0 -50 -42 -81.5t-108 -31.5q-64 0 -102.5 29.5t-37.5 77.5q1 34 27 62t70 38q-47 27 -47 81q0 48 39 77.5t101 29.5
q59 0 94 -27t34 -73zM598 218q30 0 49 15t19 40q0 24 -17 37t-44 13q-29 0 -47 -14t-19 -40q-1 -24 15.5 -37.5t43.5 -13.5zM559 42q31 0 52 15.5t21 42.5q0 25 -18 39t-47 14q-31 0 -51.5 -16t-20.5 -44q0 -24 17.5 -37.5t46.5 -13.5z" />
    <glyph glyph-name="arrowleft" unicode="&#x2190;" horiz-adv-x="727" 
d="M687 270h-470l202 -202l-76 -77l-333 333l334 334l76 -77l-203 -203h470v-108z" />
    <glyph glyph-name="arrowup" unicode="&#x2191;" horiz-adv-x="747" 
d="M631 268l-203 203v-471h-108v471l-203 -204l-77 76l334 334l333 -333z" />
    <glyph glyph-name="arrowright" unicode="&#x2192;" horiz-adv-x="727" 
d="M717 324l-333 -333l-76 77l203 202h-471v108h471l-204 203l76 77z" />
    <glyph glyph-name="arrowdown" unicode="&#x2193;" horiz-adv-x="747" 
d="M707 326l-333 -333l-334 334l77 76l203 -203v470h108v-470l203 202z" />
    <glyph glyph-name="uni2196" unicode="&#x2196;" horiz-adv-x="747" 
d="M631 -8l-493 494v-308h-108v492h491v-107h-308l494 -494z" />
    <glyph glyph-name="uni2197" unicode="&#x2197;" horiz-adv-x="747" 
d="M717 670v-492h-108v309l-493 -495l-76 77l493 494h-307l-1 107h492z" />
    <glyph glyph-name="uni2198" unicode="&#x2198;" horiz-adv-x="747" 
d="M717 492v-492h-492l1 108h307l-493 493l76 77l493 -495v309h108z" />
    <glyph glyph-name="uni2199" unicode="&#x2199;" horiz-adv-x="747" 
d="M213 108h308v-108h-491v492h108v-308l493 494l76 -77z" />
    <glyph glyph-name="minus" unicode="&#x2212;" horiz-adv-x="581" 
d="M518 259h-450l22 92h450z" />
    <glyph glyph-name="approxequal" unicode="&#x2248;" horiz-adv-x="580" 
d="M561 444l-20 -88q-45 -20 -106 -20q-51 0 -112 24.5t-110 24.5q-79 0 -123 -31l20 87q46 31 123 31q50 0 113 -24.5t111 -24.5q65 0 104 21zM526 292l-21 -88q-45 -21 -105 -21q-52 0 -113 25t-110 25q-79 0 -122 -31l20 87q46 31 122 31q50 0 113.5 -24.5t111.5 -24.5
q65 0 104 21z" />
    <glyph glyph-name="notequal" unicode="&#x2260;" horiz-adv-x="581" 
d="M389 371l-82 -102h214l-22 -91h-265l-64 -80h-94l64 80h-91l22 91h142l82 102h-201l22 91h252l67 83h94l-67 -83h104l-22 -91h-155z" />
    <glyph glyph-name="lessequal" unicode="&#x2264;" horiz-adv-x="427" 
d="M172 369l224 -70l-22 -99l-325 128l23 99l385 127l-27 -112zM19 177h354l-21 -91h-354z" />
    <glyph glyph-name="greaterequal" unicode="&#x2265;" horiz-adv-x="428" 
d="M314 385l-225 71l24 100l326 -128l-23 -99l-384 -128l23 111zM359 86h-354l21 91h354z" />
    <glyph glyph-name="K.ss03" horiz-adv-x="691" 
d="M431 384l191 -384h-122l-152 308l-191 -175l-31 -133h-108l155 670h107l-85 -370l415 370h133z" />
    <glyph glyph-name="Kcommaaccent.ss03" horiz-adv-x="691" 
d="M431 384l191 -384h-122l-152 308l-191 -175l-31 -133h-108l155 670h107l-85 -370l415 370h133zM236 -45h114l-117 -146h-79z" />
    <glyph glyph-name="Q.ss04" horiz-adv-x="794" 
d="M629 -170l-135 173q-57 -18 -119 -18q-151 0 -238.5 101t-66.5 249q21 146 135.5 248t255.5 102q152 0 239.5 -102.5t66.5 -248.5q-13 -90 -57 -162t-112 -119l179 -223h-148zM177 334q-15 -105 44.5 -176t155.5 -71q107 0 186.5 70t94.5 177q16 106 -42.5 178t-156.5 72
q-107 0 -186.5 -71.5t-95.5 -178.5z" />
    <glyph glyph-name="I.ss05" horiz-adv-x="448" 
d="M353 573l-110 -476h148l-22 -97h-403l22 97h148l110 476h-148l22 97h403l-22 -97h-148z" />
    <glyph glyph-name="IJ.ss05" horiz-adv-x="1042" 
d="M243 97h148l-22 -97h-403l22 97h148l110 476h-148l22 97h403l-22 -97h-148zM1073 670l-101 -430q-28 -120 -105 -187t-189 -67q-98 0 -159 59.5t-62 158.5l102 21q-1 -64 32.5 -103t95.5 -39q65 0 112.5 43.5t64.5 113.5l78 333h-266l22 97h375z" />
    <glyph glyph-name="Iacute.ss05" horiz-adv-x="448" 
d="M390 741h-96l106 142h130zM523 670l-22 -97h-148l-110 -476h148l-22 -97h-403l22 97h148l110 476h-148l22 97h403z" />
    <glyph glyph-name="Icircumflex.ss05" horiz-adv-x="448" 
d="M301 733h-110l149 145h99l82 -145h-99l-42 77zM353 573l-110 -476h148l-22 -97h-403l22 97h148l110 476h-148l22 97h403l-22 -97h-148z" />
    <glyph glyph-name="Idieresis.ss05" horiz-adv-x="448" 
d="M249 744q-28 0 -46.5 18t-18.5 46q0 26 18.5 45.5t46.5 19.5t47 -19.5t19 -45.5q0 -28 -18.5 -46t-47.5 -18zM456 744q-28 0 -46.5 18t-18.5 46q0 26 18.5 45.5t46.5 19.5t47 -19.5t19 -45.5q0 -28 -18.5 -46t-47.5 -18zM353 573l-110 -476h148l-22 -97h-403l22 97h148
l110 476h-148l22 97h403l-22 -97h-148z" />
    <glyph glyph-name="Idotaccent.ss05" horiz-adv-x="448" 
d="M353 752q-28 0 -46 18t-18 45q0 26 18.5 44.5t45.5 18.5t46 -18.5t19 -44.5q0 -27 -18.5 -45t-46.5 -18zM353 573l-110 -476h148l-22 -97h-403l22 97h148l110 476h-148l22 97h403l-22 -97h-148z" />
    <glyph glyph-name="Igrave.ss05" horiz-adv-x="448" 
d="M292 741l-140 142h130l106 -142h-96zM353 573l-110 -476h148l-22 -97h-403l22 97h148l110 476h-148l22 97h403l-22 -97h-148z" />
    <glyph glyph-name="Imacron.ss05" horiz-adv-x="448" 
d="M491 752h-301l19 85h301zM353 573l-110 -476h148l-22 -97h-403l22 97h148l110 476h-148l22 97h403l-22 -97h-148z" />
    <glyph glyph-name="Iogonek.ss05" horiz-adv-x="448" 
d="M353 573l-110 -476h148l-22 -97h-148l-20 -18q-12 -10 -17.5 -15t-14.5 -12.5t-12.5 -11.5t-9 -10t-8 -10t-5 -9t-3.5 -9.5t-1 -9.5q0 -28 32 -28q13 0 48 11l-14 -66q-33 -17 -68 -17q-37 0 -59.5 20t-22.5 54q0 62 101 131h-181l22 97h148l110 476h-148l22 97h403
l-22 -97h-148z" />
    <glyph glyph-name="J.ss05" horiz-adv-x="594" 
d="M625 670l-101 -430q-28 -120 -105 -187t-189 -67q-98 0 -159 59.5t-62 158.5l102 21q-1 -64 32.5 -103t95.5 -39q65 0 112.5 43.5t64.5 113.5l78 333h-266l22 97h375z" />
    <glyph glyph-name="i.loclTRK" horiz-adv-x="287" 
d="M233 704q27 0 46 -18.5t19 -44.5q0 -27 -18.5 -45t-46.5 -18t-46 18t-18 45q0 26 18.5 44.5t45.5 18.5zM138 0h-104l115 496h104z" />
    <glyph glyph-name="germandbls.case" horiz-adv-x="1233" 
d="M388 684q105 0 169 -51t72 -140l-108 -23q-2 55 -41.5 89t-102.5 34q-62 0 -102.5 -32t-40.5 -79q0 -27 16.5 -44t55.5 -31l107 -35q148 -48 148 -167q0 -99 -74.5 -159t-195.5 -60q-110 0 -185.5 52t-81.5 150l114 23q4 -64 47 -98t115 -34t113 31.5t41 82.5
q0 29 -18 47.5t-62 33.5l-106 34q-68 23 -107 58t-39 102q0 95 74.5 155.5t191.5 60.5zM995 684q105 0 169 -51t72 -140l-108 -23q-2 55 -41.5 89t-102.5 34q-62 0 -102.5 -32t-40.5 -79q0 -27 16.5 -44t55.5 -31l107 -35q148 -48 148 -167q0 -99 -74.5 -159t-195.5 -60
q-110 0 -185.5 52t-81.5 150l114 23q4 -64 47 -98t115 -34t113 31.5t41 82.5q0 29 -18 47.5t-62 33.5l-106 34q-68 23 -107 58t-39 102q0 95 74.5 155.5t191.5 60.5z" />
    <glyph glyph-name="a.ss01" horiz-adv-x="556" 
d="M327 510q103 0 154.5 -55t28.5 -152l-70 -303h-99l12 54q-75 -68 -180 -68q-75 0 -118.5 35.5t-43.5 97.5q0 76 64.5 127t176.5 51h157l4 18q11 48 -14.5 77t-80.5 29q-48 0 -87.5 -23.5t-57.5 -64.5l-93 25q29 68 97 110t150 42zM206 70q61 0 112.5 35t65.5 85l7 27
h-162q-52 0 -83.5 -23.5t-31.5 -58.5q0 -30 25 -47.5t67 -17.5z" />
    <glyph glyph-name="aacute.ss01" horiz-adv-x="556" 
d="M422 567h-96l106 142h130zM327 510q103 0 154.5 -55t28.5 -152l-70 -303h-99l12 54q-75 -68 -180 -68q-75 0 -118.5 35.5t-43.5 97.5q0 76 64.5 127t176.5 51h157l4 18q11 48 -14.5 77t-80.5 29q-48 0 -87.5 -23.5t-57.5 -64.5l-93 25q29 68 97 110t150 42zM206 70
q61 0 112.5 35t65.5 85l7 27h-162q-52 0 -83.5 -23.5t-31.5 -58.5q0 -30 25 -47.5t67 -17.5z" />
    <glyph glyph-name="abreve.ss01" horiz-adv-x="556" 
d="M368 551q-72 0 -106 38.5t-19 103.5h81q-7 -31 9 -50.5t45 -19.5q30 0 53.5 19.5t30.5 50.5h93q-15 -65 -65.5 -103.5t-121.5 -38.5zM327 510q103 0 154.5 -55t28.5 -152l-70 -303h-99l12 54q-75 -68 -180 -68q-75 0 -118.5 35.5t-43.5 97.5q0 76 64.5 127t176.5 51h157
l4 18q11 48 -14.5 77t-80.5 29q-48 0 -87.5 -23.5t-57.5 -64.5l-93 25q29 68 97 110t150 42zM206 70q61 0 112.5 35t65.5 85l7 27h-162q-52 0 -83.5 -23.5t-31.5 -58.5q0 -30 25 -47.5t67 -17.5z" />
    <glyph glyph-name="acircumflex.ss01" horiz-adv-x="556" 
d="M333 559h-110l149 145h99l82 -145h-99l-42 77zM327 510q103 0 154.5 -55t28.5 -152l-70 -303h-99l12 54q-75 -68 -180 -68q-75 0 -118.5 35.5t-43.5 97.5q0 76 64.5 127t176.5 51h157l4 18q11 48 -14.5 77t-80.5 29q-48 0 -87.5 -23.5t-57.5 -64.5l-93 25q29 68 97 110
t150 42zM206 70q61 0 112.5 35t65.5 85l7 27h-162q-52 0 -83.5 -23.5t-31.5 -58.5q0 -30 25 -47.5t67 -17.5z" />
    <glyph glyph-name="adieresis.ss01" horiz-adv-x="556" 
d="M281 570q-28 0 -46.5 18t-18.5 46q0 26 18.5 45.5t46.5 19.5t47 -19.5t19 -45.5q0 -28 -18.5 -46t-47.5 -18zM488 699q28 0 47 -19.5t19 -45.5q0 -28 -18.5 -46t-47.5 -18q-28 0 -46.5 18t-18.5 46q0 26 18.5 45.5t46.5 19.5zM327 510q103 0 154.5 -55t28.5 -152
l-70 -303h-99l12 54q-75 -68 -180 -68q-75 0 -118.5 35.5t-43.5 97.5q0 76 64.5 127t176.5 51h157l4 18q11 48 -14.5 77t-80.5 29q-48 0 -87.5 -23.5t-57.5 -64.5l-93 25q29 68 97 110t150 42zM206 70q61 0 112.5 35t65.5 85l7 27h-162q-52 0 -83.5 -23.5t-31.5 -58.5
q0 -30 25 -47.5t67 -17.5z" />
    <glyph glyph-name="agrave.ss01" horiz-adv-x="556" 
d="M324 567l-140 142h130l106 -142h-96zM327 510q103 0 154.5 -55t28.5 -152l-70 -303h-99l12 54q-75 -68 -180 -68q-75 0 -118.5 35.5t-43.5 97.5q0 76 64.5 127t176.5 51h157l4 18q11 48 -14.5 77t-80.5 29q-48 0 -87.5 -23.5t-57.5 -64.5l-93 25q29 68 97 110t150 42z
M206 70q61 0 112.5 35t65.5 85l7 27h-162q-52 0 -83.5 -23.5t-31.5 -58.5q0 -30 25 -47.5t67 -17.5z" />
    <glyph glyph-name="amacron.ss01" horiz-adv-x="556" 
d="M542 663l-19 -85h-301l19 85h301zM327 510q103 0 154.5 -55t28.5 -152l-70 -303h-99l12 54q-75 -68 -180 -68q-75 0 -118.5 35.5t-43.5 97.5q0 76 64.5 127t176.5 51h157l4 18q11 48 -14.5 77t-80.5 29q-48 0 -87.5 -23.5t-57.5 -64.5l-93 25q29 68 97 110t150 42z
M206 70q61 0 112.5 35t65.5 85l7 27h-162q-52 0 -83.5 -23.5t-31.5 -58.5q0 -30 25 -47.5t67 -17.5z" />
    <glyph glyph-name="aogonek.ss01" horiz-adv-x="556" 
d="M327 510q103 0 154.5 -55t28.5 -152l-70 -303l-20 -18q-12 -10 -17.5 -15t-14.5 -12.5t-12.5 -11.5t-9 -10t-8 -10t-5 -9t-3.5 -9.5t-1 -9.5q0 -28 32 -28q13 0 48 11l-14 -66q-33 -17 -68 -17q-37 0 -59.5 20t-22.5 54q0 62 101 131h-25l12 54q-75 -68 -180 -68
q-75 0 -118.5 35.5t-43.5 97.5q0 76 64.5 127t176.5 51h157l4 18q11 48 -14.5 77t-80.5 29q-48 0 -87.5 -23.5t-57.5 -64.5l-93 25q29 68 97 110t150 42zM206 70q61 0 112.5 35t65.5 85l7 27h-162q-52 0 -83.5 -23.5t-31.5 -58.5q0 -30 25 -47.5t67 -17.5z" />
    <glyph glyph-name="aring.ss01" horiz-adv-x="556" 
d="M379 547q-45 0 -74 29t-29 71q0 47 35.5 81t84.5 34q45 0 74 -29t29 -71q0 -48 -35.5 -81.5t-84.5 -33.5zM391 701q-21 0 -35.5 -14.5t-14.5 -35.5q0 -19 11.5 -31.5t31.5 -12.5q21 0 36.5 15.5t15.5 36.5q0 18 -12.5 30t-32.5 12zM327 510q103 0 154.5 -55t28.5 -152
l-70 -303h-99l12 54q-75 -68 -180 -68q-75 0 -118.5 35.5t-43.5 97.5q0 76 64.5 127t176.5 51h157l4 18q11 48 -14.5 77t-80.5 29q-48 0 -87.5 -23.5t-57.5 -64.5l-93 25q29 68 97 110t150 42zM206 70q61 0 112.5 35t65.5 85l7 27h-162q-52 0 -83.5 -23.5t-31.5 -58.5
q0 -30 25 -47.5t67 -17.5z" />
    <glyph glyph-name="atilde.ss01" horiz-adv-x="556" 
d="M496 705h71q-15 -63 -50 -90.5t-75 -27.5q-34 0 -63 21t-49 21q-15 0 -26 -11t-15 -29h-71q14 61 49.5 88.5t74.5 27.5q34 0 63 -21.5t49 -21.5q15 0 26 12t16 31zM327 510q103 0 154.5 -55t28.5 -152l-70 -303h-99l12 54q-75 -68 -180 -68q-75 0 -118.5 35.5t-43.5 97.5
q0 76 64.5 127t176.5 51h157l4 18q11 48 -14.5 77t-80.5 29q-48 0 -87.5 -23.5t-57.5 -64.5l-93 25q29 68 97 110t150 42zM206 70q61 0 112.5 35t65.5 85l7 27h-162q-52 0 -83.5 -23.5t-31.5 -58.5q0 -30 25 -47.5t67 -17.5z" />
    <glyph glyph-name="l.ss02" horiz-adv-x="320" 
d="M280 720l-134 -578q-15 -58 41 -58q26 0 65 16l15 -91q-49 -23 -102 -23q-67 0 -103 44.5t-19 119.5l132 570h105z" />
    <glyph glyph-name="lacute.ss02" horiz-adv-x="320" 
d="M294 791h-96l106 142h130zM280 720l-134 -578q-15 -58 41 -58q26 0 65 16l15 -91q-49 -23 -102 -23q-67 0 -103 44.5t-19 119.5l132 570h105z" />
    <glyph glyph-name="lcaron.ss02" horiz-adv-x="320" 
d="M280 720l-134 -578q-15 -58 41 -58q26 0 65 16l15 -91q-49 -23 -102 -23q-67 0 -103 44.5t-19 119.5l132 570h105zM376 534h-82l43 186h105z" />
    <glyph glyph-name="lcommaaccent.ss02" horiz-adv-x="320" 
d="M280 720l-134 -578q-15 -58 41 -58q26 0 65 16l15 -91q-49 -23 -102 -23q-67 0 -103 44.5t-19 119.5l132 570h105zM-18 -191l83 146h114l-117 -146h-80z" />
    <glyph glyph-name="ldot.ss02" horiz-adv-x="382" 
d="M287 720l-134 -578q-15 -58 41 -58q25 0 66 16l14 -91q-49 -23 -102 -23q-67 0 -103 44.5t-19 119.5l133 570h104zM357 408q27 0 46 -18.5t19 -44.5q0 -27 -18.5 -45t-46.5 -18t-46 18t-18 45q0 26 18.5 44.5t45.5 18.5z" />
    <glyph glyph-name="lslash.ss02" horiz-adv-x="358" 
d="M225 325l-42 -183q-15 -58 41 -58q25 0 66 16l14 -91q-49 -23 -102 -23q-67 0 -103 44.5t-19 119.5l26 112l-76 -40l24 101l76 40l83 357h104l-68 -295l90 48l-24 -101z" />
    <glyph glyph-name="k.ss03" horiz-adv-x="606" 
d="M381 302l165 -302h-119l-126 233l-151 -131l-24 -102h-104l166 720h105l-108 -466l285 242h136z" />
    <glyph glyph-name="kcommaaccent.ss03" horiz-adv-x="606" 
d="M381 302l165 -302h-119l-126 233l-151 -131l-24 -102h-104l166 720h105l-108 -466l285 242h136zM205 -45h114l-117 -146h-79z" />
    <glyph glyph-name="f_j" horiz-adv-x="662" 
d="M635 496l-127 -552q-14 -60 -60 -97t-107 -37q-48 0 -86 18l40 91q24 -11 44 -11q25 0 44 14t24 36l103 452h-267l-95 -410h-104l95 410h-81l20 86h80l14 59q19 83 80.5 131.5t145.5 48.5q48 0 86 -21l-43 -84q-27 12 -57 12q-40 0 -69 -23t-39 -64l-14 -59h373zM614 710
q28 0 47 -19t19 -46q0 -28 -18.5 -46t-47.5 -18t-47.5 18t-18.5 46q0 27 18.5 46t47.5 19z" />
    <glyph glyph-name="f_t" horiz-adv-x="771" 
d="M595 410l-54 -234q-22 -92 49 -92q45 0 94 27l8 -91q-63 -34 -125 -34q-80 0 -116 46.5t-16 136.5l56 241h-248l-95 -410h-105l95 410h-80l20 86h80l14 59q19 83 80.5 131.5t145.5 48.5q48 0 86 -21l-43 -84q-27 12 -57 12q-40 0 -69 -23t-39 -64l-14 -59h248l36 154h104
l-35 -154h170l-20 -86h-170z" />
    <glyph glyph-name="fl.ss02" horiz-adv-x="684" 
d="M243 410l-95 -410h-104l95 410h-81l20 86h80l14 59q20 86 77 133t139 47q50 0 81 -18l-21 -83q-32 8 -66 8q-39 0 -67.5 -23.5t-38.5 -63.5l-14 -59h166l-20 -86h-165zM550 84q25 0 66 16l14 -91q-49 -23 -102 -23q-67 0 -103 44.5t-19 119.5l133 570h104l-134 -578
q-15 -58 41 -58z" />
    <glyph glyph-name="zero.tf" 
d="M383 684q124 0 184.5 -96.5t33.5 -252.5t-119 -252.5t-215 -96.5q-124 0 -184.5 96.5t-33.5 252.5q26 156 118 252.5t216 96.5zM279 85q76 0 135 69.5t78 180.5q20 113 -13 181.5t-108 68.5q-76 0 -135 -69.5t-78 -180.5q-20 -112 13 -181t108 -69z" />
    <glyph glyph-name="one.tf" 
d="M514 97l-22 -97h-471l22 97h193l102 438l-192 -98l26 113l235 120h66l-132 -573h173z" />
    <glyph glyph-name="two.tf" 
d="M231 97h281l-24 -97h-460l21 69l283 224q39 30 53.5 42t41.5 39.5t37.5 53.5t10.5 56q0 48 -30.5 77.5t-82.5 29.5q-56 0 -92.5 -36t-46.5 -105l-100 20q13 98 80.5 156t166.5 58q94 0 150 -52.5t56 -140.5q0 -72 -42.5 -131.5t-141.5 -136.5z" />
    <glyph glyph-name="three.tf" 
d="M586 509q0 -62 -35.5 -108.5t-95.5 -67.5q73 -44 73 -133q0 -88 -71 -151t-183 -63q-107 0 -171 59t-60 156l96 21q-1 -65 34.5 -104t101.5 -39q65 0 107 37t42 89q0 44 -31 69t-83 25h-81l25 86h76q67 0 113 30t46 83q0 44 -31 70t-83 26q-56 0 -95.5 -33t-51.5 -99
l-96 18q17 94 84 149t165 55q93 0 149 -48t56 -127z" />
    <glyph glyph-name="four.tf" 
d="M480 236h86l-20 -88h-86l-34 -148h-105l34 148h-341l23 100l403 422h140zM375 236l74 322l-305 -322h231z" />
    <glyph glyph-name="five.tf" 
d="M253 573l-45 -156h105q98 0 156.5 -48t58.5 -138q0 -102 -73 -173.5t-191 -71.5q-111 0 -177.5 64.5t-62.5 169.5l100 19q-1 -74 37.5 -117.5t108.5 -43.5q68 0 110 40.5t42 98.5q0 51 -35.5 79.5t-94.5 28.5h-210l97 345h424l-23 -97h-327z" />
    <glyph glyph-name="six.tf" 
d="M350 434q92 0 149 -56t57 -144q0 -104 -75 -176t-187 -72q-111 0 -176 73t-65 194q0 188 101.5 309.5t249.5 121.5q83 0 141.5 -40t69.5 -113l-100 -20q-6 38 -37.5 58.5t-78.5 20.5q-89 0 -155 -69t-81 -168q32 38 81.5 59.5t105.5 21.5zM298 82q62 0 105.5 42.5
t43.5 103.5q0 52 -34.5 84.5t-86.5 32.5q-60 0 -105 -43t-45 -101q0 -53 35.5 -86t86.5 -33z" />
    <glyph glyph-name="seven.tf" 
d="M666 670l-17 -76l-429 -594h-129l418 573h-377l23 97h511z" />
    <glyph glyph-name="eight.tf" 
d="M372 684q102 0 162.5 -48t58.5 -128q-1 -63 -40.5 -111t-114.5 -65q50 -22 76.5 -61t26.5 -87q0 -86 -72.5 -142t-187.5 -56q-111 0 -178 51.5t-65 134.5q1 63 49 112.5t133 64.5q-92 43 -92 146q0 84 67.5 136.5t176.5 52.5zM354 393q58 0 95.5 29t37.5 78
q0 45 -34.5 71t-86.5 26q-55 0 -93 -28.5t-39 -77.5q-1 -45 32.5 -71.5t87.5 -26.5zM283 77q61 0 101.5 30.5t40.5 83.5q0 47 -35 74.5t-92 27.5q-61 0 -101.5 -30.5t-40.5 -83.5q0 -48 35.5 -75t91.5 -27z" />
    <glyph glyph-name="nine.tf" 
d="M354 683q111 0 176 -73.5t65 -193.5q0 -188 -101.5 -309.5t-249.5 -121.5q-83 0 -142 40.5t-70 112.5l100 20q7 -38 38.5 -58t78.5 -20q89 0 155 69t80 168q-67 -81 -186 -81q-92 0 -149 55.5t-57 143.5q0 105 74.5 176.5t187.5 71.5zM322 324q59 0 104.5 43t45.5 101
q0 53 -35.5 86t-87.5 33q-61 0 -105 -42.5t-44 -103.5q0 -51 35 -84t87 -33z" />
    <glyph glyph-name="zero.zero.tf" 
d="M383 684q124 0 184.5 -96.5t33.5 -252.5t-119 -252.5t-215 -96.5q-124 0 -184.5 96.5t-33.5 252.5q26 156 118 252.5t216 96.5zM371 585q-76 0 -135 -69.5t-78 -180.5q-9 -43 -7 -85l322 278q-35 57 -102 57zM279 85q76 0 135 69.5t78 180.5q10 58 7 99l-327 -281
q33 -68 107 -68z" />
    <glyph glyph-name="zero.zero" horiz-adv-x="663" 
d="M401 684q128 0 195.5 -97.5t39.5 -251.5q-30 -159 -118 -254t-213 -95q-128 0 -195.5 97.5t-39.5 251.5q30 159 118 254t213 95zM179 335q-10 -51 -7 -97l335 288q-36 59 -109 59q-78 0 -138 -69t-81 -181zM527 335q10 52 7 99l-335 -289q36 -60 109 -60q78 0 138 69
t81 181z" />
    <glyph glyph-name="zero.dnom" horiz-adv-x="400" 
d="M215 379q73 0 109 -53t22 -141q-13 -89 -66 -142t-126 -53t-109.5 53t-22.5 142q14 88 66.5 141t126.5 53zM162 58q36 0 63.5 33t37.5 94q9 58 -7 91t-53 33q-38 0 -64.5 -33.5t-35.5 -90.5q-10 -59 6.5 -93t52.5 -34z" />
    <glyph glyph-name="one.dnom" horiz-adv-x="246" 
d="M124 0h-77l64 278l-98 -46l18 79l129 64h50z" />
    <glyph glyph-name="two.dnom" horiz-adv-x="347" 
d="M120 67h150l-13 -67h-279l13 51l161 118q45 34 64.5 55.5t19.5 44.5t-15 36.5t-40 13.5q-32 0 -52 -21t-24 -57l-68 11q3 59 45.5 95t103.5 36q56 0 88 -31t32 -80q0 -41 -25.5 -72t-87.5 -78z" />
    <glyph glyph-name="three.dnom" horiz-adv-x="352" 
d="M197 383q57 0 91 -29t32 -75q-1 -68 -74 -93q44 -22 42 -74q-2 -55 -45.5 -90.5t-110.5 -35.5q-63 0 -100.5 35t-35.5 92l67 14q-1 -36 20 -57t56 -21q34 0 56 17.5t22 44.5q0 50 -62 50h-42l14 55h40q34 0 58 14.5t24 41.5q1 23 -14.5 37t-44.5 14q-31 0 -54 -22
t-29 -57l-64 14q8 55 50.5 90t103.5 35z" />
    <glyph glyph-name="four.dnom" horiz-adv-x="389" 
d="M325 76h-59l-17 -77h-72l18 77h-210l16 70l244 228h89l-53 -235h57zM209 139l35 154l-167 -154h132z" />
    <glyph glyph-name="five.dnom" horiz-adv-x="349" 
d="M129 304l-16 -68h60q53 0 86 -29.5t33 -78.5q0 -62 -44 -100t-115 -38q-60 0 -99 32t-41 79l74 13q4 -27 23 -43t48 -16q36 0 58 18.5t22 49.5q0 23 -16 36.5t-43 13.5h-132l50 199h253l-14 -68h-187z" />
    <glyph glyph-name="six.dnom" horiz-adv-x="361" 
d="M185 242q54 0 86 -31t32 -82q0 -61 -43.5 -100.5t-109.5 -39.5t-103 42.5t-37 119.5q0 97 54 162t137 65q52 0 89 -26t41 -74l-75 -12q-4 49 -59 49q-39 0 -67 -29.5t-38 -73.5q38 30 93 30zM154 51q33 0 55 22t22 53q0 26 -17.5 44t-45.5 18q-33 0 -55.5 -22.5
t-22.5 -52.5q0 -27 18 -44.5t46 -17.5z" />
    <glyph glyph-name="seven.dnom" horiz-adv-x="295" 
d="M314 374l-13 -59l-218 -316h-87l215 307h-187l16 68h274z" />
    <glyph glyph-name="eight.dnom" horiz-adv-x="351" 
d="M316 278q0 -35 -21 -61.5t-60 -37.5q53 -27 53 -83q0 -50 -42 -81.5t-108 -31.5q-64 0 -102.5 29.5t-37.5 77.5q1 34 27 62t70 38q-47 27 -47 81q0 48 39 77.5t101 29.5q59 0 94 -27t34 -73zM178 218q30 0 49 15t19 40q0 24 -17 37t-44 13q-29 0 -47 -14t-19 -40
q-1 -24 15.5 -37.5t43.5 -13.5zM139 42q31 0 52 15.5t21 42.5q0 25 -18 39t-47 14q-31 0 -51.5 -16t-20.5 -44q0 -24 17.5 -37.5t46.5 -13.5z" />
    <glyph glyph-name="nine.dnom" horiz-adv-x="362" 
d="M181 378q66 0 102.5 -42t36.5 -119q0 -97 -54 -162.5t-136 -65.5q-52 0 -89 26.5t-42 74.5l76 11q4 -49 58 -49q40 0 68 29.5t38 73.5q-38 -30 -93 -30q-54 0 -86 31.5t-32 82.5q0 61 43.5 100t109.5 39zM163 180q33 0 55.5 22.5t22.5 52.5q0 27 -18.5 44.5t-46.5 17.5
q-32 0 -54.5 -22t-22.5 -53q0 -27 17.5 -44.5t46.5 -17.5z" />
    <glyph glyph-name="zero.numr" horiz-adv-x="400" 
d="M285 680q73 0 109 -53t22 -141q-13 -89 -66 -142t-126 -53t-109.5 53t-22.5 142q14 88 66.5 141t126.5 53zM232 359q36 0 63.5 33t37.5 94q9 58 -7 91t-53 33q-38 0 -64.5 -33.5t-35.5 -90.5q-10 -59 6.5 -93t52.5 -34z" />
    <glyph glyph-name="one.numr" horiz-adv-x="246" 
d="M192 295h-77l64 278l-98 -46l18 79l129 64h50z" />
    <glyph glyph-name="two.numr" horiz-adv-x="347" 
d="M189 364h150l-13 -67h-279l13 51l161 118q45 34 64.5 55.5t19.5 44.5q0 22 -15 36t-40 14q-32 0 -52 -21t-24 -57l-68 11q3 59 45.5 95t103.5 36q56 0 88 -31t32 -80q0 -41 -25.5 -72t-87.5 -78z" />
    <glyph glyph-name="three.numr" horiz-adv-x="352" 
d="M267 685q57 0 91 -29t32 -75q-1 -68 -74 -93q44 -22 42 -74q-2 -55 -45.5 -90t-110.5 -35q-63 0 -100.5 34.5t-35.5 91.5l67 14q-1 -36 20 -57t56 -21q34 0 56 17.5t22 44.5q0 50 -62 50h-42l14 55h40q34 0 58 14.5t24 41.5q1 23 -14.5 37t-44.5 14q-31 0 -54 -22
t-29 -57l-64 14q8 55 50.5 90t103.5 35z" />
    <glyph glyph-name="four.numr" horiz-adv-x="389" 
d="M393 372h-59l-17 -76h-72l17 76h-209l16 70l244 228h89l-53 -235h57zM277 435l35 154l-167 -154h132z" />
    <glyph glyph-name="five.numr" horiz-adv-x="349" 
d="M198 602l-16 -68h60q53 0 86 -29.5t33 -78.5q0 -62 -44 -100t-115 -38q-60 0 -98.5 32t-41.5 79l74 13q4 -27 23 -43t48 -16q36 0 58 18.5t22 49.5q0 23 -16 36.5t-43 13.5h-132l50 199h253l-14 -68h-187z" />
    <glyph glyph-name="six.numr" horiz-adv-x="361" 
d="M255 544q54 0 86 -31t32 -82q0 -61 -43.5 -100t-109.5 -39t-103 42t-37 119q0 97 54 162t137 65q52 0 89 -26t41 -74l-75 -12q-4 49 -59 49q-39 0 -67 -29.5t-38 -73.5q38 30 93 30zM224 353q33 0 55 22t22 53q0 26 -17.5 44t-45.5 18q-33 0 -55.5 -22.5t-22.5 -52.5
q0 -27 18 -44.5t46 -17.5z" />
    <glyph glyph-name="seven.numr" horiz-adv-x="295" 
d="M382 670l-13 -59l-218 -315h-87l215 306h-187l16 68h274z" />
    <glyph glyph-name="eight.numr" horiz-adv-x="351" 
d="M383 580q0 -35 -21 -61.5t-60 -37.5q53 -27 53 -83q0 -50 -42 -81.5t-108 -31.5q-64 0 -102.5 29.5t-37.5 77.5q1 34 27 62t70 38q-47 27 -47 81q0 48 39 77.5t101 29.5q59 0 94 -27t34 -73zM245 520q30 0 49 15t19 40q0 24 -17 37t-44 13q-29 0 -47 -14t-19 -40
q-1 -24 15.5 -37.5t43.5 -13.5zM206 344q31 0 52 15.5t21 42.5q0 25 -18 39t-47 14q-31 0 -51.5 -16t-20.5 -44q0 -24 17.5 -37.5t46.5 -13.5z" />
    <glyph glyph-name="nine.numr" horiz-adv-x="362" 
d="M251 680q66 0 102.5 -42t36.5 -119q0 -97 -53.5 -162t-136.5 -65q-52 0 -89 26t-42 74l76 11q4 -49 58 -49q40 0 68 29.5t38 73.5q-38 -30 -93 -30q-54 0 -86 31.5t-32 82.5q0 61 43.5 100t109.5 39zM233 482q33 0 55.5 22.5t22.5 52.5q0 27 -18.5 44.5t-46.5 17.5
q-32 0 -54.5 -22t-22.5 -53q0 -27 17.5 -44.5t46.5 -17.5z" />
    <glyph glyph-name="backslash.case" horiz-adv-x="396" 
d="M312 0h-103l-85 670h103z" />
    <glyph glyph-name="periodcentered.case" horiz-adv-x="225" 
d="M130 389q28 0 47 -18.5t19 -44.5q0 -27 -19 -45t-47 -18t-46.5 18t-18.5 45q0 26 18.5 44.5t46.5 18.5z" />
    <glyph glyph-name="bullet.case" horiz-adv-x="418" 
d="M228 484q68 0 114 -46t46 -109q0 -66 -45.5 -110t-114.5 -44t-114.5 44t-45.5 110q0 63 46 109t114 46z" />
    <glyph glyph-name="colon.case" horiz-adv-x="226" 
d="M168 548q28 0 46.5 -18.5t18.5 -44.5q0 -27 -18.5 -45t-46.5 -18t-47 18t-19 45q0 26 19 44.5t47 18.5zM92 221q28 0 47 -19t19 -45q0 -27 -19 -45t-47 -18t-46.5 18t-18.5 45q0 26 18.5 45t46.5 19z" />
    <glyph glyph-name="exclamdown.case" horiz-adv-x="282" 
d="M225 547q-28 0 -46.5 19t-18.5 45q0 27 18.5 45t46.5 18t47 -18.5t19 -44.5t-19 -45t-47 -19zM31 0l7 31l103 430h107l-96 -430l-7 -31h-114z" />
    <glyph glyph-name="questiondown.case" horiz-adv-x="527" 
d="M354 550q-28 0 -46.5 18.5t-18.5 44.5q0 27 18.5 45t46.5 18t47 -18t19 -45q0 -26 -19 -44.5t-47 -18.5zM390 218l98 -19q-13 -90 -85 -150t-174 -60q-94 0 -154 51.5t-60 134.5q0 92 71.5 152t174.5 67l16 65h96l-35 -146h-59q-58 0 -110 -35.5t-52 -93.5
q0 -46 32.5 -74t84.5 -28q60 0 102.5 38t53.5 98z" />
    <glyph glyph-name="semicolon.case" horiz-adv-x="254" 
d="M180 548q28 0 47 -18.5t19 -44.5q0 -27 -19 -45t-47 -18t-46.5 18t-18.5 45q0 26 18.5 44.5t46.5 18.5zM19 -132h-84l125 266h125l-1 -3z" />
    <glyph glyph-name="slash.case" horiz-adv-x="443" 
d="M64 0h-94l408 670h94z" />
    <glyph glyph-name="braceleft.case" horiz-adv-x="428" 
d="M478 670l-21 -88h-94q-21 0 -37.5 -14t-21.5 -36l-21 -89q-19 -85 -92 -110q61 -29 42 -109l-20 -86q-5 -22 5 -36t31 -14h94l-20 -88h-107q-61 0 -90 35t-16 93l19 84q13 58 -60 75l-25 8l18 78l29 8q81 15 95 74l20 87q13 58 58.5 93t106.5 35h107z" />
    <glyph glyph-name="braceright.case" horiz-adv-x="458" 
d="M425 376l-19 -79l-28 -7q-82 -17 -95 -75l-20 -87q-13 -58 -58.5 -93t-106.5 -35h-107l21 88h94q21 0 37 13.5t21 36.5l21 89q20 85 94 110q-62 29 -43 110l19 85q6 23 -4.5 36.5t-31.5 13.5h-94l21 88h107q61 0 89.5 -35t15.5 -93l-19 -83q-13 -59 60 -76z" />
    <glyph glyph-name="bracketleft.case" horiz-adv-x="399" 
d="M256 580l-112 -490h171l-21 -90h-272l154 670h272l-21 -90h-171z" />
    <glyph glyph-name="bracketright.case" horiz-adv-x="399" 
d="M417 670l-154 -670h-272l21 90h171l112 490h-171l21 90h272z" />
    <glyph glyph-name="parenleft.case" horiz-adv-x="352" 
d="M295 684l70 -71q-84 -62 -127.5 -128.5t-57.5 -150.5q-25 -156 87 -286l-83 -63q-149 149 -116 349q33 206 227 350z" />
    <glyph glyph-name="parenright.case" horiz-adv-x="353" 
d="M125 621l84 63q148 -147 115 -349q-31 -202 -226 -350l-71 71q85 62 128.5 129t56.5 150q13 82 -7.5 150t-79.5 136z" />
    <glyph glyph-name="emdash.case" horiz-adv-x="1040" 
d="M991 291h-920l18 80h920z" />
    <glyph glyph-name="endash.case" horiz-adv-x="620" 
d="M570 291h-500l18 80h500z" />
    <glyph glyph-name="hyphen.case" horiz-adv-x="447" 
d="M394 286h-325l21 91h325z" />
    <glyph glyph-name="guillemotleft.case" horiz-adv-x="443" 
d="M57 322l158 178h104l-165 -183l75 -173h-96zM230 322l158 178h104l-165 -183l75 -173h-96z" />
    <glyph glyph-name="guillemotright.case" horiz-adv-x="443" 
d="M251 322l-158 -178h-105l165 183l-75 173h97zM423 322l-158 -178h-105l165 183l-75 173h97z" />
    <glyph glyph-name="guilsinglleft.case" horiz-adv-x="271" 
d="M43 322l158 178h104l-165 -183l75 -173h-96z" />
    <glyph glyph-name="guilsinglright.case" horiz-adv-x="271" 
d="M264 322l-158 -178h-104l165 183l-76 173h97z" />
    <glyph glyph-name="cent.tf" 
d="M373 409l-75 -326q95 10 136 98l99 -18q-32 -78 -101 -126.5t-151 -50.5l-28 -116h-88l29 127q-81 23 -123.5 90.5t-27.5 160.5q17 105 94 176.5t176 83.5l28 122h88l-29 -126q65 -14 108.5 -58.5t52.5 -109.5l-107 -21q-6 74 -81 94zM144 248q-8 -56 12.5 -96.5
t62.5 -58.5l74 317q-57 -13 -98 -56.5t-51 -105.5z" />
    <glyph glyph-name="dollar.tf" 
d="M364 378l20 -7q70 -27 105 -62.5t35 -95.5q0 -85 -67 -138.5t-174 -55.5l-28 -119h-88l30 127q-69 16 -113 60t-50 115l106 21q9 -80 83 -104l44 189q-33 12 -54 22.5t-44 28t-34 42.5t-11 58q0 79 61.5 132t157.5 61l28 118h88l-29 -122q70 -13 110 -57t48 -112
l-101 -22q-6 79 -80 101zM229 471q0 -23 13.5 -37.5t47.5 -27.5l37 157q-44 -7 -71 -32.5t-27 -59.5zM342 282l-41 -173q59 2 91 28t32 67q0 26 -16 42.5t-56 31.5z" />
    <glyph glyph-name="Euro.tf" 
d="M313 87q102 0 170 147l104 -20q-41 -104 -118.5 -166t-171.5 -62q-95 0 -153.5 62.5t-65.5 174.5h-64l17 77h48q1 32 8 67h-40l17 76h42q38 114 118.5 177.5t185.5 63.5q95 0 152 -63t65 -170l-110 -18q-6 73 -39 112t-84 39q-58 0 -103.5 -36.5t-72.5 -104.5h223
l-30 -76h-215q-4 -23 -8 -67h195l-29 -77h-165q8 -66 40.5 -101t83.5 -35z" />
    <glyph glyph-name="florin.tf" 
d="M566 683q80 0 123 -36l-55 -84q-30 28 -78 28q-41 0 -73.5 -25t-51.5 -71l-50 -121h167l-19 -86h-184l-123 -298q-64 -155 -208 -155q-59 0 -94 26l54 84q24 -12 53 -12t54 16.5t35 40.5l123 298h-112l19 86h129l56 136q35 84 96 128.5t139 44.5z" />
    <glyph glyph-name="sterling.tf" 
d="M626 455l-98 -12q11 66 -15 106t-81 40q-61 0 -105 -38.5t-58 -96.5l-23 -102h202l-22 -97h-203l-36 -158h358l-22 -97h-551l15 66l90 21l39 168h-85l22 97h85l24 102q24 104 98.5 167t177.5 63q102 0 154 -63.5t34 -165.5z" />
    <glyph glyph-name="yen.tf" 
d="M415 326h130l-19 -80h-169l-14 -63h169l-19 -80h-168l-24 -103h-107l24 103h-164l18 80h164l14 63h-164l19 80h124l-117 344h113l98 -316l243 316h129z" />
    <glyph glyph-name="approxequal.tf" 
d="M575 444l-21 -88q-43 -20 -105 -20q-52 0 -113 24.5t-109 24.5q-80 0 -123 -31l20 87q46 31 122 31q50 0 114 -24.5t111 -24.5q63 0 104 21zM539 292l-20 -88q-45 -21 -105 -21q-52 0 -113 25t-110 25q-79 0 -122 -31l20 87q46 31 122 31q50 0 113.5 -24.5t111.5 -24.5
q65 0 103 21z" />
    <glyph glyph-name="divide.tf" 
d="M351 546q28 0 47 -19t19 -45t-19 -44.5t-47 -18.5t-46.5 18t-18.5 45q0 26 18.5 45t46.5 19zM535 259h-450l22 92h450zM269 192q28 0 47 -19t19 -45q0 -27 -19 -45t-47 -18t-46.5 18t-18.5 45q0 26 18.5 45t46.5 19z" />
    <glyph glyph-name="equal.tf" 
d="M557 371h-450l21 91h450zM512 178h-450l22 91h450z" />
    <glyph glyph-name="greater.tf" 
d="M398 329l-228 94l25 105l338 -152l-25 -108l-408 -150l26 115z" />
    <glyph glyph-name="greaterequal.tf" 
d="M406 385l-224 71l24 100l325 -128l-22 -99l-385 -128l24 111zM451 86h-354l22 91h354z" />
    <glyph glyph-name="less.tf" 
d="M234 317l229 -94l-25 -105l-338 152l25 108l407 150l-25 -114z" />
    <glyph glyph-name="lessequal.tf" 
d="M252 369l224 -70l-22 -99l-325 128l23 99l385 127l-27 -112zM99 177h354l-21 -91h-354z" />
    <glyph glyph-name="minus.tf" 
d="M533 259h-450l22 92h450z" />
    <glyph glyph-name="multiply.tf" 
d="M378 301l108 -136l-72 -59l-108 137l-177 -141l-51 68l175 140l-107 136l72 58l107 -136l177 142l52 -68z" />
    <glyph glyph-name="notequal.tf" 
d="M402 371l-82 -102h214l-22 -91h-265l-64 -80h-95l64 80h-90l22 91h142l82 102h-201l21 91h253l67 83h94l-67 -83h103l-21 -91h-155z" />
    <glyph glyph-name="plus.tf" 
d="M533 259h-179l-42 -182h-92l42 182h-179l22 92h178l42 182h92l-42 -182h180z" />
    <glyph glyph-name="plusminus.tf" 
d="M571 420l-21 -91h-179l-37 -157h-92l36 157h-178l21 91h178l40 172h93l-40 -172h179zM45 91h450l-22 -91h-450z" />
    <glyph glyph-name="bar.case" horiz-adv-x="259" 
d="M113 -41h-101l174 752h101z" />
    <glyph glyph-name="at.case" horiz-adv-x="951" 
d="M726 514l-66 -289q-7 -26 9.5 -42.5t44.5 -16.5q59 0 96.5 73t37.5 152q0 120 -82.5 195.5t-212.5 75.5q-171 0 -296 -116t-125 -281q0 -128 81 -210t208 -82q136 0 255 76l25 -56q-58 -39 -137 -61.5t-152 -22.5q-153 0 -251 96.5t-98 249.5q0 130 69.5 238.5t184 169.5
t246.5 61q155 0 254.5 -91t99.5 -233q0 -47 -13.5 -97t-39.5 -95t-71 -74t-101 -29q-90 0 -105 67q-63 -65 -160 -65q-76 0 -122.5 47t-46.5 125q0 106 72.5 174.5t168.5 68.5q102 0 140 -86l18 78h69zM449 177q60 0 107.5 45t47.5 115q0 52 -30.5 82.5t-77.5 30.5
q-60 0 -107.5 -44t-47.5 -114q0 -53 30.5 -84t77.5 -31z" />
    <glyph glyph-name="caron.alt" horiz-adv-x="600" 
d="M368 464h-82l43 186h105z" />
    </font>
</defs>
</svg>
